<?xml version="1.0" encoding="utf-8" standalone="no"?>
<!DOCTYPE svg PUBLIC "-//W3C//DTD SVG 1.1//EN"
  "http://www.w3.org/Graphics/SVG/1.1/DTD/svg11.dtd">
<!-- Created with matplotlib (https://matplotlib.org/) -->
<svg height="432pt" version="1.1" viewBox="0 0 720 432" width="720pt" xmlns="http://www.w3.org/2000/svg" xmlns:xlink="http://www.w3.org/1999/xlink">
 <defs>
  <style type="text/css">
*{stroke-linecap:butt;stroke-linejoin:round;}
  </style>
 </defs>
 <g id="figure_1">
  <g id="patch_1">
   <path d="M 0 432 
L 720 432 
L 720 0 
L 0 0 
z
" style="fill:#ffffff;"/>
  </g>
  <g id="axes_1">
   <g id="patch_2">
    <path d="M 73.977 353.052999 
L 490.668 353.052999 
L 490.668 20.352 
L 73.977 20.352 
z
" style="fill:#ffffff;"/>
   </g>
   <g id="matplotlib.axis_1">
    <g id="xtick_1">
     <g id="line2d_1">
      <defs>
       <path d="M 0 0 
L 0 4.8 
" id="m51bee73597" style="stroke:#262626;"/>
      </defs>
      <g>
       <use style="fill:#262626;stroke:#262626;" x="88.858821" xlink:href="#m51bee73597" y="353.052999"/>
      </g>
     </g>
     <g id="text_1">
      <!-- LLE -->
      <defs>
       <path d="M 9.8125 72.90625 
L 19.671875 72.90625 
L 19.671875 8.296875 
L 55.171875 8.296875 
L 55.171875 0 
L 9.8125 0 
z
" id="DejaVuSans-76"/>
       <path d="M 9.8125 72.90625 
L 55.90625 72.90625 
L 55.90625 64.59375 
L 19.671875 64.59375 
L 19.671875 43.015625 
L 54.390625 43.015625 
L 54.390625 34.71875 
L 19.671875 34.71875 
L 19.671875 8.296875 
L 56.78125 8.296875 
L 56.78125 0 
L 9.8125 0 
z
" id="DejaVuSans-69"/>
      </defs>
      <g style="fill:#262626;" transform="translate(83.270444 363.09468)rotate(-280)scale(0.132 -0.132)">
       <use xlink:href="#DejaVuSans-76"/>
       <use x="55.712891" xlink:href="#DejaVuSans-76"/>
       <use x="111.425781" xlink:href="#DejaVuSans-69"/>
      </g>
     </g>
    </g>
    <g id="xtick_2">
     <g id="line2d_2">
      <g>
       <use style="fill:#262626;stroke:#262626;" x="118.622464" xlink:href="#m51bee73597" y="353.052999"/>
      </g>
     </g>
     <g id="text_2">
      <!-- ED50 -->
      <defs>
       <path d="M 19.671875 64.796875 
L 19.671875 8.109375 
L 31.59375 8.109375 
Q 46.6875 8.109375 53.6875 14.9375 
Q 60.6875 21.78125 60.6875 36.53125 
Q 60.6875 51.171875 53.6875 57.984375 
Q 46.6875 64.796875 31.59375 64.796875 
z
M 9.8125 72.90625 
L 30.078125 72.90625 
Q 51.265625 72.90625 61.171875 64.09375 
Q 71.09375 55.28125 71.09375 36.53125 
Q 71.09375 17.671875 61.125 8.828125 
Q 51.171875 0 30.078125 0 
L 9.8125 0 
z
" id="DejaVuSans-68"/>
       <path d="M 10.796875 72.90625 
L 49.515625 72.90625 
L 49.515625 64.59375 
L 19.828125 64.59375 
L 19.828125 46.734375 
Q 21.96875 47.46875 24.109375 47.828125 
Q 26.265625 48.1875 28.421875 48.1875 
Q 40.625 48.1875 47.75 41.5 
Q 54.890625 34.8125 54.890625 23.390625 
Q 54.890625 11.625 47.5625 5.09375 
Q 40.234375 -1.421875 26.90625 -1.421875 
Q 22.3125 -1.421875 17.546875 -0.640625 
Q 12.796875 0.140625 7.71875 1.703125 
L 7.71875 11.625 
Q 12.109375 9.234375 16.796875 8.0625 
Q 21.484375 6.890625 26.703125 6.890625 
Q 35.15625 6.890625 40.078125 11.328125 
Q 45.015625 15.765625 45.015625 23.390625 
Q 45.015625 31 40.078125 35.4375 
Q 35.15625 39.890625 26.703125 39.890625 
Q 22.75 39.890625 18.8125 39.015625 
Q 14.890625 38.140625 10.796875 36.28125 
z
" id="DejaVuSans-53"/>
       <path d="M 31.78125 66.40625 
Q 24.171875 66.40625 20.328125 58.90625 
Q 16.5 51.421875 16.5 36.375 
Q 16.5 21.390625 20.328125 13.890625 
Q 24.171875 6.390625 31.78125 6.390625 
Q 39.453125 6.390625 43.28125 13.890625 
Q 47.125 21.390625 47.125 36.375 
Q 47.125 51.421875 43.28125 58.90625 
Q 39.453125 66.40625 31.78125 66.40625 
z
M 31.78125 74.21875 
Q 44.046875 74.21875 50.515625 64.515625 
Q 56.984375 54.828125 56.984375 36.375 
Q 56.984375 17.96875 50.515625 8.265625 
Q 44.046875 -1.421875 31.78125 -1.421875 
Q 19.53125 -1.421875 13.0625 8.265625 
Q 6.59375 17.96875 6.59375 36.375 
Q 6.59375 54.828125 13.0625 64.515625 
Q 19.53125 74.21875 31.78125 74.21875 
z
" id="DejaVuSans-48"/>
      </defs>
      <g style="fill:#262626;" transform="translate(111.970383 363.09468)rotate(-280)scale(0.132 -0.132)">
       <use xlink:href="#DejaVuSans-69"/>
       <use x="63.183594" xlink:href="#DejaVuSans-68"/>
       <use x="140.185547" xlink:href="#DejaVuSans-53"/>
       <use x="203.808594" xlink:href="#DejaVuSans-48"/>
      </g>
     </g>
    </g>
    <g id="xtick_3">
     <g id="line2d_3">
      <g>
       <use style="fill:#262626;stroke:#262626;" x="148.386107" xlink:href="#m51bee73597" y="353.052999"/>
      </g>
     </g>
     <g id="text_3">
      <!-- Ki -->
      <defs>
       <path d="M 9.8125 72.90625 
L 19.671875 72.90625 
L 19.671875 42.09375 
L 52.390625 72.90625 
L 65.09375 72.90625 
L 28.90625 38.921875 
L 67.671875 0 
L 54.6875 0 
L 19.671875 35.109375 
L 19.671875 0 
L 9.8125 0 
z
" id="DejaVuSans-75"/>
       <path d="M 9.421875 54.6875 
L 18.40625 54.6875 
L 18.40625 0 
L 9.421875 0 
z
M 9.421875 75.984375 
L 18.40625 75.984375 
L 18.40625 64.59375 
L 9.421875 64.59375 
z
" id="DejaVuSans-105"/>
      </defs>
      <g style="fill:#262626;" transform="translate(143.729097 363.09468)rotate(-280)scale(0.132 -0.132)">
       <use xlink:href="#DejaVuSans-75"/>
       <use x="65.576172" xlink:href="#DejaVuSans-105"/>
      </g>
     </g>
    </g>
    <g id="xtick_4">
     <g id="line2d_4">
      <g>
       <use style="fill:#262626;stroke:#262626;" x="178.14975" xlink:href="#m51bee73597" y="353.052999"/>
      </g>
     </g>
     <g id="text_4">
      <!-- EC50 -->
      <defs>
       <path d="M 64.40625 67.28125 
L 64.40625 56.890625 
Q 59.421875 61.53125 53.78125 63.8125 
Q 48.140625 66.109375 41.796875 66.109375 
Q 29.296875 66.109375 22.65625 58.46875 
Q 16.015625 50.828125 16.015625 36.375 
Q 16.015625 21.96875 22.65625 14.328125 
Q 29.296875 6.6875 41.796875 6.6875 
Q 48.140625 6.6875 53.78125 8.984375 
Q 59.421875 11.28125 64.40625 15.921875 
L 64.40625 5.609375 
Q 59.234375 2.09375 53.4375 0.328125 
Q 47.65625 -1.421875 41.21875 -1.421875 
Q 24.65625 -1.421875 15.125 8.703125 
Q 5.609375 18.84375 5.609375 36.375 
Q 5.609375 53.953125 15.125 64.078125 
Q 24.65625 74.21875 41.21875 74.21875 
Q 47.75 74.21875 53.53125 72.484375 
Q 59.328125 70.75 64.40625 67.28125 
z
" id="DejaVuSans-67"/>
      </defs>
      <g style="fill:#262626;" transform="translate(171.579864 363.09468)rotate(-280)scale(0.132 -0.132)">
       <use xlink:href="#DejaVuSans-69"/>
       <use x="63.183594" xlink:href="#DejaVuSans-67"/>
       <use x="133.007812" xlink:href="#DejaVuSans-53"/>
       <use x="196.630859" xlink:href="#DejaVuSans-48"/>
      </g>
     </g>
    </g>
    <g id="xtick_5">
     <g id="line2d_5">
      <g>
       <use style="fill:#262626;stroke:#262626;" x="207.913393" xlink:href="#m51bee73597" y="353.052999"/>
      </g>
     </g>
     <g id="text_5">
      <!-- SEI -->
      <defs>
       <path d="M 53.515625 70.515625 
L 53.515625 60.890625 
Q 47.90625 63.578125 42.921875 64.890625 
Q 37.9375 66.21875 33.296875 66.21875 
Q 25.25 66.21875 20.875 63.09375 
Q 16.5 59.96875 16.5 54.203125 
Q 16.5 49.359375 19.40625 46.890625 
Q 22.3125 44.4375 30.421875 42.921875 
L 36.375 41.703125 
Q 47.40625 39.59375 52.65625 34.296875 
Q 57.90625 29 57.90625 20.125 
Q 57.90625 9.515625 50.796875 4.046875 
Q 43.703125 -1.421875 29.984375 -1.421875 
Q 24.8125 -1.421875 18.96875 -0.25 
Q 13.140625 0.921875 6.890625 3.21875 
L 6.890625 13.375 
Q 12.890625 10.015625 18.65625 8.296875 
Q 24.421875 6.59375 29.984375 6.59375 
Q 38.421875 6.59375 43.015625 9.90625 
Q 47.609375 13.234375 47.609375 19.390625 
Q 47.609375 24.75 44.3125 27.78125 
Q 41.015625 30.8125 33.5 32.328125 
L 27.484375 33.5 
Q 16.453125 35.6875 11.515625 40.375 
Q 6.59375 45.0625 6.59375 53.421875 
Q 6.59375 63.09375 13.40625 68.65625 
Q 20.21875 74.21875 32.171875 74.21875 
Q 37.3125 74.21875 42.625 73.28125 
Q 47.953125 72.359375 53.515625 70.515625 
z
" id="DejaVuSans-83"/>
       <path d="M 9.8125 72.90625 
L 19.671875 72.90625 
L 19.671875 0 
L 9.8125 0 
z
" id="DejaVuSans-73"/>
      </defs>
      <g style="fill:#262626;" transform="translate(202.536502 363.09468)rotate(-280)scale(0.132 -0.132)">
       <use xlink:href="#DejaVuSans-83"/>
       <use x="63.476562" xlink:href="#DejaVuSans-69"/>
       <use x="126.660156" xlink:href="#DejaVuSans-73"/>
      </g>
     </g>
    </g>
    <g id="xtick_6">
     <g id="line2d_6">
      <g>
       <use style="fill:#262626;stroke:#262626;" x="237.677036" xlink:href="#m51bee73597" y="353.052999"/>
      </g>
     </g>
     <g id="text_6">
      <!-- GI50 -->
      <defs>
       <path d="M 59.515625 10.40625 
L 59.515625 29.984375 
L 43.40625 29.984375 
L 43.40625 38.09375 
L 69.28125 38.09375 
L 69.28125 6.78125 
Q 63.578125 2.734375 56.6875 0.65625 
Q 49.8125 -1.421875 42 -1.421875 
Q 24.90625 -1.421875 15.25 8.5625 
Q 5.609375 18.5625 5.609375 36.375 
Q 5.609375 54.25 15.25 64.234375 
Q 24.90625 74.21875 42 74.21875 
Q 49.125 74.21875 55.546875 72.453125 
Q 61.96875 70.703125 67.390625 67.28125 
L 67.390625 56.78125 
Q 61.921875 61.421875 55.765625 63.765625 
Q 49.609375 66.109375 42.828125 66.109375 
Q 29.4375 66.109375 22.71875 58.640625 
Q 16.015625 51.171875 16.015625 36.375 
Q 16.015625 21.625 22.71875 14.15625 
Q 29.4375 6.6875 42.828125 6.6875 
Q 48.046875 6.6875 52.140625 7.59375 
Q 56.25 8.5 59.515625 10.40625 
z
" id="DejaVuSans-71"/>
      </defs>
      <g style="fill:#262626;" transform="translate(231.405488 363.09468)rotate(-280)scale(0.132 -0.132)">
       <use xlink:href="#DejaVuSans-71"/>
       <use x="77.490234" xlink:href="#DejaVuSans-73"/>
       <use x="106.982422" xlink:href="#DejaVuSans-53"/>
       <use x="170.605469" xlink:href="#DejaVuSans-48"/>
      </g>
     </g>
    </g>
    <g id="xtick_7">
     <g id="line2d_7">
      <g>
       <use style="fill:#262626;stroke:#262626;" x="267.440679" xlink:href="#m51bee73597" y="353.052999"/>
      </g>
     </g>
     <g id="text_7">
      <!-- LE -->
      <g style="fill:#262626;" transform="translate(262.490881 363.09468)rotate(-280)scale(0.132 -0.132)">
       <use xlink:href="#DejaVuSans-76"/>
       <use x="55.712891" xlink:href="#DejaVuSans-69"/>
      </g>
     </g>
    </g>
    <g id="xtick_8">
     <g id="line2d_8">
      <g>
       <use style="fill:#262626;stroke:#262626;" x="297.204321" xlink:href="#m51bee73597" y="353.052999"/>
      </g>
     </g>
     <g id="text_8">
      <!-- MIC -->
      <defs>
       <path d="M 9.8125 72.90625 
L 24.515625 72.90625 
L 43.109375 23.296875 
L 61.8125 72.90625 
L 76.515625 72.90625 
L 76.515625 0 
L 66.890625 0 
L 66.890625 64.015625 
L 48.09375 14.015625 
L 38.1875 14.015625 
L 19.390625 64.015625 
L 19.390625 0 
L 9.8125 0 
z
" id="DejaVuSans-77"/>
      </defs>
      <g style="fill:#262626;" transform="translate(291.490054 363.09468)rotate(-280)scale(0.132 -0.132)">
       <use xlink:href="#DejaVuSans-77"/>
       <use x="86.279297" xlink:href="#DejaVuSans-73"/>
       <use x="115.771484" xlink:href="#DejaVuSans-67"/>
      </g>
     </g>
    </g>
    <g id="xtick_9">
     <g id="line2d_9">
      <g>
       <use style="fill:#262626;stroke:#262626;" x="326.967964" xlink:href="#m51bee73597" y="353.052999"/>
      </g>
     </g>
     <g id="text_9">
      <!-- IC50 -->
      <g style="fill:#262626;" transform="translate(320.784163 363.09468)rotate(-280)scale(0.132 -0.132)">
       <use xlink:href="#DejaVuSans-73"/>
       <use x="29.492188" xlink:href="#DejaVuSans-67"/>
       <use x="99.316406" xlink:href="#DejaVuSans-53"/>
       <use x="162.939453" xlink:href="#DejaVuSans-48"/>
      </g>
     </g>
    </g>
    <g id="xtick_10">
     <g id="line2d_10">
      <g>
       <use style="fill:#262626;stroke:#262626;" x="356.731607" xlink:href="#m51bee73597" y="353.052999"/>
      </g>
     </g>
     <g id="text_10">
      <!-- CC50 -->
      <g style="fill:#262626;" transform="translate(350.085614 363.09468)rotate(-280)scale(0.132 -0.132)">
       <use xlink:href="#DejaVuSans-67"/>
       <use x="69.824219" xlink:href="#DejaVuSans-67"/>
       <use x="139.648438" xlink:href="#DejaVuSans-53"/>
       <use x="203.271484" xlink:href="#DejaVuSans-48"/>
      </g>
     </g>
    </g>
    <g id="xtick_11">
     <g id="line2d_11">
      <g>
       <use style="fill:#262626;stroke:#262626;" x="386.49525" xlink:href="#m51bee73597" y="353.052999"/>
      </g>
     </g>
     <g id="text_11">
      <!-- BEI -->
      <defs>
       <path d="M 19.671875 34.8125 
L 19.671875 8.109375 
L 35.5 8.109375 
Q 43.453125 8.109375 47.28125 11.40625 
Q 51.125 14.703125 51.125 21.484375 
Q 51.125 28.328125 47.28125 31.5625 
Q 43.453125 34.8125 35.5 34.8125 
z
M 19.671875 64.796875 
L 19.671875 42.828125 
L 34.28125 42.828125 
Q 41.5 42.828125 45.03125 45.53125 
Q 48.578125 48.25 48.578125 53.8125 
Q 48.578125 59.328125 45.03125 62.0625 
Q 41.5 64.796875 34.28125 64.796875 
z
M 9.8125 72.90625 
L 35.015625 72.90625 
Q 46.296875 72.90625 52.390625 68.21875 
Q 58.5 63.53125 58.5 54.890625 
Q 58.5 48.1875 55.375 44.234375 
Q 52.25 40.28125 46.1875 39.3125 
Q 53.46875 37.75 57.5 32.78125 
Q 61.53125 27.828125 61.53125 20.40625 
Q 61.53125 10.640625 54.890625 5.3125 
Q 48.25 0 35.984375 0 
L 9.8125 0 
z
" id="DejaVuSans-66"/>
      </defs>
      <g style="fill:#262626;" transform="translate(381.059623 363.09468)rotate(-280)scale(0.132 -0.132)">
       <use xlink:href="#DejaVuSans-66"/>
       <use x="68.603516" xlink:href="#DejaVuSans-69"/>
       <use x="131.787109" xlink:href="#DejaVuSans-73"/>
      </g>
     </g>
    </g>
    <g id="xtick_12">
     <g id="line2d_12">
      <g>
       <use style="fill:#262626;stroke:#262626;" x="416.258893" xlink:href="#m51bee73597" y="353.052999"/>
      </g>
     </g>
     <g id="text_12">
      <!-- GI -->
      <g style="fill:#262626;" transform="translate(411.445729 363.09468)rotate(-280)scale(0.132 -0.132)">
       <use xlink:href="#DejaVuSans-71"/>
       <use x="77.490234" xlink:href="#DejaVuSans-73"/>
      </g>
     </g>
    </g>
    <g id="xtick_13">
     <g id="line2d_13">
      <g>
       <use style="fill:#262626;stroke:#262626;" x="446.022536" xlink:href="#m51bee73597" y="353.052999"/>
      </g>
     </g>
     <g id="text_13">
      <!-- Kd -->
      <defs>
       <path d="M 45.40625 46.390625 
L 45.40625 75.984375 
L 54.390625 75.984375 
L 54.390625 0 
L 45.40625 0 
L 45.40625 8.203125 
Q 42.578125 3.328125 38.25 0.953125 
Q 33.9375 -1.421875 27.875 -1.421875 
Q 17.96875 -1.421875 11.734375 6.484375 
Q 5.515625 14.40625 5.515625 27.296875 
Q 5.515625 40.1875 11.734375 48.09375 
Q 17.96875 56 27.875 56 
Q 33.9375 56 38.25 53.625 
Q 42.578125 51.265625 45.40625 46.390625 
z
M 14.796875 27.296875 
Q 14.796875 17.390625 18.875 11.75 
Q 22.953125 6.109375 30.078125 6.109375 
Q 37.203125 6.109375 41.296875 11.75 
Q 45.40625 17.390625 45.40625 27.296875 
Q 45.40625 37.203125 41.296875 42.84375 
Q 37.203125 48.484375 30.078125 48.484375 
Q 22.953125 48.484375 18.875 42.84375 
Q 14.796875 37.203125 14.796875 27.296875 
z
" id="DejaVuSans-100"/>
      </defs>
      <g style="fill:#262626;" transform="translate(440.95634 363.09468)rotate(-280)scale(0.132 -0.132)">
       <use xlink:href="#DejaVuSans-75"/>
       <use x="65.576172" xlink:href="#DejaVuSans-100"/>
      </g>
     </g>
    </g>
    <g id="xtick_14">
     <g id="line2d_14">
      <g>
       <use style="fill:#262626;stroke:#262626;" x="475.786179" xlink:href="#m51bee73597" y="353.052999"/>
      </g>
     </g>
     <g id="text_14">
      <!-- IZ -->
      <defs>
       <path d="M 5.609375 72.90625 
L 62.890625 72.90625 
L 62.890625 65.375 
L 16.796875 8.296875 
L 64.015625 8.296875 
L 64.015625 0 
L 4.5 0 
L 4.5 7.515625 
L 50.59375 64.59375 
L 5.609375 64.59375 
z
" id="DejaVuSans-90"/>
      </defs>
      <g style="fill:#262626;" transform="translate(471.075983 363.09468)rotate(-280)scale(0.132 -0.132)">
       <use xlink:href="#DejaVuSans-73"/>
       <use x="29.492188" xlink:href="#DejaVuSans-90"/>
      </g>
     </g>
    </g>
    <g id="text_15">
     <!-- Readouts -->
     <defs>
      <path d="M 44.390625 34.1875 
Q 47.5625 33.109375 50.5625 29.59375 
Q 53.5625 26.078125 56.59375 19.921875 
L 66.609375 0 
L 56 0 
L 46.6875 18.703125 
Q 43.0625 26.03125 39.671875 28.421875 
Q 36.28125 30.8125 30.421875 30.8125 
L 19.671875 30.8125 
L 19.671875 0 
L 9.8125 0 
L 9.8125 72.90625 
L 32.078125 72.90625 
Q 44.578125 72.90625 50.734375 67.671875 
Q 56.890625 62.453125 56.890625 51.90625 
Q 56.890625 45.015625 53.6875 40.46875 
Q 50.484375 35.9375 44.390625 34.1875 
z
M 19.671875 64.796875 
L 19.671875 38.921875 
L 32.078125 38.921875 
Q 39.203125 38.921875 42.84375 42.21875 
Q 46.484375 45.515625 46.484375 51.90625 
Q 46.484375 58.296875 42.84375 61.546875 
Q 39.203125 64.796875 32.078125 64.796875 
z
" id="DejaVuSans-82"/>
      <path d="M 56.203125 29.59375 
L 56.203125 25.203125 
L 14.890625 25.203125 
Q 15.484375 15.921875 20.484375 11.0625 
Q 25.484375 6.203125 34.421875 6.203125 
Q 39.59375 6.203125 44.453125 7.46875 
Q 49.3125 8.734375 54.109375 11.28125 
L 54.109375 2.78125 
Q 49.265625 0.734375 44.1875 -0.34375 
Q 39.109375 -1.421875 33.890625 -1.421875 
Q 20.796875 -1.421875 13.15625 6.1875 
Q 5.515625 13.8125 5.515625 26.8125 
Q 5.515625 40.234375 12.765625 48.109375 
Q 20.015625 56 32.328125 56 
Q 43.359375 56 49.78125 48.890625 
Q 56.203125 41.796875 56.203125 29.59375 
z
M 47.21875 32.234375 
Q 47.125 39.59375 43.09375 43.984375 
Q 39.0625 48.390625 32.421875 48.390625 
Q 24.90625 48.390625 20.390625 44.140625 
Q 15.875 39.890625 15.1875 32.171875 
z
" id="DejaVuSans-101"/>
      <path d="M 34.28125 27.484375 
Q 23.390625 27.484375 19.1875 25 
Q 14.984375 22.515625 14.984375 16.5 
Q 14.984375 11.71875 18.140625 8.90625 
Q 21.296875 6.109375 26.703125 6.109375 
Q 34.1875 6.109375 38.703125 11.40625 
Q 43.21875 16.703125 43.21875 25.484375 
L 43.21875 27.484375 
z
M 52.203125 31.203125 
L 52.203125 0 
L 43.21875 0 
L 43.21875 8.296875 
Q 40.140625 3.328125 35.546875 0.953125 
Q 30.953125 -1.421875 24.3125 -1.421875 
Q 15.921875 -1.421875 10.953125 3.296875 
Q 6 8.015625 6 15.921875 
Q 6 25.140625 12.171875 29.828125 
Q 18.359375 34.515625 30.609375 34.515625 
L 43.21875 34.515625 
L 43.21875 35.40625 
Q 43.21875 41.609375 39.140625 45 
Q 35.0625 48.390625 27.6875 48.390625 
Q 23 48.390625 18.546875 47.265625 
Q 14.109375 46.140625 10.015625 43.890625 
L 10.015625 52.203125 
Q 14.9375 54.109375 19.578125 55.046875 
Q 24.21875 56 28.609375 56 
Q 40.484375 56 46.34375 49.84375 
Q 52.203125 43.703125 52.203125 31.203125 
z
" id="DejaVuSans-97"/>
      <path d="M 30.609375 48.390625 
Q 23.390625 48.390625 19.1875 42.75 
Q 14.984375 37.109375 14.984375 27.296875 
Q 14.984375 17.484375 19.15625 11.84375 
Q 23.34375 6.203125 30.609375 6.203125 
Q 37.796875 6.203125 41.984375 11.859375 
Q 46.1875 17.53125 46.1875 27.296875 
Q 46.1875 37.015625 41.984375 42.703125 
Q 37.796875 48.390625 30.609375 48.390625 
z
M 30.609375 56 
Q 42.328125 56 49.015625 48.375 
Q 55.71875 40.765625 55.71875 27.296875 
Q 55.71875 13.875 49.015625 6.21875 
Q 42.328125 -1.421875 30.609375 -1.421875 
Q 18.84375 -1.421875 12.171875 6.21875 
Q 5.515625 13.875 5.515625 27.296875 
Q 5.515625 40.765625 12.171875 48.375 
Q 18.84375 56 30.609375 56 
z
" id="DejaVuSans-111"/>
      <path d="M 8.5 21.578125 
L 8.5 54.6875 
L 17.484375 54.6875 
L 17.484375 21.921875 
Q 17.484375 14.15625 20.5 10.265625 
Q 23.53125 6.390625 29.59375 6.390625 
Q 36.859375 6.390625 41.078125 11.03125 
Q 45.3125 15.671875 45.3125 23.6875 
L 45.3125 54.6875 
L 54.296875 54.6875 
L 54.296875 0 
L 45.3125 0 
L 45.3125 8.40625 
Q 42.046875 3.421875 37.71875 1 
Q 33.40625 -1.421875 27.6875 -1.421875 
Q 18.265625 -1.421875 13.375 4.4375 
Q 8.5 10.296875 8.5 21.578125 
z
M 31.109375 56 
z
" id="DejaVuSans-117"/>
      <path d="M 18.3125 70.21875 
L 18.3125 54.6875 
L 36.8125 54.6875 
L 36.8125 47.703125 
L 18.3125 47.703125 
L 18.3125 18.015625 
Q 18.3125 11.328125 20.140625 9.421875 
Q 21.96875 7.515625 27.59375 7.515625 
L 36.8125 7.515625 
L 36.8125 0 
L 27.59375 0 
Q 17.1875 0 13.234375 3.875 
Q 9.28125 7.765625 9.28125 18.015625 
L 9.28125 47.703125 
L 2.6875 47.703125 
L 2.6875 54.6875 
L 9.28125 54.6875 
L 9.28125 70.21875 
z
" id="DejaVuSans-116"/>
      <path d="M 44.28125 53.078125 
L 44.28125 44.578125 
Q 40.484375 46.53125 36.375 47.5 
Q 32.28125 48.484375 27.875 48.484375 
Q 21.1875 48.484375 17.84375 46.4375 
Q 14.5 44.390625 14.5 40.28125 
Q 14.5 37.15625 16.890625 35.375 
Q 19.28125 33.59375 26.515625 31.984375 
L 29.59375 31.296875 
Q 39.15625 29.25 43.1875 25.515625 
Q 47.21875 21.78125 47.21875 15.09375 
Q 47.21875 7.46875 41.1875 3.015625 
Q 35.15625 -1.421875 24.609375 -1.421875 
Q 20.21875 -1.421875 15.453125 -0.5625 
Q 10.6875 0.296875 5.421875 2 
L 5.421875 11.28125 
Q 10.40625 8.6875 15.234375 7.390625 
Q 20.0625 6.109375 24.8125 6.109375 
Q 31.15625 6.109375 34.5625 8.28125 
Q 37.984375 10.453125 37.984375 14.40625 
Q 37.984375 18.0625 35.515625 20.015625 
Q 33.0625 21.96875 24.703125 23.78125 
L 21.578125 24.515625 
Q 13.234375 26.265625 9.515625 29.90625 
Q 5.8125 33.546875 5.8125 39.890625 
Q 5.8125 47.609375 11.28125 51.796875 
Q 16.75 56 26.8125 56 
Q 31.78125 56 36.171875 55.265625 
Q 40.578125 54.546875 44.28125 53.078125 
z
" id="DejaVuSans-115"/>
     </defs>
     <g style="fill:#262626;" transform="translate(248.368875 413.278564)scale(0.144 -0.144)">
      <use xlink:href="#DejaVuSans-82"/>
      <use x="69.419922" xlink:href="#DejaVuSans-101"/>
      <use x="130.943359" xlink:href="#DejaVuSans-97"/>
      <use x="192.222656" xlink:href="#DejaVuSans-100"/>
      <use x="255.699219" xlink:href="#DejaVuSans-111"/>
      <use x="316.880859" xlink:href="#DejaVuSans-117"/>
      <use x="380.259766" xlink:href="#DejaVuSans-116"/>
      <use x="419.46875" xlink:href="#DejaVuSans-115"/>
     </g>
    </g>
   </g>
   <g id="matplotlib.axis_2">
    <g id="ytick_1">
     <g id="line2d_15">
      <defs>
       <path d="M 0 0 
L -4.8 0 
" id="mdbadc4903b" style="stroke:#262626;"/>
      </defs>
      <g>
       <use style="fill:#262626;stroke:#262626;" x="73.977" xlink:href="#mdbadc4903b" y="321.082778"/>
      </g>
     </g>
     <g id="text_16">
      <!-- −0.2 -->
      <defs>
       <path d="M 10.59375 35.5 
L 73.1875 35.5 
L 73.1875 27.203125 
L 10.59375 27.203125 
z
" id="DejaVuSans-8722"/>
       <path d="M 10.6875 12.40625 
L 21 12.40625 
L 21 0 
L 10.6875 0 
z
" id="DejaVuSans-46"/>
       <path d="M 19.1875 8.296875 
L 53.609375 8.296875 
L 53.609375 0 
L 7.328125 0 
L 7.328125 8.296875 
Q 12.9375 14.109375 22.625 23.890625 
Q 32.328125 33.6875 34.8125 36.53125 
Q 39.546875 41.84375 41.421875 45.53125 
Q 43.3125 49.21875 43.3125 52.78125 
Q 43.3125 58.59375 39.234375 62.25 
Q 35.15625 65.921875 28.609375 65.921875 
Q 23.96875 65.921875 18.8125 64.3125 
Q 13.671875 62.703125 7.8125 59.421875 
L 7.8125 69.390625 
Q 13.765625 71.78125 18.9375 73 
Q 24.125 74.21875 28.421875 74.21875 
Q 39.75 74.21875 46.484375 68.546875 
Q 53.21875 62.890625 53.21875 53.421875 
Q 53.21875 48.921875 51.53125 44.890625 
Q 49.859375 40.875 45.40625 35.40625 
Q 44.1875 33.984375 37.640625 27.21875 
Q 31.109375 20.453125 19.1875 8.296875 
z
" id="DejaVuSans-50"/>
      </defs>
      <g style="fill:#262626;" transform="translate(33.623688 326.097746)scale(0.132 -0.132)">
       <use xlink:href="#DejaVuSans-8722"/>
       <use x="83.789062" xlink:href="#DejaVuSans-48"/>
       <use x="147.412109" xlink:href="#DejaVuSans-46"/>
       <use x="179.199219" xlink:href="#DejaVuSans-50"/>
      </g>
     </g>
    </g>
    <g id="ytick_2">
     <g id="line2d_16">
      <g>
       <use style="fill:#262626;stroke:#262626;" x="73.977" xlink:href="#mdbadc4903b" y="269.869576"/>
      </g>
     </g>
     <g id="text_17">
      <!-- 0.0 -->
      <g style="fill:#262626;" transform="translate(44.684875 274.884545)scale(0.132 -0.132)">
       <use xlink:href="#DejaVuSans-48"/>
       <use x="63.623047" xlink:href="#DejaVuSans-46"/>
       <use x="95.410156" xlink:href="#DejaVuSans-48"/>
      </g>
     </g>
    </g>
    <g id="ytick_3">
     <g id="line2d_17">
      <g>
       <use style="fill:#262626;stroke:#262626;" x="73.977" xlink:href="#mdbadc4903b" y="218.656374"/>
      </g>
     </g>
     <g id="text_18">
      <!-- 0.2 -->
      <g style="fill:#262626;" transform="translate(44.684875 223.671343)scale(0.132 -0.132)">
       <use xlink:href="#DejaVuSans-48"/>
       <use x="63.623047" xlink:href="#DejaVuSans-46"/>
       <use x="95.410156" xlink:href="#DejaVuSans-50"/>
      </g>
     </g>
    </g>
    <g id="ytick_4">
     <g id="line2d_18">
      <g>
       <use style="fill:#262626;stroke:#262626;" x="73.977" xlink:href="#mdbadc4903b" y="167.443173"/>
      </g>
     </g>
     <g id="text_19">
      <!-- 0.4 -->
      <defs>
       <path d="M 37.796875 64.3125 
L 12.890625 25.390625 
L 37.796875 25.390625 
z
M 35.203125 72.90625 
L 47.609375 72.90625 
L 47.609375 25.390625 
L 58.015625 25.390625 
L 58.015625 17.1875 
L 47.609375 17.1875 
L 47.609375 0 
L 37.796875 0 
L 37.796875 17.1875 
L 4.890625 17.1875 
L 4.890625 26.703125 
z
" id="DejaVuSans-52"/>
      </defs>
      <g style="fill:#262626;" transform="translate(44.684875 172.458141)scale(0.132 -0.132)">
       <use xlink:href="#DejaVuSans-48"/>
       <use x="63.623047" xlink:href="#DejaVuSans-46"/>
       <use x="95.410156" xlink:href="#DejaVuSans-52"/>
      </g>
     </g>
    </g>
    <g id="ytick_5">
     <g id="line2d_19">
      <g>
       <use style="fill:#262626;stroke:#262626;" x="73.977" xlink:href="#mdbadc4903b" y="116.229971"/>
      </g>
     </g>
     <g id="text_20">
      <!-- 0.6 -->
      <defs>
       <path d="M 33.015625 40.375 
Q 26.375 40.375 22.484375 35.828125 
Q 18.609375 31.296875 18.609375 23.390625 
Q 18.609375 15.53125 22.484375 10.953125 
Q 26.375 6.390625 33.015625 6.390625 
Q 39.65625 6.390625 43.53125 10.953125 
Q 47.40625 15.53125 47.40625 23.390625 
Q 47.40625 31.296875 43.53125 35.828125 
Q 39.65625 40.375 33.015625 40.375 
z
M 52.59375 71.296875 
L 52.59375 62.3125 
Q 48.875 64.0625 45.09375 64.984375 
Q 41.3125 65.921875 37.59375 65.921875 
Q 27.828125 65.921875 22.671875 59.328125 
Q 17.53125 52.734375 16.796875 39.40625 
Q 19.671875 43.65625 24.015625 45.921875 
Q 28.375 48.1875 33.59375 48.1875 
Q 44.578125 48.1875 50.953125 41.515625 
Q 57.328125 34.859375 57.328125 23.390625 
Q 57.328125 12.15625 50.6875 5.359375 
Q 44.046875 -1.421875 33.015625 -1.421875 
Q 20.359375 -1.421875 13.671875 8.265625 
Q 6.984375 17.96875 6.984375 36.375 
Q 6.984375 53.65625 15.1875 63.9375 
Q 23.390625 74.21875 37.203125 74.21875 
Q 40.921875 74.21875 44.703125 73.484375 
Q 48.484375 72.75 52.59375 71.296875 
z
" id="DejaVuSans-54"/>
      </defs>
      <g style="fill:#262626;" transform="translate(44.684875 121.24494)scale(0.132 -0.132)">
       <use xlink:href="#DejaVuSans-48"/>
       <use x="63.623047" xlink:href="#DejaVuSans-46"/>
       <use x="95.410156" xlink:href="#DejaVuSans-54"/>
      </g>
     </g>
    </g>
    <g id="ytick_6">
     <g id="line2d_20">
      <g>
       <use style="fill:#262626;stroke:#262626;" x="73.977" xlink:href="#mdbadc4903b" y="65.016769"/>
      </g>
     </g>
     <g id="text_21">
      <!-- 0.8 -->
      <defs>
       <path d="M 31.78125 34.625 
Q 24.75 34.625 20.71875 30.859375 
Q 16.703125 27.09375 16.703125 20.515625 
Q 16.703125 13.921875 20.71875 10.15625 
Q 24.75 6.390625 31.78125 6.390625 
Q 38.8125 6.390625 42.859375 10.171875 
Q 46.921875 13.96875 46.921875 20.515625 
Q 46.921875 27.09375 42.890625 30.859375 
Q 38.875 34.625 31.78125 34.625 
z
M 21.921875 38.8125 
Q 15.578125 40.375 12.03125 44.71875 
Q 8.5 49.078125 8.5 55.328125 
Q 8.5 64.0625 14.71875 69.140625 
Q 20.953125 74.21875 31.78125 74.21875 
Q 42.671875 74.21875 48.875 69.140625 
Q 55.078125 64.0625 55.078125 55.328125 
Q 55.078125 49.078125 51.53125 44.71875 
Q 48 40.375 41.703125 38.8125 
Q 48.828125 37.15625 52.796875 32.3125 
Q 56.78125 27.484375 56.78125 20.515625 
Q 56.78125 9.90625 50.3125 4.234375 
Q 43.84375 -1.421875 31.78125 -1.421875 
Q 19.734375 -1.421875 13.25 4.234375 
Q 6.78125 9.90625 6.78125 20.515625 
Q 6.78125 27.484375 10.78125 32.3125 
Q 14.796875 37.15625 21.921875 38.8125 
z
M 18.3125 54.390625 
Q 18.3125 48.734375 21.84375 45.5625 
Q 25.390625 42.390625 31.78125 42.390625 
Q 38.140625 42.390625 41.71875 45.5625 
Q 45.3125 48.734375 45.3125 54.390625 
Q 45.3125 60.0625 41.71875 63.234375 
Q 38.140625 66.40625 31.78125 66.40625 
Q 25.390625 66.40625 21.84375 63.234375 
Q 18.3125 60.0625 18.3125 54.390625 
z
" id="DejaVuSans-56"/>
      </defs>
      <g style="fill:#262626;" transform="translate(44.684875 70.031738)scale(0.132 -0.132)">
       <use xlink:href="#DejaVuSans-48"/>
       <use x="63.623047" xlink:href="#DejaVuSans-46"/>
       <use x="95.410156" xlink:href="#DejaVuSans-56"/>
      </g>
     </g>
    </g>
    <g id="text_22">
     <!-- Pearson's r -->
     <defs>
      <path d="M 19.671875 64.796875 
L 19.671875 37.40625 
L 32.078125 37.40625 
Q 38.96875 37.40625 42.71875 40.96875 
Q 46.484375 44.53125 46.484375 51.125 
Q 46.484375 57.671875 42.71875 61.234375 
Q 38.96875 64.796875 32.078125 64.796875 
z
M 9.8125 72.90625 
L 32.078125 72.90625 
Q 44.34375 72.90625 50.609375 67.359375 
Q 56.890625 61.8125 56.890625 51.125 
Q 56.890625 40.328125 50.609375 34.8125 
Q 44.34375 29.296875 32.078125 29.296875 
L 19.671875 29.296875 
L 19.671875 0 
L 9.8125 0 
z
" id="DejaVuSans-80"/>
      <path d="M 41.109375 46.296875 
Q 39.59375 47.171875 37.8125 47.578125 
Q 36.03125 48 33.890625 48 
Q 26.265625 48 22.1875 43.046875 
Q 18.109375 38.09375 18.109375 28.8125 
L 18.109375 0 
L 9.078125 0 
L 9.078125 54.6875 
L 18.109375 54.6875 
L 18.109375 46.1875 
Q 20.953125 51.171875 25.484375 53.578125 
Q 30.03125 56 36.53125 56 
Q 37.453125 56 38.578125 55.875 
Q 39.703125 55.765625 41.0625 55.515625 
z
" id="DejaVuSans-114"/>
      <path d="M 54.890625 33.015625 
L 54.890625 0 
L 45.90625 0 
L 45.90625 32.71875 
Q 45.90625 40.484375 42.875 44.328125 
Q 39.84375 48.1875 33.796875 48.1875 
Q 26.515625 48.1875 22.3125 43.546875 
Q 18.109375 38.921875 18.109375 30.90625 
L 18.109375 0 
L 9.078125 0 
L 9.078125 54.6875 
L 18.109375 54.6875 
L 18.109375 46.1875 
Q 21.34375 51.125 25.703125 53.5625 
Q 30.078125 56 35.796875 56 
Q 45.21875 56 50.046875 50.171875 
Q 54.890625 44.34375 54.890625 33.015625 
z
" id="DejaVuSans-110"/>
      <path d="M 17.921875 72.90625 
L 17.921875 45.796875 
L 9.625 45.796875 
L 9.625 72.90625 
z
" id="DejaVuSans-39"/>
      <path id="DejaVuSans-32"/>
     </defs>
     <g style="fill:#262626;" transform="translate(26.628937 226.539875)rotate(-90)scale(0.144 -0.144)">
      <use xlink:href="#DejaVuSans-80"/>
      <use x="60.255859" xlink:href="#DejaVuSans-101"/>
      <use x="121.779297" xlink:href="#DejaVuSans-97"/>
      <use x="183.058594" xlink:href="#DejaVuSans-114"/>
      <use x="224.171875" xlink:href="#DejaVuSans-115"/>
      <use x="276.271484" xlink:href="#DejaVuSans-111"/>
      <use x="337.453125" xlink:href="#DejaVuSans-110"/>
      <use x="400.832031" xlink:href="#DejaVuSans-39"/>
      <use x="428.322266" xlink:href="#DejaVuSans-115"/>
      <use x="480.421875" xlink:href="#DejaVuSans-32"/>
      <use x="512.208984" xlink:href="#DejaVuSans-114"/>
     </g>
    </g>
   </g>
   <g id="patch_3">
    <path clip-path="url(#pa70758a6c9)" d="M 81.49232 142.444654 
L 88.784412 142.444654 
L 88.784412 108.611754 
L 86.961389 103.685425 
L 88.784412 98.759097 
L 88.784412 74.491422 
L 81.49232 74.491422 
L 81.49232 98.759097 
L 83.315343 103.685425 
L 81.49232 108.611754 
L 81.49232 142.444654 
z
" style="fill:#c1bed6;stroke:#6e6e6e;stroke-linejoin:miter;stroke-width:2;"/>
   </g>
   <g id="patch_4">
    <path clip-path="url(#pa70758a6c9)" d="M 88.933231 211.906839 
L 96.225323 211.906839 
L 96.225323 177.415127 
L 94.4023 170.709493 
L 96.225323 164.003859 
L 96.225323 119.41006 
L 88.933231 119.41006 
L 88.933231 164.003859 
L 90.756254 170.709493 
L 88.933231 177.415127 
L 88.933231 211.906839 
z
" style="fill:#ea8e83;stroke:#6e6e6e;stroke-linejoin:miter;stroke-width:2;"/>
   </g>
   <g id="patch_5">
    <path clip-path="url(#pa70758a6c9)" d="M 111.255963 247.399574 
L 118.548055 247.399574 
L 118.548055 230.280141 
L 116.725032 214.529087 
L 118.548055 198.778033 
L 118.548055 159.938105 
L 111.255963 159.938105 
L 111.255963 198.778033 
L 113.078986 214.529087 
L 111.255963 230.280141 
L 111.255963 247.399574 
z
" style="fill:#c1bed6;stroke:#6e6e6e;stroke-linejoin:miter;stroke-width:2;"/>
   </g>
   <g id="patch_6">
    <path clip-path="url(#pa70758a6c9)" d="M 118.696873 248.237642 
L 125.988966 248.237642 
L 125.988966 221.241032 
L 124.165943 209.800504 
L 125.988966 198.359977 
L 125.988966 184.711395 
L 118.696873 184.711395 
L 118.696873 198.359977 
L 120.519897 209.800504 
L 118.696873 221.241032 
L 118.696873 248.237642 
z
" style="fill:#ea8e83;stroke:#6e6e6e;stroke-linejoin:miter;stroke-width:2;"/>
   </g>
   <g id="patch_7">
    <path clip-path="url(#pa70758a6c9)" d="M 141.019606 251.524641 
L 148.311698 251.524641 
L 148.311698 220.023901 
L 146.488675 208.421893 
L 148.311698 196.819885 
L 148.311698 153.20956 
L 141.019606 153.20956 
L 141.019606 196.819885 
L 142.842629 208.421893 
L 141.019606 220.023901 
L 141.019606 251.524641 
z
" style="fill:#c1bed6;stroke:#6e6e6e;stroke-linejoin:miter;stroke-width:2;"/>
   </g>
   <g id="patch_8">
    <path clip-path="url(#pa70758a6c9)" d="M 148.460516 256.32261 
L 155.752609 256.32261 
L 155.752609 217.893805 
L 153.929586 207.077774 
L 155.752609 196.261743 
L 155.752609 164.667874 
L 148.460516 164.667874 
L 148.460516 196.261743 
L 150.283539 207.077774 
L 148.460516 217.893805 
L 148.460516 256.32261 
z
" style="fill:#ea8e83;stroke:#6e6e6e;stroke-linejoin:miter;stroke-width:2;"/>
   </g>
   <g id="patch_9">
    <path clip-path="url(#pa70758a6c9)" d="M 170.783248 257.061607 
L 178.075341 257.061607 
L 178.075341 206.844103 
L 176.252318 195.688173 
L 178.075341 184.532242 
L 178.075341 154.581913 
L 170.783248 154.581913 
L 170.783248 184.532242 
L 172.606272 195.688173 
L 170.783248 206.844103 
L 170.783248 257.061607 
z
" style="fill:#c1bed6;stroke:#6e6e6e;stroke-linejoin:miter;stroke-width:2;"/>
   </g>
   <g id="patch_10">
    <path clip-path="url(#pa70758a6c9)" d="M 178.224159 255.653424 
L 185.516252 255.653424 
L 185.516252 217.740641 
L 183.693228 206.96668 
L 185.516252 196.192719 
L 185.516252 156.682548 
L 178.224159 156.682548 
L 178.224159 196.192719 
L 180.047182 206.96668 
L 178.224159 217.740641 
L 178.224159 255.653424 
z
" style="fill:#ea8e83;stroke:#6e6e6e;stroke-linejoin:miter;stroke-width:2;"/>
   </g>
   <g id="patch_11">
    <path clip-path="url(#pa70758a6c9)" d="M 200.546891 116.173187 
L 207.838984 116.173187 
L 207.838984 84.89638 
L 206.015961 80.683524 
L 207.838984 76.470669 
L 207.838984 57.078593 
L 200.546891 57.078593 
L 200.546891 76.470669 
L 202.369914 80.683524 
L 200.546891 84.89638 
L 200.546891 116.173187 
z
" style="fill:#c1bed6;stroke:#6e6e6e;stroke-linejoin:miter;stroke-width:2;"/>
   </g>
   <g id="patch_12">
    <path clip-path="url(#pa70758a6c9)" d="M 207.987802 206.782982 
L 215.279894 206.782982 
L 215.279894 164.849821 
L 213.456871 158.6831 
L 215.279894 152.51638 
L 215.279894 120.281119 
L 207.987802 120.281119 
L 207.987802 152.51638 
L 209.810825 158.6831 
L 207.987802 164.849821 
L 207.987802 206.782982 
z
" style="fill:#ea8e83;stroke:#6e6e6e;stroke-linejoin:miter;stroke-width:2;"/>
   </g>
   <g id="patch_13">
    <path clip-path="url(#pa70758a6c9)" d="M 230.310534 239.703704 
L 237.602627 239.703704 
L 237.602627 210.709093 
L 235.779603 196.7823 
L 237.602627 182.855507 
L 237.602627 138.175403 
L 230.310534 138.175403 
L 230.310534 182.855507 
L 232.133557 196.7823 
L 230.310534 210.709093 
L 230.310534 239.703704 
z
" style="fill:#c1bed6;stroke:#6e6e6e;stroke-linejoin:miter;stroke-width:2;"/>
   </g>
   <g id="patch_14">
    <path clip-path="url(#pa70758a6c9)" d="M 237.751445 244.967713 
L 245.043537 244.967713 
L 245.043537 214.422232 
L 243.220514 199.884548 
L 245.043537 185.346864 
L 245.043537 138.98593 
L 237.751445 138.98593 
L 237.751445 185.346864 
L 239.574468 199.884548 
L 237.751445 214.422232 
L 237.751445 244.967713 
z
" style="fill:#ea8e83;stroke:#6e6e6e;stroke-linejoin:miter;stroke-width:2;"/>
   </g>
   <g id="patch_15">
    <path clip-path="url(#pa70758a6c9)" d="M 260.074177 171.213726 
L 267.366269 171.213726 
L 267.366269 119.102832 
L 265.543246 112.094957 
L 267.366269 105.087082 
L 267.366269 75.064526 
L 260.074177 75.064526 
L 260.074177 105.087082 
L 261.8972 112.094957 
L 260.074177 119.102832 
L 260.074177 171.213726 
z
" style="fill:#c1bed6;stroke:#6e6e6e;stroke-linejoin:miter;stroke-width:2;"/>
   </g>
   <g id="patch_16">
    <path clip-path="url(#pa70758a6c9)" d="M 267.515088 217.851082 
L 274.80718 217.851082 
L 274.80718 186.984444 
L 272.984157 181.009363 
L 274.80718 175.034281 
L 274.80718 135.871979 
L 267.515088 135.871979 
L 267.515088 175.034281 
L 269.338111 181.009363 
L 267.515088 186.984444 
L 267.515088 217.851082 
z
" style="fill:#ea8e83;stroke:#6e6e6e;stroke-linejoin:miter;stroke-width:2;"/>
   </g>
   <g id="patch_17">
    <path clip-path="url(#pa70758a6c9)" d="M 289.83782 255.398876 
L 297.129912 255.398876 
L 297.129912 218.533837 
L 295.306889 210.132255 
L 297.129912 201.730673 
L 297.129912 158.482241 
L 289.83782 158.482241 
L 289.83782 201.730673 
L 291.660843 210.132255 
L 289.83782 218.533837 
L 289.83782 255.398876 
z
" style="fill:#c1bed6;stroke:#6e6e6e;stroke-linejoin:miter;stroke-width:2;"/>
   </g>
   <g id="patch_18">
    <path clip-path="url(#pa70758a6c9)" d="M 297.278731 256.891621 
L 304.570823 256.891621 
L 304.570823 222.752254 
L 302.7478 214.466199 
L 304.570823 206.180143 
L 304.570823 161.307642 
L 297.278731 161.307642 
L 297.278731 206.180143 
L 299.101754 214.466199 
L 297.278731 222.752254 
L 297.278731 256.891621 
z
" style="fill:#ea8e83;stroke:#6e6e6e;stroke-linejoin:miter;stroke-width:2;"/>
   </g>
   <g id="patch_19">
    <path clip-path="url(#pa70758a6c9)" d="M 319.601463 261.480315 
L 326.893555 261.480315 
L 326.893555 215.906641 
L 325.070532 211.702604 
L 326.893555 207.498567 
L 326.893555 151.237135 
L 319.601463 151.237135 
L 319.601463 207.498567 
L 321.424486 211.702604 
L 319.601463 215.906641 
L 319.601463 261.480315 
z
" style="fill:#c1bed6;stroke:#6e6e6e;stroke-linejoin:miter;stroke-width:2;"/>
   </g>
   <g id="patch_20">
    <path clip-path="url(#pa70758a6c9)" d="M 327.042373 265.972195 
L 334.334466 265.972195 
L 334.334466 219.780275 
L 332.511443 215.784925 
L 334.334466 211.789575 
L 334.334466 161.201446 
L 327.042373 161.201446 
L 327.042373 211.789575 
L 328.865397 215.784925 
L 327.042373 219.780275 
L 327.042373 265.972195 
z
" style="fill:#ea8e83;stroke:#6e6e6e;stroke-linejoin:miter;stroke-width:2;"/>
   </g>
   <g id="patch_21">
    <path clip-path="url(#pa70758a6c9)" d="M 349.365106 261.629476 
L 356.657198 261.629476 
L 356.657198 224.189425 
L 354.834175 210.755339 
L 356.657198 197.321252 
L 356.657198 154.072882 
L 349.365106 154.072882 
L 349.365106 197.321252 
L 351.188129 210.755339 
L 349.365106 224.189425 
L 349.365106 261.629476 
z
" style="fill:#c1bed6;stroke:#6e6e6e;stroke-linejoin:miter;stroke-width:2;"/>
   </g>
   <g id="patch_22">
    <path clip-path="url(#pa70758a6c9)" d="M 356.806016 262.275748 
L 364.098109 262.275748 
L 364.098109 231.930988 
L 362.275086 220.336931 
L 364.098109 208.742874 
L 364.098109 169.450887 
L 356.806016 169.450887 
L 356.806016 208.742874 
L 358.629039 220.336931 
L 356.806016 231.930988 
L 356.806016 262.275748 
z
" style="fill:#ea8e83;stroke:#6e6e6e;stroke-linejoin:miter;stroke-width:2;"/>
   </g>
   <g id="patch_23">
    <path clip-path="url(#pa70758a6c9)" d="M 379.128748 152.046151 
L 386.420841 152.046151 
L 386.420841 112.77023 
L 384.597818 107.009906 
L 386.420841 101.249582 
L 386.420841 69.59572 
L 379.128748 69.59572 
L 379.128748 101.249582 
L 380.951772 107.009906 
L 379.128748 112.77023 
L 379.128748 152.046151 
z
" style="fill:#c1bed6;stroke:#6e6e6e;stroke-linejoin:miter;stroke-width:2;"/>
   </g>
   <g id="patch_24">
    <path clip-path="url(#pa70758a6c9)" d="M 386.569659 218.196771 
L 393.861752 218.196771 
L 393.861752 184.370852 
L 392.038728 178.400761 
L 393.861752 172.43067 
L 393.861752 132.743835 
L 386.569659 132.743835 
L 386.569659 172.43067 
L 388.392682 178.400761 
L 386.569659 184.370852 
L 386.569659 218.196771 
z
" style="fill:#ea8e83;stroke:#6e6e6e;stroke-linejoin:miter;stroke-width:2;"/>
   </g>
   <g id="patch_25">
    <path clip-path="url(#pa70758a6c9)" d="M 408.892391 269.869576 
L 416.184484 269.869576 
L 416.184484 217.848981 
L 414.361461 188.497797 
L 416.184484 159.146613 
L 416.184484 143.07377 
L 408.892391 143.07377 
L 408.892391 159.146613 
L 410.715414 188.497797 
L 408.892391 217.848981 
L 408.892391 269.869576 
z
" style="fill:#c1bed6;stroke:#6e6e6e;stroke-linejoin:miter;stroke-width:2;"/>
   </g>
   <g id="patch_26">
    <path clip-path="url(#pa70758a6c9)" d="M 416.333302 263.599829 
L 423.625394 263.599829 
L 423.625394 235.794428 
L 421.802371 209.634608 
L 423.625394 183.474788 
L 423.625394 150.590574 
L 416.333302 150.590574 
L 416.333302 183.474788 
L 418.156325 209.634608 
L 416.333302 235.794428 
L 416.333302 263.599829 
z
" style="fill:#ea8e83;stroke:#6e6e6e;stroke-linejoin:miter;stroke-width:2;"/>
   </g>
   <g id="patch_27">
    <path clip-path="url(#pa70758a6c9)" d="M 438.656034 210.888326 
L 445.948127 210.888326 
L 445.948127 191.25128 
L 444.125103 184.005721 
L 445.948127 176.760163 
L 445.948127 158.471941 
L 438.656034 158.471941 
L 438.656034 176.760163 
L 440.479057 184.005721 
L 438.656034 191.25128 
L 438.656034 210.888326 
z
" style="fill:#c1bed6;stroke:#6e6e6e;stroke-linejoin:miter;stroke-width:2;"/>
   </g>
   <g id="patch_28">
    <path clip-path="url(#pa70758a6c9)" d="M 446.096945 260.95336 
L 453.389037 260.95336 
L 453.389037 252.928317 
L 451.566014 247.868341 
L 453.389037 242.808365 
L 453.389037 224.348087 
L 446.096945 224.348087 
L 446.096945 242.808365 
L 447.919968 247.868341 
L 446.096945 252.928317 
L 446.096945 260.95336 
z
" style="fill:#ea8e83;stroke:#6e6e6e;stroke-linejoin:miter;stroke-width:2;"/>
   </g>
   <g id="patch_29">
    <path clip-path="url(#pa70758a6c9)" d="M 468.419677 265.446054 
L 475.711769 265.446054 
L 475.711769 206.030041 
L 473.888746 160.129297 
L 475.711769 114.228552 
L 475.711769 113.530599 
L 468.419677 113.530599 
L 468.419677 114.228552 
L 470.2427 160.129297 
L 468.419677 206.030041 
L 468.419677 265.446054 
z
" style="fill:#c1bed6;stroke:#6e6e6e;stroke-linejoin:miter;stroke-width:2;"/>
   </g>
   <g id="patch_30">
    <path clip-path="url(#pa70758a6c9)" d="M 475.860588 245.007186 
L 483.15268 245.007186 
L 483.15268 223.435219 
L 481.329657 188.53221 
L 483.15268 153.629202 
L 483.15268 129.490402 
L 475.860588 129.490402 
L 475.860588 153.629202 
L 477.683611 188.53221 
L 475.860588 223.435219 
L 475.860588 245.007186 
z
" style="fill:#ea8e83;stroke:#6e6e6e;stroke-linejoin:miter;stroke-width:2;"/>
   </g>
   <g id="patch_31">
    <path clip-path="url(#pa70758a6c9)" d="M 88.858821 269.869576 
L 88.858821 269.869576 
L 88.858821 269.869576 
L 88.858821 269.869576 
z
" style="fill:#c1bed6;stroke:#6e6e6e;stroke-linejoin:miter;"/>
   </g>
   <g id="patch_32">
    <path clip-path="url(#pa70758a6c9)" d="M 88.858821 269.869576 
L 88.858821 269.869576 
L 88.858821 269.869576 
L 88.858821 269.869576 
z
" style="fill:#ea8e83;stroke:#6e6e6e;stroke-linejoin:miter;"/>
   </g>
   <g id="line2d_21">
    <path clip-path="url(#pa70758a6c9)" d="M 85.138366 142.444654 
L 85.138366 218.896292 
" style="fill:none;stroke:#6e6e6e;stroke-linecap:round;stroke-width:2;"/>
   </g>
   <g id="line2d_22">
    <path clip-path="url(#pa70758a6c9)" d="M 85.138366 74.491422 
L 85.138366 48.711492 
" style="fill:none;stroke:#6e6e6e;stroke-linecap:round;stroke-width:2;"/>
   </g>
   <g id="line2d_23">
    <path clip-path="url(#pa70758a6c9)" d="M 83.315343 218.896292 
L 86.961389 218.896292 
" style="fill:none;stroke:#6e6e6e;stroke-linecap:round;stroke-width:2;"/>
   </g>
   <g id="line2d_24">
    <path clip-path="url(#pa70758a6c9)" d="M 83.315343 48.711492 
L 86.961389 48.711492 
" style="fill:none;stroke:#6e6e6e;stroke-linecap:round;stroke-width:2;"/>
   </g>
   <g id="line2d_25">
    <path clip-path="url(#pa70758a6c9)" d="M 92.579277 211.906839 
L 92.579277 264.923691 
" style="fill:none;stroke:#6e6e6e;stroke-linecap:round;stroke-width:2;"/>
   </g>
   <g id="line2d_26">
    <path clip-path="url(#pa70758a6c9)" d="M 92.579277 119.41006 
L 92.579277 65.346075 
" style="fill:none;stroke:#6e6e6e;stroke-linecap:round;stroke-width:2;"/>
   </g>
   <g id="line2d_27">
    <path clip-path="url(#pa70758a6c9)" d="M 90.756254 264.923691 
L 94.4023 264.923691 
" style="fill:none;stroke:#6e6e6e;stroke-linecap:round;stroke-width:2;"/>
   </g>
   <g id="line2d_28">
    <path clip-path="url(#pa70758a6c9)" d="M 90.756254 65.346075 
L 94.4023 65.346075 
" style="fill:none;stroke:#6e6e6e;stroke-linecap:round;stroke-width:2;"/>
   </g>
   <g id="line2d_29">
    <path clip-path="url(#pa70758a6c9)" d="M 114.902009 247.399574 
L 114.902009 303.356228 
" style="fill:none;stroke:#6e6e6e;stroke-linecap:round;stroke-width:2;"/>
   </g>
   <g id="line2d_30">
    <path clip-path="url(#pa70758a6c9)" d="M 114.902009 159.938105 
L 114.902009 100.423766 
" style="fill:none;stroke:#6e6e6e;stroke-linecap:round;stroke-width:2;"/>
   </g>
   <g id="line2d_31">
    <path clip-path="url(#pa70758a6c9)" d="M 113.078986 303.356228 
L 116.725032 303.356228 
" style="fill:none;stroke:#6e6e6e;stroke-linecap:round;stroke-width:2;"/>
   </g>
   <g id="line2d_32">
    <path clip-path="url(#pa70758a6c9)" d="M 113.078986 100.423766 
L 116.725032 100.423766 
" style="fill:none;stroke:#6e6e6e;stroke-linecap:round;stroke-width:2;"/>
   </g>
   <g id="line2d_33">
    <path clip-path="url(#pa70758a6c9)" d="M 122.34292 248.237642 
L 122.34292 316.329299 
" style="fill:none;stroke:#6e6e6e;stroke-linecap:round;stroke-width:2;"/>
   </g>
   <g id="line2d_34">
    <path clip-path="url(#pa70758a6c9)" d="M 122.34292 184.711395 
L 122.34292 118.018573 
" style="fill:none;stroke:#6e6e6e;stroke-linecap:round;stroke-width:2;"/>
   </g>
   <g id="line2d_35">
    <path clip-path="url(#pa70758a6c9)" d="M 120.519897 316.329299 
L 124.165943 316.329299 
" style="fill:none;stroke:#6e6e6e;stroke-linecap:round;stroke-width:2;"/>
   </g>
   <g id="line2d_36">
    <path clip-path="url(#pa70758a6c9)" d="M 120.519897 118.018573 
L 124.165943 118.018573 
" style="fill:none;stroke:#6e6e6e;stroke-linecap:round;stroke-width:2;"/>
   </g>
   <g id="line2d_37">
    <path clip-path="url(#pa70758a6c9)" d="M 144.665652 251.524641 
L 144.665652 314.383832 
" style="fill:none;stroke:#6e6e6e;stroke-linecap:round;stroke-width:2;"/>
   </g>
   <g id="line2d_38">
    <path clip-path="url(#pa70758a6c9)" d="M 144.665652 153.20956 
L 144.665652 98.649414 
" style="fill:none;stroke:#6e6e6e;stroke-linecap:round;stroke-width:2;"/>
   </g>
   <g id="line2d_39">
    <path clip-path="url(#pa70758a6c9)" d="M 142.842629 314.383832 
L 146.488675 314.383832 
" style="fill:none;stroke:#6e6e6e;stroke-linecap:round;stroke-width:2;"/>
   </g>
   <g id="line2d_40">
    <path clip-path="url(#pa70758a6c9)" d="M 142.842629 98.649414 
L 146.488675 98.649414 
" style="fill:none;stroke:#6e6e6e;stroke-linecap:round;stroke-width:2;"/>
   </g>
   <g id="line2d_41">
    <path clip-path="url(#pa70758a6c9)" d="M 152.106562 256.32261 
L 152.106562 292.597799 
" style="fill:none;stroke:#6e6e6e;stroke-linecap:round;stroke-width:2;"/>
   </g>
   <g id="line2d_42">
    <path clip-path="url(#pa70758a6c9)" d="M 152.106562 164.667874 
L 152.106562 113.246575 
" style="fill:none;stroke:#6e6e6e;stroke-linecap:round;stroke-width:2;"/>
   </g>
   <g id="line2d_43">
    <path clip-path="url(#pa70758a6c9)" d="M 150.283539 292.597799 
L 153.929586 292.597799 
" style="fill:none;stroke:#6e6e6e;stroke-linecap:round;stroke-width:2;"/>
   </g>
   <g id="line2d_44">
    <path clip-path="url(#pa70758a6c9)" d="M 150.283539 113.246575 
L 153.929586 113.246575 
" style="fill:none;stroke:#6e6e6e;stroke-linecap:round;stroke-width:2;"/>
   </g>
   <g id="line2d_45">
    <path clip-path="url(#pa70758a6c9)" d="M 174.429295 257.061607 
L 174.429295 299.687932 
" style="fill:none;stroke:#6e6e6e;stroke-linecap:round;stroke-width:2;"/>
   </g>
   <g id="line2d_46">
    <path clip-path="url(#pa70758a6c9)" d="M 174.429295 154.581913 
L 174.429295 80.155434 
" style="fill:none;stroke:#6e6e6e;stroke-linecap:round;stroke-width:2;"/>
   </g>
   <g id="line2d_47">
    <path clip-path="url(#pa70758a6c9)" d="M 172.606272 299.687932 
L 176.252318 299.687932 
" style="fill:none;stroke:#6e6e6e;stroke-linecap:round;stroke-width:2;"/>
   </g>
   <g id="line2d_48">
    <path clip-path="url(#pa70758a6c9)" d="M 172.606272 80.155434 
L 176.252318 80.155434 
" style="fill:none;stroke:#6e6e6e;stroke-linecap:round;stroke-width:2;"/>
   </g>
   <g id="line2d_49">
    <path clip-path="url(#pa70758a6c9)" d="M 181.870205 255.653424 
L 181.870205 286.388357 
" style="fill:none;stroke:#6e6e6e;stroke-linecap:round;stroke-width:2;"/>
   </g>
   <g id="line2d_50">
    <path clip-path="url(#pa70758a6c9)" d="M 181.870205 156.682548 
L 181.870205 94.918593 
" style="fill:none;stroke:#6e6e6e;stroke-linecap:round;stroke-width:2;"/>
   </g>
   <g id="line2d_51">
    <path clip-path="url(#pa70758a6c9)" d="M 180.047182 286.388357 
L 183.693228 286.388357 
" style="fill:none;stroke:#6e6e6e;stroke-linecap:round;stroke-width:2;"/>
   </g>
   <g id="line2d_52">
    <path clip-path="url(#pa70758a6c9)" d="M 180.047182 94.918593 
L 183.693228 94.918593 
" style="fill:none;stroke:#6e6e6e;stroke-linecap:round;stroke-width:2;"/>
   </g>
   <g id="line2d_53">
    <path clip-path="url(#pa70758a6c9)" d="M 204.192938 116.173187 
L 204.192938 209.075058 
" style="fill:none;stroke:#6e6e6e;stroke-linecap:round;stroke-width:2;"/>
   </g>
   <g id="line2d_54">
    <path clip-path="url(#pa70758a6c9)" d="M 204.192938 57.078593 
L 204.192938 35.474773 
" style="fill:none;stroke:#6e6e6e;stroke-linecap:round;stroke-width:2;"/>
   </g>
   <g id="line2d_55">
    <path clip-path="url(#pa70758a6c9)" d="M 202.369914 209.075058 
L 206.015961 209.075058 
" style="fill:none;stroke:#6e6e6e;stroke-linecap:round;stroke-width:2;"/>
   </g>
   <g id="line2d_56">
    <path clip-path="url(#pa70758a6c9)" d="M 202.369914 35.474773 
L 206.015961 35.474773 
" style="fill:none;stroke:#6e6e6e;stroke-linecap:round;stroke-width:2;"/>
   </g>
   <g id="line2d_57">
    <path clip-path="url(#pa70758a6c9)" d="M 211.633848 206.782982 
L 211.633848 265.54677 
" style="fill:none;stroke:#6e6e6e;stroke-linecap:round;stroke-width:2;"/>
   </g>
   <g id="line2d_58">
    <path clip-path="url(#pa70758a6c9)" d="M 211.633848 120.281119 
L 211.633848 64.102743 
" style="fill:none;stroke:#6e6e6e;stroke-linecap:round;stroke-width:2;"/>
   </g>
   <g id="line2d_59">
    <path clip-path="url(#pa70758a6c9)" d="M 209.810825 265.54677 
L 213.456871 265.54677 
" style="fill:none;stroke:#6e6e6e;stroke-linecap:round;stroke-width:2;"/>
   </g>
   <g id="line2d_60">
    <path clip-path="url(#pa70758a6c9)" d="M 209.810825 64.102743 
L 213.456871 64.102743 
" style="fill:none;stroke:#6e6e6e;stroke-linecap:round;stroke-width:2;"/>
   </g>
   <g id="line2d_61">
    <path clip-path="url(#pa70758a6c9)" d="M 233.95658 239.703704 
L 233.95658 300.405545 
" style="fill:none;stroke:#6e6e6e;stroke-linecap:round;stroke-width:2;"/>
   </g>
   <g id="line2d_62">
    <path clip-path="url(#pa70758a6c9)" d="M 233.95658 138.175403 
L 233.95658 57.285556 
" style="fill:none;stroke:#6e6e6e;stroke-linecap:round;stroke-width:2;"/>
   </g>
   <g id="line2d_63">
    <path clip-path="url(#pa70758a6c9)" d="M 232.133557 300.405545 
L 235.779603 300.405545 
" style="fill:none;stroke:#6e6e6e;stroke-linecap:round;stroke-width:2;"/>
   </g>
   <g id="line2d_64">
    <path clip-path="url(#pa70758a6c9)" d="M 232.133557 57.285556 
L 235.779603 57.285556 
" style="fill:none;stroke:#6e6e6e;stroke-linecap:round;stroke-width:2;"/>
   </g>
   <g id="line2d_65">
    <path clip-path="url(#pa70758a6c9)" d="M 241.397491 244.967713 
L 241.397491 281.664064 
" style="fill:none;stroke:#6e6e6e;stroke-linecap:round;stroke-width:2;"/>
   </g>
   <g id="line2d_66">
    <path clip-path="url(#pa70758a6c9)" d="M 241.397491 138.98593 
L 241.397491 61.443991 
" style="fill:none;stroke:#6e6e6e;stroke-linecap:round;stroke-width:2;"/>
   </g>
   <g id="line2d_67">
    <path clip-path="url(#pa70758a6c9)" d="M 239.574468 281.664064 
L 243.220514 281.664064 
" style="fill:none;stroke:#6e6e6e;stroke-linecap:round;stroke-width:2;"/>
   </g>
   <g id="line2d_68">
    <path clip-path="url(#pa70758a6c9)" d="M 239.574468 61.443991 
L 243.220514 61.443991 
" style="fill:none;stroke:#6e6e6e;stroke-linecap:round;stroke-width:2;"/>
   </g>
   <g id="line2d_69">
    <path clip-path="url(#pa70758a6c9)" d="M 263.720223 171.213726 
L 263.720223 241.598653 
" style="fill:none;stroke:#6e6e6e;stroke-linecap:round;stroke-width:2;"/>
   </g>
   <g id="line2d_70">
    <path clip-path="url(#pa70758a6c9)" d="M 263.720223 75.064526 
L 263.720223 41.430562 
" style="fill:none;stroke:#6e6e6e;stroke-linecap:round;stroke-width:2;"/>
   </g>
   <g id="line2d_71">
    <path clip-path="url(#pa70758a6c9)" d="M 261.8972 241.598653 
L 265.543246 241.598653 
" style="fill:none;stroke:#6e6e6e;stroke-linecap:round;stroke-width:2;"/>
   </g>
   <g id="line2d_72">
    <path clip-path="url(#pa70758a6c9)" d="M 261.8972 41.430562 
L 265.543246 41.430562 
" style="fill:none;stroke:#6e6e6e;stroke-linecap:round;stroke-width:2;"/>
   </g>
   <g id="line2d_73">
    <path clip-path="url(#pa70758a6c9)" d="M 271.161134 217.851082 
L 271.161134 266.878813 
" style="fill:none;stroke:#6e6e6e;stroke-linecap:round;stroke-width:2;"/>
   </g>
   <g id="line2d_74">
    <path clip-path="url(#pa70758a6c9)" d="M 271.161134 135.871979 
L 271.161134 77.853144 
" style="fill:none;stroke:#6e6e6e;stroke-linecap:round;stroke-width:2;"/>
   </g>
   <g id="line2d_75">
    <path clip-path="url(#pa70758a6c9)" d="M 269.338111 266.878813 
L 272.984157 266.878813 
" style="fill:none;stroke:#6e6e6e;stroke-linecap:round;stroke-width:2;"/>
   </g>
   <g id="line2d_76">
    <path clip-path="url(#pa70758a6c9)" d="M 269.338111 77.853144 
L 272.984157 77.853144 
" style="fill:none;stroke:#6e6e6e;stroke-linecap:round;stroke-width:2;"/>
   </g>
   <g id="line2d_77">
    <path clip-path="url(#pa70758a6c9)" d="M 293.483866 255.398876 
L 293.483866 305.069812 
" style="fill:none;stroke:#6e6e6e;stroke-linecap:round;stroke-width:2;"/>
   </g>
   <g id="line2d_78">
    <path clip-path="url(#pa70758a6c9)" d="M 293.483866 158.482241 
L 293.483866 96.194023 
" style="fill:none;stroke:#6e6e6e;stroke-linecap:round;stroke-width:2;"/>
   </g>
   <g id="line2d_79">
    <path clip-path="url(#pa70758a6c9)" d="M 291.660843 305.069812 
L 295.306889 305.069812 
" style="fill:none;stroke:#6e6e6e;stroke-linecap:round;stroke-width:2;"/>
   </g>
   <g id="line2d_80">
    <path clip-path="url(#pa70758a6c9)" d="M 291.660843 96.194023 
L 295.306889 96.194023 
" style="fill:none;stroke:#6e6e6e;stroke-linecap:round;stroke-width:2;"/>
   </g>
   <g id="line2d_81">
    <path clip-path="url(#pa70758a6c9)" d="M 300.924777 256.891621 
L 300.924777 289.642423 
" style="fill:none;stroke:#6e6e6e;stroke-linecap:round;stroke-width:2;"/>
   </g>
   <g id="line2d_82">
    <path clip-path="url(#pa70758a6c9)" d="M 300.924777 161.307642 
L 300.924777 97.582335 
" style="fill:none;stroke:#6e6e6e;stroke-linecap:round;stroke-width:2;"/>
   </g>
   <g id="line2d_83">
    <path clip-path="url(#pa70758a6c9)" d="M 299.101754 289.642423 
L 302.7478 289.642423 
" style="fill:none;stroke:#6e6e6e;stroke-linecap:round;stroke-width:2;"/>
   </g>
   <g id="line2d_84">
    <path clip-path="url(#pa70758a6c9)" d="M 299.101754 97.582335 
L 302.7478 97.582335 
" style="fill:none;stroke:#6e6e6e;stroke-linecap:round;stroke-width:2;"/>
   </g>
   <g id="line2d_85">
    <path clip-path="url(#pa70758a6c9)" d="M 323.247509 261.480315 
L 323.247509 304.039384 
" style="fill:none;stroke:#6e6e6e;stroke-linecap:round;stroke-width:2;"/>
   </g>
   <g id="line2d_86">
    <path clip-path="url(#pa70758a6c9)" d="M 323.247509 151.237135 
L 323.247509 85.735837 
" style="fill:none;stroke:#6e6e6e;stroke-linecap:round;stroke-width:2;"/>
   </g>
   <g id="line2d_87">
    <path clip-path="url(#pa70758a6c9)" d="M 321.424486 304.039384 
L 325.070532 304.039384 
" style="fill:none;stroke:#6e6e6e;stroke-linecap:round;stroke-width:2;"/>
   </g>
   <g id="line2d_88">
    <path clip-path="url(#pa70758a6c9)" d="M 321.424486 85.735837 
L 325.070532 85.735837 
" style="fill:none;stroke:#6e6e6e;stroke-linecap:round;stroke-width:2;"/>
   </g>
   <g id="line2d_89">
    <path clip-path="url(#pa70758a6c9)" d="M 330.68842 265.972195 
L 330.68842 295.197552 
" style="fill:none;stroke:#6e6e6e;stroke-linecap:round;stroke-width:2;"/>
   </g>
   <g id="line2d_90">
    <path clip-path="url(#pa70758a6c9)" d="M 330.68842 161.201446 
L 330.68842 85.792828 
" style="fill:none;stroke:#6e6e6e;stroke-linecap:round;stroke-width:2;"/>
   </g>
   <g id="line2d_91">
    <path clip-path="url(#pa70758a6c9)" d="M 328.865397 295.197552 
L 332.511443 295.197552 
" style="fill:none;stroke:#6e6e6e;stroke-linecap:round;stroke-width:2;"/>
   </g>
   <g id="line2d_92">
    <path clip-path="url(#pa70758a6c9)" d="M 328.865397 85.792828 
L 332.511443 85.792828 
" style="fill:none;stroke:#6e6e6e;stroke-linecap:round;stroke-width:2;"/>
   </g>
   <g id="line2d_93">
    <path clip-path="url(#pa70758a6c9)" d="M 353.011152 261.629476 
L 353.011152 299.773071 
" style="fill:none;stroke:#6e6e6e;stroke-linecap:round;stroke-width:2;"/>
   </g>
   <g id="line2d_94">
    <path clip-path="url(#pa70758a6c9)" d="M 353.011152 154.072882 
L 353.011152 95.943455 
" style="fill:none;stroke:#6e6e6e;stroke-linecap:round;stroke-width:2;"/>
   </g>
   <g id="line2d_95">
    <path clip-path="url(#pa70758a6c9)" d="M 351.188129 299.773071 
L 354.834175 299.773071 
" style="fill:none;stroke:#6e6e6e;stroke-linecap:round;stroke-width:2;"/>
   </g>
   <g id="line2d_96">
    <path clip-path="url(#pa70758a6c9)" d="M 351.188129 95.943455 
L 354.834175 95.943455 
" style="fill:none;stroke:#6e6e6e;stroke-linecap:round;stroke-width:2;"/>
   </g>
   <g id="line2d_97">
    <path clip-path="url(#pa70758a6c9)" d="M 360.452063 262.275748 
L 360.452063 294.954476 
" style="fill:none;stroke:#6e6e6e;stroke-linecap:round;stroke-width:2;"/>
   </g>
   <g id="line2d_98">
    <path clip-path="url(#pa70758a6c9)" d="M 360.452063 169.450887 
L 360.452063 105.988174 
" style="fill:none;stroke:#6e6e6e;stroke-linecap:round;stroke-width:2;"/>
   </g>
   <g id="line2d_99">
    <path clip-path="url(#pa70758a6c9)" d="M 358.629039 294.954476 
L 362.275086 294.954476 
" style="fill:none;stroke:#6e6e6e;stroke-linecap:round;stroke-width:2;"/>
   </g>
   <g id="line2d_100">
    <path clip-path="url(#pa70758a6c9)" d="M 358.629039 105.988174 
L 362.275086 105.988174 
" style="fill:none;stroke:#6e6e6e;stroke-linecap:round;stroke-width:2;"/>
   </g>
   <g id="line2d_101">
    <path clip-path="url(#pa70758a6c9)" d="M 382.774795 152.046151 
L 382.774795 225.424628 
" style="fill:none;stroke:#6e6e6e;stroke-linecap:round;stroke-width:2;"/>
   </g>
   <g id="line2d_102">
    <path clip-path="url(#pa70758a6c9)" d="M 382.774795 69.59572 
L 382.774795 38.747299 
" style="fill:none;stroke:#6e6e6e;stroke-linecap:round;stroke-width:2;"/>
   </g>
   <g id="line2d_103">
    <path clip-path="url(#pa70758a6c9)" d="M 380.951772 225.424628 
L 384.597818 225.424628 
" style="fill:none;stroke:#6e6e6e;stroke-linecap:round;stroke-width:2;"/>
   </g>
   <g id="line2d_104">
    <path clip-path="url(#pa70758a6c9)" d="M 380.951772 38.747299 
L 384.597818 38.747299 
" style="fill:none;stroke:#6e6e6e;stroke-linecap:round;stroke-width:2;"/>
   </g>
   <g id="line2d_105">
    <path clip-path="url(#pa70758a6c9)" d="M 390.215705 218.196771 
L 390.215705 263.358268 
" style="fill:none;stroke:#6e6e6e;stroke-linecap:round;stroke-width:2;"/>
   </g>
   <g id="line2d_106">
    <path clip-path="url(#pa70758a6c9)" d="M 390.215705 132.743835 
L 390.215705 73.73784 
" style="fill:none;stroke:#6e6e6e;stroke-linecap:round;stroke-width:2;"/>
   </g>
   <g id="line2d_107">
    <path clip-path="url(#pa70758a6c9)" d="M 388.392682 263.358268 
L 392.038728 263.358268 
" style="fill:none;stroke:#6e6e6e;stroke-linecap:round;stroke-width:2;"/>
   </g>
   <g id="line2d_108">
    <path clip-path="url(#pa70758a6c9)" d="M 388.392682 73.73784 
L 392.038728 73.73784 
" style="fill:none;stroke:#6e6e6e;stroke-linecap:round;stroke-width:2;"/>
   </g>
   <g id="line2d_109">
    <path clip-path="url(#pa70758a6c9)" d="M 412.538438 269.869576 
L 412.538438 285.821887 
" style="fill:none;stroke:#6e6e6e;stroke-linecap:round;stroke-width:2;"/>
   </g>
   <g id="line2d_110">
    <path clip-path="url(#pa70758a6c9)" d="M 412.538438 143.07377 
L 412.538438 99.516947 
" style="fill:none;stroke:#6e6e6e;stroke-linecap:round;stroke-width:2;"/>
   </g>
   <g id="line2d_111">
    <path clip-path="url(#pa70758a6c9)" d="M 410.715414 285.821887 
L 414.361461 285.821887 
" style="fill:none;stroke:#6e6e6e;stroke-linecap:round;stroke-width:2;"/>
   </g>
   <g id="line2d_112">
    <path clip-path="url(#pa70758a6c9)" d="M 410.715414 99.516947 
L 414.361461 99.516947 
" style="fill:none;stroke:#6e6e6e;stroke-linecap:round;stroke-width:2;"/>
   </g>
   <g id="line2d_113">
    <path clip-path="url(#pa70758a6c9)" d="M 419.979348 263.599829 
L 419.979348 279.465573 
" style="fill:none;stroke:#6e6e6e;stroke-linecap:round;stroke-width:2;"/>
   </g>
   <g id="line2d_114">
    <path clip-path="url(#pa70758a6c9)" d="M 419.979348 150.590574 
L 419.979348 85.08102 
" style="fill:none;stroke:#6e6e6e;stroke-linecap:round;stroke-width:2;"/>
   </g>
   <g id="line2d_115">
    <path clip-path="url(#pa70758a6c9)" d="M 418.156325 279.465573 
L 421.802371 279.465573 
" style="fill:none;stroke:#6e6e6e;stroke-linecap:round;stroke-width:2;"/>
   </g>
   <g id="line2d_116">
    <path clip-path="url(#pa70758a6c9)" d="M 418.156325 85.08102 
L 421.802371 85.08102 
" style="fill:none;stroke:#6e6e6e;stroke-linecap:round;stroke-width:2;"/>
   </g>
   <g id="line2d_117">
    <path clip-path="url(#pa70758a6c9)" d="M 442.30208 210.888326 
L 442.30208 240.660798 
" style="fill:none;stroke:#6e6e6e;stroke-linecap:round;stroke-width:2;"/>
   </g>
   <g id="line2d_118">
    <path clip-path="url(#pa70758a6c9)" d="M 442.30208 158.471941 
L 442.30208 123.238699 
" style="fill:none;stroke:#6e6e6e;stroke-linecap:round;stroke-width:2;"/>
   </g>
   <g id="line2d_119">
    <path clip-path="url(#pa70758a6c9)" d="M 440.479057 240.660798 
L 444.125103 240.660798 
" style="fill:none;stroke:#6e6e6e;stroke-linecap:round;stroke-width:2;"/>
   </g>
   <g id="line2d_120">
    <path clip-path="url(#pa70758a6c9)" d="M 440.479057 123.238699 
L 444.125103 123.238699 
" style="fill:none;stroke:#6e6e6e;stroke-linecap:round;stroke-width:2;"/>
   </g>
   <g id="line2d_121">
    <path clip-path="url(#pa70758a6c9)" d="M 449.742991 260.95336 
L 449.742991 274.2584 
" style="fill:none;stroke:#6e6e6e;stroke-linecap:round;stroke-width:2;"/>
   </g>
   <g id="line2d_122">
    <path clip-path="url(#pa70758a6c9)" d="M 449.742991 224.348087 
L 449.742991 185.064344 
" style="fill:none;stroke:#6e6e6e;stroke-linecap:round;stroke-width:2;"/>
   </g>
   <g id="line2d_123">
    <path clip-path="url(#pa70758a6c9)" d="M 447.919968 274.2584 
L 451.566014 274.2584 
" style="fill:none;stroke:#6e6e6e;stroke-linecap:round;stroke-width:2;"/>
   </g>
   <g id="line2d_124">
    <path clip-path="url(#pa70758a6c9)" d="M 447.919968 185.064344 
L 451.566014 185.064344 
" style="fill:none;stroke:#6e6e6e;stroke-linecap:round;stroke-width:2;"/>
   </g>
   <g id="line2d_125">
    <path clip-path="url(#pa70758a6c9)" d="M 472.065723 265.446054 
L 472.065723 337.930227 
" style="fill:none;stroke:#6e6e6e;stroke-linecap:round;stroke-width:2;"/>
   </g>
   <g id="line2d_126">
    <path clip-path="url(#pa70758a6c9)" d="M 472.065723 113.530599 
L 472.065723 104.633653 
" style="fill:none;stroke:#6e6e6e;stroke-linecap:round;stroke-width:2;"/>
   </g>
   <g id="line2d_127">
    <path clip-path="url(#pa70758a6c9)" d="M 470.2427 337.930227 
L 473.888746 337.930227 
" style="fill:none;stroke:#6e6e6e;stroke-linecap:round;stroke-width:2;"/>
   </g>
   <g id="line2d_128">
    <path clip-path="url(#pa70758a6c9)" d="M 470.2427 104.633653 
L 473.888746 104.633653 
" style="fill:none;stroke:#6e6e6e;stroke-linecap:round;stroke-width:2;"/>
   </g>
   <g id="line2d_129">
    <path clip-path="url(#pa70758a6c9)" d="M 479.506634 245.007186 
L 479.506634 284.097502 
" style="fill:none;stroke:#6e6e6e;stroke-linecap:round;stroke-width:2;"/>
   </g>
   <g id="line2d_130">
    <path clip-path="url(#pa70758a6c9)" d="M 479.506634 129.490402 
L 479.506634 92.696356 
" style="fill:none;stroke:#6e6e6e;stroke-linecap:round;stroke-width:2;"/>
   </g>
   <g id="line2d_131">
    <path clip-path="url(#pa70758a6c9)" d="M 477.683611 284.097502 
L 481.329657 284.097502 
" style="fill:none;stroke:#6e6e6e;stroke-linecap:round;stroke-width:2;"/>
   </g>
   <g id="line2d_132">
    <path clip-path="url(#pa70758a6c9)" d="M 477.683611 92.696356 
L 481.329657 92.696356 
" style="fill:none;stroke:#6e6e6e;stroke-linecap:round;stroke-width:2;"/>
   </g>
   <g id="line2d_133">
    <path clip-path="url(#pa70758a6c9)" d="M 83.315343 103.685425 
L 86.961389 103.685425 
" style="fill:none;stroke:#6e6e6e;stroke-linecap:round;stroke-width:2;"/>
   </g>
   <g id="line2d_134">
    <path clip-path="url(#pa70758a6c9)" d="M 90.756254 170.709493 
L 94.4023 170.709493 
" style="fill:none;stroke:#6e6e6e;stroke-linecap:round;stroke-width:2;"/>
   </g>
   <g id="line2d_135">
    <path clip-path="url(#pa70758a6c9)" d="M 113.078986 214.529087 
L 116.725032 214.529087 
" style="fill:none;stroke:#6e6e6e;stroke-linecap:round;stroke-width:2;"/>
   </g>
   <g id="line2d_136">
    <path clip-path="url(#pa70758a6c9)" d="M 120.519897 209.800504 
L 124.165943 209.800504 
" style="fill:none;stroke:#6e6e6e;stroke-linecap:round;stroke-width:2;"/>
   </g>
   <g id="line2d_137">
    <path clip-path="url(#pa70758a6c9)" d="M 142.842629 208.421893 
L 146.488675 208.421893 
" style="fill:none;stroke:#6e6e6e;stroke-linecap:round;stroke-width:2;"/>
   </g>
   <g id="line2d_138">
    <path clip-path="url(#pa70758a6c9)" d="M 150.283539 207.077774 
L 153.929586 207.077774 
" style="fill:none;stroke:#6e6e6e;stroke-linecap:round;stroke-width:2;"/>
   </g>
   <g id="line2d_139">
    <path clip-path="url(#pa70758a6c9)" d="M 172.606272 195.688173 
L 176.252318 195.688173 
" style="fill:none;stroke:#6e6e6e;stroke-linecap:round;stroke-width:2;"/>
   </g>
   <g id="line2d_140">
    <path clip-path="url(#pa70758a6c9)" d="M 180.047182 206.96668 
L 183.693228 206.96668 
" style="fill:none;stroke:#6e6e6e;stroke-linecap:round;stroke-width:2;"/>
   </g>
   <g id="line2d_141">
    <path clip-path="url(#pa70758a6c9)" d="M 202.369914 80.683524 
L 206.015961 80.683524 
" style="fill:none;stroke:#6e6e6e;stroke-linecap:round;stroke-width:2;"/>
   </g>
   <g id="line2d_142">
    <path clip-path="url(#pa70758a6c9)" d="M 209.810825 158.6831 
L 213.456871 158.6831 
" style="fill:none;stroke:#6e6e6e;stroke-linecap:round;stroke-width:2;"/>
   </g>
   <g id="line2d_143">
    <path clip-path="url(#pa70758a6c9)" d="M 232.133557 196.7823 
L 235.779603 196.7823 
" style="fill:none;stroke:#6e6e6e;stroke-linecap:round;stroke-width:2;"/>
   </g>
   <g id="line2d_144">
    <path clip-path="url(#pa70758a6c9)" d="M 239.574468 199.884548 
L 243.220514 199.884548 
" style="fill:none;stroke:#6e6e6e;stroke-linecap:round;stroke-width:2;"/>
   </g>
   <g id="line2d_145">
    <path clip-path="url(#pa70758a6c9)" d="M 261.8972 112.094957 
L 265.543246 112.094957 
" style="fill:none;stroke:#6e6e6e;stroke-linecap:round;stroke-width:2;"/>
   </g>
   <g id="line2d_146">
    <path clip-path="url(#pa70758a6c9)" d="M 269.338111 181.009363 
L 272.984157 181.009363 
" style="fill:none;stroke:#6e6e6e;stroke-linecap:round;stroke-width:2;"/>
   </g>
   <g id="line2d_147">
    <path clip-path="url(#pa70758a6c9)" d="M 291.660843 210.132255 
L 295.306889 210.132255 
" style="fill:none;stroke:#6e6e6e;stroke-linecap:round;stroke-width:2;"/>
   </g>
   <g id="line2d_148">
    <path clip-path="url(#pa70758a6c9)" d="M 299.101754 214.466199 
L 302.7478 214.466199 
" style="fill:none;stroke:#6e6e6e;stroke-linecap:round;stroke-width:2;"/>
   </g>
   <g id="line2d_149">
    <path clip-path="url(#pa70758a6c9)" d="M 321.424486 211.702604 
L 325.070532 211.702604 
" style="fill:none;stroke:#6e6e6e;stroke-linecap:round;stroke-width:2;"/>
   </g>
   <g id="line2d_150">
    <path clip-path="url(#pa70758a6c9)" d="M 328.865397 215.784925 
L 332.511443 215.784925 
" style="fill:none;stroke:#6e6e6e;stroke-linecap:round;stroke-width:2;"/>
   </g>
   <g id="line2d_151">
    <path clip-path="url(#pa70758a6c9)" d="M 351.188129 210.755339 
L 354.834175 210.755339 
" style="fill:none;stroke:#6e6e6e;stroke-linecap:round;stroke-width:2;"/>
   </g>
   <g id="line2d_152">
    <path clip-path="url(#pa70758a6c9)" d="M 358.629039 220.336931 
L 362.275086 220.336931 
" style="fill:none;stroke:#6e6e6e;stroke-linecap:round;stroke-width:2;"/>
   </g>
   <g id="line2d_153">
    <path clip-path="url(#pa70758a6c9)" d="M 380.951772 107.009906 
L 384.597818 107.009906 
" style="fill:none;stroke:#6e6e6e;stroke-linecap:round;stroke-width:2;"/>
   </g>
   <g id="line2d_154">
    <path clip-path="url(#pa70758a6c9)" d="M 388.392682 178.400761 
L 392.038728 178.400761 
" style="fill:none;stroke:#6e6e6e;stroke-linecap:round;stroke-width:2;"/>
   </g>
   <g id="line2d_155">
    <path clip-path="url(#pa70758a6c9)" d="M 410.715414 188.497797 
L 414.361461 188.497797 
" style="fill:none;stroke:#6e6e6e;stroke-linecap:round;stroke-width:2;"/>
   </g>
   <g id="line2d_156">
    <path clip-path="url(#pa70758a6c9)" d="M 418.156325 209.634608 
L 421.802371 209.634608 
" style="fill:none;stroke:#6e6e6e;stroke-linecap:round;stroke-width:2;"/>
   </g>
   <g id="line2d_157">
    <path clip-path="url(#pa70758a6c9)" d="M 440.479057 184.005721 
L 444.125103 184.005721 
" style="fill:none;stroke:#6e6e6e;stroke-linecap:round;stroke-width:2;"/>
   </g>
   <g id="line2d_158">
    <path clip-path="url(#pa70758a6c9)" d="M 447.919968 247.868341 
L 451.566014 247.868341 
" style="fill:none;stroke:#6e6e6e;stroke-linecap:round;stroke-width:2;"/>
   </g>
   <g id="line2d_159">
    <path clip-path="url(#pa70758a6c9)" d="M 470.2427 160.129297 
L 473.888746 160.129297 
" style="fill:none;stroke:#6e6e6e;stroke-linecap:round;stroke-width:2;"/>
   </g>
   <g id="line2d_160">
    <path clip-path="url(#pa70758a6c9)" d="M 477.683611 188.53221 
L 481.329657 188.53221 
" style="fill:none;stroke:#6e6e6e;stroke-linecap:round;stroke-width:2;"/>
   </g>
   <g id="patch_33">
    <path d="M 73.977 353.052999 
L 73.977 20.352 
" style="fill:none;stroke:#262626;stroke-linecap:square;stroke-linejoin:miter;"/>
   </g>
   <g id="patch_34">
    <path d="M 490.668 353.052999 
L 490.668 20.352 
" style="fill:none;stroke:#262626;stroke-linecap:square;stroke-linejoin:miter;"/>
   </g>
   <g id="patch_35">
    <path d="M 73.977 353.052999 
L 490.668 353.052999 
" style="fill:none;stroke:#262626;stroke-linecap:square;stroke-linejoin:miter;"/>
   </g>
   <g id="patch_36">
    <path d="M 73.977 20.352 
L 490.668 20.352 
" style="fill:none;stroke:#262626;stroke-linecap:square;stroke-linejoin:miter;"/>
   </g>
   <g id="legend_1">
    <g id="patch_37">
     <path d="M 508.24182 63.74248 
L 697.498883 63.74248 
Q 700.138883 63.74248 700.138883 61.10248 
L 700.138883 22.93798 
Q 700.138883 20.29798 697.498883 20.29798 
L 508.24182 20.29798 
Q 505.60182 20.29798 505.60182 22.93798 
L 505.60182 61.10248 
Q 505.60182 63.74248 508.24182 63.74248 
z
" style="fill:#ffffff;opacity:0.8;stroke:#cccccc;stroke-linejoin:miter;stroke-width:0.8;"/>
    </g>
    <g id="patch_38">
     <path d="M 510.88182 35.607918 
L 537.28182 35.607918 
L 537.28182 26.367918 
L 510.88182 26.367918 
z
" style="fill:#c1bed6;stroke:#6e6e6e;stroke-linejoin:miter;"/>
    </g>
    <g id="text_23">
     <!-- metakrr_sk_cnn_10 -->
     <defs>
      <path d="M 52 44.1875 
Q 55.375 50.25 60.0625 53.125 
Q 64.75 56 71.09375 56 
Q 79.640625 56 84.28125 50.015625 
Q 88.921875 44.046875 88.921875 33.015625 
L 88.921875 0 
L 79.890625 0 
L 79.890625 32.71875 
Q 79.890625 40.578125 77.09375 44.375 
Q 74.3125 48.1875 68.609375 48.1875 
Q 61.625 48.1875 57.5625 43.546875 
Q 53.515625 38.921875 53.515625 30.90625 
L 53.515625 0 
L 44.484375 0 
L 44.484375 32.71875 
Q 44.484375 40.625 41.703125 44.40625 
Q 38.921875 48.1875 33.109375 48.1875 
Q 26.21875 48.1875 22.15625 43.53125 
Q 18.109375 38.875 18.109375 30.90625 
L 18.109375 0 
L 9.078125 0 
L 9.078125 54.6875 
L 18.109375 54.6875 
L 18.109375 46.1875 
Q 21.1875 51.21875 25.484375 53.609375 
Q 29.78125 56 35.6875 56 
Q 41.65625 56 45.828125 52.96875 
Q 50 49.953125 52 44.1875 
z
" id="DejaVuSans-109"/>
      <path d="M 9.078125 75.984375 
L 18.109375 75.984375 
L 18.109375 31.109375 
L 44.921875 54.6875 
L 56.390625 54.6875 
L 27.390625 29.109375 
L 57.625 0 
L 45.90625 0 
L 18.109375 26.703125 
L 18.109375 0 
L 9.078125 0 
z
" id="DejaVuSans-107"/>
      <path d="M 50.984375 -16.609375 
L 50.984375 -23.578125 
L -0.984375 -23.578125 
L -0.984375 -16.609375 
z
" id="DejaVuSans-95"/>
      <path d="M 48.78125 52.59375 
L 48.78125 44.1875 
Q 44.96875 46.296875 41.140625 47.34375 
Q 37.3125 48.390625 33.40625 48.390625 
Q 24.65625 48.390625 19.8125 42.84375 
Q 14.984375 37.3125 14.984375 27.296875 
Q 14.984375 17.28125 19.8125 11.734375 
Q 24.65625 6.203125 33.40625 6.203125 
Q 37.3125 6.203125 41.140625 7.25 
Q 44.96875 8.296875 48.78125 10.40625 
L 48.78125 2.09375 
Q 45.015625 0.34375 40.984375 -0.53125 
Q 36.96875 -1.421875 32.421875 -1.421875 
Q 20.0625 -1.421875 12.78125 6.34375 
Q 5.515625 14.109375 5.515625 27.296875 
Q 5.515625 40.671875 12.859375 48.328125 
Q 20.21875 56 33.015625 56 
Q 37.15625 56 41.109375 55.140625 
Q 45.0625 54.296875 48.78125 52.59375 
z
" id="DejaVuSans-99"/>
      <path d="M 12.40625 8.296875 
L 28.515625 8.296875 
L 28.515625 63.921875 
L 10.984375 60.40625 
L 10.984375 69.390625 
L 28.421875 72.90625 
L 38.28125 72.90625 
L 38.28125 8.296875 
L 54.390625 8.296875 
L 54.390625 0 
L 12.40625 0 
z
" id="DejaVuSans-49"/>
     </defs>
     <g style="fill:#262626;" transform="translate(547.84182 35.607918)scale(0.132 -0.132)">
      <use xlink:href="#DejaVuSans-109"/>
      <use x="97.412109" xlink:href="#DejaVuSans-101"/>
      <use x="158.935547" xlink:href="#DejaVuSans-116"/>
      <use x="198.144531" xlink:href="#DejaVuSans-97"/>
      <use x="259.423828" xlink:href="#DejaVuSans-107"/>
      <use x="317.333984" xlink:href="#DejaVuSans-114"/>
      <use x="358.431641" xlink:href="#DejaVuSans-114"/>
      <use x="399.544922" xlink:href="#DejaVuSans-95"/>
      <use x="449.544922" xlink:href="#DejaVuSans-115"/>
      <use x="501.644531" xlink:href="#DejaVuSans-107"/>
      <use x="559.554688" xlink:href="#DejaVuSans-95"/>
      <use x="609.554688" xlink:href="#DejaVuSans-99"/>
      <use x="664.535156" xlink:href="#DejaVuSans-110"/>
      <use x="727.914062" xlink:href="#DejaVuSans-110"/>
      <use x="791.292969" xlink:href="#DejaVuSans-95"/>
      <use x="841.292969" xlink:href="#DejaVuSans-49"/>
      <use x="904.916016" xlink:href="#DejaVuSans-48"/>
     </g>
    </g>
    <g id="patch_39">
     <path d="M 510.88182 55.350168 
L 537.28182 55.350168 
L 537.28182 46.110168 
L 510.88182 46.110168 
z
" style="fill:#ea8e83;stroke:#6e6e6e;stroke-linejoin:miter;"/>
    </g>
    <g id="text_24">
     <!-- rf_morgan_circular_10 -->
     <defs>
      <path d="M 37.109375 75.984375 
L 37.109375 68.5 
L 28.515625 68.5 
Q 23.6875 68.5 21.796875 66.546875 
Q 19.921875 64.59375 19.921875 59.515625 
L 19.921875 54.6875 
L 34.71875 54.6875 
L 34.71875 47.703125 
L 19.921875 47.703125 
L 19.921875 0 
L 10.890625 0 
L 10.890625 47.703125 
L 2.296875 47.703125 
L 2.296875 54.6875 
L 10.890625 54.6875 
L 10.890625 58.5 
Q 10.890625 67.625 15.140625 71.796875 
Q 19.390625 75.984375 28.609375 75.984375 
z
" id="DejaVuSans-102"/>
      <path d="M 45.40625 27.984375 
Q 45.40625 37.75 41.375 43.109375 
Q 37.359375 48.484375 30.078125 48.484375 
Q 22.859375 48.484375 18.828125 43.109375 
Q 14.796875 37.75 14.796875 27.984375 
Q 14.796875 18.265625 18.828125 12.890625 
Q 22.859375 7.515625 30.078125 7.515625 
Q 37.359375 7.515625 41.375 12.890625 
Q 45.40625 18.265625 45.40625 27.984375 
z
M 54.390625 6.78125 
Q 54.390625 -7.171875 48.1875 -13.984375 
Q 42 -20.796875 29.203125 -20.796875 
Q 24.46875 -20.796875 20.265625 -20.09375 
Q 16.0625 -19.390625 12.109375 -17.921875 
L 12.109375 -9.1875 
Q 16.0625 -11.328125 19.921875 -12.34375 
Q 23.78125 -13.375 27.78125 -13.375 
Q 36.625 -13.375 41.015625 -8.765625 
Q 45.40625 -4.15625 45.40625 5.171875 
L 45.40625 9.625 
Q 42.625 4.78125 38.28125 2.390625 
Q 33.9375 0 27.875 0 
Q 17.828125 0 11.671875 7.65625 
Q 5.515625 15.328125 5.515625 27.984375 
Q 5.515625 40.671875 11.671875 48.328125 
Q 17.828125 56 27.875 56 
Q 33.9375 56 38.28125 53.609375 
Q 42.625 51.21875 45.40625 46.390625 
L 45.40625 54.6875 
L 54.390625 54.6875 
z
" id="DejaVuSans-103"/>
      <path d="M 9.421875 75.984375 
L 18.40625 75.984375 
L 18.40625 0 
L 9.421875 0 
z
" id="DejaVuSans-108"/>
     </defs>
     <g style="fill:#262626;" transform="translate(547.84182 55.350168)scale(0.132 -0.132)">
      <use xlink:href="#DejaVuSans-114"/>
      <use x="41.113281" xlink:href="#DejaVuSans-102"/>
      <use x="76.318359" xlink:href="#DejaVuSans-95"/>
      <use x="126.318359" xlink:href="#DejaVuSans-109"/>
      <use x="223.730469" xlink:href="#DejaVuSans-111"/>
      <use x="284.912109" xlink:href="#DejaVuSans-114"/>
      <use x="326.009766" xlink:href="#DejaVuSans-103"/>
      <use x="389.486328" xlink:href="#DejaVuSans-97"/>
      <use x="450.765625" xlink:href="#DejaVuSans-110"/>
      <use x="514.144531" xlink:href="#DejaVuSans-95"/>
      <use x="564.144531" xlink:href="#DejaVuSans-99"/>
      <use x="619.125" xlink:href="#DejaVuSans-105"/>
      <use x="646.908203" xlink:href="#DejaVuSans-114"/>
      <use x="687.990234" xlink:href="#DejaVuSans-99"/>
      <use x="742.970703" xlink:href="#DejaVuSans-117"/>
      <use x="806.349609" xlink:href="#DejaVuSans-108"/>
      <use x="834.132812" xlink:href="#DejaVuSans-97"/>
      <use x="895.412109" xlink:href="#DejaVuSans-114"/>
      <use x="936.525391" xlink:href="#DejaVuSans-95"/>
      <use x="986.525391" xlink:href="#DejaVuSans-49"/>
      <use x="1050.148438" xlink:href="#DejaVuSans-48"/>
     </g>
    </g>
   </g>
  </g>
 </g>
 <defs>
  <clipPath id="pa70758a6c9">
   <rect height="332.700999" width="416.691" x="73.977" y="20.352"/>
  </clipPath>
 </defs>
</svg>
