<?xml version="1.0" encoding="utf-8" standalone="no"?>
<!DOCTYPE svg PUBLIC "-//W3C//DTD SVG 1.1//EN"
  "http://www.w3.org/Graphics/SVG/1.1/DTD/svg11.dtd">
<!-- Created with matplotlib (https://matplotlib.org/) -->
<svg height="432pt" version="1.1" viewBox="0 0 432 432" width="432pt" xmlns="http://www.w3.org/2000/svg" xmlns:xlink="http://www.w3.org/1999/xlink">
 <defs>
  <style type="text/css">
*{stroke-linecap:butt;stroke-linejoin:round;}
  </style>
 </defs>
 <g id="figure_1">
  <g id="patch_1">
   <path d="M 0 432 
L 432 432 
L 432 0 
L 0 0 
z
" style="fill:#ffffff;"/>
  </g>
  <g id="axes_1">
   <g id="patch_2">
    <path d="M 82.477 377.148 
L 351.644167 377.148 
L 351.644167 84.043333 
L 82.477 84.043333 
z
" style="fill:#ffffff;"/>
   </g>
   <g id="matplotlib.axis_1">
    <g id="xtick_1">
     <g id="line2d_1">
      <defs>
       <path d="M 0 0 
L 0 4.8 
" id="m27feb557ab" style="stroke:#262626;"/>
      </defs>
      <g>
       <use style="fill:#262626;stroke:#262626;" x="82.477" xlink:href="#m27feb557ab" y="377.148"/>
      </g>
     </g>
     <g id="text_1">
      <!-- −1.0 -->
      <defs>
       <path d="M 10.59375 35.5 
L 73.1875 35.5 
L 73.1875 27.203125 
L 10.59375 27.203125 
z
" id="DejaVuSans-8722"/>
       <path d="M 12.40625 8.296875 
L 28.515625 8.296875 
L 28.515625 63.921875 
L 10.984375 60.40625 
L 10.984375 69.390625 
L 28.421875 72.90625 
L 38.28125 72.90625 
L 38.28125 8.296875 
L 54.390625 8.296875 
L 54.390625 0 
L 12.40625 0 
z
" id="DejaVuSans-49"/>
       <path d="M 10.6875 12.40625 
L 21 12.40625 
L 21 0 
L 10.6875 0 
z
" id="DejaVuSans-46"/>
       <path d="M 31.78125 66.40625 
Q 24.171875 66.40625 20.328125 58.90625 
Q 16.5 51.421875 16.5 36.375 
Q 16.5 21.390625 20.328125 13.890625 
Q 24.171875 6.390625 31.78125 6.390625 
Q 39.453125 6.390625 43.28125 13.890625 
Q 47.125 21.390625 47.125 36.375 
Q 47.125 51.421875 43.28125 58.90625 
Q 39.453125 66.40625 31.78125 66.40625 
z
M 31.78125 74.21875 
Q 44.046875 74.21875 50.515625 64.515625 
Q 56.984375 54.828125 56.984375 36.375 
Q 56.984375 17.96875 50.515625 8.265625 
Q 44.046875 -1.421875 31.78125 -1.421875 
Q 19.53125 -1.421875 13.0625 8.265625 
Q 6.59375 17.96875 6.59375 36.375 
Q 6.59375 54.828125 13.0625 64.515625 
Q 19.53125 74.21875 31.78125 74.21875 
z
" id="DejaVuSans-48"/>
      </defs>
      <g style="fill:#262626;" transform="translate(66.450344 395.477937)scale(0.132 -0.132)">
       <use xlink:href="#DejaVuSans-8722"/>
       <use x="83.789062" xlink:href="#DejaVuSans-49"/>
       <use x="147.412109" xlink:href="#DejaVuSans-46"/>
       <use x="179.199219" xlink:href="#DejaVuSans-48"/>
      </g>
     </g>
    </g>
    <g id="xtick_2">
     <g id="line2d_2">
      <g>
       <use style="fill:#262626;stroke:#262626;" x="149.768792" xlink:href="#m27feb557ab" y="377.148"/>
      </g>
     </g>
     <g id="text_2">
      <!-- −0.5 -->
      <defs>
       <path d="M 10.796875 72.90625 
L 49.515625 72.90625 
L 49.515625 64.59375 
L 19.828125 64.59375 
L 19.828125 46.734375 
Q 21.96875 47.46875 24.109375 47.828125 
Q 26.265625 48.1875 28.421875 48.1875 
Q 40.625 48.1875 47.75 41.5 
Q 54.890625 34.8125 54.890625 23.390625 
Q 54.890625 11.625 47.5625 5.09375 
Q 40.234375 -1.421875 26.90625 -1.421875 
Q 22.3125 -1.421875 17.546875 -0.640625 
Q 12.796875 0.140625 7.71875 1.703125 
L 7.71875 11.625 
Q 12.109375 9.234375 16.796875 8.0625 
Q 21.484375 6.890625 26.703125 6.890625 
Q 35.15625 6.890625 40.078125 11.328125 
Q 45.015625 15.765625 45.015625 23.390625 
Q 45.015625 31 40.078125 35.4375 
Q 35.15625 39.890625 26.703125 39.890625 
Q 22.75 39.890625 18.8125 39.015625 
Q 14.890625 38.140625 10.796875 36.28125 
z
" id="DejaVuSans-53"/>
      </defs>
      <g style="fill:#262626;" transform="translate(133.742135 395.477937)scale(0.132 -0.132)">
       <use xlink:href="#DejaVuSans-8722"/>
       <use x="83.789062" xlink:href="#DejaVuSans-48"/>
       <use x="147.412109" xlink:href="#DejaVuSans-46"/>
       <use x="179.199219" xlink:href="#DejaVuSans-53"/>
      </g>
     </g>
    </g>
    <g id="xtick_3">
     <g id="line2d_3">
      <g>
       <use style="fill:#262626;stroke:#262626;" x="217.060583" xlink:href="#m27feb557ab" y="377.148"/>
      </g>
     </g>
     <g id="text_3">
      <!-- 0.0 -->
      <g style="fill:#262626;" transform="translate(206.564521 395.477937)scale(0.132 -0.132)">
       <use xlink:href="#DejaVuSans-48"/>
       <use x="63.623047" xlink:href="#DejaVuSans-46"/>
       <use x="95.410156" xlink:href="#DejaVuSans-48"/>
      </g>
     </g>
    </g>
    <g id="xtick_4">
     <g id="line2d_4">
      <g>
       <use style="fill:#262626;stroke:#262626;" x="284.352375" xlink:href="#m27feb557ab" y="377.148"/>
      </g>
     </g>
     <g id="text_4">
      <!-- 0.5 -->
      <g style="fill:#262626;" transform="translate(273.856312 395.477937)scale(0.132 -0.132)">
       <use xlink:href="#DejaVuSans-48"/>
       <use x="63.623047" xlink:href="#DejaVuSans-46"/>
       <use x="95.410156" xlink:href="#DejaVuSans-53"/>
      </g>
     </g>
    </g>
    <g id="xtick_5">
     <g id="line2d_5">
      <g>
       <use style="fill:#262626;stroke:#262626;" x="351.644167" xlink:href="#m27feb557ab" y="377.148"/>
      </g>
     </g>
     <g id="text_5">
      <!-- 1.0 -->
      <g style="fill:#262626;" transform="translate(341.148104 395.477937)scale(0.132 -0.132)">
       <use xlink:href="#DejaVuSans-49"/>
       <use x="63.623047" xlink:href="#DejaVuSans-46"/>
       <use x="95.410156" xlink:href="#DejaVuSans-48"/>
      </g>
     </g>
    </g>
    <g id="text_6">
     <!-- MANN -->
     <defs>
      <path d="M 9.8125 72.90625 
L 24.515625 72.90625 
L 43.109375 23.296875 
L 61.8125 72.90625 
L 76.515625 72.90625 
L 76.515625 0 
L 66.890625 0 
L 66.890625 64.015625 
L 48.09375 14.015625 
L 38.1875 14.015625 
L 19.390625 64.015625 
L 19.390625 0 
L 9.8125 0 
z
" id="DejaVuSans-77"/>
      <path d="M 34.1875 63.1875 
L 20.796875 26.90625 
L 47.609375 26.90625 
z
M 28.609375 72.90625 
L 39.796875 72.90625 
L 67.578125 0 
L 57.328125 0 
L 50.6875 18.703125 
L 17.828125 18.703125 
L 11.1875 0 
L 0.78125 0 
z
" id="DejaVuSans-65"/>
      <path d="M 9.8125 72.90625 
L 23.09375 72.90625 
L 55.421875 11.921875 
L 55.421875 72.90625 
L 64.984375 72.90625 
L 64.984375 0 
L 51.703125 0 
L 19.390625 60.984375 
L 19.390625 0 
L 9.8125 0 
z
" id="DejaVuSans-78"/>
     </defs>
     <g style="fill:#262626;" transform="translate(195.150083 413.164875)scale(0.144 -0.144)">
      <use xlink:href="#DejaVuSans-77"/>
      <use x="86.279297" xlink:href="#DejaVuSans-65"/>
      <use x="154.6875" xlink:href="#DejaVuSans-78"/>
      <use x="229.492188" xlink:href="#DejaVuSans-78"/>
     </g>
    </g>
   </g>
   <g id="matplotlib.axis_2">
    <g id="ytick_1">
     <g id="line2d_6">
      <defs>
       <path d="M 0 0 
L -4.8 0 
" id="me81ac598b7" style="stroke:#262626;"/>
      </defs>
      <g>
       <use style="fill:#262626;stroke:#262626;" x="82.477" xlink:href="#me81ac598b7" y="377.148"/>
      </g>
     </g>
     <g id="text_7">
      <!-- −1.00 -->
      <g style="fill:#262626;" transform="translate(33.725188 382.162969)scale(0.132 -0.132)">
       <use xlink:href="#DejaVuSans-8722"/>
       <use x="83.789062" xlink:href="#DejaVuSans-49"/>
       <use x="147.412109" xlink:href="#DejaVuSans-46"/>
       <use x="179.199219" xlink:href="#DejaVuSans-48"/>
       <use x="242.822266" xlink:href="#DejaVuSans-48"/>
      </g>
     </g>
    </g>
    <g id="ytick_2">
     <g id="line2d_7">
      <g>
       <use style="fill:#262626;stroke:#262626;" x="82.477" xlink:href="#me81ac598b7" y="340.509917"/>
      </g>
     </g>
     <g id="text_8">
      <!-- −0.75 -->
      <defs>
       <path d="M 8.203125 72.90625 
L 55.078125 72.90625 
L 55.078125 68.703125 
L 28.609375 0 
L 18.3125 0 
L 43.21875 64.59375 
L 8.203125 64.59375 
z
" id="DejaVuSans-55"/>
      </defs>
      <g style="fill:#262626;" transform="translate(33.725188 345.524885)scale(0.132 -0.132)">
       <use xlink:href="#DejaVuSans-8722"/>
       <use x="83.789062" xlink:href="#DejaVuSans-48"/>
       <use x="147.412109" xlink:href="#DejaVuSans-46"/>
       <use x="179.199219" xlink:href="#DejaVuSans-55"/>
       <use x="242.822266" xlink:href="#DejaVuSans-53"/>
      </g>
     </g>
    </g>
    <g id="ytick_3">
     <g id="line2d_8">
      <g>
       <use style="fill:#262626;stroke:#262626;" x="82.477" xlink:href="#me81ac598b7" y="303.871833"/>
      </g>
     </g>
     <g id="text_9">
      <!-- −0.50 -->
      <g style="fill:#262626;" transform="translate(33.725188 308.886802)scale(0.132 -0.132)">
       <use xlink:href="#DejaVuSans-8722"/>
       <use x="83.789062" xlink:href="#DejaVuSans-48"/>
       <use x="147.412109" xlink:href="#DejaVuSans-46"/>
       <use x="179.199219" xlink:href="#DejaVuSans-53"/>
       <use x="242.822266" xlink:href="#DejaVuSans-48"/>
      </g>
     </g>
    </g>
    <g id="ytick_4">
     <g id="line2d_9">
      <g>
       <use style="fill:#262626;stroke:#262626;" x="82.477" xlink:href="#me81ac598b7" y="267.23375"/>
      </g>
     </g>
     <g id="text_10">
      <!-- −0.25 -->
      <defs>
       <path d="M 19.1875 8.296875 
L 53.609375 8.296875 
L 53.609375 0 
L 7.328125 0 
L 7.328125 8.296875 
Q 12.9375 14.109375 22.625 23.890625 
Q 32.328125 33.6875 34.8125 36.53125 
Q 39.546875 41.84375 41.421875 45.53125 
Q 43.3125 49.21875 43.3125 52.78125 
Q 43.3125 58.59375 39.234375 62.25 
Q 35.15625 65.921875 28.609375 65.921875 
Q 23.96875 65.921875 18.8125 64.3125 
Q 13.671875 62.703125 7.8125 59.421875 
L 7.8125 69.390625 
Q 13.765625 71.78125 18.9375 73 
Q 24.125 74.21875 28.421875 74.21875 
Q 39.75 74.21875 46.484375 68.546875 
Q 53.21875 62.890625 53.21875 53.421875 
Q 53.21875 48.921875 51.53125 44.890625 
Q 49.859375 40.875 45.40625 35.40625 
Q 44.1875 33.984375 37.640625 27.21875 
Q 31.109375 20.453125 19.1875 8.296875 
z
" id="DejaVuSans-50"/>
      </defs>
      <g style="fill:#262626;" transform="translate(33.725188 272.248719)scale(0.132 -0.132)">
       <use xlink:href="#DejaVuSans-8722"/>
       <use x="83.789062" xlink:href="#DejaVuSans-48"/>
       <use x="147.412109" xlink:href="#DejaVuSans-46"/>
       <use x="179.199219" xlink:href="#DejaVuSans-50"/>
       <use x="242.822266" xlink:href="#DejaVuSans-53"/>
      </g>
     </g>
    </g>
    <g id="ytick_5">
     <g id="line2d_10">
      <g>
       <use style="fill:#262626;stroke:#262626;" x="82.477" xlink:href="#me81ac598b7" y="230.595667"/>
      </g>
     </g>
     <g id="text_11">
      <!-- 0.00 -->
      <g style="fill:#262626;" transform="translate(44.786375 235.610635)scale(0.132 -0.132)">
       <use xlink:href="#DejaVuSans-48"/>
       <use x="63.623047" xlink:href="#DejaVuSans-46"/>
       <use x="95.410156" xlink:href="#DejaVuSans-48"/>
       <use x="159.033203" xlink:href="#DejaVuSans-48"/>
      </g>
     </g>
    </g>
    <g id="ytick_6">
     <g id="line2d_11">
      <g>
       <use style="fill:#262626;stroke:#262626;" x="82.477" xlink:href="#me81ac598b7" y="193.957583"/>
      </g>
     </g>
     <g id="text_12">
      <!-- 0.25 -->
      <g style="fill:#262626;" transform="translate(44.786375 198.972552)scale(0.132 -0.132)">
       <use xlink:href="#DejaVuSans-48"/>
       <use x="63.623047" xlink:href="#DejaVuSans-46"/>
       <use x="95.410156" xlink:href="#DejaVuSans-50"/>
       <use x="159.033203" xlink:href="#DejaVuSans-53"/>
      </g>
     </g>
    </g>
    <g id="ytick_7">
     <g id="line2d_12">
      <g>
       <use style="fill:#262626;stroke:#262626;" x="82.477" xlink:href="#me81ac598b7" y="157.3195"/>
      </g>
     </g>
     <g id="text_13">
      <!-- 0.50 -->
      <g style="fill:#262626;" transform="translate(44.786375 162.334469)scale(0.132 -0.132)">
       <use xlink:href="#DejaVuSans-48"/>
       <use x="63.623047" xlink:href="#DejaVuSans-46"/>
       <use x="95.410156" xlink:href="#DejaVuSans-53"/>
       <use x="159.033203" xlink:href="#DejaVuSans-48"/>
      </g>
     </g>
    </g>
    <g id="ytick_8">
     <g id="line2d_13">
      <g>
       <use style="fill:#262626;stroke:#262626;" x="82.477" xlink:href="#me81ac598b7" y="120.681417"/>
      </g>
     </g>
     <g id="text_14">
      <!-- 0.75 -->
      <g style="fill:#262626;" transform="translate(44.786375 125.696385)scale(0.132 -0.132)">
       <use xlink:href="#DejaVuSans-48"/>
       <use x="63.623047" xlink:href="#DejaVuSans-46"/>
       <use x="95.410156" xlink:href="#DejaVuSans-55"/>
       <use x="159.033203" xlink:href="#DejaVuSans-53"/>
      </g>
     </g>
    </g>
    <g id="ytick_9">
     <g id="line2d_14">
      <g>
       <use style="fill:#262626;stroke:#262626;" x="82.477" xlink:href="#me81ac598b7" y="84.043333"/>
      </g>
     </g>
     <g id="text_15">
      <!-- 1.00 -->
      <g style="fill:#262626;" transform="translate(44.786375 89.058302)scale(0.132 -0.132)">
       <use xlink:href="#DejaVuSans-49"/>
       <use x="63.623047" xlink:href="#DejaVuSans-46"/>
       <use x="95.410156" xlink:href="#DejaVuSans-48"/>
       <use x="159.033203" xlink:href="#DejaVuSans-48"/>
      </g>
     </g>
    </g>
    <g id="text_16">
     <!-- InvivoAI -->
     <defs>
      <path d="M 9.8125 72.90625 
L 19.671875 72.90625 
L 19.671875 0 
L 9.8125 0 
z
" id="DejaVuSans-73"/>
      <path d="M 54.890625 33.015625 
L 54.890625 0 
L 45.90625 0 
L 45.90625 32.71875 
Q 45.90625 40.484375 42.875 44.328125 
Q 39.84375 48.1875 33.796875 48.1875 
Q 26.515625 48.1875 22.3125 43.546875 
Q 18.109375 38.921875 18.109375 30.90625 
L 18.109375 0 
L 9.078125 0 
L 9.078125 54.6875 
L 18.109375 54.6875 
L 18.109375 46.1875 
Q 21.34375 51.125 25.703125 53.5625 
Q 30.078125 56 35.796875 56 
Q 45.21875 56 50.046875 50.171875 
Q 54.890625 44.34375 54.890625 33.015625 
z
" id="DejaVuSans-110"/>
      <path d="M 2.984375 54.6875 
L 12.5 54.6875 
L 29.59375 8.796875 
L 46.6875 54.6875 
L 56.203125 54.6875 
L 35.6875 0 
L 23.484375 0 
z
" id="DejaVuSans-118"/>
      <path d="M 9.421875 54.6875 
L 18.40625 54.6875 
L 18.40625 0 
L 9.421875 0 
z
M 9.421875 75.984375 
L 18.40625 75.984375 
L 18.40625 64.59375 
L 9.421875 64.59375 
z
" id="DejaVuSans-105"/>
      <path d="M 30.609375 48.390625 
Q 23.390625 48.390625 19.1875 42.75 
Q 14.984375 37.109375 14.984375 27.296875 
Q 14.984375 17.484375 19.15625 11.84375 
Q 23.34375 6.203125 30.609375 6.203125 
Q 37.796875 6.203125 41.984375 11.859375 
Q 46.1875 17.53125 46.1875 27.296875 
Q 46.1875 37.015625 41.984375 42.703125 
Q 37.796875 48.390625 30.609375 48.390625 
z
M 30.609375 56 
Q 42.328125 56 49.015625 48.375 
Q 55.71875 40.765625 55.71875 27.296875 
Q 55.71875 13.875 49.015625 6.21875 
Q 42.328125 -1.421875 30.609375 -1.421875 
Q 18.84375 -1.421875 12.171875 6.21875 
Q 5.515625 13.875 5.515625 27.296875 
Q 5.515625 40.765625 12.171875 48.375 
Q 18.84375 56 30.609375 56 
z
" id="DejaVuSans-111"/>
     </defs>
     <g style="fill:#262626;" transform="translate(26.730438 259.260667)rotate(-90)scale(0.144 -0.144)">
      <use xlink:href="#DejaVuSans-73"/>
      <use x="29.492188" xlink:href="#DejaVuSans-110"/>
      <use x="92.871094" xlink:href="#DejaVuSans-118"/>
      <use x="152.050781" xlink:href="#DejaVuSans-105"/>
      <use x="179.833984" xlink:href="#DejaVuSans-118"/>
      <use x="239.013672" xlink:href="#DejaVuSans-111"/>
      <use x="300.195312" xlink:href="#DejaVuSans-65"/>
      <use x="368.603516" xlink:href="#DejaVuSans-73"/>
     </g>
    </g>
   </g>
   <g id="PathCollection_1">
    <defs>
     <path d="M 0 0.866025 
C 0.229673 0.866025 0.449969 0.774776 0.612372 0.612372 
C 0.774776 0.449969 0.866025 0.229673 0.866025 0 
C 0.866025 -0.229673 0.774776 -0.449969 0.612372 -0.612372 
C 0.449969 -0.774776 0.229673 -0.866025 0 -0.866025 
C -0.229673 -0.866025 -0.449969 -0.774776 -0.612372 -0.612372 
C -0.774776 -0.449969 -0.866025 -0.229673 -0.866025 0 
C -0.866025 0.229673 -0.774776 0.449969 -0.612372 0.612372 
C -0.449969 0.774776 -0.229673 0.866025 0 0.866025 
z
" id="me3893be6e7" style="stroke:#4c72b0;stroke-width:0.8;"/>
    </defs>
    <g clip-path="url(#p621f9c9fac)">
     <use style="fill:#4c72b0;stroke:#4c72b0;stroke-width:0.8;" x="265.267414" xlink:href="#me3893be6e7" y="204.719093"/>
     <use style="fill:#4c72b0;stroke:#4c72b0;stroke-width:0.8;" x="273.691963" xlink:href="#me3893be6e7" y="185.28005"/>
     <use style="fill:#4c72b0;stroke:#4c72b0;stroke-width:0.8;" x="281.934101" xlink:href="#me3893be6e7" y="200.274221"/>
     <use style="fill:#4c72b0;stroke:#4c72b0;stroke-width:0.8;" x="289.598452" xlink:href="#me3893be6e7" y="188.985408"/>
     <use style="fill:#4c72b0;stroke:#4c72b0;stroke-width:0.8;" x="291.214854" xlink:href="#me3893be6e7" y="187.455045"/>
     <use style="fill:#4c72b0;stroke:#4c72b0;stroke-width:0.8;" x="282.161299" xlink:href="#me3893be6e7" y="180.259489"/>
     <use style="fill:#4c72b0;stroke:#4c72b0;stroke-width:0.8;" x="272.846433" xlink:href="#me3893be6e7" y="194.873177"/>
     <use style="fill:#4c72b0;stroke:#4c72b0;stroke-width:0.8;" x="261.060586" xlink:href="#me3893be6e7" y="208.984779"/>
     <use style="fill:#4c72b0;stroke:#4c72b0;stroke-width:0.8;" x="285.872138" xlink:href="#me3893be6e7" y="188.228145"/>
     <use style="fill:#4c72b0;stroke:#4c72b0;stroke-width:0.8;" x="273.123249" xlink:href="#me3893be6e7" y="190.085148"/>
     <use style="fill:#4c72b0;stroke:#4c72b0;stroke-width:0.8;" x="286.057121" xlink:href="#me3893be6e7" y="185.616228"/>
     <use style="fill:#4c72b0;stroke:#4c72b0;stroke-width:0.8;" x="267.763511" xlink:href="#me3893be6e7" y="194.744691"/>
     <use style="fill:#4c72b0;stroke:#4c72b0;stroke-width:0.8;" x="288.399304" xlink:href="#me3893be6e7" y="174.464768"/>
     <use style="fill:#4c72b0;stroke:#4c72b0;stroke-width:0.8;" x="282.963427" xlink:href="#me3893be6e7" y="192.955465"/>
    </g>
   </g>
   <g id="line2d_15">
    <path clip-path="url(#p621f9c9fac)" d="M 82.477 377.148 
L 351.644167 84.043333 
" style="fill:none;stroke:#1a1a1a;stroke-dasharray:3.7,1.6;stroke-dashoffset:0;"/>
   </g>
   <g id="patch_3">
    <path d="M 82.477 377.148 
L 82.477 84.043333 
" style="fill:none;stroke:#262626;stroke-linecap:square;stroke-linejoin:miter;"/>
   </g>
   <g id="patch_4">
    <path d="M 82.477 377.148 
L 351.644167 377.148 
" style="fill:none;stroke:#262626;stroke-linecap:square;stroke-linejoin:miter;"/>
   </g>
  </g>
  <g id="axes_2">
   <g id="patch_5">
    <path d="M 82.477 58.691333 
L 351.644167 58.691333 
L 351.644167 20.352 
L 82.477 20.352 
z
" style="fill:#ffffff;"/>
   </g>
   <g id="matplotlib.axis_3">
    <g id="xtick_6">
     <g id="line2d_16">
      <g>
       <use style="fill:#262626;stroke:#262626;" x="82.477" xlink:href="#m27feb557ab" y="58.691333"/>
      </g>
     </g>
    </g>
    <g id="xtick_7">
     <g id="line2d_17">
      <g>
       <use style="fill:#262626;stroke:#262626;" x="149.768792" xlink:href="#m27feb557ab" y="58.691333"/>
      </g>
     </g>
    </g>
    <g id="xtick_8">
     <g id="line2d_18">
      <g>
       <use style="fill:#262626;stroke:#262626;" x="217.060583" xlink:href="#m27feb557ab" y="58.691333"/>
      </g>
     </g>
    </g>
    <g id="xtick_9">
     <g id="line2d_19">
      <g>
       <use style="fill:#262626;stroke:#262626;" x="284.352375" xlink:href="#m27feb557ab" y="58.691333"/>
      </g>
     </g>
    </g>
    <g id="xtick_10">
     <g id="line2d_20">
      <g>
       <use style="fill:#262626;stroke:#262626;" x="351.644167" xlink:href="#m27feb557ab" y="58.691333"/>
      </g>
     </g>
    </g>
   </g>
   <g id="matplotlib.axis_4">
    <g id="ytick_10"/>
    <g id="ytick_11"/>
   </g>
   <g id="patch_6">
    <path clip-path="url(#pb7d925ed23)" d="M 261.060586 58.691333 
L 271.112009 58.691333 
L 271.112009 44.998714 
L 261.060586 44.998714 
z
" style="fill:#4c72b0;opacity:0.4;stroke:#ffffff;stroke-linejoin:miter;stroke-width:0.8;"/>
   </g>
   <g id="patch_7">
    <path clip-path="url(#pb7d925ed23)" d="M 271.112009 58.691333 
L 281.163431 58.691333 
L 281.163431 44.998714 
L 271.112009 44.998714 
z
" style="fill:#4c72b0;opacity:0.4;stroke:#ffffff;stroke-linejoin:miter;stroke-width:0.8;"/>
   </g>
   <g id="patch_8">
    <path clip-path="url(#pb7d925ed23)" d="M 281.163431 58.691333 
L 291.214854 58.691333 
L 291.214854 22.177683 
L 281.163431 22.177683 
z
" style="fill:#4c72b0;opacity:0.4;stroke:#ffffff;stroke-linejoin:miter;stroke-width:0.8;"/>
   </g>
   <g id="patch_9">
    <path clip-path="url(#pb7d925ed23)" d="M 261.060586 58.691333 
L 271.112009 58.691333 
L 271.112009 45.595805 
L 261.060586 45.595805 
z
" style="fill:#4c72b0;opacity:0.4;stroke:#ffffff;stroke-linejoin:miter;stroke-width:0.8;"/>
   </g>
   <g id="patch_10">
    <path clip-path="url(#pb7d925ed23)" d="M 271.112009 58.691333 
L 281.163431 58.691333 
L 281.163431 45.595805 
L 271.112009 45.595805 
z
" style="fill:#4c72b0;opacity:0.4;stroke:#ffffff;stroke-linejoin:miter;stroke-width:0.8;"/>
   </g>
   <g id="patch_11">
    <path clip-path="url(#pb7d925ed23)" d="M 281.163431 58.691333 
L 291.214854 58.691333 
L 291.214854 23.769923 
L 281.163431 23.769923 
z
" style="fill:#4c72b0;opacity:0.4;stroke:#ffffff;stroke-linejoin:miter;stroke-width:0.8;"/>
   </g>
   <g id="line2d_21">
    <path clip-path="url(#pb7d925ed23)" d="M 244.558879 58.639277 
L 245.196836 58.619206 
L 245.834792 58.592554 
L 246.472748 58.557609 
L 247.110705 58.512371 
L 247.748661 58.454543 
L 248.386618 58.38155 
L 249.024574 58.290569 
L 249.66253 58.178581 
L 250.300487 58.042447 
L 250.938443 57.879007 
L 251.5764 57.685198 
L 252.214356 57.458183 
L 252.852312 57.195496 
L 253.490269 56.895188 
L 254.128225 56.555954 
L 254.766181 56.177253 
L 255.404138 55.759394 
L 256.042094 55.303585 
L 256.680051 54.811939 
L 257.318007 54.287435 
L 257.955963 53.733833 
L 258.59392 53.155552 
L 259.231876 52.557512 
L 259.869832 51.944963 
L 260.507789 51.323305 
L 261.145745 50.697918 
L 261.783702 50.07402 
L 262.421658 49.456556 
L 263.059614 48.85012 
L 263.697571 48.258935 
L 264.335527 47.686847 
L 264.973483 47.137355 
L 265.61144 46.613646 
L 266.249396 46.118615 
L 266.887353 45.654852 
L 267.525309 45.22459 
L 268.163265 44.829589 
L 268.801222 44.470966 
L 269.439178 44.148981 
L 270.077134 43.862793 
L 270.715091 43.610228 
L 271.353047 43.387583 
L 271.991004 43.189522 
L 272.62896 43.009086 
L 273.266916 42.837864 
L 273.904873 42.666315 
L 274.542829 42.484273 
L 275.180786 42.281576 
L 275.818742 42.048815 
L 276.456698 41.778116 
L 277.094655 41.463915 
L 277.732611 41.103634 
L 278.370567 40.698217 
L 279.008524 40.25244 
L 279.64648 39.774989 
L 280.284437 39.278275 
L 280.922393 38.777981 
L 281.560349 38.2924 
L 282.198306 37.841576 
L 282.836262 37.446333 
L 283.474218 37.127242 
L 284.112175 36.903604 
L 284.750131 36.792502 
L 285.388088 36.807983 
L 286.026044 36.960401 
L 286.664 37.255962 
L 287.301957 37.696468 
L 287.939913 38.279276 
L 288.577869 38.997456 
L 289.215826 39.840126 
L 289.853782 40.792943 
L 290.491739 41.838731 
L 291.129695 42.958182 
L 291.767651 44.130634 
L 292.405608 45.334851 
L 293.043564 46.549804 
L 293.68152 47.755382 
L 294.319477 48.933042 
L 294.957433 50.066335 
L 295.59539 51.141315 
L 296.233346 52.146806 
L 296.871302 53.074529 
L 297.509259 53.919091 
L 298.147215 54.67785 
L 298.785172 55.350674 
L 299.423128 55.939622 
L 300.061084 56.448567 
L 300.699041 56.882791 
L 301.336997 57.248578 
L 301.974953 57.552832 
L 302.61291 57.802722 
L 303.250866 58.005388 
L 303.888823 58.167694 
L 304.526779 58.296052 
L 305.164735 58.396293 
L 305.802692 58.473598 
L 306.440648 58.532472 
L 307.078604 58.576748 
L 307.716561 58.609631 
" style="fill:none;stroke:#4c72b0;stroke-linecap:round;stroke-width:2;"/>
   </g>
   <g id="patch_12">
    <path d="M 82.477 58.691333 
L 351.644167 58.691333 
" style="fill:none;stroke:#262626;stroke-linecap:square;stroke-linejoin:miter;"/>
   </g>
  </g>
  <g id="axes_3">
   <g id="patch_13">
    <path d="M 382.496167 377.148 
L 411.648 377.148 
L 411.648 84.043333 
L 382.496167 84.043333 
z
" style="fill:#ffffff;"/>
   </g>
   <g id="matplotlib.axis_5">
    <g id="xtick_11"/>
    <g id="xtick_12"/>
   </g>
   <g id="matplotlib.axis_6">
    <g id="ytick_12">
     <g id="line2d_22">
      <g>
       <use style="fill:#262626;stroke:#262626;" x="382.496167" xlink:href="#me81ac598b7" y="377.148"/>
      </g>
     </g>
    </g>
    <g id="ytick_13">
     <g id="line2d_23">
      <g>
       <use style="fill:#262626;stroke:#262626;" x="382.496167" xlink:href="#me81ac598b7" y="340.509917"/>
      </g>
     </g>
    </g>
    <g id="ytick_14">
     <g id="line2d_24">
      <g>
       <use style="fill:#262626;stroke:#262626;" x="382.496167" xlink:href="#me81ac598b7" y="303.871833"/>
      </g>
     </g>
    </g>
    <g id="ytick_15">
     <g id="line2d_25">
      <g>
       <use style="fill:#262626;stroke:#262626;" x="382.496167" xlink:href="#me81ac598b7" y="267.23375"/>
      </g>
     </g>
    </g>
    <g id="ytick_16">
     <g id="line2d_26">
      <g>
       <use style="fill:#262626;stroke:#262626;" x="382.496167" xlink:href="#me81ac598b7" y="230.595667"/>
      </g>
     </g>
    </g>
    <g id="ytick_17">
     <g id="line2d_27">
      <g>
       <use style="fill:#262626;stroke:#262626;" x="382.496167" xlink:href="#me81ac598b7" y="193.957583"/>
      </g>
     </g>
    </g>
    <g id="ytick_18">
     <g id="line2d_28">
      <g>
       <use style="fill:#262626;stroke:#262626;" x="382.496167" xlink:href="#me81ac598b7" y="157.3195"/>
      </g>
     </g>
    </g>
    <g id="ytick_19">
     <g id="line2d_29">
      <g>
       <use style="fill:#262626;stroke:#262626;" x="382.496167" xlink:href="#me81ac598b7" y="120.681417"/>
      </g>
     </g>
    </g>
    <g id="ytick_20">
     <g id="line2d_30">
      <g>
       <use style="fill:#262626;stroke:#262626;" x="382.496167" xlink:href="#me81ac598b7" y="84.043333"/>
      </g>
     </g>
    </g>
   </g>
   <g id="patch_14">
    <path clip-path="url(#pee279ec00b)" d="M 382.496167 208.984779 
L 389.820579 208.984779 
L 389.820579 202.080777 
L 382.496167 202.080777 
z
" style="fill:#4c72b0;opacity:0.4;stroke:#ffffff;stroke-linejoin:miter;stroke-width:0.8;"/>
   </g>
   <g id="patch_15">
    <path clip-path="url(#pee279ec00b)" d="M 382.496167 202.080777 
L 386.158373 202.080777 
L 386.158373 195.176774 
L 382.496167 195.176774 
z
" style="fill:#4c72b0;opacity:0.4;stroke:#ffffff;stroke-linejoin:miter;stroke-width:0.8;"/>
   </g>
   <g id="patch_16">
    <path clip-path="url(#pee279ec00b)" d="M 382.496167 195.176774 
L 400.807198 195.176774 
L 400.807198 188.272772 
L 382.496167 188.272772 
z
" style="fill:#4c72b0;opacity:0.4;stroke:#ffffff;stroke-linejoin:miter;stroke-width:0.8;"/>
   </g>
   <g id="patch_17">
    <path clip-path="url(#pee279ec00b)" d="M 382.496167 188.272772 
L 397.144991 188.272772 
L 397.144991 181.36877 
L 382.496167 181.36877 
z
" style="fill:#4c72b0;opacity:0.4;stroke:#ffffff;stroke-linejoin:miter;stroke-width:0.8;"/>
   </g>
   <g id="patch_18">
    <path clip-path="url(#pee279ec00b)" d="M 382.496167 181.36877 
L 389.820579 181.36877 
L 389.820579 174.464768 
L 382.496167 174.464768 
z
" style="fill:#4c72b0;opacity:0.4;stroke:#ffffff;stroke-linejoin:miter;stroke-width:0.8;"/>
   </g>
   <g id="patch_19">
    <path clip-path="url(#pee279ec00b)" d="M 382.496167 208.984779 
L 393.601627 208.984779 
L 393.601627 202.080777 
L 382.496167 202.080777 
z
" style="fill:#4c72b0;opacity:0.4;stroke:#ffffff;stroke-linejoin:miter;stroke-width:0.8;"/>
   </g>
   <g id="patch_20">
    <path clip-path="url(#pee279ec00b)" d="M 382.496167 202.080777 
L 388.048897 202.080777 
L 388.048897 195.176774 
L 382.496167 195.176774 
z
" style="fill:#4c72b0;opacity:0.4;stroke:#ffffff;stroke-linejoin:miter;stroke-width:0.8;"/>
   </g>
   <g id="patch_21">
    <path clip-path="url(#pee279ec00b)" d="M 382.496167 195.176774 
L 410.259817 195.176774 
L 410.259817 188.272772 
L 382.496167 188.272772 
z
" style="fill:#4c72b0;opacity:0.4;stroke:#ffffff;stroke-linejoin:miter;stroke-width:0.8;"/>
   </g>
   <g id="patch_22">
    <path clip-path="url(#pee279ec00b)" d="M 382.496167 188.272772 
L 404.707087 188.272772 
L 404.707087 181.36877 
L 382.496167 181.36877 
z
" style="fill:#4c72b0;opacity:0.4;stroke:#ffffff;stroke-linejoin:miter;stroke-width:0.8;"/>
   </g>
   <g id="patch_23">
    <path clip-path="url(#pee279ec00b)" d="M 382.496167 181.36877 
L 393.601627 181.36877 
L 393.601627 174.464768 
L 382.496167 174.464768 
z
" style="fill:#4c72b0;opacity:0.4;stroke:#ffffff;stroke-linejoin:miter;stroke-width:0.8;"/>
   </g>
   <g id="line2d_31">
    <path clip-path="url(#pee279ec00b)" d="M 382.54264 224.71076 
L 382.562398 224.044376 
L 382.589222 223.377993 
L 382.625071 222.711609 
L 382.672237 222.045226 
L 382.733322 221.378842 
L 382.811198 220.712459 
L 382.908927 220.046075 
L 383.029652 219.379691 
L 383.176445 218.713308 
L 383.352134 218.046924 
L 383.559109 217.380541 
L 383.799111 216.714157 
L 384.073041 216.047774 
L 384.380793 215.38139 
L 384.721134 214.715006 
L 385.09165 214.048623 
L 385.488777 213.382239 
L 385.907918 212.715856 
L 386.343653 212.049472 
L 386.790031 211.383089 
L 387.24093 210.716705 
L 387.690465 210.050321 
L 388.133408 209.383938 
L 388.565595 208.717554 
L 388.984287 208.051171 
L 389.388451 207.384787 
L 389.778935 206.718404 
L 390.15853 206.05202 
L 390.531893 205.385636 
L 390.905341 204.719253 
L 391.286523 204.052869 
L 391.683979 203.386486 
L 392.106621 202.720102 
L 392.563153 202.053719 
L 393.06148 201.387335 
L 393.608115 200.720951 
L 394.207648 200.054568 
L 394.86228 199.388184 
L 395.571462 198.721801 
L 396.331655 198.055417 
L 397.13622 197.389034 
L 397.975435 196.72265 
L 398.836659 196.056266 
L 399.704607 195.389883 
L 400.561762 194.723499 
L 401.388887 194.057116 
L 402.165641 193.390732 
L 402.871285 192.724349 
L 403.485461 192.057965 
L 403.989022 191.391581 
L 404.364887 190.725198 
L 404.598867 190.058814 
L 404.68044 189.392431 
L 404.603389 188.726047 
L 404.366275 188.059664 
L 403.972667 187.39328 
L 403.431114 186.726896 
L 402.754828 186.060513 
L 401.961073 185.394129 
L 401.070317 184.727746 
L 400.105172 184.061362 
L 399.089221 183.394979 
L 398.045813 182.728595 
L 396.99692 182.062211 
L 395.962139 181.395828 
L 394.957919 180.729444 
L 393.997051 180.063061 
L 393.088459 179.396677 
L 392.237267 178.730294 
L 391.445132 178.06391 
L 390.710779 177.397526 
L 390.030682 176.731143 
L 389.399812 176.064759 
L 388.812384 175.398376 
L 388.262547 174.731992 
L 387.744949 174.065609 
L 387.255163 173.399225 
L 386.789936 172.732842 
L 386.347281 172.066458 
L 385.926416 171.400074 
L 385.52758 170.733691 
L 385.151772 170.067307 
L 384.800439 169.400924 
L 384.475164 168.73454 
L 384.177379 168.068157 
L 383.908133 167.401773 
L 383.667933 166.735389 
L 383.456649 166.069006 
L 383.27351 165.402622 
L 383.117144 164.736239 
L 382.985677 164.069855 
L 382.876855 163.403472 
L 382.788188 162.737088 
L 382.71708 162.070704 
L 382.660956 161.404321 
L 382.61736 160.737937 
L 382.584033 160.071554 
L 382.558962 159.40517 
L 382.5404 158.738787 
" style="fill:none;stroke:#4c72b0;stroke-linecap:round;stroke-width:2;"/>
   </g>
   <g id="patch_24">
    <path d="M 382.496167 377.148 
L 382.496167 84.043333 
" style="fill:none;stroke:#262626;stroke-linecap:square;stroke-linejoin:miter;"/>
   </g>
  </g>
 </g>
 <defs>
  <clipPath id="p621f9c9fac">
   <rect height="293.104667" width="269.167167" x="82.477" y="84.043333"/>
  </clipPath>
  <clipPath id="pb7d925ed23">
   <rect height="38.339333" width="269.167167" x="82.477" y="20.352"/>
  </clipPath>
  <clipPath id="pee279ec00b">
   <rect height="293.104667" width="29.151833" x="382.496167" y="84.043333"/>
  </clipPath>
 </defs>
</svg>
