<?xml version="1.0" encoding="utf-8" standalone="no"?>
<!DOCTYPE svg PUBLIC "-//W3C//DTD SVG 1.1//EN"
  "http://www.w3.org/Graphics/SVG/1.1/DTD/svg11.dtd">
<!-- Created with matplotlib (https://matplotlib.org/) -->
<svg height="432pt" version="1.1" viewBox="0 0 720 432" width="720pt" xmlns="http://www.w3.org/2000/svg" xmlns:xlink="http://www.w3.org/1999/xlink">
 <defs>
  <style type="text/css">
*{stroke-linecap:butt;stroke-linejoin:round;}
  </style>
 </defs>
 <g id="figure_1">
  <g id="patch_1">
   <path d="M 0 432 
L 720 432 
L 720 0 
L 0 0 
z
" style="fill:#ffffff;"/>
  </g>
  <g id="axes_1">
   <g id="patch_2">
    <path d="M 90 378 
L 648 378 
L 648 51.84 
L 90 51.84 
z
" style="fill:#ffffff;"/>
   </g>
   <g id="matplotlib.axis_1">
    <g id="xtick_1">
     <g id="line2d_1">
      <defs>
       <path d="M 0 0 
L 0 4.8 
" id="m66a311ad82" style="stroke:#262626;"/>
      </defs>
      <g>
       <use style="fill:#262626;stroke:#262626;" x="229.5" xlink:href="#m66a311ad82" y="378"/>
      </g>
     </g>
     <g id="text_1">
      <!-- mhc -->
      <defs>
       <path d="M 6.59375 0 
L 6.59375 51.859375 
L 14.453125 51.859375 
L 14.453125 44.578125 
Q 16.890625 48.390625 20.9375 50.703125 
Q 25 53.03125 30.171875 53.03125 
Q 35.9375 53.03125 39.625 50.640625 
Q 43.3125 48.25 44.828125 43.953125 
Q 50.984375 53.03125 60.84375 53.03125 
Q 68.5625 53.03125 72.703125 48.75 
Q 76.859375 44.484375 76.859375 35.59375 
L 76.859375 0 
L 68.109375 0 
L 68.109375 32.671875 
Q 68.109375 37.9375 67.25 40.25 
Q 66.40625 42.578125 64.15625 43.984375 
Q 61.921875 45.40625 58.890625 45.40625 
Q 53.421875 45.40625 49.796875 41.765625 
Q 46.1875 38.140625 46.1875 30.125 
L 46.1875 0 
L 37.40625 0 
L 37.40625 33.6875 
Q 37.40625 39.546875 35.25 42.46875 
Q 33.109375 45.40625 28.21875 45.40625 
Q 24.515625 45.40625 21.359375 43.453125 
Q 18.21875 41.5 16.796875 37.734375 
Q 15.375 33.984375 15.375 26.90625 
L 15.375 0 
z
" id="ArialMT-109"/>
       <path d="M 6.59375 0 
L 6.59375 71.578125 
L 15.375 71.578125 
L 15.375 45.90625 
Q 21.53125 53.03125 30.90625 53.03125 
Q 36.671875 53.03125 40.921875 50.75 
Q 45.171875 48.484375 47 44.484375 
Q 48.828125 40.484375 48.828125 32.859375 
L 48.828125 0 
L 40.046875 0 
L 40.046875 32.859375 
Q 40.046875 39.453125 37.1875 42.453125 
Q 34.328125 45.453125 29.109375 45.453125 
Q 25.203125 45.453125 21.75 43.421875 
Q 18.3125 41.40625 16.84375 37.9375 
Q 15.375 34.46875 15.375 28.375 
L 15.375 0 
z
" id="ArialMT-104"/>
       <path d="M 40.4375 19 
L 49.078125 17.875 
Q 47.65625 8.9375 41.8125 3.875 
Q 35.984375 -1.171875 27.484375 -1.171875 
Q 16.84375 -1.171875 10.375 5.78125 
Q 3.90625 12.75 3.90625 25.734375 
Q 3.90625 34.125 6.6875 40.421875 
Q 9.46875 46.734375 15.15625 49.875 
Q 20.84375 53.03125 27.546875 53.03125 
Q 35.984375 53.03125 41.359375 48.75 
Q 46.734375 44.484375 48.25 36.625 
L 39.703125 35.296875 
Q 38.484375 40.53125 35.375 43.15625 
Q 32.28125 45.796875 27.875 45.796875 
Q 21.234375 45.796875 17.078125 41.03125 
Q 12.9375 36.28125 12.9375 25.984375 
Q 12.9375 15.53125 16.9375 10.796875 
Q 20.953125 6.0625 27.390625 6.0625 
Q 32.5625 6.0625 36.03125 9.234375 
Q 39.5 12.40625 40.4375 19 
z
" id="ArialMT-99"/>
      </defs>
      <g style="fill:#262626;" transform="translate(223.974423 387.940682)rotate(-280)scale(0.132 -0.132)">
       <use xlink:href="#ArialMT-109"/>
       <use x="83.300781" xlink:href="#ArialMT-104"/>
       <use x="138.916016" xlink:href="#ArialMT-99"/>
      </g>
     </g>
    </g>
    <g id="xtick_2">
     <g id="line2d_2">
      <g>
       <use style="fill:#262626;stroke:#262626;" x="508.5" xlink:href="#m66a311ad82" y="378"/>
      </g>
     </g>
     <g id="text_2">
      <!-- chembl -->
      <defs>
       <path d="M 42.09375 16.703125 
L 51.171875 15.578125 
Q 49.03125 7.625 43.21875 3.21875 
Q 37.40625 -1.171875 28.375 -1.171875 
Q 17 -1.171875 10.328125 5.828125 
Q 3.65625 12.84375 3.65625 25.484375 
Q 3.65625 38.578125 10.390625 45.796875 
Q 17.140625 53.03125 27.875 53.03125 
Q 38.28125 53.03125 44.875 45.953125 
Q 51.46875 38.875 51.46875 26.03125 
Q 51.46875 25.25 51.421875 23.6875 
L 12.75 23.6875 
Q 13.234375 15.140625 17.578125 10.59375 
Q 21.921875 6.0625 28.421875 6.0625 
Q 33.25 6.0625 36.671875 8.59375 
Q 40.09375 11.140625 42.09375 16.703125 
z
M 13.234375 30.90625 
L 42.1875 30.90625 
Q 41.609375 37.453125 38.875 40.71875 
Q 34.671875 45.796875 27.984375 45.796875 
Q 21.921875 45.796875 17.796875 41.75 
Q 13.671875 37.703125 13.234375 30.90625 
z
" id="ArialMT-101"/>
       <path d="M 14.703125 0 
L 6.546875 0 
L 6.546875 71.578125 
L 15.328125 71.578125 
L 15.328125 46.046875 
Q 20.90625 53.03125 29.546875 53.03125 
Q 34.328125 53.03125 38.59375 51.09375 
Q 42.875 49.171875 45.625 45.671875 
Q 48.390625 42.1875 49.953125 37.25 
Q 51.515625 32.328125 51.515625 26.703125 
Q 51.515625 13.375 44.921875 6.09375 
Q 38.328125 -1.171875 29.109375 -1.171875 
Q 19.921875 -1.171875 14.703125 6.5 
z
M 14.59375 26.3125 
Q 14.59375 17 17.140625 12.84375 
Q 21.296875 6.0625 28.375 6.0625 
Q 34.125 6.0625 38.328125 11.0625 
Q 42.53125 16.0625 42.53125 25.984375 
Q 42.53125 36.140625 38.5 40.96875 
Q 34.46875 45.796875 28.765625 45.796875 
Q 23 45.796875 18.796875 40.796875 
Q 14.59375 35.796875 14.59375 26.3125 
z
" id="ArialMT-98"/>
       <path d="M 6.390625 0 
L 6.390625 71.578125 
L 15.1875 71.578125 
L 15.1875 0 
z
" id="ArialMT-108"/>
      </defs>
      <g style="fill:#262626;" transform="translate(501.445125 387.940682)rotate(-280)scale(0.132 -0.132)">
       <use xlink:href="#ArialMT-99"/>
       <use x="50" xlink:href="#ArialMT-104"/>
       <use x="105.615234" xlink:href="#ArialMT-101"/>
       <use x="161.230469" xlink:href="#ArialMT-109"/>
       <use x="244.53125" xlink:href="#ArialMT-98"/>
       <use x="300.146484" xlink:href="#ArialMT-108"/>
      </g>
     </g>
    </g>
    <g id="text_3">
     <!-- dataset -->
     <defs>
      <path d="M 40.234375 0 
L 40.234375 6.546875 
Q 35.296875 -1.171875 25.734375 -1.171875 
Q 19.53125 -1.171875 14.328125 2.25 
Q 9.125 5.671875 6.265625 11.796875 
Q 3.421875 17.921875 3.421875 25.875 
Q 3.421875 33.640625 6 39.96875 
Q 8.59375 46.296875 13.765625 49.65625 
Q 18.953125 53.03125 25.34375 53.03125 
Q 30.03125 53.03125 33.6875 51.046875 
Q 37.359375 49.078125 39.65625 45.90625 
L 39.65625 71.578125 
L 48.390625 71.578125 
L 48.390625 0 
z
M 12.453125 25.875 
Q 12.453125 15.921875 16.640625 10.984375 
Q 20.84375 6.0625 26.5625 6.0625 
Q 32.328125 6.0625 36.34375 10.765625 
Q 40.375 15.484375 40.375 25.140625 
Q 40.375 35.796875 36.265625 40.765625 
Q 32.171875 45.75 26.171875 45.75 
Q 20.3125 45.75 16.375 40.96875 
Q 12.453125 36.1875 12.453125 25.875 
z
" id="ArialMT-100"/>
      <path d="M 40.4375 6.390625 
Q 35.546875 2.25 31.03125 0.53125 
Q 26.515625 -1.171875 21.34375 -1.171875 
Q 12.796875 -1.171875 8.203125 3 
Q 3.609375 7.171875 3.609375 13.671875 
Q 3.609375 17.484375 5.34375 20.625 
Q 7.078125 23.78125 9.890625 25.6875 
Q 12.703125 27.59375 16.21875 28.5625 
Q 18.796875 29.25 24.03125 29.890625 
Q 34.671875 31.15625 39.703125 32.90625 
Q 39.75 34.71875 39.75 35.203125 
Q 39.75 40.578125 37.25 42.78125 
Q 33.890625 45.75 27.25 45.75 
Q 21.046875 45.75 18.09375 43.578125 
Q 15.140625 41.40625 13.71875 35.890625 
L 5.125 37.0625 
Q 6.296875 42.578125 8.984375 45.96875 
Q 11.671875 49.359375 16.75 51.1875 
Q 21.828125 53.03125 28.515625 53.03125 
Q 35.15625 53.03125 39.296875 51.46875 
Q 43.453125 49.90625 45.40625 47.53125 
Q 47.359375 45.171875 48.140625 41.546875 
Q 48.578125 39.3125 48.578125 33.453125 
L 48.578125 21.734375 
Q 48.578125 9.46875 49.140625 6.21875 
Q 49.703125 2.984375 51.375 0 
L 42.1875 0 
Q 40.828125 2.734375 40.4375 6.390625 
z
M 39.703125 26.03125 
Q 34.90625 24.078125 25.34375 22.703125 
Q 19.921875 21.921875 17.671875 20.9375 
Q 15.4375 19.96875 14.203125 18.09375 
Q 12.984375 16.21875 12.984375 13.921875 
Q 12.984375 10.40625 15.640625 8.0625 
Q 18.3125 5.71875 23.4375 5.71875 
Q 28.515625 5.71875 32.46875 7.9375 
Q 36.421875 10.15625 38.28125 14.015625 
Q 39.703125 17 39.703125 22.796875 
z
" id="ArialMT-97"/>
      <path d="M 25.78125 7.859375 
L 27.046875 0.09375 
Q 23.34375 -0.6875 20.40625 -0.6875 
Q 15.625 -0.6875 12.984375 0.828125 
Q 10.359375 2.34375 9.28125 4.8125 
Q 8.203125 7.28125 8.203125 15.1875 
L 8.203125 45.015625 
L 1.765625 45.015625 
L 1.765625 51.859375 
L 8.203125 51.859375 
L 8.203125 64.703125 
L 16.9375 69.96875 
L 16.9375 51.859375 
L 25.78125 51.859375 
L 25.78125 45.015625 
L 16.9375 45.015625 
L 16.9375 14.703125 
Q 16.9375 10.9375 17.40625 9.859375 
Q 17.875 8.796875 18.921875 8.15625 
Q 19.96875 7.515625 21.921875 7.515625 
Q 23.390625 7.515625 25.78125 7.859375 
z
" id="ArialMT-116"/>
      <path d="M 3.078125 15.484375 
L 11.765625 16.84375 
Q 12.5 11.625 15.84375 8.84375 
Q 19.1875 6.0625 25.203125 6.0625 
Q 31.25 6.0625 34.171875 8.515625 
Q 37.109375 10.984375 37.109375 14.3125 
Q 37.109375 17.28125 34.515625 19 
Q 32.71875 20.171875 25.53125 21.96875 
Q 15.875 24.421875 12.140625 26.203125 
Q 8.40625 27.984375 6.46875 31.125 
Q 4.546875 34.28125 4.546875 38.09375 
Q 4.546875 41.546875 6.125 44.5 
Q 7.71875 47.46875 10.453125 49.421875 
Q 12.5 50.921875 16.03125 51.96875 
Q 19.578125 53.03125 23.640625 53.03125 
Q 29.734375 53.03125 34.34375 51.265625 
Q 38.96875 49.515625 41.15625 46.5 
Q 43.359375 43.5 44.1875 38.484375 
L 35.59375 37.3125 
Q 35.015625 41.3125 32.203125 43.546875 
Q 29.390625 45.796875 24.265625 45.796875 
Q 18.21875 45.796875 15.625 43.796875 
Q 13.03125 41.796875 13.03125 39.109375 
Q 13.03125 37.40625 14.109375 36.03125 
Q 15.1875 34.625 17.484375 33.6875 
Q 18.796875 33.203125 25.25 31.453125 
Q 34.578125 28.953125 38.25 27.359375 
Q 41.9375 25.78125 44.03125 22.75 
Q 46.140625 19.734375 46.140625 15.234375 
Q 46.140625 10.84375 43.578125 6.953125 
Q 41.015625 3.078125 36.171875 0.953125 
Q 31.34375 -1.171875 25.25 -1.171875 
Q 15.140625 -1.171875 9.84375 3.03125 
Q 4.546875 7.234375 3.078125 15.484375 
z
" id="ArialMT-115"/>
     </defs>
     <g style="fill:#262626;" transform="translate(345.384 444.606453)scale(0.144 -0.144)">
      <use xlink:href="#ArialMT-100"/>
      <use x="55.615234" xlink:href="#ArialMT-97"/>
      <use x="111.230469" xlink:href="#ArialMT-116"/>
      <use x="139.013672" xlink:href="#ArialMT-97"/>
      <use x="194.628906" xlink:href="#ArialMT-115"/>
      <use x="244.628906" xlink:href="#ArialMT-101"/>
      <use x="300.244141" xlink:href="#ArialMT-116"/>
     </g>
    </g>
   </g>
   <g id="matplotlib.axis_2">
    <g id="ytick_1">
     <g id="line2d_3">
      <defs>
       <path d="M 0 0 
L -4.8 0 
" id="mffc55ceddb" style="stroke:#262626;"/>
      </defs>
      <g>
       <use style="fill:#262626;stroke:#262626;" x="90" xlink:href="#mffc55ceddb" y="349.989898"/>
      </g>
     </g>
     <g id="text_4">
      <!-- −0.6 -->
      <defs>
       <path d="M 52.828125 31.203125 
L 5.5625 31.203125 
L 5.5625 39.40625 
L 52.828125 39.40625 
z
" id="ArialMT-8722"/>
       <path d="M 4.15625 35.296875 
Q 4.15625 48 6.765625 55.734375 
Q 9.375 63.484375 14.515625 67.671875 
Q 19.671875 71.875 27.484375 71.875 
Q 33.25 71.875 37.59375 69.546875 
Q 41.9375 67.234375 44.765625 62.859375 
Q 47.609375 58.5 49.21875 52.21875 
Q 50.828125 45.953125 50.828125 35.296875 
Q 50.828125 22.703125 48.234375 14.96875 
Q 45.65625 7.234375 40.5 3 
Q 35.359375 -1.21875 27.484375 -1.21875 
Q 17.140625 -1.21875 11.234375 6.203125 
Q 4.15625 15.140625 4.15625 35.296875 
z
M 13.1875 35.296875 
Q 13.1875 17.671875 17.3125 11.828125 
Q 21.4375 6 27.484375 6 
Q 33.546875 6 37.671875 11.859375 
Q 41.796875 17.71875 41.796875 35.296875 
Q 41.796875 52.984375 37.671875 58.78125 
Q 33.546875 64.59375 27.390625 64.59375 
Q 21.34375 64.59375 17.71875 59.46875 
Q 13.1875 52.9375 13.1875 35.296875 
z
" id="ArialMT-48"/>
       <path d="M 9.078125 0 
L 9.078125 10.015625 
L 19.09375 10.015625 
L 19.09375 0 
z
" id="ArialMT-46"/>
       <path d="M 49.75 54.046875 
L 41.015625 53.375 
Q 39.84375 58.546875 37.703125 60.890625 
Q 34.125 64.65625 28.90625 64.65625 
Q 24.703125 64.65625 21.53125 62.3125 
Q 17.390625 59.28125 14.984375 53.46875 
Q 12.59375 47.65625 12.5 36.921875 
Q 15.671875 41.75 20.265625 44.09375 
Q 24.859375 46.4375 29.890625 46.4375 
Q 38.671875 46.4375 44.84375 39.96875 
Q 51.03125 33.5 51.03125 23.25 
Q 51.03125 16.5 48.125 10.71875 
Q 45.21875 4.9375 40.140625 1.859375 
Q 35.0625 -1.21875 28.609375 -1.21875 
Q 17.625 -1.21875 10.6875 6.859375 
Q 3.765625 14.9375 3.765625 33.5 
Q 3.765625 54.25 11.421875 63.671875 
Q 18.109375 71.875 29.4375 71.875 
Q 37.890625 71.875 43.28125 67.140625 
Q 48.6875 62.40625 49.75 54.046875 
z
M 13.875 23.1875 
Q 13.875 18.65625 15.796875 14.5 
Q 17.71875 10.359375 21.1875 8.171875 
Q 24.65625 6 28.46875 6 
Q 34.03125 6 38.03125 10.484375 
Q 42.046875 14.984375 42.046875 22.703125 
Q 42.046875 30.125 38.078125 34.390625 
Q 34.125 38.671875 28.125 38.671875 
Q 22.171875 38.671875 18.015625 34.390625 
Q 13.875 30.125 13.875 23.1875 
z
" id="ArialMT-54"/>
      </defs>
      <g style="fill:#262626;" transform="translate(55.642375 354.714054)scale(0.132 -0.132)">
       <use xlink:href="#ArialMT-8722"/>
       <use x="58.398438" xlink:href="#ArialMT-48"/>
       <use x="114.013672" xlink:href="#ArialMT-46"/>
       <use x="141.796875" xlink:href="#ArialMT-54"/>
      </g>
     </g>
    </g>
    <g id="ytick_2">
     <g id="line2d_4">
      <g>
       <use style="fill:#262626;stroke:#262626;" x="90" xlink:href="#mffc55ceddb" y="313.65419"/>
      </g>
     </g>
     <g id="text_5">
      <!-- −0.4 -->
      <defs>
       <path d="M 32.328125 0 
L 32.328125 17.140625 
L 1.265625 17.140625 
L 1.265625 25.203125 
L 33.9375 71.578125 
L 41.109375 71.578125 
L 41.109375 25.203125 
L 50.78125 25.203125 
L 50.78125 17.140625 
L 41.109375 17.140625 
L 41.109375 0 
z
M 32.328125 25.203125 
L 32.328125 57.46875 
L 9.90625 25.203125 
z
" id="ArialMT-52"/>
      </defs>
      <g style="fill:#262626;" transform="translate(55.642375 318.378346)scale(0.132 -0.132)">
       <use xlink:href="#ArialMT-8722"/>
       <use x="58.398438" xlink:href="#ArialMT-48"/>
       <use x="114.013672" xlink:href="#ArialMT-46"/>
       <use x="141.796875" xlink:href="#ArialMT-52"/>
      </g>
     </g>
    </g>
    <g id="ytick_3">
     <g id="line2d_5">
      <g>
       <use style="fill:#262626;stroke:#262626;" x="90" xlink:href="#mffc55ceddb" y="277.318483"/>
      </g>
     </g>
     <g id="text_6">
      <!-- −0.2 -->
      <defs>
       <path d="M 50.34375 8.453125 
L 50.34375 0 
L 3.03125 0 
Q 2.9375 3.171875 4.046875 6.109375 
Q 5.859375 10.9375 9.828125 15.625 
Q 13.8125 20.3125 21.34375 26.46875 
Q 33.015625 36.03125 37.109375 41.625 
Q 41.21875 47.21875 41.21875 52.203125 
Q 41.21875 57.421875 37.46875 61 
Q 33.734375 64.59375 27.734375 64.59375 
Q 21.390625 64.59375 17.578125 60.78125 
Q 13.765625 56.984375 13.71875 50.25 
L 4.6875 51.171875 
Q 5.609375 61.28125 11.65625 66.578125 
Q 17.71875 71.875 27.9375 71.875 
Q 38.234375 71.875 44.234375 66.15625 
Q 50.25 60.453125 50.25 52 
Q 50.25 47.703125 48.484375 43.546875 
Q 46.734375 39.40625 42.65625 34.8125 
Q 38.578125 30.21875 29.109375 22.21875 
Q 21.1875 15.578125 18.9375 13.203125 
Q 16.703125 10.84375 15.234375 8.453125 
z
" id="ArialMT-50"/>
      </defs>
      <g style="fill:#262626;" transform="translate(55.642375 282.042639)scale(0.132 -0.132)">
       <use xlink:href="#ArialMT-8722"/>
       <use x="58.398438" xlink:href="#ArialMT-48"/>
       <use x="114.013672" xlink:href="#ArialMT-46"/>
       <use x="141.796875" xlink:href="#ArialMT-50"/>
      </g>
     </g>
    </g>
    <g id="ytick_4">
     <g id="line2d_6">
      <g>
       <use style="fill:#262626;stroke:#262626;" x="90" xlink:href="#mffc55ceddb" y="240.982775"/>
      </g>
     </g>
     <g id="text_7">
      <!-- 0.0 -->
      <g style="fill:#262626;" transform="translate(63.352 245.706932)scale(0.132 -0.132)">
       <use xlink:href="#ArialMT-48"/>
       <use x="55.615234" xlink:href="#ArialMT-46"/>
       <use x="83.398438" xlink:href="#ArialMT-48"/>
      </g>
     </g>
    </g>
    <g id="ytick_5">
     <g id="line2d_7">
      <g>
       <use style="fill:#262626;stroke:#262626;" x="90" xlink:href="#mffc55ceddb" y="204.647068"/>
      </g>
     </g>
     <g id="text_8">
      <!-- 0.2 -->
      <g style="fill:#262626;" transform="translate(63.352 209.371224)scale(0.132 -0.132)">
       <use xlink:href="#ArialMT-48"/>
       <use x="55.615234" xlink:href="#ArialMT-46"/>
       <use x="83.398438" xlink:href="#ArialMT-50"/>
      </g>
     </g>
    </g>
    <g id="ytick_6">
     <g id="line2d_8">
      <g>
       <use style="fill:#262626;stroke:#262626;" x="90" xlink:href="#mffc55ceddb" y="168.311361"/>
      </g>
     </g>
     <g id="text_9">
      <!-- 0.4 -->
      <g style="fill:#262626;" transform="translate(63.352 173.035517)scale(0.132 -0.132)">
       <use xlink:href="#ArialMT-48"/>
       <use x="55.615234" xlink:href="#ArialMT-46"/>
       <use x="83.398438" xlink:href="#ArialMT-52"/>
      </g>
     </g>
    </g>
    <g id="ytick_7">
     <g id="line2d_9">
      <g>
       <use style="fill:#262626;stroke:#262626;" x="90" xlink:href="#mffc55ceddb" y="131.975653"/>
      </g>
     </g>
     <g id="text_10">
      <!-- 0.6 -->
      <g style="fill:#262626;" transform="translate(63.352 136.69981)scale(0.132 -0.132)">
       <use xlink:href="#ArialMT-48"/>
       <use x="55.615234" xlink:href="#ArialMT-46"/>
       <use x="83.398438" xlink:href="#ArialMT-54"/>
      </g>
     </g>
    </g>
    <g id="ytick_8">
     <g id="line2d_10">
      <g>
       <use style="fill:#262626;stroke:#262626;" x="90" xlink:href="#mffc55ceddb" y="95.639946"/>
      </g>
     </g>
     <g id="text_11">
      <!-- 0.8 -->
      <defs>
       <path d="M 17.671875 38.8125 
Q 12.203125 40.828125 9.5625 44.53125 
Q 6.9375 48.25 6.9375 53.421875 
Q 6.9375 61.234375 12.546875 66.546875 
Q 18.171875 71.875 27.484375 71.875 
Q 36.859375 71.875 42.578125 66.421875 
Q 48.296875 60.984375 48.296875 53.171875 
Q 48.296875 48.1875 45.671875 44.5 
Q 43.0625 40.828125 37.75 38.8125 
Q 44.34375 36.671875 47.78125 31.875 
Q 51.21875 27.09375 51.21875 20.453125 
Q 51.21875 11.28125 44.71875 5.03125 
Q 38.234375 -1.21875 27.640625 -1.21875 
Q 17.046875 -1.21875 10.546875 5.046875 
Q 4.046875 11.328125 4.046875 20.703125 
Q 4.046875 27.6875 7.59375 32.390625 
Q 11.140625 37.109375 17.671875 38.8125 
z
M 15.921875 53.71875 
Q 15.921875 48.640625 19.1875 45.40625 
Q 22.46875 42.1875 27.6875 42.1875 
Q 32.765625 42.1875 36.015625 45.375 
Q 39.265625 48.578125 39.265625 53.21875 
Q 39.265625 58.0625 35.90625 61.359375 
Q 32.5625 64.65625 27.59375 64.65625 
Q 22.5625 64.65625 19.234375 61.421875 
Q 15.921875 58.203125 15.921875 53.71875 
z
M 13.09375 20.65625 
Q 13.09375 16.890625 14.875 13.375 
Q 16.65625 9.859375 20.171875 7.921875 
Q 23.6875 6 27.734375 6 
Q 34.03125 6 38.125 10.046875 
Q 42.234375 14.109375 42.234375 20.359375 
Q 42.234375 26.703125 38.015625 30.859375 
Q 33.796875 35.015625 27.4375 35.015625 
Q 21.234375 35.015625 17.15625 30.90625 
Q 13.09375 26.8125 13.09375 20.65625 
z
" id="ArialMT-56"/>
      </defs>
      <g style="fill:#262626;" transform="translate(63.352 100.364102)scale(0.132 -0.132)">
       <use xlink:href="#ArialMT-48"/>
       <use x="55.615234" xlink:href="#ArialMT-46"/>
       <use x="83.398438" xlink:href="#ArialMT-56"/>
      </g>
     </g>
    </g>
    <g id="ytick_9">
     <g id="line2d_11">
      <g>
       <use style="fill:#262626;stroke:#262626;" x="90" xlink:href="#mffc55ceddb" y="59.304239"/>
      </g>
     </g>
     <g id="text_12">
      <!-- 1.0 -->
      <defs>
       <path d="M 37.25 0 
L 28.46875 0 
L 28.46875 56 
Q 25.296875 52.984375 20.140625 49.953125 
Q 14.984375 46.921875 10.890625 45.40625 
L 10.890625 53.90625 
Q 18.265625 57.375 23.78125 62.296875 
Q 29.296875 67.234375 31.59375 71.875 
L 37.25 71.875 
z
" id="ArialMT-49"/>
      </defs>
      <g style="fill:#262626;" transform="translate(63.352 64.028395)scale(0.132 -0.132)">
       <use xlink:href="#ArialMT-49"/>
       <use x="55.615234" xlink:href="#ArialMT-46"/>
       <use x="83.398438" xlink:href="#ArialMT-48"/>
      </g>
     </g>
    </g>
    <g id="text_13">
     <!-- Pearson's r -->
     <defs>
      <path d="M 7.71875 0 
L 7.71875 71.578125 
L 34.71875 71.578125 
Q 41.84375 71.578125 45.609375 70.90625 
Q 50.875 70.015625 54.4375 67.546875 
Q 58.015625 65.09375 60.1875 60.640625 
Q 62.359375 56.203125 62.359375 50.875 
Q 62.359375 41.75 56.546875 35.421875 
Q 50.734375 29.109375 35.546875 29.109375 
L 17.1875 29.109375 
L 17.1875 0 
z
M 17.1875 37.546875 
L 35.6875 37.546875 
Q 44.875 37.546875 48.734375 40.96875 
Q 52.59375 44.390625 52.59375 50.59375 
Q 52.59375 55.078125 50.3125 58.265625 
Q 48.046875 61.46875 44.34375 62.5 
Q 41.9375 63.140625 35.5 63.140625 
L 17.1875 63.140625 
z
" id="ArialMT-80"/>
      <path d="M 6.5 0 
L 6.5 51.859375 
L 14.40625 51.859375 
L 14.40625 44 
Q 17.4375 49.515625 20 51.265625 
Q 22.5625 53.03125 25.640625 53.03125 
Q 30.078125 53.03125 34.671875 50.203125 
L 31.640625 42.046875 
Q 28.421875 43.953125 25.203125 43.953125 
Q 22.3125 43.953125 20.015625 42.21875 
Q 17.71875 40.484375 16.75 37.40625 
Q 15.28125 32.71875 15.28125 27.15625 
L 15.28125 0 
z
" id="ArialMT-114"/>
      <path d="M 3.328125 25.921875 
Q 3.328125 40.328125 11.328125 47.265625 
Q 18.015625 53.03125 27.640625 53.03125 
Q 38.328125 53.03125 45.109375 46.015625 
Q 51.90625 39.015625 51.90625 26.65625 
Q 51.90625 16.65625 48.90625 10.90625 
Q 45.90625 5.171875 40.15625 2 
Q 34.421875 -1.171875 27.640625 -1.171875 
Q 16.75 -1.171875 10.03125 5.8125 
Q 3.328125 12.796875 3.328125 25.921875 
z
M 12.359375 25.921875 
Q 12.359375 15.96875 16.703125 11.015625 
Q 21.046875 6.0625 27.640625 6.0625 
Q 34.1875 6.0625 38.53125 11.03125 
Q 42.875 16.015625 42.875 26.21875 
Q 42.875 35.84375 38.5 40.796875 
Q 34.125 45.75 27.640625 45.75 
Q 21.046875 45.75 16.703125 40.8125 
Q 12.359375 35.890625 12.359375 25.921875 
z
" id="ArialMT-111"/>
      <path d="M 6.59375 0 
L 6.59375 51.859375 
L 14.5 51.859375 
L 14.5 44.484375 
Q 20.21875 53.03125 31 53.03125 
Q 35.6875 53.03125 39.625 51.34375 
Q 43.5625 49.65625 45.515625 46.921875 
Q 47.46875 44.1875 48.25 40.4375 
Q 48.734375 37.984375 48.734375 31.890625 
L 48.734375 0 
L 39.9375 0 
L 39.9375 31.546875 
Q 39.9375 36.921875 38.90625 39.578125 
Q 37.890625 42.234375 35.28125 43.8125 
Q 32.671875 45.40625 29.15625 45.40625 
Q 23.53125 45.40625 19.453125 41.84375 
Q 15.375 38.28125 15.375 28.328125 
L 15.375 0 
z
" id="ArialMT-110"/>
      <path d="M 6.640625 46.234375 
L 4.390625 59.625 
L 4.390625 71.578125 
L 14.40625 71.578125 
L 14.40625 59.625 
L 12.0625 46.234375 
z
" id="ArialMT-39"/>
      <path id="ArialMT-32"/>
     </defs>
     <g style="fill:#262626;" transform="translate(48.780375 251.107875)rotate(-90)scale(0.144 -0.144)">
      <use xlink:href="#ArialMT-80"/>
      <use x="66.699219" xlink:href="#ArialMT-101"/>
      <use x="122.314453" xlink:href="#ArialMT-97"/>
      <use x="177.929688" xlink:href="#ArialMT-114"/>
      <use x="211.230469" xlink:href="#ArialMT-115"/>
      <use x="261.230469" xlink:href="#ArialMT-111"/>
      <use x="316.845703" xlink:href="#ArialMT-110"/>
      <use x="372.460938" xlink:href="#ArialMT-39"/>
      <use x="391.552734" xlink:href="#ArialMT-115"/>
      <use x="441.552734" xlink:href="#ArialMT-32"/>
      <use x="469.335938" xlink:href="#ArialMT-114"/>
     </g>
    </g>
   </g>
   <g id="patch_3">
    <path clip-path="url(#p10780ea571)" d="M 118.458 178.490514 
L 173.142 178.490514 
L 173.142 166.701613 
L 118.458 166.701613 
L 118.458 178.490514 
z
" style="fill:#c1bed6;stroke:#6a6a6a;stroke-linejoin:miter;stroke-width:2;"/>
   </g>
   <g id="patch_4">
    <path clip-path="url(#p10780ea571)" d="M 174.258 206.540265 
L 228.942 206.540265 
L 228.942 189.036602 
L 174.258 189.036602 
L 174.258 206.540265 
z
" style="fill:#f6f6bc;stroke:#6a6a6a;stroke-linejoin:miter;stroke-width:2;"/>
   </g>
   <g id="patch_5">
    <path clip-path="url(#p10780ea571)" d="M 230.058 177.896601 
L 284.742 177.896601 
L 284.742 167.657292 
L 230.058 167.657292 
L 230.058 177.896601 
z
" style="fill:#96cac1;stroke:#6a6a6a;stroke-linejoin:miter;stroke-width:2;"/>
   </g>
   <g id="patch_6">
    <path clip-path="url(#p10780ea571)" d="M 285.858 178.490514 
L 340.542 178.490514 
L 340.542 165.516843 
L 285.858 165.516843 
L 285.858 178.490514 
z
" style="fill:#ea8e83;stroke:#6a6a6a;stroke-linejoin:miter;stroke-width:2;"/>
   </g>
   <g id="patch_7">
    <path clip-path="url(#p10780ea571)" d="M 397.458 208.08942 
L 452.142 208.08942 
L 452.142 141.637673 
L 397.458 141.637673 
L 397.458 208.08942 
z
" style="fill:#c1bed6;stroke:#6a6a6a;stroke-linejoin:miter;stroke-width:2;"/>
   </g>
   <g id="patch_8">
    <path clip-path="url(#p10780ea571)" d="M 453.258 227.004185 
L 507.942 227.004185 
L 507.942 156.938237 
L 453.258 156.938237 
L 453.258 227.004185 
z
" style="fill:#f6f6bc;stroke:#6a6a6a;stroke-linejoin:miter;stroke-width:2;"/>
   </g>
   <g id="patch_9">
    <path clip-path="url(#p10780ea571)" d="M 509.058 209.778732 
L 563.742 209.778732 
L 563.742 143.065402 
L 509.058 143.065402 
L 509.058 209.778732 
z
" style="fill:#96cac1;stroke:#6a6a6a;stroke-linejoin:miter;stroke-width:2;"/>
   </g>
   <g id="patch_10">
    <path clip-path="url(#p10780ea571)" d="M 564.858 208.08942 
L 619.542 208.08942 
L 619.542 141.637673 
L 564.858 141.637673 
L 564.858 208.08942 
z
" style="fill:#ea8e83;stroke:#6a6a6a;stroke-linejoin:miter;stroke-width:2;"/>
   </g>
   <g id="patch_11">
    <path clip-path="url(#p10780ea571)" d="M 229.5 240.982775 
L 229.5 240.982775 
L 229.5 240.982775 
L 229.5 240.982775 
z
" style="fill:#c1bed6;stroke:#6a6a6a;stroke-linejoin:miter;"/>
   </g>
   <g id="patch_12">
    <path clip-path="url(#p10780ea571)" d="M 229.5 240.982775 
L 229.5 240.982775 
L 229.5 240.982775 
L 229.5 240.982775 
z
" style="fill:#f6f6bc;stroke:#6a6a6a;stroke-linejoin:miter;"/>
   </g>
   <g id="patch_13">
    <path clip-path="url(#p10780ea571)" d="M 229.5 240.982775 
L 229.5 240.982775 
L 229.5 240.982775 
L 229.5 240.982775 
z
" style="fill:#96cac1;stroke:#6a6a6a;stroke-linejoin:miter;"/>
   </g>
   <g id="patch_14">
    <path clip-path="url(#p10780ea571)" d="M 229.5 240.982775 
L 229.5 240.982775 
L 229.5 240.982775 
L 229.5 240.982775 
z
" style="fill:#ea8e83;stroke:#6a6a6a;stroke-linejoin:miter;"/>
   </g>
   <g id="line2d_12">
    <path clip-path="url(#p10780ea571)" d="M 145.8 178.490514 
L 145.8 196.024257 
" style="fill:none;stroke:#6a6a6a;stroke-linecap:round;stroke-width:2;"/>
   </g>
   <g id="line2d_13">
    <path clip-path="url(#p10780ea571)" d="M 145.8 166.701613 
L 145.8 151.622863 
" style="fill:none;stroke:#6a6a6a;stroke-linecap:round;stroke-width:2;"/>
   </g>
   <g id="line2d_14">
    <path clip-path="url(#p10780ea571)" d="M 132.129 196.024257 
L 159.471 196.024257 
" style="fill:none;stroke:#6a6a6a;stroke-linecap:round;stroke-width:2;"/>
   </g>
   <g id="line2d_15">
    <path clip-path="url(#p10780ea571)" d="M 132.129 151.622863 
L 159.471 151.622863 
" style="fill:none;stroke:#6a6a6a;stroke-linecap:round;stroke-width:2;"/>
   </g>
   <g id="line2d_16">
    <defs>
     <path d="M -0 3.535534 
L 2.12132 0 
L -0 -3.535534 
L -2.12132 -0 
z
" id="m7be348f848" style="stroke:#6a6a6a;stroke-linejoin:miter;"/>
    </defs>
    <g clip-path="url(#p10780ea571)">
     <use style="fill:#6a6a6a;stroke:#6a6a6a;stroke-linejoin:miter;" x="145.8" xlink:href="#m7be348f848" y="199.501926"/>
    </g>
   </g>
   <g id="line2d_17">
    <path clip-path="url(#p10780ea571)" d="M 201.6 206.540265 
L 201.6 219.50812 
" style="fill:none;stroke:#6a6a6a;stroke-linecap:round;stroke-width:2;"/>
   </g>
   <g id="line2d_18">
    <path clip-path="url(#p10780ea571)" d="M 201.6 189.036602 
L 201.6 164.820918 
" style="fill:none;stroke:#6a6a6a;stroke-linecap:round;stroke-width:2;"/>
   </g>
   <g id="line2d_19">
    <path clip-path="url(#p10780ea571)" d="M 187.929 219.50812 
L 215.271 219.50812 
" style="fill:none;stroke:#6a6a6a;stroke-linecap:round;stroke-width:2;"/>
   </g>
   <g id="line2d_20">
    <path clip-path="url(#p10780ea571)" d="M 187.929 164.820918 
L 215.271 164.820918 
" style="fill:none;stroke:#6a6a6a;stroke-linecap:round;stroke-width:2;"/>
   </g>
   <g id="line2d_21">
    <g clip-path="url(#p10780ea571)">
     <use style="fill:#6a6a6a;stroke:#6a6a6a;stroke-linejoin:miter;" x="201.6" xlink:href="#m7be348f848" y="157.43949"/>
    </g>
   </g>
   <g id="line2d_22">
    <path clip-path="url(#p10780ea571)" d="M 257.4 177.896601 
L 257.4 182.096616 
" style="fill:none;stroke:#6a6a6a;stroke-linecap:round;stroke-width:2;"/>
   </g>
   <g id="line2d_23">
    <path clip-path="url(#p10780ea571)" d="M 257.4 167.657292 
L 257.4 153.230362 
" style="fill:none;stroke:#6a6a6a;stroke-linecap:round;stroke-width:2;"/>
   </g>
   <g id="line2d_24">
    <path clip-path="url(#p10780ea571)" d="M 243.729 182.096616 
L 271.071 182.096616 
" style="fill:none;stroke:#6a6a6a;stroke-linecap:round;stroke-width:2;"/>
   </g>
   <g id="line2d_25">
    <path clip-path="url(#p10780ea571)" d="M 243.729 153.230362 
L 271.071 153.230362 
" style="fill:none;stroke:#6a6a6a;stroke-linecap:round;stroke-width:2;"/>
   </g>
   <g id="line2d_26">
    <g clip-path="url(#p10780ea571)">
     <use style="fill:#6a6a6a;stroke:#6a6a6a;stroke-linejoin:miter;" x="257.4" xlink:href="#m7be348f848" y="203.562964"/>
     <use style="fill:#6a6a6a;stroke:#6a6a6a;stroke-linejoin:miter;" x="257.4" xlink:href="#m7be348f848" y="195.447532"/>
    </g>
   </g>
   <g id="line2d_27">
    <path clip-path="url(#p10780ea571)" d="M 313.2 178.490514 
L 313.2 196.024257 
" style="fill:none;stroke:#6a6a6a;stroke-linecap:round;stroke-width:2;"/>
   </g>
   <g id="line2d_28">
    <path clip-path="url(#p10780ea571)" d="M 313.2 165.516843 
L 313.2 151.622863 
" style="fill:none;stroke:#6a6a6a;stroke-linecap:round;stroke-width:2;"/>
   </g>
   <g id="line2d_29">
    <path clip-path="url(#p10780ea571)" d="M 299.529 196.024257 
L 326.871 196.024257 
" style="fill:none;stroke:#6a6a6a;stroke-linecap:round;stroke-width:2;"/>
   </g>
   <g id="line2d_30">
    <path clip-path="url(#p10780ea571)" d="M 299.529 151.622863 
L 326.871 151.622863 
" style="fill:none;stroke:#6a6a6a;stroke-linecap:round;stroke-width:2;"/>
   </g>
   <g id="line2d_31">
    <g clip-path="url(#p10780ea571)">
     <use style="fill:#6a6a6a;stroke:#6a6a6a;stroke-linejoin:miter;" x="313.2" xlink:href="#m7be348f848" y="199.501926"/>
    </g>
   </g>
   <g id="line2d_32">
    <path clip-path="url(#p10780ea571)" d="M 424.8 208.08942 
L 424.8 305.710279 
" style="fill:none;stroke:#6a6a6a;stroke-linecap:round;stroke-width:2;"/>
   </g>
   <g id="line2d_33">
    <path clip-path="url(#p10780ea571)" d="M 424.8 141.637673 
L 424.8 69.75957 
" style="fill:none;stroke:#6a6a6a;stroke-linecap:round;stroke-width:2;"/>
   </g>
   <g id="line2d_34">
    <path clip-path="url(#p10780ea571)" d="M 411.129 305.710279 
L 438.471 305.710279 
" style="fill:none;stroke:#6a6a6a;stroke-linecap:round;stroke-width:2;"/>
   </g>
   <g id="line2d_35">
    <path clip-path="url(#p10780ea571)" d="M 411.129 69.75957 
L 438.471 69.75957 
" style="fill:none;stroke:#6a6a6a;stroke-linecap:round;stroke-width:2;"/>
   </g>
   <g id="line2d_36">
    <g clip-path="url(#p10780ea571)">
     <use style="fill:#6a6a6a;stroke:#6a6a6a;stroke-linejoin:miter;" x="424.8" xlink:href="#m7be348f848" y="345.055028"/>
     <use style="fill:#6a6a6a;stroke:#6a6a6a;stroke-linejoin:miter;" x="424.8" xlink:href="#m7be348f848" y="315.308011"/>
     <use style="fill:#6a6a6a;stroke:#6a6a6a;stroke-linejoin:miter;" x="424.8" xlink:href="#m7be348f848" y="318.703153"/>
     <use style="fill:#6a6a6a;stroke:#6a6a6a;stroke-linejoin:miter;" x="424.8" xlink:href="#m7be348f848" y="334.044965"/>
     <use style="fill:#6a6a6a;stroke:#6a6a6a;stroke-linejoin:miter;" x="424.8" xlink:href="#m7be348f848" y="314.293491"/>
     <use style="fill:#6a6a6a;stroke:#6a6a6a;stroke-linejoin:miter;" x="424.8" xlink:href="#m7be348f848" y="308.769027"/>
     <use style="fill:#6a6a6a;stroke:#6a6a6a;stroke-linejoin:miter;" x="424.8" xlink:href="#m7be348f848" y="312.223528"/>
    </g>
   </g>
   <g id="line2d_37">
    <path clip-path="url(#p10780ea571)" d="M 480.6 227.004185 
L 480.6 330.168749 
" style="fill:none;stroke:#6a6a6a;stroke-linecap:round;stroke-width:2;"/>
   </g>
   <g id="line2d_38">
    <path clip-path="url(#p10780ea571)" d="M 480.6 156.938237 
L 480.6 66.665455 
" style="fill:none;stroke:#6a6a6a;stroke-linecap:round;stroke-width:2;"/>
   </g>
   <g id="line2d_39">
    <path clip-path="url(#p10780ea571)" d="M 466.929 330.168749 
L 494.271 330.168749 
" style="fill:none;stroke:#6a6a6a;stroke-linecap:round;stroke-width:2;"/>
   </g>
   <g id="line2d_40">
    <path clip-path="url(#p10780ea571)" d="M 466.929 66.665455 
L 494.271 66.665455 
" style="fill:none;stroke:#6a6a6a;stroke-linecap:round;stroke-width:2;"/>
   </g>
   <g id="line2d_41">
    <g clip-path="url(#p10780ea571)">
     <use style="fill:#6a6a6a;stroke:#6a6a6a;stroke-linejoin:miter;" x="480.6" xlink:href="#m7be348f848" y="334.166725"/>
     <use style="fill:#6a6a6a;stroke:#6a6a6a;stroke-linejoin:miter;" x="480.6" xlink:href="#m7be348f848" y="363.174545"/>
    </g>
   </g>
   <g id="line2d_42">
    <path clip-path="url(#p10780ea571)" d="M 536.4 209.778732 
L 536.4 308.68526 
" style="fill:none;stroke:#6a6a6a;stroke-linecap:round;stroke-width:2;"/>
   </g>
   <g id="line2d_43">
    <path clip-path="url(#p10780ea571)" d="M 536.4 143.065402 
L 536.4 68.170377 
" style="fill:none;stroke:#6a6a6a;stroke-linecap:round;stroke-width:2;"/>
   </g>
   <g id="line2d_44">
    <path clip-path="url(#p10780ea571)" d="M 522.729 308.68526 
L 550.071 308.68526 
" style="fill:none;stroke:#6a6a6a;stroke-linecap:round;stroke-width:2;"/>
   </g>
   <g id="line2d_45">
    <path clip-path="url(#p10780ea571)" d="M 522.729 68.170377 
L 550.071 68.170377 
" style="fill:none;stroke:#6a6a6a;stroke-linecap:round;stroke-width:2;"/>
   </g>
   <g id="line2d_46">
    <g clip-path="url(#p10780ea571)">
     <use style="fill:#6a6a6a;stroke:#6a6a6a;stroke-linejoin:miter;" x="536.4" xlink:href="#m7be348f848" y="339.801481"/>
     <use style="fill:#6a6a6a;stroke:#6a6a6a;stroke-linejoin:miter;" x="536.4" xlink:href="#m7be348f848" y="324.405991"/>
     <use style="fill:#6a6a6a;stroke:#6a6a6a;stroke-linejoin:miter;" x="536.4" xlink:href="#m7be348f848" y="325.326738"/>
     <use style="fill:#6a6a6a;stroke:#6a6a6a;stroke-linejoin:miter;" x="536.4" xlink:href="#m7be348f848" y="335.291402"/>
     <use style="fill:#6a6a6a;stroke:#6a6a6a;stroke-linejoin:miter;" x="536.4" xlink:href="#m7be348f848" y="331.573976"/>
     <use style="fill:#6a6a6a;stroke:#6a6a6a;stroke-linejoin:miter;" x="536.4" xlink:href="#m7be348f848" y="310.758055"/>
    </g>
   </g>
   <g id="line2d_47">
    <path clip-path="url(#p10780ea571)" d="M 592.2 208.08942 
L 592.2 305.710279 
" style="fill:none;stroke:#6a6a6a;stroke-linecap:round;stroke-width:2;"/>
   </g>
   <g id="line2d_48">
    <path clip-path="url(#p10780ea571)" d="M 592.2 141.637673 
L 592.2 69.75957 
" style="fill:none;stroke:#6a6a6a;stroke-linecap:round;stroke-width:2;"/>
   </g>
   <g id="line2d_49">
    <path clip-path="url(#p10780ea571)" d="M 578.529 305.710279 
L 605.871 305.710279 
" style="fill:none;stroke:#6a6a6a;stroke-linecap:round;stroke-width:2;"/>
   </g>
   <g id="line2d_50">
    <path clip-path="url(#p10780ea571)" d="M 578.529 69.75957 
L 605.871 69.75957 
" style="fill:none;stroke:#6a6a6a;stroke-linecap:round;stroke-width:2;"/>
   </g>
   <g id="line2d_51">
    <g clip-path="url(#p10780ea571)">
     <use style="fill:#6a6a6a;stroke:#6a6a6a;stroke-linejoin:miter;" x="592.2" xlink:href="#m7be348f848" y="345.055028"/>
     <use style="fill:#6a6a6a;stroke:#6a6a6a;stroke-linejoin:miter;" x="592.2" xlink:href="#m7be348f848" y="315.308011"/>
     <use style="fill:#6a6a6a;stroke:#6a6a6a;stroke-linejoin:miter;" x="592.2" xlink:href="#m7be348f848" y="318.703153"/>
     <use style="fill:#6a6a6a;stroke:#6a6a6a;stroke-linejoin:miter;" x="592.2" xlink:href="#m7be348f848" y="334.044965"/>
     <use style="fill:#6a6a6a;stroke:#6a6a6a;stroke-linejoin:miter;" x="592.2" xlink:href="#m7be348f848" y="314.293491"/>
     <use style="fill:#6a6a6a;stroke:#6a6a6a;stroke-linejoin:miter;" x="592.2" xlink:href="#m7be348f848" y="308.769027"/>
     <use style="fill:#6a6a6a;stroke:#6a6a6a;stroke-linejoin:miter;" x="592.2" xlink:href="#m7be348f848" y="312.223528"/>
    </g>
   </g>
   <g id="line2d_52">
    <path clip-path="url(#p10780ea571)" d="M 118.458 171.763608 
L 173.142 171.763608 
" style="fill:none;stroke:#6a6a6a;stroke-linecap:round;stroke-width:2;"/>
   </g>
   <g id="line2d_53">
    <path clip-path="url(#p10780ea571)" d="M 174.258 201.088519 
L 228.942 201.088519 
" style="fill:none;stroke:#6a6a6a;stroke-linecap:round;stroke-width:2;"/>
   </g>
   <g id="line2d_54">
    <path clip-path="url(#p10780ea571)" d="M 230.058 175.691009 
L 284.742 175.691009 
" style="fill:none;stroke:#6a6a6a;stroke-linecap:round;stroke-width:2;"/>
   </g>
   <g id="line2d_55">
    <path clip-path="url(#p10780ea571)" d="M 285.858 171.443644 
L 340.542 171.443644 
" style="fill:none;stroke:#6a6a6a;stroke-linecap:round;stroke-width:2;"/>
   </g>
   <g id="line2d_56">
    <path clip-path="url(#p10780ea571)" d="M 397.458 176.351522 
L 452.142 176.351522 
" style="fill:none;stroke:#6a6a6a;stroke-linecap:round;stroke-width:2;"/>
   </g>
   <g id="line2d_57">
    <path clip-path="url(#p10780ea571)" d="M 453.258 191.853856 
L 507.942 191.853856 
" style="fill:none;stroke:#6a6a6a;stroke-linecap:round;stroke-width:2;"/>
   </g>
   <g id="line2d_58">
    <path clip-path="url(#p10780ea571)" d="M 509.058 176.460805 
L 563.742 176.460805 
" style="fill:none;stroke:#6a6a6a;stroke-linecap:round;stroke-width:2;"/>
   </g>
   <g id="line2d_59">
    <path clip-path="url(#p10780ea571)" d="M 564.858 176.351522 
L 619.542 176.351522 
" style="fill:none;stroke:#6a6a6a;stroke-linecap:round;stroke-width:2;"/>
   </g>
   <g id="patch_15">
    <path d="M 90 378 
L 90 51.84 
" style="fill:none;stroke:#262626;stroke-linecap:square;stroke-linejoin:miter;"/>
   </g>
   <g id="patch_16">
    <path d="M 648 378 
L 648 51.84 
" style="fill:none;stroke:#262626;stroke-linecap:square;stroke-linejoin:miter;"/>
   </g>
   <g id="patch_17">
    <path d="M 90 378 
L 648 378 
" style="fill:none;stroke:#262626;stroke-linecap:square;stroke-linejoin:miter;"/>
   </g>
   <g id="patch_18">
    <path d="M 90 51.84 
L 648 51.84 
" style="fill:none;stroke:#262626;stroke-linecap:square;stroke-linejoin:miter;"/>
   </g>
   <g id="legend_1">
    <g id="patch_19">
     <path d="M 659.24 256.565375 
L 841.598 256.565375 
Q 844.238 256.565375 844.238 253.925375 
L 844.238 179.914625 
Q 844.238 177.274625 841.598 177.274625 
L 659.24 177.274625 
Q 656.6 177.274625 656.6 179.914625 
L 656.6 253.925375 
Q 656.6 256.565375 659.24 256.565375 
z
" style="fill:#4c4c4c;opacity:0.5;stroke:#4c4c4c;stroke-linejoin:miter;stroke-width:0.8;"/>
    </g>
    <g id="patch_20">
     <path d="M 657.24 254.565375 
L 839.598 254.565375 
Q 842.238 254.565375 842.238 251.925375 
L 842.238 177.914625 
Q 842.238 175.274625 839.598 175.274625 
L 657.24 175.274625 
Q 654.6 175.274625 654.6 177.914625 
L 654.6 251.925375 
Q 654.6 254.565375 657.24 254.565375 
z
" style="fill:#ffffff;stroke:#cccccc;stroke-linejoin:miter;stroke-width:0.8;"/>
    </g>
    <g id="patch_21">
     <path d="M 659.88 190.163812 
L 686.28 190.163812 
L 686.28 180.923812 
L 659.88 180.923812 
z
" style="fill:#c1bed6;stroke:#6a6a6a;stroke-linejoin:miter;"/>
    </g>
    <g id="text_14">
     <!-- metakrr_skfL:1cv:0_cnn -->
     <defs>
      <path d="M 6.640625 0 
L 6.640625 71.578125 
L 15.4375 71.578125 
L 15.4375 30.765625 
L 36.234375 51.859375 
L 47.609375 51.859375 
L 27.78125 32.625 
L 49.609375 0 
L 38.765625 0 
L 21.625 26.515625 
L 15.4375 20.5625 
L 15.4375 0 
z
" id="ArialMT-107"/>
      <path d="M -1.515625 -19.875 
L -1.515625 -13.53125 
L 56.734375 -13.53125 
L 56.734375 -19.875 
z
" id="ArialMT-95"/>
      <path d="M 8.6875 0 
L 8.6875 45.015625 
L 0.921875 45.015625 
L 0.921875 51.859375 
L 8.6875 51.859375 
L 8.6875 57.375 
Q 8.6875 62.59375 9.625 65.140625 
Q 10.890625 68.5625 14.078125 70.671875 
Q 17.28125 72.796875 23.046875 72.796875 
Q 26.765625 72.796875 31.25 71.921875 
L 29.9375 64.265625 
Q 27.203125 64.75 24.75 64.75 
Q 20.75 64.75 19.09375 63.03125 
Q 17.4375 61.328125 17.4375 56.640625 
L 17.4375 51.859375 
L 27.546875 51.859375 
L 27.546875 45.015625 
L 17.4375 45.015625 
L 17.4375 0 
z
" id="ArialMT-102"/>
      <path d="M 7.328125 0 
L 7.328125 71.578125 
L 16.796875 71.578125 
L 16.796875 8.453125 
L 52.046875 8.453125 
L 52.046875 0 
z
" id="ArialMT-76"/>
      <path d="M 9.03125 41.84375 
L 9.03125 51.859375 
L 19.046875 51.859375 
L 19.046875 41.84375 
z
M 9.03125 0 
L 9.03125 10.015625 
L 19.046875 10.015625 
L 19.046875 0 
z
" id="ArialMT-58"/>
      <path d="M 21 0 
L 1.265625 51.859375 
L 10.546875 51.859375 
L 21.6875 20.796875 
Q 23.484375 15.765625 25 10.359375 
Q 26.171875 14.453125 28.265625 20.21875 
L 39.796875 51.859375 
L 48.828125 51.859375 
L 29.203125 0 
z
" id="ArialMT-118"/>
     </defs>
     <g style="fill:#262626;" transform="translate(696.84 190.163812)scale(0.132 -0.132)">
      <use xlink:href="#ArialMT-109"/>
      <use x="83.300781" xlink:href="#ArialMT-101"/>
      <use x="138.916016" xlink:href="#ArialMT-116"/>
      <use x="166.699219" xlink:href="#ArialMT-97"/>
      <use x="222.314453" xlink:href="#ArialMT-107"/>
      <use x="272.314453" xlink:href="#ArialMT-114"/>
      <use x="305.615234" xlink:href="#ArialMT-114"/>
      <use x="338.916016" xlink:href="#ArialMT-95"/>
      <use x="394.53125" xlink:href="#ArialMT-115"/>
      <use x="444.53125" xlink:href="#ArialMT-107"/>
      <use x="494.53125" xlink:href="#ArialMT-102"/>
      <use x="522.314453" xlink:href="#ArialMT-76"/>
      <use x="577.929688" xlink:href="#ArialMT-58"/>
      <use x="605.712891" xlink:href="#ArialMT-49"/>
      <use x="661.328125" xlink:href="#ArialMT-99"/>
      <use x="711.328125" xlink:href="#ArialMT-118"/>
      <use x="761.328125" xlink:href="#ArialMT-58"/>
      <use x="789.111328" xlink:href="#ArialMT-48"/>
      <use x="844.726562" xlink:href="#ArialMT-95"/>
      <use x="900.341797" xlink:href="#ArialMT-99"/>
      <use x="950.341797" xlink:href="#ArialMT-110"/>
      <use x="1005.957031" xlink:href="#ArialMT-110"/>
     </g>
    </g>
    <g id="patch_22">
     <path d="M 659.88 208.9965 
L 686.28 208.9965 
L 686.28 199.7565 
L 659.88 199.7565 
z
" style="fill:#f6f6bc;stroke:#6a6a6a;stroke-linejoin:miter;"/>
    </g>
    <g id="text_15">
     <!-- metakrr_skfL:0cv:1_cnn -->
     <g style="fill:#262626;" transform="translate(696.84 208.9965)scale(0.132 -0.132)">
      <use xlink:href="#ArialMT-109"/>
      <use x="83.300781" xlink:href="#ArialMT-101"/>
      <use x="138.916016" xlink:href="#ArialMT-116"/>
      <use x="166.699219" xlink:href="#ArialMT-97"/>
      <use x="222.314453" xlink:href="#ArialMT-107"/>
      <use x="272.314453" xlink:href="#ArialMT-114"/>
      <use x="305.615234" xlink:href="#ArialMT-114"/>
      <use x="338.916016" xlink:href="#ArialMT-95"/>
      <use x="394.53125" xlink:href="#ArialMT-115"/>
      <use x="444.53125" xlink:href="#ArialMT-107"/>
      <use x="494.53125" xlink:href="#ArialMT-102"/>
      <use x="522.314453" xlink:href="#ArialMT-76"/>
      <use x="577.929688" xlink:href="#ArialMT-58"/>
      <use x="605.712891" xlink:href="#ArialMT-48"/>
      <use x="661.328125" xlink:href="#ArialMT-99"/>
      <use x="711.328125" xlink:href="#ArialMT-118"/>
      <use x="761.328125" xlink:href="#ArialMT-58"/>
      <use x="789.111328" xlink:href="#ArialMT-49"/>
      <use x="844.726562" xlink:href="#ArialMT-95"/>
      <use x="900.341797" xlink:href="#ArialMT-99"/>
      <use x="950.341797" xlink:href="#ArialMT-110"/>
      <use x="1005.957031" xlink:href="#ArialMT-110"/>
     </g>
    </g>
    <g id="patch_23">
     <path d="M 659.88 227.829187 
L 686.28 227.829187 
L 686.28 218.589187 
L 659.88 218.589187 
z
" style="fill:#96cac1;stroke:#6a6a6a;stroke-linejoin:miter;"/>
    </g>
    <g id="text_16">
     <!-- metakrr_skfL:0cv:0_cnn -->
     <g style="fill:#262626;" transform="translate(696.84 227.829187)scale(0.132 -0.132)">
      <use xlink:href="#ArialMT-109"/>
      <use x="83.300781" xlink:href="#ArialMT-101"/>
      <use x="138.916016" xlink:href="#ArialMT-116"/>
      <use x="166.699219" xlink:href="#ArialMT-97"/>
      <use x="222.314453" xlink:href="#ArialMT-107"/>
      <use x="272.314453" xlink:href="#ArialMT-114"/>
      <use x="305.615234" xlink:href="#ArialMT-114"/>
      <use x="338.916016" xlink:href="#ArialMT-95"/>
      <use x="394.53125" xlink:href="#ArialMT-115"/>
      <use x="444.53125" xlink:href="#ArialMT-107"/>
      <use x="494.53125" xlink:href="#ArialMT-102"/>
      <use x="522.314453" xlink:href="#ArialMT-76"/>
      <use x="577.929688" xlink:href="#ArialMT-58"/>
      <use x="605.712891" xlink:href="#ArialMT-48"/>
      <use x="661.328125" xlink:href="#ArialMT-99"/>
      <use x="711.328125" xlink:href="#ArialMT-118"/>
      <use x="761.328125" xlink:href="#ArialMT-58"/>
      <use x="789.111328" xlink:href="#ArialMT-48"/>
      <use x="844.726562" xlink:href="#ArialMT-95"/>
      <use x="900.341797" xlink:href="#ArialMT-99"/>
      <use x="950.341797" xlink:href="#ArialMT-110"/>
      <use x="1005.957031" xlink:href="#ArialMT-110"/>
     </g>
    </g>
    <g id="patch_24">
     <path d="M 659.88 246.661875 
L 686.28 246.661875 
L 686.28 237.421875 
L 659.88 237.421875 
z
" style="fill:#ea8e83;stroke:#6a6a6a;stroke-linejoin:miter;"/>
    </g>
    <g id="text_17">
     <!-- metakrr_skfL:1cv:1_cnn -->
     <g style="fill:#262626;" transform="translate(696.84 246.661875)scale(0.132 -0.132)">
      <use xlink:href="#ArialMT-109"/>
      <use x="83.300781" xlink:href="#ArialMT-101"/>
      <use x="138.916016" xlink:href="#ArialMT-116"/>
      <use x="166.699219" xlink:href="#ArialMT-97"/>
      <use x="222.314453" xlink:href="#ArialMT-107"/>
      <use x="272.314453" xlink:href="#ArialMT-114"/>
      <use x="305.615234" xlink:href="#ArialMT-114"/>
      <use x="338.916016" xlink:href="#ArialMT-95"/>
      <use x="394.53125" xlink:href="#ArialMT-115"/>
      <use x="444.53125" xlink:href="#ArialMT-107"/>
      <use x="494.53125" xlink:href="#ArialMT-102"/>
      <use x="522.314453" xlink:href="#ArialMT-76"/>
      <use x="577.929688" xlink:href="#ArialMT-58"/>
      <use x="605.712891" xlink:href="#ArialMT-49"/>
      <use x="661.328125" xlink:href="#ArialMT-99"/>
      <use x="711.328125" xlink:href="#ArialMT-118"/>
      <use x="761.328125" xlink:href="#ArialMT-58"/>
      <use x="789.111328" xlink:href="#ArialMT-49"/>
      <use x="844.726562" xlink:href="#ArialMT-95"/>
      <use x="900.341797" xlink:href="#ArialMT-99"/>
      <use x="950.341797" xlink:href="#ArialMT-110"/>
      <use x="1005.957031" xlink:href="#ArialMT-110"/>
     </g>
    </g>
   </g>
  </g>
 </g>
 <defs>
  <clipPath id="p10780ea571">
   <rect height="326.16" width="558" x="90" y="51.84"/>
  </clipPath>
 </defs>
</svg>
