<?xml version="1.0" encoding="utf-8" standalone="no"?>
<!DOCTYPE svg PUBLIC "-//W3C//DTD SVG 1.1//EN"
  "http://www.w3.org/Graphics/SVG/1.1/DTD/svg11.dtd">
<!-- Created with matplotlib (https://matplotlib.org/) -->
<svg height="432pt" version="1.1" viewBox="0 0 720 432" width="720pt" xmlns="http://www.w3.org/2000/svg" xmlns:xlink="http://www.w3.org/1999/xlink">
 <defs>
  <style type="text/css">
*{stroke-linecap:butt;stroke-linejoin:round;}
  </style>
 </defs>
 <g id="figure_1">
  <g id="patch_1">
   <path d="M 0 432 
L 720 432 
L 720 0 
L 0 0 
z
" style="fill:#ffffff;"/>
  </g>
  <g id="axes_1">
   <g id="patch_2">
    <path d="M 90 378 
L 648 378 
L 648 51.84 
L 90 51.84 
z
" style="fill:#ffffff;"/>
   </g>
   <g id="matplotlib.axis_1">
    <g id="xtick_1">
     <g id="line2d_1">
      <defs>
       <path d="M 0 0 
L 0 4.8 
" id="m8d24b03d84" style="stroke:#262626;"/>
      </defs>
      <g>
       <use style="fill:#262626;stroke:#262626;" x="229.5" xlink:href="#m8d24b03d84" y="378"/>
      </g>
     </g>
     <g id="text_1">
      <!-- chembl -->
      <defs>
       <path d="M 40.4375 19 
L 49.078125 17.875 
Q 47.65625 8.9375 41.8125 3.875 
Q 35.984375 -1.171875 27.484375 -1.171875 
Q 16.84375 -1.171875 10.375 5.78125 
Q 3.90625 12.75 3.90625 25.734375 
Q 3.90625 34.125 6.6875 40.421875 
Q 9.46875 46.734375 15.15625 49.875 
Q 20.84375 53.03125 27.546875 53.03125 
Q 35.984375 53.03125 41.359375 48.75 
Q 46.734375 44.484375 48.25 36.625 
L 39.703125 35.296875 
Q 38.484375 40.53125 35.375 43.15625 
Q 32.28125 45.796875 27.875 45.796875 
Q 21.234375 45.796875 17.078125 41.03125 
Q 12.9375 36.28125 12.9375 25.984375 
Q 12.9375 15.53125 16.9375 10.796875 
Q 20.953125 6.0625 27.390625 6.0625 
Q 32.5625 6.0625 36.03125 9.234375 
Q 39.5 12.40625 40.4375 19 
z
" id="ArialMT-99"/>
       <path d="M 6.59375 0 
L 6.59375 71.578125 
L 15.375 71.578125 
L 15.375 45.90625 
Q 21.53125 53.03125 30.90625 53.03125 
Q 36.671875 53.03125 40.921875 50.75 
Q 45.171875 48.484375 47 44.484375 
Q 48.828125 40.484375 48.828125 32.859375 
L 48.828125 0 
L 40.046875 0 
L 40.046875 32.859375 
Q 40.046875 39.453125 37.1875 42.453125 
Q 34.328125 45.453125 29.109375 45.453125 
Q 25.203125 45.453125 21.75 43.421875 
Q 18.3125 41.40625 16.84375 37.9375 
Q 15.375 34.46875 15.375 28.375 
L 15.375 0 
z
" id="ArialMT-104"/>
       <path d="M 42.09375 16.703125 
L 51.171875 15.578125 
Q 49.03125 7.625 43.21875 3.21875 
Q 37.40625 -1.171875 28.375 -1.171875 
Q 17 -1.171875 10.328125 5.828125 
Q 3.65625 12.84375 3.65625 25.484375 
Q 3.65625 38.578125 10.390625 45.796875 
Q 17.140625 53.03125 27.875 53.03125 
Q 38.28125 53.03125 44.875 45.953125 
Q 51.46875 38.875 51.46875 26.03125 
Q 51.46875 25.25 51.421875 23.6875 
L 12.75 23.6875 
Q 13.234375 15.140625 17.578125 10.59375 
Q 21.921875 6.0625 28.421875 6.0625 
Q 33.25 6.0625 36.671875 8.59375 
Q 40.09375 11.140625 42.09375 16.703125 
z
M 13.234375 30.90625 
L 42.1875 30.90625 
Q 41.609375 37.453125 38.875 40.71875 
Q 34.671875 45.796875 27.984375 45.796875 
Q 21.921875 45.796875 17.796875 41.75 
Q 13.671875 37.703125 13.234375 30.90625 
z
" id="ArialMT-101"/>
       <path d="M 6.59375 0 
L 6.59375 51.859375 
L 14.453125 51.859375 
L 14.453125 44.578125 
Q 16.890625 48.390625 20.9375 50.703125 
Q 25 53.03125 30.171875 53.03125 
Q 35.9375 53.03125 39.625 50.640625 
Q 43.3125 48.25 44.828125 43.953125 
Q 50.984375 53.03125 60.84375 53.03125 
Q 68.5625 53.03125 72.703125 48.75 
Q 76.859375 44.484375 76.859375 35.59375 
L 76.859375 0 
L 68.109375 0 
L 68.109375 32.671875 
Q 68.109375 37.9375 67.25 40.25 
Q 66.40625 42.578125 64.15625 43.984375 
Q 61.921875 45.40625 58.890625 45.40625 
Q 53.421875 45.40625 49.796875 41.765625 
Q 46.1875 38.140625 46.1875 30.125 
L 46.1875 0 
L 37.40625 0 
L 37.40625 33.6875 
Q 37.40625 39.546875 35.25 42.46875 
Q 33.109375 45.40625 28.21875 45.40625 
Q 24.515625 45.40625 21.359375 43.453125 
Q 18.21875 41.5 16.796875 37.734375 
Q 15.375 33.984375 15.375 26.90625 
L 15.375 0 
z
" id="ArialMT-109"/>
       <path d="M 14.703125 0 
L 6.546875 0 
L 6.546875 71.578125 
L 15.328125 71.578125 
L 15.328125 46.046875 
Q 20.90625 53.03125 29.546875 53.03125 
Q 34.328125 53.03125 38.59375 51.09375 
Q 42.875 49.171875 45.625 45.671875 
Q 48.390625 42.1875 49.953125 37.25 
Q 51.515625 32.328125 51.515625 26.703125 
Q 51.515625 13.375 44.921875 6.09375 
Q 38.328125 -1.171875 29.109375 -1.171875 
Q 19.921875 -1.171875 14.703125 6.5 
z
M 14.59375 26.3125 
Q 14.59375 17 17.140625 12.84375 
Q 21.296875 6.0625 28.375 6.0625 
Q 34.125 6.0625 38.328125 11.0625 
Q 42.53125 16.0625 42.53125 25.984375 
Q 42.53125 36.140625 38.5 40.96875 
Q 34.46875 45.796875 28.765625 45.796875 
Q 23 45.796875 18.796875 40.796875 
Q 14.59375 35.796875 14.59375 26.3125 
z
" id="ArialMT-98"/>
       <path d="M 6.390625 0 
L 6.390625 71.578125 
L 15.1875 71.578125 
L 15.1875 0 
z
" id="ArialMT-108"/>
      </defs>
      <g style="fill:#262626;" transform="translate(222.445125 387.940682)rotate(-280)scale(0.132 -0.132)">
       <use xlink:href="#ArialMT-99"/>
       <use x="50" xlink:href="#ArialMT-104"/>
       <use x="105.615234" xlink:href="#ArialMT-101"/>
       <use x="161.230469" xlink:href="#ArialMT-109"/>
       <use x="244.53125" xlink:href="#ArialMT-98"/>
       <use x="300.146484" xlink:href="#ArialMT-108"/>
      </g>
     </g>
    </g>
    <g id="xtick_2">
     <g id="line2d_2">
      <g>
       <use style="fill:#262626;stroke:#262626;" x="508.5" xlink:href="#m8d24b03d84" y="378"/>
      </g>
     </g>
     <g id="text_2">
      <!-- pubchemtox -->
      <defs>
       <path d="M 6.59375 -19.875 
L 6.59375 51.859375 
L 14.59375 51.859375 
L 14.59375 45.125 
Q 17.4375 49.078125 21 51.046875 
Q 24.5625 53.03125 29.640625 53.03125 
Q 36.28125 53.03125 41.359375 49.609375 
Q 46.4375 46.1875 49.015625 39.953125 
Q 51.609375 33.734375 51.609375 26.3125 
Q 51.609375 18.359375 48.75 11.984375 
Q 45.90625 5.609375 40.453125 2.21875 
Q 35.015625 -1.171875 29 -1.171875 
Q 24.609375 -1.171875 21.109375 0.6875 
Q 17.625 2.546875 15.375 5.375 
L 15.375 -19.875 
z
M 14.546875 25.640625 
Q 14.546875 15.625 18.59375 10.84375 
Q 22.65625 6.0625 28.421875 6.0625 
Q 34.28125 6.0625 38.453125 11.015625 
Q 42.625 15.96875 42.625 26.375 
Q 42.625 36.28125 38.546875 41.203125 
Q 34.46875 46.140625 28.8125 46.140625 
Q 23.1875 46.140625 18.859375 40.890625 
Q 14.546875 35.640625 14.546875 25.640625 
z
" id="ArialMT-112"/>
       <path d="M 40.578125 0 
L 40.578125 7.625 
Q 34.515625 -1.171875 24.125 -1.171875 
Q 19.53125 -1.171875 15.546875 0.578125 
Q 11.578125 2.34375 9.640625 5 
Q 7.71875 7.671875 6.9375 11.53125 
Q 6.390625 14.109375 6.390625 19.734375 
L 6.390625 51.859375 
L 15.1875 51.859375 
L 15.1875 23.09375 
Q 15.1875 16.21875 15.71875 13.8125 
Q 16.546875 10.359375 19.234375 8.375 
Q 21.921875 6.390625 25.875 6.390625 
Q 29.828125 6.390625 33.296875 8.421875 
Q 36.765625 10.453125 38.203125 13.9375 
Q 39.65625 17.4375 39.65625 24.078125 
L 39.65625 51.859375 
L 48.4375 51.859375 
L 48.4375 0 
z
" id="ArialMT-117"/>
       <path d="M 25.78125 7.859375 
L 27.046875 0.09375 
Q 23.34375 -0.6875 20.40625 -0.6875 
Q 15.625 -0.6875 12.984375 0.828125 
Q 10.359375 2.34375 9.28125 4.8125 
Q 8.203125 7.28125 8.203125 15.1875 
L 8.203125 45.015625 
L 1.765625 45.015625 
L 1.765625 51.859375 
L 8.203125 51.859375 
L 8.203125 64.703125 
L 16.9375 69.96875 
L 16.9375 51.859375 
L 25.78125 51.859375 
L 25.78125 45.015625 
L 16.9375 45.015625 
L 16.9375 14.703125 
Q 16.9375 10.9375 17.40625 9.859375 
Q 17.875 8.796875 18.921875 8.15625 
Q 19.96875 7.515625 21.921875 7.515625 
Q 23.390625 7.515625 25.78125 7.859375 
z
" id="ArialMT-116"/>
       <path d="M 3.328125 25.921875 
Q 3.328125 40.328125 11.328125 47.265625 
Q 18.015625 53.03125 27.640625 53.03125 
Q 38.328125 53.03125 45.109375 46.015625 
Q 51.90625 39.015625 51.90625 26.65625 
Q 51.90625 16.65625 48.90625 10.90625 
Q 45.90625 5.171875 40.15625 2 
Q 34.421875 -1.171875 27.640625 -1.171875 
Q 16.75 -1.171875 10.03125 5.8125 
Q 3.328125 12.796875 3.328125 25.921875 
z
M 12.359375 25.921875 
Q 12.359375 15.96875 16.703125 11.015625 
Q 21.046875 6.0625 27.640625 6.0625 
Q 34.1875 6.0625 38.53125 11.03125 
Q 42.875 16.015625 42.875 26.21875 
Q 42.875 35.84375 38.5 40.796875 
Q 34.125 45.75 27.640625 45.75 
Q 21.046875 45.75 16.703125 40.8125 
Q 12.359375 35.890625 12.359375 25.921875 
z
" id="ArialMT-111"/>
       <path d="M 0.734375 0 
L 19.671875 26.953125 
L 2.15625 51.859375 
L 13.140625 51.859375 
L 21.09375 39.703125 
Q 23.34375 36.234375 24.703125 33.890625 
Q 26.859375 37.109375 28.65625 39.59375 
L 37.40625 51.859375 
L 47.90625 51.859375 
L 29.984375 27.4375 
L 49.265625 0 
L 38.484375 0 
L 27.828125 16.109375 
L 25 20.453125 
L 11.375 0 
z
" id="ArialMT-120"/>
      </defs>
      <g style="fill:#262626;" transform="translate(498.896355 387.940682)rotate(-280)scale(0.132 -0.132)">
       <use xlink:href="#ArialMT-112"/>
       <use x="55.615234" xlink:href="#ArialMT-117"/>
       <use x="111.230469" xlink:href="#ArialMT-98"/>
       <use x="166.845703" xlink:href="#ArialMT-99"/>
       <use x="216.845703" xlink:href="#ArialMT-104"/>
       <use x="272.460938" xlink:href="#ArialMT-101"/>
       <use x="328.076172" xlink:href="#ArialMT-109"/>
       <use x="411.376953" xlink:href="#ArialMT-116"/>
       <use x="439.160156" xlink:href="#ArialMT-111"/>
       <use x="494.775391" xlink:href="#ArialMT-120"/>
      </g>
     </g>
    </g>
    <g id="text_3">
     <!-- dataset -->
     <defs>
      <path d="M 40.234375 0 
L 40.234375 6.546875 
Q 35.296875 -1.171875 25.734375 -1.171875 
Q 19.53125 -1.171875 14.328125 2.25 
Q 9.125 5.671875 6.265625 11.796875 
Q 3.421875 17.921875 3.421875 25.875 
Q 3.421875 33.640625 6 39.96875 
Q 8.59375 46.296875 13.765625 49.65625 
Q 18.953125 53.03125 25.34375 53.03125 
Q 30.03125 53.03125 33.6875 51.046875 
Q 37.359375 49.078125 39.65625 45.90625 
L 39.65625 71.578125 
L 48.390625 71.578125 
L 48.390625 0 
z
M 12.453125 25.875 
Q 12.453125 15.921875 16.640625 10.984375 
Q 20.84375 6.0625 26.5625 6.0625 
Q 32.328125 6.0625 36.34375 10.765625 
Q 40.375 15.484375 40.375 25.140625 
Q 40.375 35.796875 36.265625 40.765625 
Q 32.171875 45.75 26.171875 45.75 
Q 20.3125 45.75 16.375 40.96875 
Q 12.453125 36.1875 12.453125 25.875 
z
" id="ArialMT-100"/>
      <path d="M 40.4375 6.390625 
Q 35.546875 2.25 31.03125 0.53125 
Q 26.515625 -1.171875 21.34375 -1.171875 
Q 12.796875 -1.171875 8.203125 3 
Q 3.609375 7.171875 3.609375 13.671875 
Q 3.609375 17.484375 5.34375 20.625 
Q 7.078125 23.78125 9.890625 25.6875 
Q 12.703125 27.59375 16.21875 28.5625 
Q 18.796875 29.25 24.03125 29.890625 
Q 34.671875 31.15625 39.703125 32.90625 
Q 39.75 34.71875 39.75 35.203125 
Q 39.75 40.578125 37.25 42.78125 
Q 33.890625 45.75 27.25 45.75 
Q 21.046875 45.75 18.09375 43.578125 
Q 15.140625 41.40625 13.71875 35.890625 
L 5.125 37.0625 
Q 6.296875 42.578125 8.984375 45.96875 
Q 11.671875 49.359375 16.75 51.1875 
Q 21.828125 53.03125 28.515625 53.03125 
Q 35.15625 53.03125 39.296875 51.46875 
Q 43.453125 49.90625 45.40625 47.53125 
Q 47.359375 45.171875 48.140625 41.546875 
Q 48.578125 39.3125 48.578125 33.453125 
L 48.578125 21.734375 
Q 48.578125 9.46875 49.140625 6.21875 
Q 49.703125 2.984375 51.375 0 
L 42.1875 0 
Q 40.828125 2.734375 40.4375 6.390625 
z
M 39.703125 26.03125 
Q 34.90625 24.078125 25.34375 22.703125 
Q 19.921875 21.921875 17.671875 20.9375 
Q 15.4375 19.96875 14.203125 18.09375 
Q 12.984375 16.21875 12.984375 13.921875 
Q 12.984375 10.40625 15.640625 8.0625 
Q 18.3125 5.71875 23.4375 5.71875 
Q 28.515625 5.71875 32.46875 7.9375 
Q 36.421875 10.15625 38.28125 14.015625 
Q 39.703125 17 39.703125 22.796875 
z
" id="ArialMT-97"/>
      <path d="M 3.078125 15.484375 
L 11.765625 16.84375 
Q 12.5 11.625 15.84375 8.84375 
Q 19.1875 6.0625 25.203125 6.0625 
Q 31.25 6.0625 34.171875 8.515625 
Q 37.109375 10.984375 37.109375 14.3125 
Q 37.109375 17.28125 34.515625 19 
Q 32.71875 20.171875 25.53125 21.96875 
Q 15.875 24.421875 12.140625 26.203125 
Q 8.40625 27.984375 6.46875 31.125 
Q 4.546875 34.28125 4.546875 38.09375 
Q 4.546875 41.546875 6.125 44.5 
Q 7.71875 47.46875 10.453125 49.421875 
Q 12.5 50.921875 16.03125 51.96875 
Q 19.578125 53.03125 23.640625 53.03125 
Q 29.734375 53.03125 34.34375 51.265625 
Q 38.96875 49.515625 41.15625 46.5 
Q 43.359375 43.5 44.1875 38.484375 
L 35.59375 37.3125 
Q 35.015625 41.3125 32.203125 43.546875 
Q 29.390625 45.796875 24.265625 45.796875 
Q 18.21875 45.796875 15.625 43.796875 
Q 13.03125 41.796875 13.03125 39.109375 
Q 13.03125 37.40625 14.109375 36.03125 
Q 15.1875 34.625 17.484375 33.6875 
Q 18.796875 33.203125 25.25 31.453125 
Q 34.578125 28.953125 38.25 27.359375 
Q 41.9375 25.78125 44.03125 22.75 
Q 46.140625 19.734375 46.140625 15.234375 
Q 46.140625 10.84375 43.578125 6.953125 
Q 41.015625 3.078125 36.171875 0.953125 
Q 31.34375 -1.171875 25.25 -1.171875 
Q 15.140625 -1.171875 9.84375 3.03125 
Q 4.546875 7.234375 3.078125 15.484375 
z
" id="ArialMT-115"/>
     </defs>
     <g style="fill:#262626;" transform="translate(345.384 473.516038)scale(0.144 -0.144)">
      <use xlink:href="#ArialMT-100"/>
      <use x="55.615234" xlink:href="#ArialMT-97"/>
      <use x="111.230469" xlink:href="#ArialMT-116"/>
      <use x="139.013672" xlink:href="#ArialMT-97"/>
      <use x="194.628906" xlink:href="#ArialMT-115"/>
      <use x="244.628906" xlink:href="#ArialMT-101"/>
      <use x="300.244141" xlink:href="#ArialMT-116"/>
     </g>
    </g>
   </g>
   <g id="matplotlib.axis_2">
    <g id="ytick_1">
     <g id="line2d_3">
      <defs>
       <path d="M 0 0 
L -4.8 0 
" id="m4528e78393" style="stroke:#262626;"/>
      </defs>
      <g>
       <use style="fill:#262626;stroke:#262626;" x="90" xlink:href="#m4528e78393" y="344.07983"/>
      </g>
     </g>
     <g id="text_4">
      <!-- −0.75 -->
      <defs>
       <path d="M 52.828125 31.203125 
L 5.5625 31.203125 
L 5.5625 39.40625 
L 52.828125 39.40625 
z
" id="ArialMT-8722"/>
       <path d="M 4.15625 35.296875 
Q 4.15625 48 6.765625 55.734375 
Q 9.375 63.484375 14.515625 67.671875 
Q 19.671875 71.875 27.484375 71.875 
Q 33.25 71.875 37.59375 69.546875 
Q 41.9375 67.234375 44.765625 62.859375 
Q 47.609375 58.5 49.21875 52.21875 
Q 50.828125 45.953125 50.828125 35.296875 
Q 50.828125 22.703125 48.234375 14.96875 
Q 45.65625 7.234375 40.5 3 
Q 35.359375 -1.21875 27.484375 -1.21875 
Q 17.140625 -1.21875 11.234375 6.203125 
Q 4.15625 15.140625 4.15625 35.296875 
z
M 13.1875 35.296875 
Q 13.1875 17.671875 17.3125 11.828125 
Q 21.4375 6 27.484375 6 
Q 33.546875 6 37.671875 11.859375 
Q 41.796875 17.71875 41.796875 35.296875 
Q 41.796875 52.984375 37.671875 58.78125 
Q 33.546875 64.59375 27.390625 64.59375 
Q 21.34375 64.59375 17.71875 59.46875 
Q 13.1875 52.9375 13.1875 35.296875 
z
" id="ArialMT-48"/>
       <path d="M 9.078125 0 
L 9.078125 10.015625 
L 19.09375 10.015625 
L 19.09375 0 
z
" id="ArialMT-46"/>
       <path d="M 4.734375 62.203125 
L 4.734375 70.65625 
L 51.078125 70.65625 
L 51.078125 63.8125 
Q 44.234375 56.546875 37.515625 44.484375 
Q 30.8125 32.421875 27.15625 19.671875 
Q 24.515625 10.6875 23.78125 0 
L 14.75 0 
Q 14.890625 8.453125 18.0625 20.40625 
Q 21.234375 32.375 27.171875 43.484375 
Q 33.109375 54.59375 39.796875 62.203125 
z
" id="ArialMT-55"/>
       <path d="M 4.15625 18.75 
L 13.375 19.53125 
Q 14.40625 12.796875 18.140625 9.390625 
Q 21.875 6 27.15625 6 
Q 33.5 6 37.890625 10.78125 
Q 42.28125 15.578125 42.28125 23.484375 
Q 42.28125 31 38.0625 35.34375 
Q 33.84375 39.703125 27 39.703125 
Q 22.75 39.703125 19.328125 37.765625 
Q 15.921875 35.84375 13.96875 32.765625 
L 5.71875 33.84375 
L 12.640625 70.609375 
L 48.25 70.609375 
L 48.25 62.203125 
L 19.671875 62.203125 
L 15.828125 42.96875 
Q 22.265625 47.46875 29.34375 47.46875 
Q 38.71875 47.46875 45.15625 40.96875 
Q 51.609375 34.46875 51.609375 24.265625 
Q 51.609375 14.546875 45.953125 7.46875 
Q 39.0625 -1.21875 27.15625 -1.21875 
Q 17.390625 -1.21875 11.203125 4.25 
Q 5.03125 9.71875 4.15625 18.75 
z
" id="ArialMT-53"/>
      </defs>
      <g style="fill:#262626;" transform="translate(48.301938 348.803986)scale(0.132 -0.132)">
       <use xlink:href="#ArialMT-8722"/>
       <use x="58.398438" xlink:href="#ArialMT-48"/>
       <use x="114.013672" xlink:href="#ArialMT-46"/>
       <use x="141.796875" xlink:href="#ArialMT-55"/>
       <use x="197.412109" xlink:href="#ArialMT-53"/>
      </g>
     </g>
    </g>
    <g id="ytick_2">
     <g id="line2d_4">
      <g>
       <use style="fill:#262626;stroke:#262626;" x="90" xlink:href="#m4528e78393" y="304.332085"/>
      </g>
     </g>
     <g id="text_5">
      <!-- −0.50 -->
      <g style="fill:#262626;" transform="translate(48.301938 309.056241)scale(0.132 -0.132)">
       <use xlink:href="#ArialMT-8722"/>
       <use x="58.398438" xlink:href="#ArialMT-48"/>
       <use x="114.013672" xlink:href="#ArialMT-46"/>
       <use x="141.796875" xlink:href="#ArialMT-53"/>
       <use x="197.412109" xlink:href="#ArialMT-48"/>
      </g>
     </g>
    </g>
    <g id="ytick_3">
     <g id="line2d_5">
      <g>
       <use style="fill:#262626;stroke:#262626;" x="90" xlink:href="#m4528e78393" y="264.58434"/>
      </g>
     </g>
     <g id="text_6">
      <!-- −0.25 -->
      <defs>
       <path d="M 50.34375 8.453125 
L 50.34375 0 
L 3.03125 0 
Q 2.9375 3.171875 4.046875 6.109375 
Q 5.859375 10.9375 9.828125 15.625 
Q 13.8125 20.3125 21.34375 26.46875 
Q 33.015625 36.03125 37.109375 41.625 
Q 41.21875 47.21875 41.21875 52.203125 
Q 41.21875 57.421875 37.46875 61 
Q 33.734375 64.59375 27.734375 64.59375 
Q 21.390625 64.59375 17.578125 60.78125 
Q 13.765625 56.984375 13.71875 50.25 
L 4.6875 51.171875 
Q 5.609375 61.28125 11.65625 66.578125 
Q 17.71875 71.875 27.9375 71.875 
Q 38.234375 71.875 44.234375 66.15625 
Q 50.25 60.453125 50.25 52 
Q 50.25 47.703125 48.484375 43.546875 
Q 46.734375 39.40625 42.65625 34.8125 
Q 38.578125 30.21875 29.109375 22.21875 
Q 21.1875 15.578125 18.9375 13.203125 
Q 16.703125 10.84375 15.234375 8.453125 
z
" id="ArialMT-50"/>
      </defs>
      <g style="fill:#262626;" transform="translate(48.301938 269.308496)scale(0.132 -0.132)">
       <use xlink:href="#ArialMT-8722"/>
       <use x="58.398438" xlink:href="#ArialMT-48"/>
       <use x="114.013672" xlink:href="#ArialMT-46"/>
       <use x="141.796875" xlink:href="#ArialMT-50"/>
       <use x="197.412109" xlink:href="#ArialMT-53"/>
      </g>
     </g>
    </g>
    <g id="ytick_4">
     <g id="line2d_6">
      <g>
       <use style="fill:#262626;stroke:#262626;" x="90" xlink:href="#m4528e78393" y="224.836595"/>
      </g>
     </g>
     <g id="text_7">
      <!-- 0.00 -->
      <g style="fill:#262626;" transform="translate(56.011562 229.560751)scale(0.132 -0.132)">
       <use xlink:href="#ArialMT-48"/>
       <use x="55.615234" xlink:href="#ArialMT-46"/>
       <use x="83.398438" xlink:href="#ArialMT-48"/>
       <use x="139.013672" xlink:href="#ArialMT-48"/>
      </g>
     </g>
    </g>
    <g id="ytick_5">
     <g id="line2d_7">
      <g>
       <use style="fill:#262626;stroke:#262626;" x="90" xlink:href="#m4528e78393" y="185.08885"/>
      </g>
     </g>
     <g id="text_8">
      <!-- 0.25 -->
      <g style="fill:#262626;" transform="translate(56.011562 189.813006)scale(0.132 -0.132)">
       <use xlink:href="#ArialMT-48"/>
       <use x="55.615234" xlink:href="#ArialMT-46"/>
       <use x="83.398438" xlink:href="#ArialMT-50"/>
       <use x="139.013672" xlink:href="#ArialMT-53"/>
      </g>
     </g>
    </g>
    <g id="ytick_6">
     <g id="line2d_8">
      <g>
       <use style="fill:#262626;stroke:#262626;" x="90" xlink:href="#m4528e78393" y="145.341105"/>
      </g>
     </g>
     <g id="text_9">
      <!-- 0.50 -->
      <g style="fill:#262626;" transform="translate(56.011562 150.065261)scale(0.132 -0.132)">
       <use xlink:href="#ArialMT-48"/>
       <use x="55.615234" xlink:href="#ArialMT-46"/>
       <use x="83.398438" xlink:href="#ArialMT-53"/>
       <use x="139.013672" xlink:href="#ArialMT-48"/>
      </g>
     </g>
    </g>
    <g id="ytick_7">
     <g id="line2d_9">
      <g>
       <use style="fill:#262626;stroke:#262626;" x="90" xlink:href="#m4528e78393" y="105.59336"/>
      </g>
     </g>
     <g id="text_10">
      <!-- 0.75 -->
      <g style="fill:#262626;" transform="translate(56.011562 110.317516)scale(0.132 -0.132)">
       <use xlink:href="#ArialMT-48"/>
       <use x="55.615234" xlink:href="#ArialMT-46"/>
       <use x="83.398438" xlink:href="#ArialMT-55"/>
       <use x="139.013672" xlink:href="#ArialMT-53"/>
      </g>
     </g>
    </g>
    <g id="ytick_8">
     <g id="line2d_10">
      <g>
       <use style="fill:#262626;stroke:#262626;" x="90" xlink:href="#m4528e78393" y="65.845615"/>
      </g>
     </g>
     <g id="text_11">
      <!-- 1.00 -->
      <defs>
       <path d="M 37.25 0 
L 28.46875 0 
L 28.46875 56 
Q 25.296875 52.984375 20.140625 49.953125 
Q 14.984375 46.921875 10.890625 45.40625 
L 10.890625 53.90625 
Q 18.265625 57.375 23.78125 62.296875 
Q 29.296875 67.234375 31.59375 71.875 
L 37.25 71.875 
z
" id="ArialMT-49"/>
      </defs>
      <g style="fill:#262626;" transform="translate(56.011562 70.569771)scale(0.132 -0.132)">
       <use xlink:href="#ArialMT-49"/>
       <use x="55.615234" xlink:href="#ArialMT-46"/>
       <use x="83.398438" xlink:href="#ArialMT-48"/>
       <use x="139.013672" xlink:href="#ArialMT-48"/>
      </g>
     </g>
    </g>
    <g id="text_12">
     <!-- Pearson's r -->
     <defs>
      <path d="M 7.71875 0 
L 7.71875 71.578125 
L 34.71875 71.578125 
Q 41.84375 71.578125 45.609375 70.90625 
Q 50.875 70.015625 54.4375 67.546875 
Q 58.015625 65.09375 60.1875 60.640625 
Q 62.359375 56.203125 62.359375 50.875 
Q 62.359375 41.75 56.546875 35.421875 
Q 50.734375 29.109375 35.546875 29.109375 
L 17.1875 29.109375 
L 17.1875 0 
z
M 17.1875 37.546875 
L 35.6875 37.546875 
Q 44.875 37.546875 48.734375 40.96875 
Q 52.59375 44.390625 52.59375 50.59375 
Q 52.59375 55.078125 50.3125 58.265625 
Q 48.046875 61.46875 44.34375 62.5 
Q 41.9375 63.140625 35.5 63.140625 
L 17.1875 63.140625 
z
" id="ArialMT-80"/>
      <path d="M 6.5 0 
L 6.5 51.859375 
L 14.40625 51.859375 
L 14.40625 44 
Q 17.4375 49.515625 20 51.265625 
Q 22.5625 53.03125 25.640625 53.03125 
Q 30.078125 53.03125 34.671875 50.203125 
L 31.640625 42.046875 
Q 28.421875 43.953125 25.203125 43.953125 
Q 22.3125 43.953125 20.015625 42.21875 
Q 17.71875 40.484375 16.75 37.40625 
Q 15.28125 32.71875 15.28125 27.15625 
L 15.28125 0 
z
" id="ArialMT-114"/>
      <path d="M 6.59375 0 
L 6.59375 51.859375 
L 14.5 51.859375 
L 14.5 44.484375 
Q 20.21875 53.03125 31 53.03125 
Q 35.6875 53.03125 39.625 51.34375 
Q 43.5625 49.65625 45.515625 46.921875 
Q 47.46875 44.1875 48.25 40.4375 
Q 48.734375 37.984375 48.734375 31.890625 
L 48.734375 0 
L 39.9375 0 
L 39.9375 31.546875 
Q 39.9375 36.921875 38.90625 39.578125 
Q 37.890625 42.234375 35.28125 43.8125 
Q 32.671875 45.40625 29.15625 45.40625 
Q 23.53125 45.40625 19.453125 41.84375 
Q 15.375 38.28125 15.375 28.328125 
L 15.375 0 
z
" id="ArialMT-110"/>
      <path d="M 6.640625 46.234375 
L 4.390625 59.625 
L 4.390625 71.578125 
L 14.40625 71.578125 
L 14.40625 59.625 
L 12.0625 46.234375 
z
" id="ArialMT-39"/>
      <path id="ArialMT-32"/>
     </defs>
     <g style="fill:#262626;" transform="translate(41.439937 251.107875)rotate(-90)scale(0.144 -0.144)">
      <use xlink:href="#ArialMT-80"/>
      <use x="66.699219" xlink:href="#ArialMT-101"/>
      <use x="122.314453" xlink:href="#ArialMT-97"/>
      <use x="177.929688" xlink:href="#ArialMT-114"/>
      <use x="211.230469" xlink:href="#ArialMT-115"/>
      <use x="261.230469" xlink:href="#ArialMT-111"/>
      <use x="316.845703" xlink:href="#ArialMT-110"/>
      <use x="372.460938" xlink:href="#ArialMT-39"/>
      <use x="391.552734" xlink:href="#ArialMT-115"/>
      <use x="441.552734" xlink:href="#ArialMT-32"/>
      <use x="469.335938" xlink:href="#ArialMT-114"/>
     </g>
    </g>
   </g>
   <g id="patch_3">
    <path clip-path="url(#p33a9a26662)" d="M 118.272 216.192055 
L 154.728 216.192055 
L 154.728 169.876436 
L 118.272 169.876436 
L 118.272 216.192055 
z
" style="fill:#96cac1;stroke:#666666;stroke-linejoin:miter;stroke-width:2;"/>
   </g>
   <g id="patch_4">
    <path clip-path="url(#p33a9a26662)" d="M 155.472 212.019186 
L 191.928 212.019186 
L 191.928 167.422165 
L 155.472 167.422165 
L 155.472 212.019186 
z
" style="fill:#eab375;stroke:#666666;stroke-linejoin:miter;stroke-width:2;"/>
   </g>
   <g id="patch_5">
    <path clip-path="url(#p33a9a26662)" d="M 192.672 201.03636 
L 229.128 201.03636 
L 229.128 142.437462 
L 192.672 142.437462 
L 192.672 201.03636 
z
" style="fill:#ea8e83;stroke:#666666;stroke-linejoin:miter;stroke-width:2;"/>
   </g>
   <g id="patch_6">
    <path clip-path="url(#p33a9a26662)" d="M 229.872 224.113499 
L 266.328 224.113499 
L 266.328 166.778984 
L 229.872 166.778984 
L 229.872 224.113499 
z
" style="fill:#c1bed6;stroke:#666666;stroke-linejoin:miter;stroke-width:2;"/>
   </g>
   <g id="patch_7">
    <path clip-path="url(#p33a9a26662)" d="M 267.072 198.876768 
L 303.528 198.876768 
L 303.528 145.982518 
L 267.072 145.982518 
L 267.072 198.876768 
z
" style="fill:#8aafc9;stroke:#666666;stroke-linejoin:miter;stroke-width:2;"/>
   </g>
   <g id="patch_8">
    <path clip-path="url(#p33a9a26662)" d="M 397.272 213.588685 
L 433.728 213.588685 
L 433.728 172.177795 
L 397.272 172.177795 
L 397.272 213.588685 
z
" style="fill:#96cac1;stroke:#666666;stroke-linejoin:miter;stroke-width:2;"/>
   </g>
   <g id="patch_9">
    <path clip-path="url(#p33a9a26662)" d="M 434.472 211.582092 
L 470.928 211.582092 
L 470.928 155.106806 
L 434.472 155.106806 
L 434.472 211.582092 
z
" style="fill:#eab375;stroke:#666666;stroke-linejoin:miter;stroke-width:2;"/>
   </g>
   <g id="patch_10">
    <path clip-path="url(#p33a9a26662)" d="M 471.672 200.892651 
L 508.128 200.892651 
L 508.128 118.928427 
L 471.672 118.928427 
L 471.672 200.892651 
z
" style="fill:#ea8e83;stroke:#666666;stroke-linejoin:miter;stroke-width:2;"/>
   </g>
   <g id="patch_11">
    <path clip-path="url(#p33a9a26662)" d="M 508.872 224.836595 
L 545.328 224.836595 
L 545.328 145.588847 
L 508.872 145.588847 
L 508.872 224.836595 
z
" style="fill:#c1bed6;stroke:#666666;stroke-linejoin:miter;stroke-width:2;"/>
   </g>
   <g id="patch_12">
    <path clip-path="url(#p33a9a26662)" d="M 546.072 209.334049 
L 582.528 209.334049 
L 582.528 147.372855 
L 546.072 147.372855 
L 546.072 209.334049 
z
" style="fill:#8aafc9;stroke:#666666;stroke-linejoin:miter;stroke-width:2;"/>
   </g>
   <g id="patch_13">
    <path clip-path="url(#p33a9a26662)" d="M 583.272 224.125695 
L 619.728 224.125695 
L 619.728 163.705234 
L 583.272 163.705234 
L 583.272 224.125695 
z
" style="fill:#f6f6bc;stroke:#666666;stroke-linejoin:miter;stroke-width:2;"/>
   </g>
   <g id="patch_14">
    <path clip-path="url(#p33a9a26662)" d="M 229.5 224.836595 
L 229.5 224.836595 
L 229.5 224.836595 
L 229.5 224.836595 
z
" style="fill:#96cac1;stroke:#666666;stroke-linejoin:miter;"/>
   </g>
   <g id="patch_15">
    <path clip-path="url(#p33a9a26662)" d="M 229.5 224.836595 
L 229.5 224.836595 
L 229.5 224.836595 
L 229.5 224.836595 
z
" style="fill:#eab375;stroke:#666666;stroke-linejoin:miter;"/>
   </g>
   <g id="patch_16">
    <path clip-path="url(#p33a9a26662)" d="M 229.5 224.836595 
L 229.5 224.836595 
L 229.5 224.836595 
L 229.5 224.836595 
z
" style="fill:#ea8e83;stroke:#666666;stroke-linejoin:miter;"/>
   </g>
   <g id="patch_17">
    <path clip-path="url(#p33a9a26662)" d="M 229.5 224.836595 
L 229.5 224.836595 
L 229.5 224.836595 
L 229.5 224.836595 
z
" style="fill:#c1bed6;stroke:#666666;stroke-linejoin:miter;"/>
   </g>
   <g id="patch_18">
    <path clip-path="url(#p33a9a26662)" d="M 229.5 224.836595 
L 229.5 224.836595 
L 229.5 224.836595 
L 229.5 224.836595 
z
" style="fill:#8aafc9;stroke:#666666;stroke-linejoin:miter;"/>
   </g>
   <g id="patch_19">
    <path clip-path="url(#p33a9a26662)" d="M 229.5 224.836595 
L 229.5 224.836595 
L 229.5 224.836595 
L 229.5 224.836595 
z
" style="fill:#f6f6bc;stroke:#666666;stroke-linejoin:miter;"/>
   </g>
   <g id="line2d_11">
    <path clip-path="url(#p33a9a26662)" d="M 136.5 216.192055 
L 136.5 284.389625 
" style="fill:none;stroke:#666666;stroke-linecap:round;stroke-width:2;"/>
   </g>
   <g id="line2d_12">
    <path clip-path="url(#p33a9a26662)" d="M 136.5 169.876436 
L 136.5 102.071779 
" style="fill:none;stroke:#666666;stroke-linecap:round;stroke-width:2;"/>
   </g>
   <g id="line2d_13">
    <path clip-path="url(#p33a9a26662)" d="M 127.386 284.389625 
L 145.614 284.389625 
" style="fill:none;stroke:#666666;stroke-linecap:round;stroke-width:2;"/>
   </g>
   <g id="line2d_14">
    <path clip-path="url(#p33a9a26662)" d="M 127.386 102.071779 
L 145.614 102.071779 
" style="fill:none;stroke:#666666;stroke-linecap:round;stroke-width:2;"/>
   </g>
   <g id="line2d_15">
    <defs>
     <path d="M -0 3.535534 
L 2.12132 0 
L -0 -3.535534 
L -2.12132 -0 
z
" id="mab30459edf" style="stroke:#666666;stroke-linejoin:miter;"/>
    </defs>
    <g clip-path="url(#p33a9a26662)">
     <use style="fill:#666666;stroke:#666666;stroke-linejoin:miter;" x="136.5" xlink:href="#mab30459edf" y="289.975859"/>
     <use style="fill:#666666;stroke:#666666;stroke-linejoin:miter;" x="136.5" xlink:href="#mab30459edf" y="82.116161"/>
     <use style="fill:#666666;stroke:#666666;stroke-linejoin:miter;" x="136.5" xlink:href="#mab30459edf" y="93.087383"/>
     <use style="fill:#666666;stroke:#666666;stroke-linejoin:miter;" x="136.5" xlink:href="#mab30459edf" y="97.245128"/>
    </g>
   </g>
   <g id="line2d_16">
    <path clip-path="url(#p33a9a26662)" d="M 173.7 212.019186 
L 173.7 276.411716 
" style="fill:none;stroke:#666666;stroke-linecap:round;stroke-width:2;"/>
   </g>
   <g id="line2d_17">
    <path clip-path="url(#p33a9a26662)" d="M 173.7 167.422165 
L 173.7 101.363356 
" style="fill:none;stroke:#666666;stroke-linecap:round;stroke-width:2;"/>
   </g>
   <g id="line2d_18">
    <path clip-path="url(#p33a9a26662)" d="M 164.586 276.411716 
L 182.814 276.411716 
" style="fill:none;stroke:#666666;stroke-linecap:round;stroke-width:2;"/>
   </g>
   <g id="line2d_19">
    <path clip-path="url(#p33a9a26662)" d="M 164.586 101.363356 
L 182.814 101.363356 
" style="fill:none;stroke:#666666;stroke-linecap:round;stroke-width:2;"/>
   </g>
   <g id="line2d_20">
    <g clip-path="url(#p33a9a26662)">
     <use style="fill:#666666;stroke:#666666;stroke-linejoin:miter;" x="173.7" xlink:href="#mab30459edf" y="286.220983"/>
     <use style="fill:#666666;stroke:#666666;stroke-linejoin:miter;" x="173.7" xlink:href="#mab30459edf" y="288.401587"/>
     <use style="fill:#666666;stroke:#666666;stroke-linejoin:miter;" x="173.7" xlink:href="#mab30459edf" y="288.559107"/>
     <use style="fill:#666666;stroke:#666666;stroke-linejoin:miter;" x="173.7" xlink:href="#mab30459edf" y="286.520846"/>
     <use style="fill:#666666;stroke:#666666;stroke-linejoin:miter;" x="173.7" xlink:href="#mab30459edf" y="291.434393"/>
     <use style="fill:#666666;stroke:#666666;stroke-linejoin:miter;" x="173.7" xlink:href="#mab30459edf" y="284.815504"/>
     <use style="fill:#666666;stroke:#666666;stroke-linejoin:miter;" x="173.7" xlink:href="#mab30459edf" y="89.608078"/>
     <use style="fill:#666666;stroke:#666666;stroke-linejoin:miter;" x="173.7" xlink:href="#mab30459edf" y="96.050044"/>
     <use style="fill:#666666;stroke:#666666;stroke-linejoin:miter;" x="173.7" xlink:href="#mab30459edf" y="100.380367"/>
     <use style="fill:#666666;stroke:#666666;stroke-linejoin:miter;" x="173.7" xlink:href="#mab30459edf" y="90.92995"/>
     <use style="fill:#666666;stroke:#666666;stroke-linejoin:miter;" x="173.7" xlink:href="#mab30459edf" y="91.775566"/>
     <use style="fill:#666666;stroke:#666666;stroke-linejoin:miter;" x="173.7" xlink:href="#mab30459edf" y="86.679126"/>
     <use style="fill:#666666;stroke:#666666;stroke-linejoin:miter;" x="173.7" xlink:href="#mab30459edf" y="86.209845"/>
     <use style="fill:#666666;stroke:#666666;stroke-linejoin:miter;" x="173.7" xlink:href="#mab30459edf" y="76.213225"/>
     <use style="fill:#666666;stroke:#666666;stroke-linejoin:miter;" x="173.7" xlink:href="#mab30459edf" y="97.381061"/>
     <use style="fill:#666666;stroke:#666666;stroke-linejoin:miter;" x="173.7" xlink:href="#mab30459edf" y="94.016915"/>
     <use style="fill:#666666;stroke:#666666;stroke-linejoin:miter;" x="173.7" xlink:href="#mab30459edf" y="88.348808"/>
     <use style="fill:#666666;stroke:#666666;stroke-linejoin:miter;" x="173.7" xlink:href="#mab30459edf" y="88.934614"/>
    </g>
   </g>
   <g id="line2d_21">
    <path clip-path="url(#p33a9a26662)" d="M 210.9 201.03636 
L 210.9 286.146696 
" style="fill:none;stroke:#666666;stroke-linecap:round;stroke-width:2;"/>
   </g>
   <g id="line2d_22">
    <path clip-path="url(#p33a9a26662)" d="M 210.9 142.437462 
L 210.9 73.0828 
" style="fill:none;stroke:#666666;stroke-linecap:round;stroke-width:2;"/>
   </g>
   <g id="line2d_23">
    <path clip-path="url(#p33a9a26662)" d="M 201.786 286.146696 
L 220.014 286.146696 
" style="fill:none;stroke:#666666;stroke-linecap:round;stroke-width:2;"/>
   </g>
   <g id="line2d_24">
    <path clip-path="url(#p33a9a26662)" d="M 201.786 73.0828 
L 220.014 73.0828 
" style="fill:none;stroke:#666666;stroke-linecap:round;stroke-width:2;"/>
   </g>
   <g id="line2d_25">
    <g clip-path="url(#p33a9a26662)">
     <use style="fill:#666666;stroke:#666666;stroke-linejoin:miter;" x="210.9" xlink:href="#mab30459edf" y="324.887799"/>
     <use style="fill:#666666;stroke:#666666;stroke-linejoin:miter;" x="210.9" xlink:href="#mab30459edf" y="296.753694"/>
     <use style="fill:#666666;stroke:#666666;stroke-linejoin:miter;" x="210.9" xlink:href="#mab30459edf" y="294.557928"/>
     <use style="fill:#666666;stroke:#666666;stroke-linejoin:miter;" x="210.9" xlink:href="#mab30459edf" y="306.480335"/>
     <use style="fill:#666666;stroke:#666666;stroke-linejoin:miter;" x="210.9" xlink:href="#mab30459edf" y="295.631949"/>
    </g>
   </g>
   <g id="line2d_26">
    <path clip-path="url(#p33a9a26662)" d="M 248.1 224.113499 
L 248.1 309.925061 
" style="fill:none;stroke:#666666;stroke-linecap:round;stroke-width:2;"/>
   </g>
   <g id="line2d_27">
    <path clip-path="url(#p33a9a26662)" d="M 248.1 166.778984 
L 248.1 85.749794 
" style="fill:none;stroke:#666666;stroke-linecap:round;stroke-width:2;"/>
   </g>
   <g id="line2d_28">
    <path clip-path="url(#p33a9a26662)" d="M 238.986 309.925061 
L 257.214 309.925061 
" style="fill:none;stroke:#666666;stroke-linecap:round;stroke-width:2;"/>
   </g>
   <g id="line2d_29">
    <path clip-path="url(#p33a9a26662)" d="M 238.986 85.749794 
L 257.214 85.749794 
" style="fill:none;stroke:#666666;stroke-linecap:round;stroke-width:2;"/>
   </g>
   <g id="line2d_30">
    <g clip-path="url(#p33a9a26662)">
     <use style="fill:#666666;stroke:#666666;stroke-linejoin:miter;" x="248.1" xlink:href="#mab30459edf" y="328.13904"/>
     <use style="fill:#666666;stroke:#666666;stroke-linejoin:miter;" x="248.1" xlink:href="#mab30459edf" y="311.12695"/>
     <use style="fill:#666666;stroke:#666666;stroke-linejoin:miter;" x="248.1" xlink:href="#mab30459edf" y="319.244056"/>
     <use style="fill:#666666;stroke:#666666;stroke-linejoin:miter;" x="248.1" xlink:href="#mab30459edf" y="355.348247"/>
     <use style="fill:#666666;stroke:#666666;stroke-linejoin:miter;" x="248.1" xlink:href="#mab30459edf" y="338.276606"/>
     <use style="fill:#666666;stroke:#666666;stroke-linejoin:miter;" x="248.1" xlink:href="#mab30459edf" y="352.201788"/>
     <use style="fill:#666666;stroke:#666666;stroke-linejoin:miter;" x="248.1" xlink:href="#mab30459edf" y="313.614823"/>
     <use style="fill:#666666;stroke:#666666;stroke-linejoin:miter;" x="248.1" xlink:href="#mab30459edf" y="340.502906"/>
     <use style="fill:#666666;stroke:#666666;stroke-linejoin:miter;" x="248.1" xlink:href="#mab30459edf" y="338.847287"/>
     <use style="fill:#666666;stroke:#666666;stroke-linejoin:miter;" x="248.1" xlink:href="#mab30459edf" y="337.815503"/>
     <use style="fill:#666666;stroke:#666666;stroke-linejoin:miter;" x="248.1" xlink:href="#mab30459edf" y="343.400774"/>
     <use style="fill:#666666;stroke:#666666;stroke-linejoin:miter;" x="248.1" xlink:href="#mab30459edf" y="363.174545"/>
     <use style="fill:#666666;stroke:#666666;stroke-linejoin:miter;" x="248.1" xlink:href="#mab30459edf" y="75.032791"/>
    </g>
   </g>
   <g id="line2d_31">
    <path clip-path="url(#p33a9a26662)" d="M 285.3 198.876768 
L 285.3 276.873529 
" style="fill:none;stroke:#666666;stroke-linecap:round;stroke-width:2;"/>
   </g>
   <g id="line2d_32">
    <path clip-path="url(#p33a9a26662)" d="M 285.3 145.982518 
L 285.3 74.281476 
" style="fill:none;stroke:#666666;stroke-linecap:round;stroke-width:2;"/>
   </g>
   <g id="line2d_33">
    <path clip-path="url(#p33a9a26662)" d="M 276.186 276.873529 
L 294.414 276.873529 
" style="fill:none;stroke:#666666;stroke-linecap:round;stroke-width:2;"/>
   </g>
   <g id="line2d_34">
    <path clip-path="url(#p33a9a26662)" d="M 276.186 74.281476 
L 294.414 74.281476 
" style="fill:none;stroke:#666666;stroke-linecap:round;stroke-width:2;"/>
   </g>
   <g id="line2d_35">
    <g clip-path="url(#p33a9a26662)">
     <use style="fill:#666666;stroke:#666666;stroke-linejoin:miter;" x="285.3" xlink:href="#mab30459edf" y="306.84636"/>
     <use style="fill:#666666;stroke:#666666;stroke-linejoin:miter;" x="285.3" xlink:href="#mab30459edf" y="280.059733"/>
     <use style="fill:#666666;stroke:#666666;stroke-linejoin:miter;" x="285.3" xlink:href="#mab30459edf" y="307.596632"/>
     <use style="fill:#666666;stroke:#666666;stroke-linejoin:miter;" x="285.3" xlink:href="#mab30459edf" y="295.955215"/>
     <use style="fill:#666666;stroke:#666666;stroke-linejoin:miter;" x="285.3" xlink:href="#mab30459edf" y="287.582302"/>
     <use style="fill:#666666;stroke:#666666;stroke-linejoin:miter;" x="285.3" xlink:href="#mab30459edf" y="282.108489"/>
    </g>
   </g>
   <g id="line2d_36">
    <path clip-path="url(#p33a9a26662)" d="M 415.5 213.588685 
L 415.5 263.650845 
" style="fill:none;stroke:#666666;stroke-linecap:round;stroke-width:2;"/>
   </g>
   <g id="line2d_37">
    <path clip-path="url(#p33a9a26662)" d="M 415.5 172.177795 
L 415.5 110.145853 
" style="fill:none;stroke:#666666;stroke-linecap:round;stroke-width:2;"/>
   </g>
   <g id="line2d_38">
    <path clip-path="url(#p33a9a26662)" d="M 406.386 263.650845 
L 424.614 263.650845 
" style="fill:none;stroke:#666666;stroke-linecap:round;stroke-width:2;"/>
   </g>
   <g id="line2d_39">
    <path clip-path="url(#p33a9a26662)" d="M 406.386 110.145853 
L 424.614 110.145853 
" style="fill:none;stroke:#666666;stroke-linecap:round;stroke-width:2;"/>
   </g>
   <g id="line2d_40">
    <g clip-path="url(#p33a9a26662)">
     <use style="fill:#666666;stroke:#666666;stroke-linejoin:miter;" x="415.5" xlink:href="#mab30459edf" y="294.866259"/>
     <use style="fill:#666666;stroke:#666666;stroke-linejoin:miter;" x="415.5" xlink:href="#mab30459edf" y="105.939749"/>
     <use style="fill:#666666;stroke:#666666;stroke-linejoin:miter;" x="415.5" xlink:href="#mab30459edf" y="108.752063"/>
     <use style="fill:#666666;stroke:#666666;stroke-linejoin:miter;" x="415.5" xlink:href="#mab30459edf" y="98.579642"/>
     <use style="fill:#666666;stroke:#666666;stroke-linejoin:miter;" x="415.5" xlink:href="#mab30459edf" y="98.329024"/>
     <use style="fill:#666666;stroke:#666666;stroke-linejoin:miter;" x="415.5" xlink:href="#mab30459edf" y="88.519577"/>
     <use style="fill:#666666;stroke:#666666;stroke-linejoin:miter;" x="415.5" xlink:href="#mab30459edf" y="97.205279"/>
     <use style="fill:#666666;stroke:#666666;stroke-linejoin:miter;" x="415.5" xlink:href="#mab30459edf" y="108.412592"/>
     <use style="fill:#666666;stroke:#666666;stroke-linejoin:miter;" x="415.5" xlink:href="#mab30459edf" y="105.433708"/>
     <use style="fill:#666666;stroke:#666666;stroke-linejoin:miter;" x="415.5" xlink:href="#mab30459edf" y="91.490491"/>
     <use style="fill:#666666;stroke:#666666;stroke-linejoin:miter;" x="415.5" xlink:href="#mab30459edf" y="107.877676"/>
     <use style="fill:#666666;stroke:#666666;stroke-linejoin:miter;" x="415.5" xlink:href="#mab30459edf" y="107.54661"/>
     <use style="fill:#666666;stroke:#666666;stroke-linejoin:miter;" x="415.5" xlink:href="#mab30459edf" y="94.701817"/>
     <use style="fill:#666666;stroke:#666666;stroke-linejoin:miter;" x="415.5" xlink:href="#mab30459edf" y="99.327507"/>
     <use style="fill:#666666;stroke:#666666;stroke-linejoin:miter;" x="415.5" xlink:href="#mab30459edf" y="88.818791"/>
     <use style="fill:#666666;stroke:#666666;stroke-linejoin:miter;" x="415.5" xlink:href="#mab30459edf" y="105.235315"/>
     <use style="fill:#666666;stroke:#666666;stroke-linejoin:miter;" x="415.5" xlink:href="#mab30459edf" y="76.756187"/>
     <use style="fill:#666666;stroke:#666666;stroke-linejoin:miter;" x="415.5" xlink:href="#mab30459edf" y="109.751218"/>
     <use style="fill:#666666;stroke:#666666;stroke-linejoin:miter;" x="415.5" xlink:href="#mab30459edf" y="104.66054"/>
     <use style="fill:#666666;stroke:#666666;stroke-linejoin:miter;" x="415.5" xlink:href="#mab30459edf" y="105.809417"/>
     <use style="fill:#666666;stroke:#666666;stroke-linejoin:miter;" x="415.5" xlink:href="#mab30459edf" y="94.660954"/>
     <use style="fill:#666666;stroke:#666666;stroke-linejoin:miter;" x="415.5" xlink:href="#mab30459edf" y="95.025936"/>
     <use style="fill:#666666;stroke:#666666;stroke-linejoin:miter;" x="415.5" xlink:href="#mab30459edf" y="100.512717"/>
     <use style="fill:#666666;stroke:#666666;stroke-linejoin:miter;" x="415.5" xlink:href="#mab30459edf" y="82.970335"/>
     <use style="fill:#666666;stroke:#666666;stroke-linejoin:miter;" x="415.5" xlink:href="#mab30459edf" y="107.75901"/>
     <use style="fill:#666666;stroke:#666666;stroke-linejoin:miter;" x="415.5" xlink:href="#mab30459edf" y="108.68458"/>
     <use style="fill:#666666;stroke:#666666;stroke-linejoin:miter;" x="415.5" xlink:href="#mab30459edf" y="100.127768"/>
     <use style="fill:#666666;stroke:#666666;stroke-linejoin:miter;" x="415.5" xlink:href="#mab30459edf" y="92.715815"/>
     <use style="fill:#666666;stroke:#666666;stroke-linejoin:miter;" x="415.5" xlink:href="#mab30459edf" y="86.215028"/>
     <use style="fill:#666666;stroke:#666666;stroke-linejoin:miter;" x="415.5" xlink:href="#mab30459edf" y="95.459737"/>
     <use style="fill:#666666;stroke:#666666;stroke-linejoin:miter;" x="415.5" xlink:href="#mab30459edf" y="109.269542"/>
     <use style="fill:#666666;stroke:#666666;stroke-linejoin:miter;" x="415.5" xlink:href="#mab30459edf" y="103.52512"/>
     <use style="fill:#666666;stroke:#666666;stroke-linejoin:miter;" x="415.5" xlink:href="#mab30459edf" y="105.261404"/>
     <use style="fill:#666666;stroke:#666666;stroke-linejoin:miter;" x="415.5" xlink:href="#mab30459edf" y="108.15714"/>
     <use style="fill:#666666;stroke:#666666;stroke-linejoin:miter;" x="415.5" xlink:href="#mab30459edf" y="97.020808"/>
     <use style="fill:#666666;stroke:#666666;stroke-linejoin:miter;" x="415.5" xlink:href="#mab30459edf" y="108.95653"/>
    </g>
   </g>
   <g id="line2d_41">
    <path clip-path="url(#p33a9a26662)" d="M 452.7 211.582092 
L 452.7 295.180218 
" style="fill:none;stroke:#666666;stroke-linecap:round;stroke-width:2;"/>
   </g>
   <g id="line2d_42">
    <path clip-path="url(#p33a9a26662)" d="M 452.7 155.106806 
L 452.7 75.060074 
" style="fill:none;stroke:#666666;stroke-linecap:round;stroke-width:2;"/>
   </g>
   <g id="line2d_43">
    <path clip-path="url(#p33a9a26662)" d="M 443.586 295.180218 
L 461.814 295.180218 
" style="fill:none;stroke:#666666;stroke-linecap:round;stroke-width:2;"/>
   </g>
   <g id="line2d_44">
    <path clip-path="url(#p33a9a26662)" d="M 443.586 75.060074 
L 461.814 75.060074 
" style="fill:none;stroke:#666666;stroke-linecap:round;stroke-width:2;"/>
   </g>
   <g id="line2d_45"/>
   <g id="line2d_46">
    <path clip-path="url(#p33a9a26662)" d="M 489.9 200.892651 
L 489.9 317.821239 
" style="fill:none;stroke:#666666;stroke-linecap:round;stroke-width:2;"/>
   </g>
   <g id="line2d_47">
    <path clip-path="url(#p33a9a26662)" d="M 489.9 118.928427 
L 489.9 70.066967 
" style="fill:none;stroke:#666666;stroke-linecap:round;stroke-width:2;"/>
   </g>
   <g id="line2d_48">
    <path clip-path="url(#p33a9a26662)" d="M 480.786 317.821239 
L 499.014 317.821239 
" style="fill:none;stroke:#666666;stroke-linecap:round;stroke-width:2;"/>
   </g>
   <g id="line2d_49">
    <path clip-path="url(#p33a9a26662)" d="M 480.786 70.066967 
L 499.014 70.066967 
" style="fill:none;stroke:#666666;stroke-linecap:round;stroke-width:2;"/>
   </g>
   <g id="line2d_50">
    <g clip-path="url(#p33a9a26662)">
     <use style="fill:#666666;stroke:#666666;stroke-linejoin:miter;" x="489.9" xlink:href="#mab30459edf" y="334.537044"/>
     <use style="fill:#666666;stroke:#666666;stroke-linejoin:miter;" x="489.9" xlink:href="#mab30459edf" y="325.467729"/>
     <use style="fill:#666666;stroke:#666666;stroke-linejoin:miter;" x="489.9" xlink:href="#mab30459edf" y="326.073283"/>
    </g>
   </g>
   <g id="line2d_51">
    <path clip-path="url(#p33a9a26662)" d="M 527.1 224.836595 
L 527.1 343.307288 
" style="fill:none;stroke:#666666;stroke-linecap:round;stroke-width:2;"/>
   </g>
   <g id="line2d_52">
    <path clip-path="url(#p33a9a26662)" d="M 527.1 145.588847 
L 527.1 69.56193 
" style="fill:none;stroke:#666666;stroke-linecap:round;stroke-width:2;"/>
   </g>
   <g id="line2d_53">
    <path clip-path="url(#p33a9a26662)" d="M 517.986 343.307288 
L 536.214 343.307288 
" style="fill:none;stroke:#666666;stroke-linecap:round;stroke-width:2;"/>
   </g>
   <g id="line2d_54">
    <path clip-path="url(#p33a9a26662)" d="M 517.986 69.56193 
L 536.214 69.56193 
" style="fill:none;stroke:#666666;stroke-linecap:round;stroke-width:2;"/>
   </g>
   <g id="line2d_55">
    <g clip-path="url(#p33a9a26662)">
     <use style="fill:#666666;stroke:#666666;stroke-linejoin:miter;" x="527.1" xlink:href="#mab30459edf" y="345.467033"/>
     <use style="fill:#666666;stroke:#666666;stroke-linejoin:miter;" x="527.1" xlink:href="#mab30459edf" y="346.028664"/>
     <use style="fill:#666666;stroke:#666666;stroke-linejoin:miter;" x="527.1" xlink:href="#mab30459edf" y="354.04529"/>
     <use style="fill:#666666;stroke:#666666;stroke-linejoin:miter;" x="527.1" xlink:href="#mab30459edf" y="347.896493"/>
     <use style="fill:#666666;stroke:#666666;stroke-linejoin:miter;" x="527.1" xlink:href="#mab30459edf" y="347.565949"/>
     <use style="fill:#666666;stroke:#666666;stroke-linejoin:miter;" x="527.1" xlink:href="#mab30459edf" y="343.897869"/>
     <use style="fill:#666666;stroke:#666666;stroke-linejoin:miter;" x="527.1" xlink:href="#mab30459edf" y="344.42039"/>
     <use style="fill:#666666;stroke:#666666;stroke-linejoin:miter;" x="527.1" xlink:href="#mab30459edf" y="346.534629"/>
     <use style="fill:#666666;stroke:#666666;stroke-linejoin:miter;" x="527.1" xlink:href="#mab30459edf" y="343.904541"/>
     <use style="fill:#666666;stroke:#666666;stroke-linejoin:miter;" x="527.1" xlink:href="#mab30459edf" y="346.682948"/>
     <use style="fill:#666666;stroke:#666666;stroke-linejoin:miter;" x="527.1" xlink:href="#mab30459edf" y="350.053433"/>
     <use style="fill:#666666;stroke:#666666;stroke-linejoin:miter;" x="527.1" xlink:href="#mab30459edf" y="345.757595"/>
     <use style="fill:#666666;stroke:#666666;stroke-linejoin:miter;" x="527.1" xlink:href="#mab30459edf" y="348.344546"/>
     <use style="fill:#666666;stroke:#666666;stroke-linejoin:miter;" x="527.1" xlink:href="#mab30459edf" y="351.163778"/>
     <use style="fill:#666666;stroke:#666666;stroke-linejoin:miter;" x="527.1" xlink:href="#mab30459edf" y="347.968212"/>
     <use style="fill:#666666;stroke:#666666;stroke-linejoin:miter;" x="527.1" xlink:href="#mab30459edf" y="355.864115"/>
     <use style="fill:#666666;stroke:#666666;stroke-linejoin:miter;" x="527.1" xlink:href="#mab30459edf" y="349.311416"/>
     <use style="fill:#666666;stroke:#666666;stroke-linejoin:miter;" x="527.1" xlink:href="#mab30459edf" y="348.872886"/>
    </g>
   </g>
   <g id="line2d_56">
    <path clip-path="url(#p33a9a26662)" d="M 564.3 209.334049 
L 564.3 297.917601 
" style="fill:none;stroke:#666666;stroke-linecap:round;stroke-width:2;"/>
   </g>
   <g id="line2d_57">
    <path clip-path="url(#p33a9a26662)" d="M 564.3 147.372855 
L 564.3 66.665455 
" style="fill:none;stroke:#666666;stroke-linecap:round;stroke-width:2;"/>
   </g>
   <g id="line2d_58">
    <path clip-path="url(#p33a9a26662)" d="M 555.186 297.917601 
L 573.414 297.917601 
" style="fill:none;stroke:#666666;stroke-linecap:round;stroke-width:2;"/>
   </g>
   <g id="line2d_59">
    <path clip-path="url(#p33a9a26662)" d="M 555.186 66.665455 
L 573.414 66.665455 
" style="fill:none;stroke:#666666;stroke-linecap:round;stroke-width:2;"/>
   </g>
   <g id="line2d_60">
    <g clip-path="url(#p33a9a26662)">
     <use style="fill:#666666;stroke:#666666;stroke-linejoin:miter;" x="564.3" xlink:href="#mab30459edf" y="307.69914"/>
    </g>
   </g>
   <g id="line2d_61">
    <path clip-path="url(#p33a9a26662)" d="M 601.5 224.125695 
L 601.5 314.448496 
" style="fill:none;stroke:#666666;stroke-linecap:round;stroke-width:2;"/>
   </g>
   <g id="line2d_62">
    <path clip-path="url(#p33a9a26662)" d="M 601.5 163.705234 
L 601.5 75.786283 
" style="fill:none;stroke:#666666;stroke-linecap:round;stroke-width:2;"/>
   </g>
   <g id="line2d_63">
    <path clip-path="url(#p33a9a26662)" d="M 592.386 314.448496 
L 610.614 314.448496 
" style="fill:none;stroke:#666666;stroke-linecap:round;stroke-width:2;"/>
   </g>
   <g id="line2d_64">
    <path clip-path="url(#p33a9a26662)" d="M 592.386 75.786283 
L 610.614 75.786283 
" style="fill:none;stroke:#666666;stroke-linecap:round;stroke-width:2;"/>
   </g>
   <g id="line2d_65">
    <g clip-path="url(#p33a9a26662)">
     <use style="fill:#666666;stroke:#666666;stroke-linejoin:miter;" x="601.5" xlink:href="#mab30459edf" y="314.825432"/>
     <use style="fill:#666666;stroke:#666666;stroke-linejoin:miter;" x="601.5" xlink:href="#mab30459edf" y="317.856044"/>
     <use style="fill:#666666;stroke:#666666;stroke-linejoin:miter;" x="601.5" xlink:href="#mab30459edf" y="319.72836"/>
     <use style="fill:#666666;stroke:#666666;stroke-linejoin:miter;" x="601.5" xlink:href="#mab30459edf" y="71.071535"/>
    </g>
   </g>
   <g id="line2d_66">
    <path clip-path="url(#p33a9a26662)" d="M 118.272 192.601263 
L 154.728 192.601263 
" style="fill:none;stroke:#666666;stroke-linecap:round;stroke-width:2;"/>
   </g>
   <g id="line2d_67">
    <path clip-path="url(#p33a9a26662)" d="M 155.472 195.864193 
L 191.928 195.864193 
" style="fill:none;stroke:#666666;stroke-linecap:round;stroke-width:2;"/>
   </g>
   <g id="line2d_68">
    <path clip-path="url(#p33a9a26662)" d="M 192.672 174.436212 
L 229.128 174.436212 
" style="fill:none;stroke:#666666;stroke-linecap:round;stroke-width:2;"/>
   </g>
   <g id="line2d_69">
    <path clip-path="url(#p33a9a26662)" d="M 229.872 194.698788 
L 266.328 194.698788 
" style="fill:none;stroke:#666666;stroke-linecap:round;stroke-width:2;"/>
   </g>
   <g id="line2d_70">
    <path clip-path="url(#p33a9a26662)" d="M 267.072 175.003766 
L 303.528 175.003766 
" style="fill:none;stroke:#666666;stroke-linecap:round;stroke-width:2;"/>
   </g>
   <g id="line2d_71">
    <path clip-path="url(#p33a9a26662)" d="M 397.272 194.679 
L 433.728 194.679 
" style="fill:none;stroke:#666666;stroke-linecap:round;stroke-width:2;"/>
   </g>
   <g id="line2d_72">
    <path clip-path="url(#p33a9a26662)" d="M 434.472 187.133284 
L 470.928 187.133284 
" style="fill:none;stroke:#666666;stroke-linecap:round;stroke-width:2;"/>
   </g>
   <g id="line2d_73">
    <path clip-path="url(#p33a9a26662)" d="M 471.672 158.277352 
L 508.128 158.277352 
" style="fill:none;stroke:#666666;stroke-linecap:round;stroke-width:2;"/>
   </g>
   <g id="line2d_74">
    <path clip-path="url(#p33a9a26662)" d="M 508.872 187.549675 
L 545.328 187.549675 
" style="fill:none;stroke:#666666;stroke-linecap:round;stroke-width:2;"/>
   </g>
   <g id="line2d_75">
    <path clip-path="url(#p33a9a26662)" d="M 546.072 179.935867 
L 582.528 179.935867 
" style="fill:none;stroke:#666666;stroke-linecap:round;stroke-width:2;"/>
   </g>
   <g id="line2d_76">
    <path clip-path="url(#p33a9a26662)" d="M 583.272 198.522893 
L 619.728 198.522893 
" style="fill:none;stroke:#666666;stroke-linecap:round;stroke-width:2;"/>
   </g>
   <g id="patch_20">
    <path d="M 90 378 
L 90 51.84 
" style="fill:none;stroke:#262626;stroke-linecap:square;stroke-linejoin:miter;"/>
   </g>
   <g id="patch_21">
    <path d="M 648 378 
L 648 51.84 
" style="fill:none;stroke:#262626;stroke-linecap:square;stroke-linejoin:miter;"/>
   </g>
   <g id="patch_22">
    <path d="M 90 378 
L 648 378 
" style="fill:none;stroke:#262626;stroke-linecap:square;stroke-linejoin:miter;"/>
   </g>
   <g id="patch_23">
    <path d="M 90 51.84 
L 648 51.84 
" style="fill:none;stroke:#262626;stroke-linecap:square;stroke-linejoin:miter;"/>
   </g>
   <g id="legend_1">
    <g id="patch_24">
     <path d="M 659.24 275.250594 
L 841.598 275.250594 
Q 844.238 275.250594 844.238 272.610594 
L 844.238 161.229406 
Q 844.238 158.589406 841.598 158.589406 
L 659.24 158.589406 
Q 656.6 158.589406 656.6 161.229406 
L 656.6 272.610594 
Q 656.6 275.250594 659.24 275.250594 
z
" style="fill:#4c4c4c;opacity:0.5;stroke:#4c4c4c;stroke-linejoin:miter;stroke-width:0.8;"/>
    </g>
    <g id="patch_25">
     <path d="M 657.24 273.250594 
L 839.598 273.250594 
Q 842.238 273.250594 842.238 270.610594 
L 842.238 159.229406 
Q 842.238 156.589406 839.598 156.589406 
L 657.24 156.589406 
Q 654.6 156.589406 654.6 159.229406 
L 654.6 270.610594 
Q 654.6 273.250594 657.24 273.250594 
z
" style="fill:#ffffff;stroke:#cccccc;stroke-linejoin:miter;stroke-width:0.8;"/>
    </g>
    <g id="patch_26">
     <path d="M 659.88 171.317719 
L 686.28 171.317719 
L 686.28 162.077719 
L 659.88 162.077719 
z
" style="fill:#96cac1;stroke:#666666;stroke-linejoin:miter;"/>
    </g>
    <g id="text_13">
     <!-- kr_morgan_circular -->
     <defs>
      <path d="M 6.640625 0 
L 6.640625 71.578125 
L 15.4375 71.578125 
L 15.4375 30.765625 
L 36.234375 51.859375 
L 47.609375 51.859375 
L 27.78125 32.625 
L 49.609375 0 
L 38.765625 0 
L 21.625 26.515625 
L 15.4375 20.5625 
L 15.4375 0 
z
" id="ArialMT-107"/>
      <path d="M -1.515625 -19.875 
L -1.515625 -13.53125 
L 56.734375 -13.53125 
L 56.734375 -19.875 
z
" id="ArialMT-95"/>
      <path d="M 4.984375 -4.296875 
L 13.53125 -5.5625 
Q 14.0625 -9.515625 16.5 -11.328125 
Q 19.78125 -13.765625 25.4375 -13.765625 
Q 31.546875 -13.765625 34.859375 -11.328125 
Q 38.1875 -8.890625 39.359375 -4.5 
Q 40.046875 -1.8125 39.984375 6.78125 
Q 34.234375 0 25.640625 0 
Q 14.9375 0 9.078125 7.71875 
Q 3.21875 15.4375 3.21875 26.21875 
Q 3.21875 33.640625 5.90625 39.90625 
Q 8.59375 46.1875 13.6875 49.609375 
Q 18.796875 53.03125 25.6875 53.03125 
Q 34.859375 53.03125 40.828125 45.609375 
L 40.828125 51.859375 
L 48.921875 51.859375 
L 48.921875 7.03125 
Q 48.921875 -5.078125 46.453125 -10.125 
Q 44 -15.1875 38.640625 -18.109375 
Q 33.296875 -21.046875 25.484375 -21.046875 
Q 16.21875 -21.046875 10.5 -16.875 
Q 4.78125 -12.703125 4.984375 -4.296875 
z
M 12.25 26.859375 
Q 12.25 16.65625 16.296875 11.96875 
Q 20.359375 7.28125 26.46875 7.28125 
Q 32.515625 7.28125 36.609375 11.9375 
Q 40.71875 16.609375 40.71875 26.5625 
Q 40.71875 36.078125 36.5 40.90625 
Q 32.28125 45.75 26.3125 45.75 
Q 20.453125 45.75 16.34375 40.984375 
Q 12.25 36.234375 12.25 26.859375 
z
" id="ArialMT-103"/>
      <path d="M 6.640625 61.46875 
L 6.640625 71.578125 
L 15.4375 71.578125 
L 15.4375 61.46875 
z
M 6.640625 0 
L 6.640625 51.859375 
L 15.4375 51.859375 
L 15.4375 0 
z
" id="ArialMT-105"/>
     </defs>
     <g style="fill:#262626;" transform="translate(696.84 171.317719)scale(0.132 -0.132)">
      <use xlink:href="#ArialMT-107"/>
      <use x="50" xlink:href="#ArialMT-114"/>
      <use x="83.300781" xlink:href="#ArialMT-95"/>
      <use x="138.916016" xlink:href="#ArialMT-109"/>
      <use x="222.216797" xlink:href="#ArialMT-111"/>
      <use x="277.832031" xlink:href="#ArialMT-114"/>
      <use x="311.132812" xlink:href="#ArialMT-103"/>
      <use x="366.748047" xlink:href="#ArialMT-97"/>
      <use x="422.363281" xlink:href="#ArialMT-110"/>
      <use x="477.978516" xlink:href="#ArialMT-95"/>
      <use x="533.59375" xlink:href="#ArialMT-99"/>
      <use x="583.59375" xlink:href="#ArialMT-105"/>
      <use x="605.810547" xlink:href="#ArialMT-114"/>
      <use x="639.111328" xlink:href="#ArialMT-99"/>
      <use x="689.111328" xlink:href="#ArialMT-117"/>
      <use x="744.726562" xlink:href="#ArialMT-108"/>
      <use x="766.943359" xlink:href="#ArialMT-97"/>
      <use x="822.558594" xlink:href="#ArialMT-114"/>
     </g>
    </g>
    <g id="patch_27">
     <path d="M 659.88 190.144219 
L 686.28 190.144219 
L 686.28 180.904219 
L 659.88 180.904219 
z
" style="fill:#eab375;stroke:#666666;stroke-linejoin:miter;"/>
    </g>
    <g id="text_14">
     <!-- seqtoseq_ -->
     <defs>
      <path d="M 39.65625 -19.875 
L 39.65625 5.515625 
Q 37.59375 2.640625 33.90625 0.734375 
Q 30.21875 -1.171875 26.078125 -1.171875 
Q 16.84375 -1.171875 10.171875 6.203125 
Q 3.515625 13.578125 3.515625 26.421875 
Q 3.515625 34.234375 6.21875 40.421875 
Q 8.9375 46.625 14.078125 49.828125 
Q 19.234375 53.03125 25.390625 53.03125 
Q 35.015625 53.03125 40.53125 44.921875 
L 40.53125 51.859375 
L 48.4375 51.859375 
L 48.4375 -19.875 
z
M 12.546875 26.078125 
Q 12.546875 16.0625 16.75 11.0625 
Q 20.953125 6.0625 26.8125 6.0625 
Q 32.421875 6.0625 36.46875 10.8125 
Q 40.53125 15.578125 40.53125 25.296875 
Q 40.53125 35.640625 36.25 40.859375 
Q 31.984375 46.09375 26.21875 46.09375 
Q 20.515625 46.09375 16.53125 41.234375 
Q 12.546875 36.375 12.546875 26.078125 
z
" id="ArialMT-113"/>
     </defs>
     <g style="fill:#262626;" transform="translate(696.84 190.144219)scale(0.132 -0.132)">
      <use xlink:href="#ArialMT-115"/>
      <use x="50" xlink:href="#ArialMT-101"/>
      <use x="105.615234" xlink:href="#ArialMT-113"/>
      <use x="161.230469" xlink:href="#ArialMT-116"/>
      <use x="189.013672" xlink:href="#ArialMT-111"/>
      <use x="244.628906" xlink:href="#ArialMT-115"/>
      <use x="294.628906" xlink:href="#ArialMT-101"/>
      <use x="350.244141" xlink:href="#ArialMT-113"/>
      <use x="405.859375" xlink:href="#ArialMT-95"/>
     </g>
    </g>
    <g id="patch_28">
     <path d="M 659.88 208.976906 
L 686.28 208.976906 
L 686.28 199.736906 
L 659.88 199.736906 
z
" style="fill:#ea8e83;stroke:#666666;stroke-linejoin:miter;"/>
    </g>
    <g id="text_15">
     <!-- metakrr_skfL:1cv:0_cnn -->
     <defs>
      <path d="M 8.6875 0 
L 8.6875 45.015625 
L 0.921875 45.015625 
L 0.921875 51.859375 
L 8.6875 51.859375 
L 8.6875 57.375 
Q 8.6875 62.59375 9.625 65.140625 
Q 10.890625 68.5625 14.078125 70.671875 
Q 17.28125 72.796875 23.046875 72.796875 
Q 26.765625 72.796875 31.25 71.921875 
L 29.9375 64.265625 
Q 27.203125 64.75 24.75 64.75 
Q 20.75 64.75 19.09375 63.03125 
Q 17.4375 61.328125 17.4375 56.640625 
L 17.4375 51.859375 
L 27.546875 51.859375 
L 27.546875 45.015625 
L 17.4375 45.015625 
L 17.4375 0 
z
" id="ArialMT-102"/>
      <path d="M 7.328125 0 
L 7.328125 71.578125 
L 16.796875 71.578125 
L 16.796875 8.453125 
L 52.046875 8.453125 
L 52.046875 0 
z
" id="ArialMT-76"/>
      <path d="M 9.03125 41.84375 
L 9.03125 51.859375 
L 19.046875 51.859375 
L 19.046875 41.84375 
z
M 9.03125 0 
L 9.03125 10.015625 
L 19.046875 10.015625 
L 19.046875 0 
z
" id="ArialMT-58"/>
      <path d="M 21 0 
L 1.265625 51.859375 
L 10.546875 51.859375 
L 21.6875 20.796875 
Q 23.484375 15.765625 25 10.359375 
Q 26.171875 14.453125 28.265625 20.21875 
L 39.796875 51.859375 
L 48.828125 51.859375 
L 29.203125 0 
z
" id="ArialMT-118"/>
     </defs>
     <g style="fill:#262626;" transform="translate(696.84 208.976906)scale(0.132 -0.132)">
      <use xlink:href="#ArialMT-109"/>
      <use x="83.300781" xlink:href="#ArialMT-101"/>
      <use x="138.916016" xlink:href="#ArialMT-116"/>
      <use x="166.699219" xlink:href="#ArialMT-97"/>
      <use x="222.314453" xlink:href="#ArialMT-107"/>
      <use x="272.314453" xlink:href="#ArialMT-114"/>
      <use x="305.615234" xlink:href="#ArialMT-114"/>
      <use x="338.916016" xlink:href="#ArialMT-95"/>
      <use x="394.53125" xlink:href="#ArialMT-115"/>
      <use x="444.53125" xlink:href="#ArialMT-107"/>
      <use x="494.53125" xlink:href="#ArialMT-102"/>
      <use x="522.314453" xlink:href="#ArialMT-76"/>
      <use x="577.929688" xlink:href="#ArialMT-58"/>
      <use x="605.712891" xlink:href="#ArialMT-49"/>
      <use x="661.328125" xlink:href="#ArialMT-99"/>
      <use x="711.328125" xlink:href="#ArialMT-118"/>
      <use x="761.328125" xlink:href="#ArialMT-58"/>
      <use x="789.111328" xlink:href="#ArialMT-48"/>
      <use x="844.726562" xlink:href="#ArialMT-95"/>
      <use x="900.341797" xlink:href="#ArialMT-99"/>
      <use x="950.341797" xlink:href="#ArialMT-110"/>
      <use x="1005.957031" xlink:href="#ArialMT-110"/>
     </g>
    </g>
    <g id="patch_29">
     <path d="M 659.88 227.648719 
L 686.28 227.648719 
L 686.28 218.408719 
L 659.88 218.408719 
z
" style="fill:#c1bed6;stroke:#666666;stroke-linejoin:miter;"/>
    </g>
    <g id="text_16">
     <!-- mann_cnn -->
     <g style="fill:#262626;" transform="translate(696.84 227.648719)scale(0.132 -0.132)">
      <use xlink:href="#ArialMT-109"/>
      <use x="83.300781" xlink:href="#ArialMT-97"/>
      <use x="138.916016" xlink:href="#ArialMT-110"/>
      <use x="194.53125" xlink:href="#ArialMT-110"/>
      <use x="250.146484" xlink:href="#ArialMT-95"/>
      <use x="305.761719" xlink:href="#ArialMT-99"/>
      <use x="355.761719" xlink:href="#ArialMT-110"/>
      <use x="411.376953" xlink:href="#ArialMT-110"/>
     </g>
    </g>
    <g id="patch_30">
     <path d="M 659.88 246.481406 
L 686.28 246.481406 
L 686.28 237.241406 
L 659.88 237.241406 
z
" style="fill:#8aafc9;stroke:#666666;stroke-linejoin:miter;"/>
    </g>
    <g id="text_17">
     <!-- rf_morgan_circular -->
     <g style="fill:#262626;" transform="translate(696.84 246.481406)scale(0.132 -0.132)">
      <use xlink:href="#ArialMT-114"/>
      <use x="33.300781" xlink:href="#ArialMT-102"/>
      <use x="61.083984" xlink:href="#ArialMT-95"/>
      <use x="116.699219" xlink:href="#ArialMT-109"/>
      <use x="200" xlink:href="#ArialMT-111"/>
      <use x="255.615234" xlink:href="#ArialMT-114"/>
      <use x="288.916016" xlink:href="#ArialMT-103"/>
      <use x="344.53125" xlink:href="#ArialMT-97"/>
      <use x="400.146484" xlink:href="#ArialMT-110"/>
      <use x="455.761719" xlink:href="#ArialMT-95"/>
      <use x="511.376953" xlink:href="#ArialMT-99"/>
      <use x="561.376953" xlink:href="#ArialMT-105"/>
      <use x="583.59375" xlink:href="#ArialMT-114"/>
      <use x="616.894531" xlink:href="#ArialMT-99"/>
      <use x="666.894531" xlink:href="#ArialMT-117"/>
      <use x="722.509766" xlink:href="#ArialMT-108"/>
      <use x="744.726562" xlink:href="#ArialMT-97"/>
      <use x="800.341797" xlink:href="#ArialMT-114"/>
     </g>
    </g>
    <g id="patch_31">
     <path d="M 659.88 265.347094 
L 686.28 265.347094 
L 686.28 256.107094 
L 659.88 256.107094 
z
" style="fill:#f6f6bc;stroke:#666666;stroke-linejoin:miter;"/>
    </g>
    <g id="text_18">
     <!-- ldt_10_10 -->
     <g style="fill:#262626;" transform="translate(696.84 265.347094)scale(0.132 -0.132)">
      <use xlink:href="#ArialMT-108"/>
      <use x="22.216797" xlink:href="#ArialMT-100"/>
      <use x="77.832031" xlink:href="#ArialMT-116"/>
      <use x="105.615234" xlink:href="#ArialMT-95"/>
      <use x="161.230469" xlink:href="#ArialMT-49"/>
      <use x="216.845703" xlink:href="#ArialMT-48"/>
      <use x="272.460938" xlink:href="#ArialMT-95"/>
      <use x="328.076172" xlink:href="#ArialMT-49"/>
      <use x="383.691406" xlink:href="#ArialMT-48"/>
     </g>
    </g>
   </g>
  </g>
 </g>
 <defs>
  <clipPath id="p33a9a26662">
   <rect height="326.16" width="558" x="90" y="51.84"/>
  </clipPath>
 </defs>
</svg>
