<?xml version="1.0" encoding="utf-8" standalone="no"?>
<!DOCTYPE svg PUBLIC "-//W3C//DTD SVG 1.1//EN"
  "http://www.w3.org/Graphics/SVG/1.1/DTD/svg11.dtd">
<!-- Created with matplotlib (https://matplotlib.org/) -->
<svg height="432pt" version="1.1" viewBox="0 0 720 432" width="720pt" xmlns="http://www.w3.org/2000/svg" xmlns:xlink="http://www.w3.org/1999/xlink">
 <defs>
  <style type="text/css">
*{stroke-linecap:butt;stroke-linejoin:round;}
  </style>
 </defs>
 <g id="figure_1">
  <g id="patch_1">
   <path d="M 0 432 
L 720 432 
L 720 0 
L 0 0 
z
" style="fill:#ffffff;"/>
  </g>
  <g id="axes_1">
   <g id="patch_2">
    <path d="M 90 378 
L 648 378 
L 648 51.84 
L 90 51.84 
z
" style="fill:#ffffff;"/>
   </g>
   <g id="matplotlib.axis_1">
    <g id="xtick_1">
     <g id="line2d_1">
      <defs>
       <path d="M 0 0 
L 0 4.8 
" id="m62a99f2f13" style="stroke:#262626;"/>
      </defs>
      <g>
       <use style="fill:#262626;stroke:#262626;" x="183" xlink:href="#m62a99f2f13" y="378"/>
      </g>
     </g>
     <g id="text_1">
      <!-- metakrr_skfL:1cv:0_cnn_10 -->
      <defs>
       <path d="M 6.59375 0 
L 6.59375 51.859375 
L 14.453125 51.859375 
L 14.453125 44.578125 
Q 16.890625 48.390625 20.9375 50.703125 
Q 25 53.03125 30.171875 53.03125 
Q 35.9375 53.03125 39.625 50.640625 
Q 43.3125 48.25 44.828125 43.953125 
Q 50.984375 53.03125 60.84375 53.03125 
Q 68.5625 53.03125 72.703125 48.75 
Q 76.859375 44.484375 76.859375 35.59375 
L 76.859375 0 
L 68.109375 0 
L 68.109375 32.671875 
Q 68.109375 37.9375 67.25 40.25 
Q 66.40625 42.578125 64.15625 43.984375 
Q 61.921875 45.40625 58.890625 45.40625 
Q 53.421875 45.40625 49.796875 41.765625 
Q 46.1875 38.140625 46.1875 30.125 
L 46.1875 0 
L 37.40625 0 
L 37.40625 33.6875 
Q 37.40625 39.546875 35.25 42.46875 
Q 33.109375 45.40625 28.21875 45.40625 
Q 24.515625 45.40625 21.359375 43.453125 
Q 18.21875 41.5 16.796875 37.734375 
Q 15.375 33.984375 15.375 26.90625 
L 15.375 0 
z
" id="ArialMT-109"/>
       <path d="M 42.09375 16.703125 
L 51.171875 15.578125 
Q 49.03125 7.625 43.21875 3.21875 
Q 37.40625 -1.171875 28.375 -1.171875 
Q 17 -1.171875 10.328125 5.828125 
Q 3.65625 12.84375 3.65625 25.484375 
Q 3.65625 38.578125 10.390625 45.796875 
Q 17.140625 53.03125 27.875 53.03125 
Q 38.28125 53.03125 44.875 45.953125 
Q 51.46875 38.875 51.46875 26.03125 
Q 51.46875 25.25 51.421875 23.6875 
L 12.75 23.6875 
Q 13.234375 15.140625 17.578125 10.59375 
Q 21.921875 6.0625 28.421875 6.0625 
Q 33.25 6.0625 36.671875 8.59375 
Q 40.09375 11.140625 42.09375 16.703125 
z
M 13.234375 30.90625 
L 42.1875 30.90625 
Q 41.609375 37.453125 38.875 40.71875 
Q 34.671875 45.796875 27.984375 45.796875 
Q 21.921875 45.796875 17.796875 41.75 
Q 13.671875 37.703125 13.234375 30.90625 
z
" id="ArialMT-101"/>
       <path d="M 25.78125 7.859375 
L 27.046875 0.09375 
Q 23.34375 -0.6875 20.40625 -0.6875 
Q 15.625 -0.6875 12.984375 0.828125 
Q 10.359375 2.34375 9.28125 4.8125 
Q 8.203125 7.28125 8.203125 15.1875 
L 8.203125 45.015625 
L 1.765625 45.015625 
L 1.765625 51.859375 
L 8.203125 51.859375 
L 8.203125 64.703125 
L 16.9375 69.96875 
L 16.9375 51.859375 
L 25.78125 51.859375 
L 25.78125 45.015625 
L 16.9375 45.015625 
L 16.9375 14.703125 
Q 16.9375 10.9375 17.40625 9.859375 
Q 17.875 8.796875 18.921875 8.15625 
Q 19.96875 7.515625 21.921875 7.515625 
Q 23.390625 7.515625 25.78125 7.859375 
z
" id="ArialMT-116"/>
       <path d="M 40.4375 6.390625 
Q 35.546875 2.25 31.03125 0.53125 
Q 26.515625 -1.171875 21.34375 -1.171875 
Q 12.796875 -1.171875 8.203125 3 
Q 3.609375 7.171875 3.609375 13.671875 
Q 3.609375 17.484375 5.34375 20.625 
Q 7.078125 23.78125 9.890625 25.6875 
Q 12.703125 27.59375 16.21875 28.5625 
Q 18.796875 29.25 24.03125 29.890625 
Q 34.671875 31.15625 39.703125 32.90625 
Q 39.75 34.71875 39.75 35.203125 
Q 39.75 40.578125 37.25 42.78125 
Q 33.890625 45.75 27.25 45.75 
Q 21.046875 45.75 18.09375 43.578125 
Q 15.140625 41.40625 13.71875 35.890625 
L 5.125 37.0625 
Q 6.296875 42.578125 8.984375 45.96875 
Q 11.671875 49.359375 16.75 51.1875 
Q 21.828125 53.03125 28.515625 53.03125 
Q 35.15625 53.03125 39.296875 51.46875 
Q 43.453125 49.90625 45.40625 47.53125 
Q 47.359375 45.171875 48.140625 41.546875 
Q 48.578125 39.3125 48.578125 33.453125 
L 48.578125 21.734375 
Q 48.578125 9.46875 49.140625 6.21875 
Q 49.703125 2.984375 51.375 0 
L 42.1875 0 
Q 40.828125 2.734375 40.4375 6.390625 
z
M 39.703125 26.03125 
Q 34.90625 24.078125 25.34375 22.703125 
Q 19.921875 21.921875 17.671875 20.9375 
Q 15.4375 19.96875 14.203125 18.09375 
Q 12.984375 16.21875 12.984375 13.921875 
Q 12.984375 10.40625 15.640625 8.0625 
Q 18.3125 5.71875 23.4375 5.71875 
Q 28.515625 5.71875 32.46875 7.9375 
Q 36.421875 10.15625 38.28125 14.015625 
Q 39.703125 17 39.703125 22.796875 
z
" id="ArialMT-97"/>
       <path d="M 6.640625 0 
L 6.640625 71.578125 
L 15.4375 71.578125 
L 15.4375 30.765625 
L 36.234375 51.859375 
L 47.609375 51.859375 
L 27.78125 32.625 
L 49.609375 0 
L 38.765625 0 
L 21.625 26.515625 
L 15.4375 20.5625 
L 15.4375 0 
z
" id="ArialMT-107"/>
       <path d="M 6.5 0 
L 6.5 51.859375 
L 14.40625 51.859375 
L 14.40625 44 
Q 17.4375 49.515625 20 51.265625 
Q 22.5625 53.03125 25.640625 53.03125 
Q 30.078125 53.03125 34.671875 50.203125 
L 31.640625 42.046875 
Q 28.421875 43.953125 25.203125 43.953125 
Q 22.3125 43.953125 20.015625 42.21875 
Q 17.71875 40.484375 16.75 37.40625 
Q 15.28125 32.71875 15.28125 27.15625 
L 15.28125 0 
z
" id="ArialMT-114"/>
       <path d="M -1.515625 -19.875 
L -1.515625 -13.53125 
L 56.734375 -13.53125 
L 56.734375 -19.875 
z
" id="ArialMT-95"/>
       <path d="M 3.078125 15.484375 
L 11.765625 16.84375 
Q 12.5 11.625 15.84375 8.84375 
Q 19.1875 6.0625 25.203125 6.0625 
Q 31.25 6.0625 34.171875 8.515625 
Q 37.109375 10.984375 37.109375 14.3125 
Q 37.109375 17.28125 34.515625 19 
Q 32.71875 20.171875 25.53125 21.96875 
Q 15.875 24.421875 12.140625 26.203125 
Q 8.40625 27.984375 6.46875 31.125 
Q 4.546875 34.28125 4.546875 38.09375 
Q 4.546875 41.546875 6.125 44.5 
Q 7.71875 47.46875 10.453125 49.421875 
Q 12.5 50.921875 16.03125 51.96875 
Q 19.578125 53.03125 23.640625 53.03125 
Q 29.734375 53.03125 34.34375 51.265625 
Q 38.96875 49.515625 41.15625 46.5 
Q 43.359375 43.5 44.1875 38.484375 
L 35.59375 37.3125 
Q 35.015625 41.3125 32.203125 43.546875 
Q 29.390625 45.796875 24.265625 45.796875 
Q 18.21875 45.796875 15.625 43.796875 
Q 13.03125 41.796875 13.03125 39.109375 
Q 13.03125 37.40625 14.109375 36.03125 
Q 15.1875 34.625 17.484375 33.6875 
Q 18.796875 33.203125 25.25 31.453125 
Q 34.578125 28.953125 38.25 27.359375 
Q 41.9375 25.78125 44.03125 22.75 
Q 46.140625 19.734375 46.140625 15.234375 
Q 46.140625 10.84375 43.578125 6.953125 
Q 41.015625 3.078125 36.171875 0.953125 
Q 31.34375 -1.171875 25.25 -1.171875 
Q 15.140625 -1.171875 9.84375 3.03125 
Q 4.546875 7.234375 3.078125 15.484375 
z
" id="ArialMT-115"/>
       <path d="M 8.6875 0 
L 8.6875 45.015625 
L 0.921875 45.015625 
L 0.921875 51.859375 
L 8.6875 51.859375 
L 8.6875 57.375 
Q 8.6875 62.59375 9.625 65.140625 
Q 10.890625 68.5625 14.078125 70.671875 
Q 17.28125 72.796875 23.046875 72.796875 
Q 26.765625 72.796875 31.25 71.921875 
L 29.9375 64.265625 
Q 27.203125 64.75 24.75 64.75 
Q 20.75 64.75 19.09375 63.03125 
Q 17.4375 61.328125 17.4375 56.640625 
L 17.4375 51.859375 
L 27.546875 51.859375 
L 27.546875 45.015625 
L 17.4375 45.015625 
L 17.4375 0 
z
" id="ArialMT-102"/>
       <path d="M 7.328125 0 
L 7.328125 71.578125 
L 16.796875 71.578125 
L 16.796875 8.453125 
L 52.046875 8.453125 
L 52.046875 0 
z
" id="ArialMT-76"/>
       <path d="M 9.03125 41.84375 
L 9.03125 51.859375 
L 19.046875 51.859375 
L 19.046875 41.84375 
z
M 9.03125 0 
L 9.03125 10.015625 
L 19.046875 10.015625 
L 19.046875 0 
z
" id="ArialMT-58"/>
       <path d="M 37.25 0 
L 28.46875 0 
L 28.46875 56 
Q 25.296875 52.984375 20.140625 49.953125 
Q 14.984375 46.921875 10.890625 45.40625 
L 10.890625 53.90625 
Q 18.265625 57.375 23.78125 62.296875 
Q 29.296875 67.234375 31.59375 71.875 
L 37.25 71.875 
z
" id="ArialMT-49"/>
       <path d="M 40.4375 19 
L 49.078125 17.875 
Q 47.65625 8.9375 41.8125 3.875 
Q 35.984375 -1.171875 27.484375 -1.171875 
Q 16.84375 -1.171875 10.375 5.78125 
Q 3.90625 12.75 3.90625 25.734375 
Q 3.90625 34.125 6.6875 40.421875 
Q 9.46875 46.734375 15.15625 49.875 
Q 20.84375 53.03125 27.546875 53.03125 
Q 35.984375 53.03125 41.359375 48.75 
Q 46.734375 44.484375 48.25 36.625 
L 39.703125 35.296875 
Q 38.484375 40.53125 35.375 43.15625 
Q 32.28125 45.796875 27.875 45.796875 
Q 21.234375 45.796875 17.078125 41.03125 
Q 12.9375 36.28125 12.9375 25.984375 
Q 12.9375 15.53125 16.9375 10.796875 
Q 20.953125 6.0625 27.390625 6.0625 
Q 32.5625 6.0625 36.03125 9.234375 
Q 39.5 12.40625 40.4375 19 
z
" id="ArialMT-99"/>
       <path d="M 21 0 
L 1.265625 51.859375 
L 10.546875 51.859375 
L 21.6875 20.796875 
Q 23.484375 15.765625 25 10.359375 
Q 26.171875 14.453125 28.265625 20.21875 
L 39.796875 51.859375 
L 48.828125 51.859375 
L 29.203125 0 
z
" id="ArialMT-118"/>
       <path d="M 4.15625 35.296875 
Q 4.15625 48 6.765625 55.734375 
Q 9.375 63.484375 14.515625 67.671875 
Q 19.671875 71.875 27.484375 71.875 
Q 33.25 71.875 37.59375 69.546875 
Q 41.9375 67.234375 44.765625 62.859375 
Q 47.609375 58.5 49.21875 52.21875 
Q 50.828125 45.953125 50.828125 35.296875 
Q 50.828125 22.703125 48.234375 14.96875 
Q 45.65625 7.234375 40.5 3 
Q 35.359375 -1.21875 27.484375 -1.21875 
Q 17.140625 -1.21875 11.234375 6.203125 
Q 4.15625 15.140625 4.15625 35.296875 
z
M 13.1875 35.296875 
Q 13.1875 17.671875 17.3125 11.828125 
Q 21.4375 6 27.484375 6 
Q 33.546875 6 37.671875 11.859375 
Q 41.796875 17.71875 41.796875 35.296875 
Q 41.796875 52.984375 37.671875 58.78125 
Q 33.546875 64.59375 27.390625 64.59375 
Q 21.34375 64.59375 17.71875 59.46875 
Q 13.1875 52.9375 13.1875 35.296875 
z
" id="ArialMT-48"/>
       <path d="M 6.59375 0 
L 6.59375 51.859375 
L 14.5 51.859375 
L 14.5 44.484375 
Q 20.21875 53.03125 31 53.03125 
Q 35.6875 53.03125 39.625 51.34375 
Q 43.5625 49.65625 45.515625 46.921875 
Q 47.46875 44.1875 48.25 40.4375 
Q 48.734375 37.984375 48.734375 31.890625 
L 48.734375 0 
L 39.9375 0 
L 39.9375 31.546875 
Q 39.9375 36.921875 38.90625 39.578125 
Q 37.890625 42.234375 35.28125 43.8125 
Q 32.671875 45.40625 29.15625 45.40625 
Q 23.53125 45.40625 19.453125 41.84375 
Q 15.375 38.28125 15.375 28.328125 
L 15.375 0 
z
" id="ArialMT-110"/>
      </defs>
      <g style="fill:#262626;" transform="translate(165.482622 387.968618)rotate(-280)scale(0.132 -0.132)">
       <use xlink:href="#ArialMT-109"/>
       <use x="83.300781" xlink:href="#ArialMT-101"/>
       <use x="138.916016" xlink:href="#ArialMT-116"/>
       <use x="166.699219" xlink:href="#ArialMT-97"/>
       <use x="222.314453" xlink:href="#ArialMT-107"/>
       <use x="272.314453" xlink:href="#ArialMT-114"/>
       <use x="305.615234" xlink:href="#ArialMT-114"/>
       <use x="338.916016" xlink:href="#ArialMT-95"/>
       <use x="394.53125" xlink:href="#ArialMT-115"/>
       <use x="444.53125" xlink:href="#ArialMT-107"/>
       <use x="494.53125" xlink:href="#ArialMT-102"/>
       <use x="522.314453" xlink:href="#ArialMT-76"/>
       <use x="577.929688" xlink:href="#ArialMT-58"/>
       <use x="605.712891" xlink:href="#ArialMT-49"/>
       <use x="661.328125" xlink:href="#ArialMT-99"/>
       <use x="711.328125" xlink:href="#ArialMT-118"/>
       <use x="761.328125" xlink:href="#ArialMT-58"/>
       <use x="789.111328" xlink:href="#ArialMT-48"/>
       <use x="844.726562" xlink:href="#ArialMT-95"/>
       <use x="900.341797" xlink:href="#ArialMT-99"/>
       <use x="950.341797" xlink:href="#ArialMT-110"/>
       <use x="1005.957031" xlink:href="#ArialMT-110"/>
       <use x="1061.572266" xlink:href="#ArialMT-95"/>
       <use x="1117.1875" xlink:href="#ArialMT-49"/>
       <use x="1172.802734" xlink:href="#ArialMT-48"/>
      </g>
     </g>
    </g>
    <g id="xtick_2">
     <g id="line2d_2">
      <g>
       <use style="fill:#262626;stroke:#262626;" x="369" xlink:href="#m62a99f2f13" y="378"/>
      </g>
     </g>
     <g id="text_2">
      <!-- mann_cnn_10 -->
      <g style="fill:#262626;" transform="translate(358.356512 387.947487)rotate(-280)scale(0.132 -0.132)">
       <use xlink:href="#ArialMT-109"/>
       <use x="83.300781" xlink:href="#ArialMT-97"/>
       <use x="138.916016" xlink:href="#ArialMT-110"/>
       <use x="194.53125" xlink:href="#ArialMT-110"/>
       <use x="250.146484" xlink:href="#ArialMT-95"/>
       <use x="305.761719" xlink:href="#ArialMT-99"/>
       <use x="355.761719" xlink:href="#ArialMT-110"/>
       <use x="411.376953" xlink:href="#ArialMT-110"/>
       <use x="466.992188" xlink:href="#ArialMT-95"/>
       <use x="522.607422" xlink:href="#ArialMT-49"/>
       <use x="578.222656" xlink:href="#ArialMT-48"/>
      </g>
     </g>
    </g>
    <g id="xtick_3">
     <g id="line2d_3">
      <g>
       <use style="fill:#262626;stroke:#262626;" x="555" xlink:href="#m62a99f2f13" y="378"/>
      </g>
     </g>
     <g id="text_3">
      <!-- seqtoseq__10 -->
      <defs>
       <path d="M 39.65625 -19.875 
L 39.65625 5.515625 
Q 37.59375 2.640625 33.90625 0.734375 
Q 30.21875 -1.171875 26.078125 -1.171875 
Q 16.84375 -1.171875 10.171875 6.203125 
Q 3.515625 13.578125 3.515625 26.421875 
Q 3.515625 34.234375 6.21875 40.421875 
Q 8.9375 46.625 14.078125 49.828125 
Q 19.234375 53.03125 25.390625 53.03125 
Q 35.015625 53.03125 40.53125 44.921875 
L 40.53125 51.859375 
L 48.4375 51.859375 
L 48.4375 -19.875 
z
M 12.546875 26.078125 
Q 12.546875 16.0625 16.75 11.0625 
Q 20.953125 6.0625 26.8125 6.0625 
Q 32.421875 6.0625 36.46875 10.8125 
Q 40.53125 15.578125 40.53125 25.296875 
Q 40.53125 35.640625 36.25 40.859375 
Q 31.984375 46.09375 26.21875 46.09375 
Q 20.515625 46.09375 16.53125 41.234375 
Q 12.546875 36.375 12.546875 26.078125 
z
" id="ArialMT-113"/>
       <path d="M 3.328125 25.921875 
Q 3.328125 40.328125 11.328125 47.265625 
Q 18.015625 53.03125 27.640625 53.03125 
Q 38.328125 53.03125 45.109375 46.015625 
Q 51.90625 39.015625 51.90625 26.65625 
Q 51.90625 16.65625 48.90625 10.90625 
Q 45.90625 5.171875 40.15625 2 
Q 34.421875 -1.171875 27.640625 -1.171875 
Q 16.75 -1.171875 10.03125 5.8125 
Q 3.328125 12.796875 3.328125 25.921875 
z
M 12.359375 25.921875 
Q 12.359375 15.96875 16.703125 11.015625 
Q 21.046875 6.0625 27.640625 6.0625 
Q 34.1875 6.0625 38.53125 11.03125 
Q 42.875 16.015625 42.875 26.21875 
Q 42.875 35.84375 38.5 40.796875 
Q 34.125 45.75 27.640625 45.75 
Q 21.046875 45.75 16.703125 40.8125 
Q 12.359375 35.890625 12.359375 25.921875 
z
" id="ArialMT-111"/>
      </defs>
      <g style="fill:#262626;" transform="translate(544.419726 387.947487)rotate(-280)scale(0.132 -0.132)">
       <use xlink:href="#ArialMT-115"/>
       <use x="50" xlink:href="#ArialMT-101"/>
       <use x="105.615234" xlink:href="#ArialMT-113"/>
       <use x="161.230469" xlink:href="#ArialMT-116"/>
       <use x="189.013672" xlink:href="#ArialMT-111"/>
       <use x="244.628906" xlink:href="#ArialMT-115"/>
       <use x="294.628906" xlink:href="#ArialMT-101"/>
       <use x="350.244141" xlink:href="#ArialMT-113"/>
       <use x="405.859375" xlink:href="#ArialMT-95"/>
       <use x="461.474609" xlink:href="#ArialMT-95"/>
       <use x="517.089844" xlink:href="#ArialMT-49"/>
       <use x="572.705078" xlink:href="#ArialMT-48"/>
      </g>
     </g>
    </g>
    <g id="text_4">
     <!-- method -->
     <defs>
      <path d="M 6.59375 0 
L 6.59375 71.578125 
L 15.375 71.578125 
L 15.375 45.90625 
Q 21.53125 53.03125 30.90625 53.03125 
Q 36.671875 53.03125 40.921875 50.75 
Q 45.171875 48.484375 47 44.484375 
Q 48.828125 40.484375 48.828125 32.859375 
L 48.828125 0 
L 40.046875 0 
L 40.046875 32.859375 
Q 40.046875 39.453125 37.1875 42.453125 
Q 34.328125 45.453125 29.109375 45.453125 
Q 25.203125 45.453125 21.75 43.421875 
Q 18.3125 41.40625 16.84375 37.9375 
Q 15.375 34.46875 15.375 28.375 
L 15.375 0 
z
" id="ArialMT-104"/>
      <path d="M 40.234375 0 
L 40.234375 6.546875 
Q 35.296875 -1.171875 25.734375 -1.171875 
Q 19.53125 -1.171875 14.328125 2.25 
Q 9.125 5.671875 6.265625 11.796875 
Q 3.421875 17.921875 3.421875 25.875 
Q 3.421875 33.640625 6 39.96875 
Q 8.59375 46.296875 13.765625 49.65625 
Q 18.953125 53.03125 25.34375 53.03125 
Q 30.03125 53.03125 33.6875 51.046875 
Q 37.359375 49.078125 39.65625 45.90625 
L 39.65625 71.578125 
L 48.390625 71.578125 
L 48.390625 0 
z
M 12.453125 25.875 
Q 12.453125 15.921875 16.640625 10.984375 
Q 20.84375 6.0625 26.5625 6.0625 
Q 32.328125 6.0625 36.34375 10.765625 
Q 40.375 15.484375 40.375 25.140625 
Q 40.375 35.796875 36.265625 40.765625 
Q 32.171875 45.75 26.171875 45.75 
Q 20.3125 45.75 16.375 40.96875 
Q 12.453125 36.1875 12.453125 25.875 
z
" id="ArialMT-100"/>
     </defs>
     <g style="fill:#262626;" transform="translate(344.986875 562.407486)scale(0.144 -0.144)">
      <use xlink:href="#ArialMT-109"/>
      <use x="83.300781" xlink:href="#ArialMT-101"/>
      <use x="138.916016" xlink:href="#ArialMT-116"/>
      <use x="166.699219" xlink:href="#ArialMT-104"/>
      <use x="222.314453" xlink:href="#ArialMT-111"/>
      <use x="277.929688" xlink:href="#ArialMT-100"/>
     </g>
    </g>
   </g>
   <g id="matplotlib.axis_2">
    <g id="ytick_1">
     <g id="line2d_4">
      <defs>
       <path d="M 0 0 
L -4.8 0 
" id="m92b1d85d0a" style="stroke:#262626;"/>
      </defs>
      <g>
       <use style="fill:#262626;stroke:#262626;" x="90" xlink:href="#m92b1d85d0a" y="354.713798"/>
      </g>
     </g>
     <g id="text_5">
      <!-- 0.0 -->
      <defs>
       <path d="M 9.078125 0 
L 9.078125 10.015625 
L 19.09375 10.015625 
L 19.09375 0 
z
" id="ArialMT-46"/>
      </defs>
      <g style="fill:#262626;" transform="translate(63.352 359.437954)scale(0.132 -0.132)">
       <use xlink:href="#ArialMT-48"/>
       <use x="55.615234" xlink:href="#ArialMT-46"/>
       <use x="83.398438" xlink:href="#ArialMT-48"/>
      </g>
     </g>
    </g>
    <g id="ytick_2">
     <g id="line2d_5">
      <g>
       <use style="fill:#262626;stroke:#262626;" x="90" xlink:href="#m92b1d85d0a" y="309.410228"/>
      </g>
     </g>
     <g id="text_6">
      <!-- 0.1 -->
      <g style="fill:#262626;" transform="translate(63.352 314.134384)scale(0.132 -0.132)">
       <use xlink:href="#ArialMT-48"/>
       <use x="55.615234" xlink:href="#ArialMT-46"/>
       <use x="83.398438" xlink:href="#ArialMT-49"/>
      </g>
     </g>
    </g>
    <g id="ytick_3">
     <g id="line2d_6">
      <g>
       <use style="fill:#262626;stroke:#262626;" x="90" xlink:href="#m92b1d85d0a" y="264.106657"/>
      </g>
     </g>
     <g id="text_7">
      <!-- 0.2 -->
      <defs>
       <path d="M 50.34375 8.453125 
L 50.34375 0 
L 3.03125 0 
Q 2.9375 3.171875 4.046875 6.109375 
Q 5.859375 10.9375 9.828125 15.625 
Q 13.8125 20.3125 21.34375 26.46875 
Q 33.015625 36.03125 37.109375 41.625 
Q 41.21875 47.21875 41.21875 52.203125 
Q 41.21875 57.421875 37.46875 61 
Q 33.734375 64.59375 27.734375 64.59375 
Q 21.390625 64.59375 17.578125 60.78125 
Q 13.765625 56.984375 13.71875 50.25 
L 4.6875 51.171875 
Q 5.609375 61.28125 11.65625 66.578125 
Q 17.71875 71.875 27.9375 71.875 
Q 38.234375 71.875 44.234375 66.15625 
Q 50.25 60.453125 50.25 52 
Q 50.25 47.703125 48.484375 43.546875 
Q 46.734375 39.40625 42.65625 34.8125 
Q 38.578125 30.21875 29.109375 22.21875 
Q 21.1875 15.578125 18.9375 13.203125 
Q 16.703125 10.84375 15.234375 8.453125 
z
" id="ArialMT-50"/>
      </defs>
      <g style="fill:#262626;" transform="translate(63.352 268.830813)scale(0.132 -0.132)">
       <use xlink:href="#ArialMT-48"/>
       <use x="55.615234" xlink:href="#ArialMT-46"/>
       <use x="83.398438" xlink:href="#ArialMT-50"/>
      </g>
     </g>
    </g>
    <g id="ytick_4">
     <g id="line2d_7">
      <g>
       <use style="fill:#262626;stroke:#262626;" x="90" xlink:href="#m92b1d85d0a" y="218.803087"/>
      </g>
     </g>
     <g id="text_8">
      <!-- 0.3 -->
      <defs>
       <path d="M 4.203125 18.890625 
L 12.984375 20.0625 
Q 14.5 12.59375 18.140625 9.296875 
Q 21.78125 6 27 6 
Q 33.203125 6 37.46875 10.296875 
Q 41.75 14.59375 41.75 20.953125 
Q 41.75 27 37.796875 30.921875 
Q 33.84375 34.859375 27.734375 34.859375 
Q 25.25 34.859375 21.53125 33.890625 
L 22.515625 41.609375 
Q 23.390625 41.5 23.921875 41.5 
Q 29.546875 41.5 34.03125 44.421875 
Q 38.53125 47.359375 38.53125 53.46875 
Q 38.53125 58.296875 35.25 61.46875 
Q 31.984375 64.65625 26.8125 64.65625 
Q 21.6875 64.65625 18.265625 61.421875 
Q 14.84375 58.203125 13.875 51.765625 
L 5.078125 53.328125 
Q 6.6875 62.15625 12.390625 67.015625 
Q 18.109375 71.875 26.609375 71.875 
Q 32.46875 71.875 37.390625 69.359375 
Q 42.328125 66.84375 44.9375 62.5 
Q 47.5625 58.15625 47.5625 53.265625 
Q 47.5625 48.640625 45.0625 44.828125 
Q 42.578125 41.015625 37.703125 38.765625 
Q 44.046875 37.3125 47.5625 32.6875 
Q 51.078125 28.078125 51.078125 21.140625 
Q 51.078125 11.765625 44.234375 5.25 
Q 37.40625 -1.265625 26.953125 -1.265625 
Q 17.53125 -1.265625 11.296875 4.34375 
Q 5.078125 9.96875 4.203125 18.890625 
z
" id="ArialMT-51"/>
      </defs>
      <g style="fill:#262626;" transform="translate(63.352 223.527243)scale(0.132 -0.132)">
       <use xlink:href="#ArialMT-48"/>
       <use x="55.615234" xlink:href="#ArialMT-46"/>
       <use x="83.398438" xlink:href="#ArialMT-51"/>
      </g>
     </g>
    </g>
    <g id="ytick_5">
     <g id="line2d_8">
      <g>
       <use style="fill:#262626;stroke:#262626;" x="90" xlink:href="#m92b1d85d0a" y="173.499516"/>
      </g>
     </g>
     <g id="text_9">
      <!-- 0.4 -->
      <defs>
       <path d="M 32.328125 0 
L 32.328125 17.140625 
L 1.265625 17.140625 
L 1.265625 25.203125 
L 33.9375 71.578125 
L 41.109375 71.578125 
L 41.109375 25.203125 
L 50.78125 25.203125 
L 50.78125 17.140625 
L 41.109375 17.140625 
L 41.109375 0 
z
M 32.328125 25.203125 
L 32.328125 57.46875 
L 9.90625 25.203125 
z
" id="ArialMT-52"/>
      </defs>
      <g style="fill:#262626;" transform="translate(63.352 178.223673)scale(0.132 -0.132)">
       <use xlink:href="#ArialMT-48"/>
       <use x="55.615234" xlink:href="#ArialMT-46"/>
       <use x="83.398438" xlink:href="#ArialMT-52"/>
      </g>
     </g>
    </g>
    <g id="ytick_6">
     <g id="line2d_9">
      <g>
       <use style="fill:#262626;stroke:#262626;" x="90" xlink:href="#m92b1d85d0a" y="128.195946"/>
      </g>
     </g>
     <g id="text_10">
      <!-- 0.5 -->
      <defs>
       <path d="M 4.15625 18.75 
L 13.375 19.53125 
Q 14.40625 12.796875 18.140625 9.390625 
Q 21.875 6 27.15625 6 
Q 33.5 6 37.890625 10.78125 
Q 42.28125 15.578125 42.28125 23.484375 
Q 42.28125 31 38.0625 35.34375 
Q 33.84375 39.703125 27 39.703125 
Q 22.75 39.703125 19.328125 37.765625 
Q 15.921875 35.84375 13.96875 32.765625 
L 5.71875 33.84375 
L 12.640625 70.609375 
L 48.25 70.609375 
L 48.25 62.203125 
L 19.671875 62.203125 
L 15.828125 42.96875 
Q 22.265625 47.46875 29.34375 47.46875 
Q 38.71875 47.46875 45.15625 40.96875 
Q 51.609375 34.46875 51.609375 24.265625 
Q 51.609375 14.546875 45.953125 7.46875 
Q 39.0625 -1.21875 27.15625 -1.21875 
Q 17.390625 -1.21875 11.203125 4.25 
Q 5.03125 9.71875 4.15625 18.75 
z
" id="ArialMT-53"/>
      </defs>
      <g style="fill:#262626;" transform="translate(63.352 132.920102)scale(0.132 -0.132)">
       <use xlink:href="#ArialMT-48"/>
       <use x="55.615234" xlink:href="#ArialMT-46"/>
       <use x="83.398438" xlink:href="#ArialMT-53"/>
      </g>
     </g>
    </g>
    <g id="ytick_7">
     <g id="line2d_10">
      <g>
       <use style="fill:#262626;stroke:#262626;" x="90" xlink:href="#m92b1d85d0a" y="82.892376"/>
      </g>
     </g>
     <g id="text_11">
      <!-- 0.6 -->
      <defs>
       <path d="M 49.75 54.046875 
L 41.015625 53.375 
Q 39.84375 58.546875 37.703125 60.890625 
Q 34.125 64.65625 28.90625 64.65625 
Q 24.703125 64.65625 21.53125 62.3125 
Q 17.390625 59.28125 14.984375 53.46875 
Q 12.59375 47.65625 12.5 36.921875 
Q 15.671875 41.75 20.265625 44.09375 
Q 24.859375 46.4375 29.890625 46.4375 
Q 38.671875 46.4375 44.84375 39.96875 
Q 51.03125 33.5 51.03125 23.25 
Q 51.03125 16.5 48.125 10.71875 
Q 45.21875 4.9375 40.140625 1.859375 
Q 35.0625 -1.21875 28.609375 -1.21875 
Q 17.625 -1.21875 10.6875 6.859375 
Q 3.765625 14.9375 3.765625 33.5 
Q 3.765625 54.25 11.421875 63.671875 
Q 18.109375 71.875 29.4375 71.875 
Q 37.890625 71.875 43.28125 67.140625 
Q 48.6875 62.40625 49.75 54.046875 
z
M 13.875 23.1875 
Q 13.875 18.65625 15.796875 14.5 
Q 17.71875 10.359375 21.1875 8.171875 
Q 24.65625 6 28.46875 6 
Q 34.03125 6 38.03125 10.484375 
Q 42.046875 14.984375 42.046875 22.703125 
Q 42.046875 30.125 38.078125 34.390625 
Q 34.125 38.671875 28.125 38.671875 
Q 22.171875 38.671875 18.015625 34.390625 
Q 13.875 30.125 13.875 23.1875 
z
" id="ArialMT-54"/>
      </defs>
      <g style="fill:#262626;" transform="translate(63.352 87.616532)scale(0.132 -0.132)">
       <use xlink:href="#ArialMT-48"/>
       <use x="55.615234" xlink:href="#ArialMT-46"/>
       <use x="83.398438" xlink:href="#ArialMT-54"/>
      </g>
     </g>
    </g>
    <g id="text_12">
     <!-- Pearson's r -->
     <defs>
      <path d="M 7.71875 0 
L 7.71875 71.578125 
L 34.71875 71.578125 
Q 41.84375 71.578125 45.609375 70.90625 
Q 50.875 70.015625 54.4375 67.546875 
Q 58.015625 65.09375 60.1875 60.640625 
Q 62.359375 56.203125 62.359375 50.875 
Q 62.359375 41.75 56.546875 35.421875 
Q 50.734375 29.109375 35.546875 29.109375 
L 17.1875 29.109375 
L 17.1875 0 
z
M 17.1875 37.546875 
L 35.6875 37.546875 
Q 44.875 37.546875 48.734375 40.96875 
Q 52.59375 44.390625 52.59375 50.59375 
Q 52.59375 55.078125 50.3125 58.265625 
Q 48.046875 61.46875 44.34375 62.5 
Q 41.9375 63.140625 35.5 63.140625 
L 17.1875 63.140625 
z
" id="ArialMT-80"/>
      <path d="M 6.640625 46.234375 
L 4.390625 59.625 
L 4.390625 71.578125 
L 14.40625 71.578125 
L 14.40625 59.625 
L 12.0625 46.234375 
z
" id="ArialMT-39"/>
      <path id="ArialMT-32"/>
     </defs>
     <g style="fill:#262626;" transform="translate(56.49 251.107875)rotate(-90)scale(0.144 -0.144)">
      <use xlink:href="#ArialMT-80"/>
      <use x="66.699219" xlink:href="#ArialMT-101"/>
      <use x="122.314453" xlink:href="#ArialMT-97"/>
      <use x="177.929688" xlink:href="#ArialMT-114"/>
      <use x="211.230469" xlink:href="#ArialMT-115"/>
      <use x="261.230469" xlink:href="#ArialMT-111"/>
      <use x="316.845703" xlink:href="#ArialMT-110"/>
      <use x="372.460938" xlink:href="#ArialMT-39"/>
      <use x="391.552734" xlink:href="#ArialMT-115"/>
      <use x="441.552734" xlink:href="#ArialMT-32"/>
      <use x="469.335938" xlink:href="#ArialMT-114"/>
     </g>
    </g>
   </g>
   <g id="PolyCollection_1">
    <defs>
     <path d="M 183.457465 -155.204021 
L 182.542535 -155.204021 
L 182.433525 -157.013136 
L 182.305586 -158.822251 
L 182.157176 -160.631365 
L 181.986996 -162.44048 
L 181.794065 -164.249595 
L 181.577773 -166.05871 
L 181.337928 -167.867824 
L 181.074775 -169.676939 
L 180.788995 -171.486054 
L 180.481673 -173.295169 
L 180.154242 -175.104283 
L 179.808407 -176.913398 
L 179.446053 -178.722513 
L 179.069136 -180.531627 
L 178.679587 -182.340742 
L 178.279209 -184.149857 
L 177.869607 -185.958972 
L 177.45212 -187.768086 
L 177.027796 -189.577201 
L 176.597376 -191.386316 
L 176.161317 -193.195431 
L 175.719811 -195.004545 
L 175.272833 -196.81366 
L 174.82018 -198.622775 
L 174.361502 -200.431889 
L 173.896335 -202.241004 
L 173.424103 -204.050119 
L 172.944127 -205.859234 
L 172.455605 -207.668348 
L 171.957601 -209.477463 
L 171.449037 -211.286578 
L 170.928692 -213.095693 
L 170.395227 -214.904807 
L 169.847232 -216.713922 
L 169.283311 -218.523037 
L 168.702186 -220.332151 
L 168.102839 -222.141266 
L 167.484672 -223.950381 
L 166.847685 -225.759496 
L 166.192654 -227.56861 
L 165.52131 -229.377725 
L 164.836502 -231.18684 
L 164.142325 -232.995955 
L 163.444224 -234.805069 
L 162.749044 -236.614184 
L 162.065022 -238.423299 
L 161.40172 -240.232413 
L 160.769886 -242.041528 
L 160.181243 -243.850643 
L 159.648195 -245.659758 
L 159.183474 -247.468872 
L 158.799711 -249.277987 
L 158.508962 -251.087102 
L 158.322205 -252.896217 
L 158.248831 -254.705331 
L 158.296149 -256.514446 
L 158.468958 -258.323561 
L 158.769194 -260.132675 
L 159.195695 -261.94179 
L 159.744099 -263.750905 
L 160.406895 -265.56002 
L 161.173632 -267.369134 
L 162.031275 -269.178249 
L 162.964698 -270.987364 
L 163.957284 -272.796479 
L 164.991598 -274.605593 
L 166.050087 -276.414708 
L 167.115775 -278.223823 
L 168.172898 -280.032937 
L 169.207452 -281.842052 
L 170.207615 -283.651167 
L 171.164029 -285.460282 
L 172.069929 -287.269396 
L 172.921117 -289.078511 
L 173.7158 -290.887626 
L 174.454311 -292.696741 
L 175.138736 -294.505855 
L 175.77249 -296.31497 
L 176.359861 -298.124085 
L 176.905582 -299.933199 
L 177.414421 -301.742314 
L 177.890855 -303.551429 
L 178.338809 -305.360544 
L 178.761489 -307.169658 
L 179.161302 -308.978773 
L 179.539854 -310.787888 
L 179.898024 -312.597003 
L 180.236079 -314.406117 
L 180.553835 -316.215232 
L 180.850823 -318.024347 
L 181.126461 -319.833462 
L 181.380208 -321.642576 
L 181.611688 -323.451691 
L 181.820784 -325.260806 
L 182.007694 -327.06992 
L 182.172956 -328.879035 
L 182.317436 -330.68815 
L 182.442296 -332.497265 
L 182.548936 -334.306379 
L 183.451064 -334.306379 
L 183.451064 -334.306379 
L 183.557704 -332.497265 
L 183.682564 -330.68815 
L 183.827044 -328.879035 
L 183.992306 -327.06992 
L 184.179216 -325.260806 
L 184.388312 -323.451691 
L 184.619792 -321.642576 
L 184.873539 -319.833462 
L 185.149177 -318.024347 
L 185.446165 -316.215232 
L 185.763921 -314.406117 
L 186.101976 -312.597003 
L 186.460146 -310.787888 
L 186.838698 -308.978773 
L 187.238511 -307.169658 
L 187.661191 -305.360544 
L 188.109145 -303.551429 
L 188.585579 -301.742314 
L 189.094418 -299.933199 
L 189.640139 -298.124085 
L 190.22751 -296.31497 
L 190.861264 -294.505855 
L 191.545689 -292.696741 
L 192.2842 -290.887626 
L 193.078883 -289.078511 
L 193.930071 -287.269396 
L 194.835971 -285.460282 
L 195.792385 -283.651167 
L 196.792548 -281.842052 
L 197.827102 -280.032937 
L 198.884225 -278.223823 
L 199.949913 -276.414708 
L 201.008402 -274.605593 
L 202.042716 -272.796479 
L 203.035302 -270.987364 
L 203.968725 -269.178249 
L 204.826368 -267.369134 
L 205.593105 -265.56002 
L 206.255901 -263.750905 
L 206.804305 -261.94179 
L 207.230806 -260.132675 
L 207.531042 -258.323561 
L 207.703851 -256.514446 
L 207.751169 -254.705331 
L 207.677795 -252.896217 
L 207.491038 -251.087102 
L 207.200289 -249.277987 
L 206.816526 -247.468872 
L 206.351805 -245.659758 
L 205.818757 -243.850643 
L 205.230114 -242.041528 
L 204.59828 -240.232413 
L 203.934978 -238.423299 
L 203.250956 -236.614184 
L 202.555776 -234.805069 
L 201.857675 -232.995955 
L 201.163498 -231.18684 
L 200.47869 -229.377725 
L 199.807346 -227.56861 
L 199.152315 -225.759496 
L 198.515328 -223.950381 
L 197.897161 -222.141266 
L 197.297814 -220.332151 
L 196.716689 -218.523037 
L 196.152768 -216.713922 
L 195.604773 -214.904807 
L 195.071308 -213.095693 
L 194.550963 -211.286578 
L 194.042399 -209.477463 
L 193.544395 -207.668348 
L 193.055873 -205.859234 
L 192.575897 -204.050119 
L 192.103665 -202.241004 
L 191.638498 -200.431889 
L 191.17982 -198.622775 
L 190.727167 -196.81366 
L 190.280189 -195.004545 
L 189.838683 -193.195431 
L 189.402624 -191.386316 
L 188.972204 -189.577201 
L 188.54788 -187.768086 
L 188.130393 -185.958972 
L 187.720791 -184.149857 
L 187.320413 -182.340742 
L 186.930864 -180.531627 
L 186.553947 -178.722513 
L 186.191593 -176.913398 
L 185.845758 -175.104283 
L 185.518327 -173.295169 
L 185.211005 -171.486054 
L 184.925225 -169.676939 
L 184.662072 -167.867824 
L 184.422227 -166.05871 
L 184.205935 -164.249595 
L 184.013004 -162.44048 
L 183.842824 -160.631365 
L 183.694414 -158.822251 
L 183.566475 -157.013136 
L 183.457465 -155.204021 
z
" id="mb5468e09c4" style="stroke:#6a6a6a;stroke-width:2;"/>
    </defs>
    <g clip-path="url(#pb97c58b4bb)">
     <use style="fill:#f6f6bc;stroke:#6a6a6a;stroke-width:2;" x="0" xlink:href="#mb5468e09c4" y="432"/>
    </g>
   </g>
   <g id="PolyCollection_2">
    <defs>
     <path d="M 369.473521 -186.969165 
L 368.526479 -186.969165 
L 368.422482 -188.770836 
L 368.301001 -190.572506 
L 368.160331 -192.374177 
L 367.998847 -194.175847 
L 367.815063 -195.977518 
L 367.607684 -197.779188 
L 367.375665 -199.580859 
L 367.118257 -201.382529 
L 366.835058 -203.1842 
L 366.526045 -204.98587 
L 366.191604 -206.787541 
L 365.832538 -208.589211 
L 365.450067 -210.390882 
L 365.045809 -212.192552 
L 364.621749 -213.994223 
L 364.180195 -215.795893 
L 363.723718 -217.597564 
L 363.255092 -219.399234 
L 362.777221 -221.200905 
L 362.293074 -223.002575 
L 361.805617 -224.804246 
L 361.317755 -226.605916 
L 360.832284 -228.407587 
L 360.351858 -230.209257 
L 359.878963 -232.010928 
L 359.415911 -233.812598 
L 358.964841 -235.614269 
L 358.527729 -237.415939 
L 358.1064 -239.21761 
L 357.702543 -241.01928 
L 357.31771 -242.820951 
L 356.953317 -244.622621 
L 356.610613 -246.424292 
L 356.290644 -248.225963 
L 355.994189 -250.027633 
L 355.721688 -251.829304 
L 355.473147 -253.630974 
L 355.248045 -255.432645 
L 355.045247 -257.234315 
L 354.862919 -259.035986 
L 354.698487 -260.837656 
L 354.548611 -262.639327 
L 354.409224 -264.440997 
L 354.275608 -266.242668 
L 354.142532 -268.044338 
L 354.004441 -269.846009 
L 353.855697 -271.647679 
L 353.690849 -273.44935 
L 353.504938 -275.25102 
L 353.293801 -277.052691 
L 353.054368 -278.854361 
L 352.784928 -280.656032 
L 352.485342 -282.457702 
L 352.157197 -284.259373 
L 351.803884 -286.061043 
L 351.430589 -287.862714 
L 351.044202 -289.664384 
L 350.653137 -291.466055 
L 350.267087 -293.267725 
L 349.896708 -295.069396 
L 349.553263 -296.871066 
L 349.248224 -298.672737 
L 348.99288 -300.474407 
L 348.797936 -302.276078 
L 348.673148 -304.077748 
L 348.626986 -305.879419 
L 348.666353 -307.681089 
L 348.796366 -309.48276 
L 349.020197 -311.28443 
L 349.338983 -313.086101 
L 349.751805 -314.887771 
L 350.255735 -316.689442 
L 350.845935 -318.491112 
L 351.515827 -320.292783 
L 352.257289 -322.094453 
L 353.06091 -323.896124 
L 353.916259 -325.697794 
L 354.812185 -327.499465 
L 355.737115 -329.301135 
L 356.679365 -331.102806 
L 357.62743 -332.904476 
L 358.570261 -334.706147 
L 359.49751 -336.507817 
L 360.399747 -338.309488 
L 361.268631 -340.111158 
L 362.09704 -341.912829 
L 362.879154 -343.714499 
L 363.610494 -345.51617 
L 364.287914 -347.31784 
L 364.909556 -349.119511 
L 365.474764 -350.921181 
L 365.983974 -352.722852 
L 366.438581 -354.524522 
L 366.840784 -356.326193 
L 367.193435 -358.127863 
L 367.499879 -359.929534 
L 367.7638 -361.731204 
L 367.98908 -363.532875 
L 368.179672 -365.334545 
L 369.820328 -365.334545 
L 369.820328 -365.334545 
L 370.01092 -363.532875 
L 370.2362 -361.731204 
L 370.500121 -359.929534 
L 370.806565 -358.127863 
L 371.159216 -356.326193 
L 371.561419 -354.524522 
L 372.016026 -352.722852 
L 372.525236 -350.921181 
L 373.090444 -349.119511 
L 373.712086 -347.31784 
L 374.389506 -345.51617 
L 375.120846 -343.714499 
L 375.90296 -341.912829 
L 376.731369 -340.111158 
L 377.600253 -338.309488 
L 378.50249 -336.507817 
L 379.429739 -334.706147 
L 380.37257 -332.904476 
L 381.320635 -331.102806 
L 382.262885 -329.301135 
L 383.187815 -327.499465 
L 384.083741 -325.697794 
L 384.93909 -323.896124 
L 385.742711 -322.094453 
L 386.484173 -320.292783 
L 387.154065 -318.491112 
L 387.744265 -316.689442 
L 388.248195 -314.887771 
L 388.661017 -313.086101 
L 388.979803 -311.28443 
L 389.203634 -309.48276 
L 389.333647 -307.681089 
L 389.373014 -305.879419 
L 389.326852 -304.077748 
L 389.202064 -302.276078 
L 389.00712 -300.474407 
L 388.751776 -298.672737 
L 388.446737 -296.871066 
L 388.103292 -295.069396 
L 387.732913 -293.267725 
L 387.346863 -291.466055 
L 386.955798 -289.664384 
L 386.569411 -287.862714 
L 386.196116 -286.061043 
L 385.842803 -284.259373 
L 385.514658 -282.457702 
L 385.215072 -280.656032 
L 384.945632 -278.854361 
L 384.706199 -277.052691 
L 384.495062 -275.25102 
L 384.309151 -273.44935 
L 384.144303 -271.647679 
L 383.995559 -269.846009 
L 383.857468 -268.044338 
L 383.724392 -266.242668 
L 383.590776 -264.440997 
L 383.451389 -262.639327 
L 383.301513 -260.837656 
L 383.137081 -259.035986 
L 382.954753 -257.234315 
L 382.751955 -255.432645 
L 382.526853 -253.630974 
L 382.278312 -251.829304 
L 382.005811 -250.027633 
L 381.709356 -248.225963 
L 381.389387 -246.424292 
L 381.046683 -244.622621 
L 380.68229 -242.820951 
L 380.297457 -241.01928 
L 379.8936 -239.21761 
L 379.472271 -237.415939 
L 379.035159 -235.614269 
L 378.584089 -233.812598 
L 378.121037 -232.010928 
L 377.648142 -230.209257 
L 377.167716 -228.407587 
L 376.682245 -226.605916 
L 376.194383 -224.804246 
L 375.706926 -223.002575 
L 375.222779 -221.200905 
L 374.744908 -219.399234 
L 374.276282 -217.597564 
L 373.819805 -215.795893 
L 373.378251 -213.994223 
L 372.954191 -212.192552 
L 372.549933 -210.390882 
L 372.167462 -208.589211 
L 371.808396 -206.787541 
L 371.473955 -204.98587 
L 371.164942 -203.1842 
L 370.881743 -201.382529 
L 370.624335 -199.580859 
L 370.392316 -197.779188 
L 370.184937 -195.977518 
L 370.001153 -194.175847 
L 369.839669 -192.374177 
L 369.698999 -190.572506 
L 369.577518 -188.770836 
L 369.473521 -186.969165 
z
" id="mde1eb9ed2d" style="stroke:#6a6a6a;stroke-width:2;"/>
    </defs>
    <g clip-path="url(#pb97c58b4bb)">
     <use style="fill:#96cac1;stroke:#6a6a6a;stroke-width:2;" x="0" xlink:href="#mde1eb9ed2d" y="432"/>
    </g>
   </g>
   <g id="PolyCollection_3">
    <defs>
     <path d="M 556.728162 -68.825455 
L 553.271838 -68.825455 
L 552.860953 -69.377371 
L 552.372262 -69.929287 
L 551.795733 -70.481203 
L 551.120988 -71.033119 
L 550.337458 -71.585035 
L 549.434576 -72.136951 
L 548.401981 -72.688867 
L 547.22975 -73.240783 
L 545.908634 -73.792699 
L 544.430326 -74.344615 
L 542.787723 -74.896531 
L 540.975214 -75.448448 
L 538.988971 -76.000364 
L 536.827253 -76.55228 
L 534.490715 -77.104196 
L 531.982728 -77.656112 
L 529.309687 -78.208028 
L 526.481322 -78.759944 
L 523.510974 -79.31186 
L 520.415837 -79.863776 
L 517.217139 -80.415692 
L 513.940229 -80.967608 
L 510.61456 -81.519525 
L 507.273526 -82.071441 
L 503.954139 -82.623357 
L 500.696516 -83.175273 
L 497.543183 -83.727189 
L 494.538171 -84.279105 
L 491.725938 -84.831021 
L 489.150131 -85.382937 
L 486.852224 -85.934853 
L 484.870102 -86.486769 
L 483.236634 -87.038685 
L 481.978322 -87.590601 
L 481.114089 -88.142518 
L 480.654289 -88.694434 
L 480.6 -89.24635 
L 480.94265 -89.798266 
L 481.664019 -90.350182 
L 482.736637 -90.902098 
L 484.124566 -91.454014 
L 485.784544 -92.00593 
L 487.667451 -92.557846 
L 489.720022 -93.109762 
L 491.88673 -93.661678 
L 494.111758 -94.213594 
L 496.340962 -94.765511 
L 498.523734 -95.317427 
L 500.614679 -95.869343 
L 502.575046 -96.421259 
L 504.373838 -96.973175 
L 505.988577 -97.525091 
L 507.405688 -98.077007 
L 508.620516 -98.628923 
L 509.636978 -99.180839 
L 510.466888 -99.732755 
L 511.128999 -100.284671 
L 511.647822 -100.836588 
L 512.052282 -101.388504 
L 512.37428 -101.94042 
L 512.647225 -102.492336 
L 512.904614 -103.044252 
L 513.178705 -103.596168 
L 513.499339 -104.148084 
L 513.892957 -104.7 
L 514.381835 -105.251916 
L 514.983549 -105.803832 
L 515.710678 -106.355748 
L 516.570737 -106.907664 
L 517.566315 -107.459581 
L 518.695386 -108.011497 
L 519.951768 -108.563413 
L 521.325687 -109.115329 
L 522.804405 -109.667245 
L 524.372873 -110.219161 
L 526.014395 -110.771077 
L 527.711244 -111.322993 
L 529.445244 -111.874909 
L 531.19828 -112.426825 
L 532.952738 -112.978741 
L 534.691879 -113.530657 
L 536.400132 -114.082574 
L 538.063331 -114.63449 
L 539.66889 -115.186406 
L 541.20592 -115.738322 
L 542.665312 -116.290238 
L 544.039764 -116.842154 
L 545.323782 -117.39407 
L 546.513641 -117.945986 
L 547.607317 -118.497902 
L 548.604388 -119.049818 
L 549.505904 -119.601734 
L 550.314242 -120.153651 
L 551.032933 -120.705567 
L 551.666476 -121.257483 
L 552.220141 -121.809399 
L 552.699779 -122.361315 
L 553.111619 -122.913231 
L 553.46209 -123.465147 
L 556.53791 -123.465147 
L 556.53791 -123.465147 
L 556.888381 -122.913231 
L 557.300221 -122.361315 
L 557.779859 -121.809399 
L 558.333524 -121.257483 
L 558.967067 -120.705567 
L 559.685758 -120.153651 
L 560.494096 -119.601734 
L 561.395612 -119.049818 
L 562.392683 -118.497902 
L 563.486359 -117.945986 
L 564.676218 -117.39407 
L 565.960236 -116.842154 
L 567.334688 -116.290238 
L 568.79408 -115.738322 
L 570.33111 -115.186406 
L 571.936669 -114.63449 
L 573.599868 -114.082574 
L 575.308121 -113.530657 
L 577.047262 -112.978741 
L 578.80172 -112.426825 
L 580.554756 -111.874909 
L 582.288756 -111.322993 
L 583.985605 -110.771077 
L 585.627127 -110.219161 
L 587.195595 -109.667245 
L 588.674313 -109.115329 
L 590.048232 -108.563413 
L 591.304614 -108.011497 
L 592.433685 -107.459581 
L 593.429263 -106.907664 
L 594.289322 -106.355748 
L 595.016451 -105.803832 
L 595.618165 -105.251916 
L 596.107043 -104.7 
L 596.500661 -104.148084 
L 596.821295 -103.596168 
L 597.095386 -103.044252 
L 597.352775 -102.492336 
L 597.62572 -101.94042 
L 597.947718 -101.388504 
L 598.352178 -100.836588 
L 598.871001 -100.284671 
L 599.533112 -99.732755 
L 600.363022 -99.180839 
L 601.379484 -98.628923 
L 602.594312 -98.077007 
L 604.011423 -97.525091 
L 605.626162 -96.973175 
L 607.424954 -96.421259 
L 609.385321 -95.869343 
L 611.476266 -95.317427 
L 613.659038 -94.765511 
L 615.888242 -94.213594 
L 618.11327 -93.661678 
L 620.279978 -93.109762 
L 622.332549 -92.557846 
L 624.215456 -92.00593 
L 625.875434 -91.454014 
L 627.263363 -90.902098 
L 628.335981 -90.350182 
L 629.05735 -89.798266 
L 629.4 -89.24635 
L 629.345711 -88.694434 
L 628.885911 -88.142518 
L 628.021678 -87.590601 
L 626.763366 -87.038685 
L 625.129898 -86.486769 
L 623.147776 -85.934853 
L 620.849869 -85.382937 
L 618.274062 -84.831021 
L 615.461829 -84.279105 
L 612.456817 -83.727189 
L 609.303484 -83.175273 
L 606.045861 -82.623357 
L 602.726474 -82.071441 
L 599.38544 -81.519525 
L 596.059771 -80.967608 
L 592.782861 -80.415692 
L 589.584163 -79.863776 
L 586.489026 -79.31186 
L 583.518678 -78.759944 
L 580.690313 -78.208028 
L 578.017272 -77.656112 
L 575.509285 -77.104196 
L 573.172747 -76.55228 
L 571.011029 -76.000364 
L 569.024786 -75.448448 
L 567.212277 -74.896531 
L 565.569674 -74.344615 
L 564.091366 -73.792699 
L 562.77025 -73.240783 
L 561.598019 -72.688867 
L 560.565424 -72.136951 
L 559.662542 -71.585035 
L 558.879012 -71.033119 
L 558.204267 -70.481203 
L 557.627738 -69.929287 
L 557.139047 -69.377371 
L 556.728162 -68.825455 
z
" id="m3c0ab83b1e" style="stroke:#6a6a6a;stroke-width:2;"/>
    </defs>
    <g clip-path="url(#pb97c58b4bb)">
     <use style="fill:#c1bed6;stroke:#6a6a6a;stroke-width:2;" x="0" xlink:href="#m3c0ab83b1e" y="432"/>
    </g>
   </g>
   <g id="line2d_11">
    <path clip-path="url(#pb97c58b4bb)" d="M 183 242.604715 
L 183 131.884884 
" style="fill:none;stroke:#6a6a6a;stroke-linecap:round;stroke-width:2;"/>
   </g>
   <g id="line2d_12">
    <path clip-path="url(#pb97c58b4bb)" d="M 183 198.882371 
L 183 169.225626 
" style="fill:none;stroke:#6a6a6a;stroke-linecap:round;stroke-width:6;"/>
   </g>
   <g id="line2d_13">
    <path clip-path="url(#pb97c58b4bb)" d="M 369 206.600843 
L 369 105.095446 
" style="fill:none;stroke:#6a6a6a;stroke-linecap:round;stroke-width:2;"/>
   </g>
   <g id="line2d_14">
    <path clip-path="url(#pb97c58b4bb)" d="M 369 166.694331 
L 369 122.613096 
" style="fill:none;stroke:#6a6a6a;stroke-linecap:round;stroke-width:6;"/>
   </g>
   <g id="line2d_15">
    <path clip-path="url(#pb97c58b4bb)" d="M 555 351.821688 
L 555 319.887711 
" style="fill:none;stroke:#6a6a6a;stroke-linecap:round;stroke-width:2;"/>
   </g>
   <g id="line2d_16">
    <path clip-path="url(#pb97c58b4bb)" d="M 555 343.450963 
L 555 329.061355 
" style="fill:none;stroke:#6a6a6a;stroke-linecap:round;stroke-width:6;"/>
   </g>
   <g id="patch_3">
    <path d="M 90 378 
L 90 51.84 
" style="fill:none;stroke:#262626;stroke-linecap:square;stroke-linejoin:miter;"/>
   </g>
   <g id="patch_4">
    <path d="M 648 378 
L 648 51.84 
" style="fill:none;stroke:#262626;stroke-linecap:square;stroke-linejoin:miter;"/>
   </g>
   <g id="patch_5">
    <path d="M 90 378 
L 648 378 
" style="fill:none;stroke:#262626;stroke-linecap:square;stroke-linejoin:miter;"/>
   </g>
   <g id="patch_6">
    <path d="M 90 51.84 
L 648 51.84 
" style="fill:none;stroke:#262626;stroke-linecap:square;stroke-linejoin:miter;"/>
   </g>
   <g id="PathCollection_1">
    <defs>
     <path d="M 0 2 
C 0.530406 2 1.03916 1.789267 1.414214 1.414214 
C 1.789267 1.03916 2 0.530406 2 0 
C 2 -0.530406 1.789267 -1.03916 1.414214 -1.414214 
C 1.03916 -1.789267 0.530406 -2 0 -2 
C -0.530406 -2 -1.03916 -1.789267 -1.414214 -1.414214 
C -1.789267 -1.03916 -2 -0.530406 -2 0 
C -2 0.530406 -1.789267 1.03916 -1.414214 1.414214 
C -1.03916 1.789267 -0.530406 2 0 2 
z
" id="m604942e85c" style="stroke:#6a6a6a;stroke-width:0.8;"/>
    </defs>
    <g clip-path="url(#pb97c58b4bb)">
     <use style="fill:#ffffff;stroke:#6a6a6a;stroke-width:0.8;" x="183" xlink:href="#m604942e85c" y="181.310215"/>
    </g>
   </g>
   <g id="PathCollection_2">
    <g clip-path="url(#pb97c58b4bb)">
     <use style="fill:#ffffff;stroke:#6a6a6a;stroke-width:0.8;" x="369" xlink:href="#m604942e85c" y="135.953951"/>
    </g>
   </g>
   <g id="PathCollection_3">
    <g clip-path="url(#pb97c58b4bb)">
     <use style="fill:#ffffff;stroke:#6a6a6a;stroke-width:0.8;" x="555" xlink:href="#m604942e85c" y="341.357208"/>
    </g>
   </g>
  </g>
 </g>
 <defs>
  <clipPath id="pb97c58b4bb">
   <rect height="326.16" width="558" x="90" y="51.84"/>
  </clipPath>
 </defs>
</svg>
