<?xml version="1.0" encoding="utf-8" standalone="no"?>
<!DOCTYPE svg PUBLIC "-//W3C//DTD SVG 1.1//EN"
  "http://www.w3.org/Graphics/SVG/1.1/DTD/svg11.dtd">
<!-- Created with matplotlib (https://matplotlib.org/) -->
<svg height="432pt" version="1.1" viewBox="0 0 720 432" width="720pt" xmlns="http://www.w3.org/2000/svg" xmlns:xlink="http://www.w3.org/1999/xlink">
 <defs>
  <style type="text/css">
*{stroke-linecap:butt;stroke-linejoin:round;}
  </style>
 </defs>
 <g id="figure_1">
  <g id="patch_1">
   <path d="M 0 432 
L 720 432 
L 720 0 
L 0 0 
z
" style="fill:#ffffff;"/>
  </g>
  <g id="axes_1">
   <g id="patch_2">
    <path d="M 90 378 
L 648 378 
L 648 51.84 
L 90 51.84 
z
" style="fill:#ffffff;"/>
   </g>
   <g id="matplotlib.axis_1">
    <g id="xtick_1">
     <g id="line2d_1">
      <defs>
       <path d="M 0 0 
L 0 4.8 
" id="m1b8508511b" style="stroke:#262626;"/>
      </defs>
      <g>
       <use style="fill:#262626;stroke:#262626;" x="136.5" xlink:href="#m1b8508511b" y="378"/>
      </g>
     </g>
     <g id="text_1">
      <!-- metakrr_skfL:1cv:0_cnn_10 -->
      <defs>
       <path d="M 6.59375 0 
L 6.59375 51.859375 
L 14.453125 51.859375 
L 14.453125 44.578125 
Q 16.890625 48.390625 20.9375 50.703125 
Q 25 53.03125 30.171875 53.03125 
Q 35.9375 53.03125 39.625 50.640625 
Q 43.3125 48.25 44.828125 43.953125 
Q 50.984375 53.03125 60.84375 53.03125 
Q 68.5625 53.03125 72.703125 48.75 
Q 76.859375 44.484375 76.859375 35.59375 
L 76.859375 0 
L 68.109375 0 
L 68.109375 32.671875 
Q 68.109375 37.9375 67.25 40.25 
Q 66.40625 42.578125 64.15625 43.984375 
Q 61.921875 45.40625 58.890625 45.40625 
Q 53.421875 45.40625 49.796875 41.765625 
Q 46.1875 38.140625 46.1875 30.125 
L 46.1875 0 
L 37.40625 0 
L 37.40625 33.6875 
Q 37.40625 39.546875 35.25 42.46875 
Q 33.109375 45.40625 28.21875 45.40625 
Q 24.515625 45.40625 21.359375 43.453125 
Q 18.21875 41.5 16.796875 37.734375 
Q 15.375 33.984375 15.375 26.90625 
L 15.375 0 
z
" id="ArialMT-109"/>
       <path d="M 42.09375 16.703125 
L 51.171875 15.578125 
Q 49.03125 7.625 43.21875 3.21875 
Q 37.40625 -1.171875 28.375 -1.171875 
Q 17 -1.171875 10.328125 5.828125 
Q 3.65625 12.84375 3.65625 25.484375 
Q 3.65625 38.578125 10.390625 45.796875 
Q 17.140625 53.03125 27.875 53.03125 
Q 38.28125 53.03125 44.875 45.953125 
Q 51.46875 38.875 51.46875 26.03125 
Q 51.46875 25.25 51.421875 23.6875 
L 12.75 23.6875 
Q 13.234375 15.140625 17.578125 10.59375 
Q 21.921875 6.0625 28.421875 6.0625 
Q 33.25 6.0625 36.671875 8.59375 
Q 40.09375 11.140625 42.09375 16.703125 
z
M 13.234375 30.90625 
L 42.1875 30.90625 
Q 41.609375 37.453125 38.875 40.71875 
Q 34.671875 45.796875 27.984375 45.796875 
Q 21.921875 45.796875 17.796875 41.75 
Q 13.671875 37.703125 13.234375 30.90625 
z
" id="ArialMT-101"/>
       <path d="M 25.78125 7.859375 
L 27.046875 0.09375 
Q 23.34375 -0.6875 20.40625 -0.6875 
Q 15.625 -0.6875 12.984375 0.828125 
Q 10.359375 2.34375 9.28125 4.8125 
Q 8.203125 7.28125 8.203125 15.1875 
L 8.203125 45.015625 
L 1.765625 45.015625 
L 1.765625 51.859375 
L 8.203125 51.859375 
L 8.203125 64.703125 
L 16.9375 69.96875 
L 16.9375 51.859375 
L 25.78125 51.859375 
L 25.78125 45.015625 
L 16.9375 45.015625 
L 16.9375 14.703125 
Q 16.9375 10.9375 17.40625 9.859375 
Q 17.875 8.796875 18.921875 8.15625 
Q 19.96875 7.515625 21.921875 7.515625 
Q 23.390625 7.515625 25.78125 7.859375 
z
" id="ArialMT-116"/>
       <path d="M 40.4375 6.390625 
Q 35.546875 2.25 31.03125 0.53125 
Q 26.515625 -1.171875 21.34375 -1.171875 
Q 12.796875 -1.171875 8.203125 3 
Q 3.609375 7.171875 3.609375 13.671875 
Q 3.609375 17.484375 5.34375 20.625 
Q 7.078125 23.78125 9.890625 25.6875 
Q 12.703125 27.59375 16.21875 28.5625 
Q 18.796875 29.25 24.03125 29.890625 
Q 34.671875 31.15625 39.703125 32.90625 
Q 39.75 34.71875 39.75 35.203125 
Q 39.75 40.578125 37.25 42.78125 
Q 33.890625 45.75 27.25 45.75 
Q 21.046875 45.75 18.09375 43.578125 
Q 15.140625 41.40625 13.71875 35.890625 
L 5.125 37.0625 
Q 6.296875 42.578125 8.984375 45.96875 
Q 11.671875 49.359375 16.75 51.1875 
Q 21.828125 53.03125 28.515625 53.03125 
Q 35.15625 53.03125 39.296875 51.46875 
Q 43.453125 49.90625 45.40625 47.53125 
Q 47.359375 45.171875 48.140625 41.546875 
Q 48.578125 39.3125 48.578125 33.453125 
L 48.578125 21.734375 
Q 48.578125 9.46875 49.140625 6.21875 
Q 49.703125 2.984375 51.375 0 
L 42.1875 0 
Q 40.828125 2.734375 40.4375 6.390625 
z
M 39.703125 26.03125 
Q 34.90625 24.078125 25.34375 22.703125 
Q 19.921875 21.921875 17.671875 20.9375 
Q 15.4375 19.96875 14.203125 18.09375 
Q 12.984375 16.21875 12.984375 13.921875 
Q 12.984375 10.40625 15.640625 8.0625 
Q 18.3125 5.71875 23.4375 5.71875 
Q 28.515625 5.71875 32.46875 7.9375 
Q 36.421875 10.15625 38.28125 14.015625 
Q 39.703125 17 39.703125 22.796875 
z
" id="ArialMT-97"/>
       <path d="M 6.640625 0 
L 6.640625 71.578125 
L 15.4375 71.578125 
L 15.4375 30.765625 
L 36.234375 51.859375 
L 47.609375 51.859375 
L 27.78125 32.625 
L 49.609375 0 
L 38.765625 0 
L 21.625 26.515625 
L 15.4375 20.5625 
L 15.4375 0 
z
" id="ArialMT-107"/>
       <path d="M 6.5 0 
L 6.5 51.859375 
L 14.40625 51.859375 
L 14.40625 44 
Q 17.4375 49.515625 20 51.265625 
Q 22.5625 53.03125 25.640625 53.03125 
Q 30.078125 53.03125 34.671875 50.203125 
L 31.640625 42.046875 
Q 28.421875 43.953125 25.203125 43.953125 
Q 22.3125 43.953125 20.015625 42.21875 
Q 17.71875 40.484375 16.75 37.40625 
Q 15.28125 32.71875 15.28125 27.15625 
L 15.28125 0 
z
" id="ArialMT-114"/>
       <path d="M -1.515625 -19.875 
L -1.515625 -13.53125 
L 56.734375 -13.53125 
L 56.734375 -19.875 
z
" id="ArialMT-95"/>
       <path d="M 3.078125 15.484375 
L 11.765625 16.84375 
Q 12.5 11.625 15.84375 8.84375 
Q 19.1875 6.0625 25.203125 6.0625 
Q 31.25 6.0625 34.171875 8.515625 
Q 37.109375 10.984375 37.109375 14.3125 
Q 37.109375 17.28125 34.515625 19 
Q 32.71875 20.171875 25.53125 21.96875 
Q 15.875 24.421875 12.140625 26.203125 
Q 8.40625 27.984375 6.46875 31.125 
Q 4.546875 34.28125 4.546875 38.09375 
Q 4.546875 41.546875 6.125 44.5 
Q 7.71875 47.46875 10.453125 49.421875 
Q 12.5 50.921875 16.03125 51.96875 
Q 19.578125 53.03125 23.640625 53.03125 
Q 29.734375 53.03125 34.34375 51.265625 
Q 38.96875 49.515625 41.15625 46.5 
Q 43.359375 43.5 44.1875 38.484375 
L 35.59375 37.3125 
Q 35.015625 41.3125 32.203125 43.546875 
Q 29.390625 45.796875 24.265625 45.796875 
Q 18.21875 45.796875 15.625 43.796875 
Q 13.03125 41.796875 13.03125 39.109375 
Q 13.03125 37.40625 14.109375 36.03125 
Q 15.1875 34.625 17.484375 33.6875 
Q 18.796875 33.203125 25.25 31.453125 
Q 34.578125 28.953125 38.25 27.359375 
Q 41.9375 25.78125 44.03125 22.75 
Q 46.140625 19.734375 46.140625 15.234375 
Q 46.140625 10.84375 43.578125 6.953125 
Q 41.015625 3.078125 36.171875 0.953125 
Q 31.34375 -1.171875 25.25 -1.171875 
Q 15.140625 -1.171875 9.84375 3.03125 
Q 4.546875 7.234375 3.078125 15.484375 
z
" id="ArialMT-115"/>
       <path d="M 8.6875 0 
L 8.6875 45.015625 
L 0.921875 45.015625 
L 0.921875 51.859375 
L 8.6875 51.859375 
L 8.6875 57.375 
Q 8.6875 62.59375 9.625 65.140625 
Q 10.890625 68.5625 14.078125 70.671875 
Q 17.28125 72.796875 23.046875 72.796875 
Q 26.765625 72.796875 31.25 71.921875 
L 29.9375 64.265625 
Q 27.203125 64.75 24.75 64.75 
Q 20.75 64.75 19.09375 63.03125 
Q 17.4375 61.328125 17.4375 56.640625 
L 17.4375 51.859375 
L 27.546875 51.859375 
L 27.546875 45.015625 
L 17.4375 45.015625 
L 17.4375 0 
z
" id="ArialMT-102"/>
       <path d="M 7.328125 0 
L 7.328125 71.578125 
L 16.796875 71.578125 
L 16.796875 8.453125 
L 52.046875 8.453125 
L 52.046875 0 
z
" id="ArialMT-76"/>
       <path d="M 9.03125 41.84375 
L 9.03125 51.859375 
L 19.046875 51.859375 
L 19.046875 41.84375 
z
M 9.03125 0 
L 9.03125 10.015625 
L 19.046875 10.015625 
L 19.046875 0 
z
" id="ArialMT-58"/>
       <path d="M 37.25 0 
L 28.46875 0 
L 28.46875 56 
Q 25.296875 52.984375 20.140625 49.953125 
Q 14.984375 46.921875 10.890625 45.40625 
L 10.890625 53.90625 
Q 18.265625 57.375 23.78125 62.296875 
Q 29.296875 67.234375 31.59375 71.875 
L 37.25 71.875 
z
" id="ArialMT-49"/>
       <path d="M 40.4375 19 
L 49.078125 17.875 
Q 47.65625 8.9375 41.8125 3.875 
Q 35.984375 -1.171875 27.484375 -1.171875 
Q 16.84375 -1.171875 10.375 5.78125 
Q 3.90625 12.75 3.90625 25.734375 
Q 3.90625 34.125 6.6875 40.421875 
Q 9.46875 46.734375 15.15625 49.875 
Q 20.84375 53.03125 27.546875 53.03125 
Q 35.984375 53.03125 41.359375 48.75 
Q 46.734375 44.484375 48.25 36.625 
L 39.703125 35.296875 
Q 38.484375 40.53125 35.375 43.15625 
Q 32.28125 45.796875 27.875 45.796875 
Q 21.234375 45.796875 17.078125 41.03125 
Q 12.9375 36.28125 12.9375 25.984375 
Q 12.9375 15.53125 16.9375 10.796875 
Q 20.953125 6.0625 27.390625 6.0625 
Q 32.5625 6.0625 36.03125 9.234375 
Q 39.5 12.40625 40.4375 19 
z
" id="ArialMT-99"/>
       <path d="M 21 0 
L 1.265625 51.859375 
L 10.546875 51.859375 
L 21.6875 20.796875 
Q 23.484375 15.765625 25 10.359375 
Q 26.171875 14.453125 28.265625 20.21875 
L 39.796875 51.859375 
L 48.828125 51.859375 
L 29.203125 0 
z
" id="ArialMT-118"/>
       <path d="M 4.15625 35.296875 
Q 4.15625 48 6.765625 55.734375 
Q 9.375 63.484375 14.515625 67.671875 
Q 19.671875 71.875 27.484375 71.875 
Q 33.25 71.875 37.59375 69.546875 
Q 41.9375 67.234375 44.765625 62.859375 
Q 47.609375 58.5 49.21875 52.21875 
Q 50.828125 45.953125 50.828125 35.296875 
Q 50.828125 22.703125 48.234375 14.96875 
Q 45.65625 7.234375 40.5 3 
Q 35.359375 -1.21875 27.484375 -1.21875 
Q 17.140625 -1.21875 11.234375 6.203125 
Q 4.15625 15.140625 4.15625 35.296875 
z
M 13.1875 35.296875 
Q 13.1875 17.671875 17.3125 11.828125 
Q 21.4375 6 27.484375 6 
Q 33.546875 6 37.671875 11.859375 
Q 41.796875 17.71875 41.796875 35.296875 
Q 41.796875 52.984375 37.671875 58.78125 
Q 33.546875 64.59375 27.390625 64.59375 
Q 21.34375 64.59375 17.71875 59.46875 
Q 13.1875 52.9375 13.1875 35.296875 
z
" id="ArialMT-48"/>
       <path d="M 6.59375 0 
L 6.59375 51.859375 
L 14.5 51.859375 
L 14.5 44.484375 
Q 20.21875 53.03125 31 53.03125 
Q 35.6875 53.03125 39.625 51.34375 
Q 43.5625 49.65625 45.515625 46.921875 
Q 47.46875 44.1875 48.25 40.4375 
Q 48.734375 37.984375 48.734375 31.890625 
L 48.734375 0 
L 39.9375 0 
L 39.9375 31.546875 
Q 39.9375 36.921875 38.90625 39.578125 
Q 37.890625 42.234375 35.28125 43.8125 
Q 32.671875 45.40625 29.15625 45.40625 
Q 23.53125 45.40625 19.453125 41.84375 
Q 15.375 38.28125 15.375 28.328125 
L 15.375 0 
z
" id="ArialMT-110"/>
      </defs>
      <g style="fill:#262626;" transform="translate(118.982622 387.968618)rotate(-280)scale(0.132 -0.132)">
       <use xlink:href="#ArialMT-109"/>
       <use x="83.300781" xlink:href="#ArialMT-101"/>
       <use x="138.916016" xlink:href="#ArialMT-116"/>
       <use x="166.699219" xlink:href="#ArialMT-97"/>
       <use x="222.314453" xlink:href="#ArialMT-107"/>
       <use x="272.314453" xlink:href="#ArialMT-114"/>
       <use x="305.615234" xlink:href="#ArialMT-114"/>
       <use x="338.916016" xlink:href="#ArialMT-95"/>
       <use x="394.53125" xlink:href="#ArialMT-115"/>
       <use x="444.53125" xlink:href="#ArialMT-107"/>
       <use x="494.53125" xlink:href="#ArialMT-102"/>
       <use x="522.314453" xlink:href="#ArialMT-76"/>
       <use x="577.929688" xlink:href="#ArialMT-58"/>
       <use x="605.712891" xlink:href="#ArialMT-49"/>
       <use x="661.328125" xlink:href="#ArialMT-99"/>
       <use x="711.328125" xlink:href="#ArialMT-118"/>
       <use x="761.328125" xlink:href="#ArialMT-58"/>
       <use x="789.111328" xlink:href="#ArialMT-48"/>
       <use x="844.726562" xlink:href="#ArialMT-95"/>
       <use x="900.341797" xlink:href="#ArialMT-99"/>
       <use x="950.341797" xlink:href="#ArialMT-110"/>
       <use x="1005.957031" xlink:href="#ArialMT-110"/>
       <use x="1061.572266" xlink:href="#ArialMT-95"/>
       <use x="1117.1875" xlink:href="#ArialMT-49"/>
       <use x="1172.802734" xlink:href="#ArialMT-48"/>
      </g>
     </g>
    </g>
    <g id="xtick_2">
     <g id="line2d_2">
      <g>
       <use style="fill:#262626;stroke:#262626;" x="229.5" xlink:href="#m1b8508511b" y="378"/>
      </g>
     </g>
     <g id="text_2">
      <!-- kr_morgan_circular_10 -->
      <defs>
       <path d="M 3.328125 25.921875 
Q 3.328125 40.328125 11.328125 47.265625 
Q 18.015625 53.03125 27.640625 53.03125 
Q 38.328125 53.03125 45.109375 46.015625 
Q 51.90625 39.015625 51.90625 26.65625 
Q 51.90625 16.65625 48.90625 10.90625 
Q 45.90625 5.171875 40.15625 2 
Q 34.421875 -1.171875 27.640625 -1.171875 
Q 16.75 -1.171875 10.03125 5.8125 
Q 3.328125 12.796875 3.328125 25.921875 
z
M 12.359375 25.921875 
Q 12.359375 15.96875 16.703125 11.015625 
Q 21.046875 6.0625 27.640625 6.0625 
Q 34.1875 6.0625 38.53125 11.03125 
Q 42.875 16.015625 42.875 26.21875 
Q 42.875 35.84375 38.5 40.796875 
Q 34.125 45.75 27.640625 45.75 
Q 21.046875 45.75 16.703125 40.8125 
Q 12.359375 35.890625 12.359375 25.921875 
z
" id="ArialMT-111"/>
       <path d="M 4.984375 -4.296875 
L 13.53125 -5.5625 
Q 14.0625 -9.515625 16.5 -11.328125 
Q 19.78125 -13.765625 25.4375 -13.765625 
Q 31.546875 -13.765625 34.859375 -11.328125 
Q 38.1875 -8.890625 39.359375 -4.5 
Q 40.046875 -1.8125 39.984375 6.78125 
Q 34.234375 0 25.640625 0 
Q 14.9375 0 9.078125 7.71875 
Q 3.21875 15.4375 3.21875 26.21875 
Q 3.21875 33.640625 5.90625 39.90625 
Q 8.59375 46.1875 13.6875 49.609375 
Q 18.796875 53.03125 25.6875 53.03125 
Q 34.859375 53.03125 40.828125 45.609375 
L 40.828125 51.859375 
L 48.921875 51.859375 
L 48.921875 7.03125 
Q 48.921875 -5.078125 46.453125 -10.125 
Q 44 -15.1875 38.640625 -18.109375 
Q 33.296875 -21.046875 25.484375 -21.046875 
Q 16.21875 -21.046875 10.5 -16.875 
Q 4.78125 -12.703125 4.984375 -4.296875 
z
M 12.25 26.859375 
Q 12.25 16.65625 16.296875 11.96875 
Q 20.359375 7.28125 26.46875 7.28125 
Q 32.515625 7.28125 36.609375 11.9375 
Q 40.71875 16.609375 40.71875 26.5625 
Q 40.71875 36.078125 36.5 40.90625 
Q 32.28125 45.75 26.3125 45.75 
Q 20.453125 45.75 16.34375 40.984375 
Q 12.25 36.234375 12.25 26.859375 
z
" id="ArialMT-103"/>
       <path d="M 6.640625 61.46875 
L 6.640625 71.578125 
L 15.4375 71.578125 
L 15.4375 61.46875 
z
M 6.640625 0 
L 6.640625 51.859375 
L 15.4375 51.859375 
L 15.4375 0 
z
" id="ArialMT-105"/>
       <path d="M 40.578125 0 
L 40.578125 7.625 
Q 34.515625 -1.171875 24.125 -1.171875 
Q 19.53125 -1.171875 15.546875 0.578125 
Q 11.578125 2.34375 9.640625 5 
Q 7.71875 7.671875 6.9375 11.53125 
Q 6.390625 14.109375 6.390625 19.734375 
L 6.390625 51.859375 
L 15.1875 51.859375 
L 15.1875 23.09375 
Q 15.1875 16.21875 15.71875 13.8125 
Q 16.546875 10.359375 19.234375 8.375 
Q 21.921875 6.390625 25.875 6.390625 
Q 29.828125 6.390625 33.296875 8.421875 
Q 36.765625 10.453125 38.203125 13.9375 
Q 39.65625 17.4375 39.65625 24.078125 
L 39.65625 51.859375 
L 48.4375 51.859375 
L 48.4375 0 
z
" id="ArialMT-117"/>
       <path d="M 6.390625 0 
L 6.390625 71.578125 
L 15.1875 71.578125 
L 15.1875 0 
z
" id="ArialMT-108"/>
      </defs>
      <g style="fill:#262626;" transform="translate(214.476229 387.947487)rotate(-280)scale(0.132 -0.132)">
       <use xlink:href="#ArialMT-107"/>
       <use x="50" xlink:href="#ArialMT-114"/>
       <use x="83.300781" xlink:href="#ArialMT-95"/>
       <use x="138.916016" xlink:href="#ArialMT-109"/>
       <use x="222.216797" xlink:href="#ArialMT-111"/>
       <use x="277.832031" xlink:href="#ArialMT-114"/>
       <use x="311.132812" xlink:href="#ArialMT-103"/>
       <use x="366.748047" xlink:href="#ArialMT-97"/>
       <use x="422.363281" xlink:href="#ArialMT-110"/>
       <use x="477.978516" xlink:href="#ArialMT-95"/>
       <use x="533.59375" xlink:href="#ArialMT-99"/>
       <use x="583.59375" xlink:href="#ArialMT-105"/>
       <use x="605.810547" xlink:href="#ArialMT-114"/>
       <use x="639.111328" xlink:href="#ArialMT-99"/>
       <use x="689.111328" xlink:href="#ArialMT-117"/>
       <use x="744.726562" xlink:href="#ArialMT-108"/>
       <use x="766.943359" xlink:href="#ArialMT-97"/>
       <use x="822.558594" xlink:href="#ArialMT-114"/>
       <use x="855.859375" xlink:href="#ArialMT-95"/>
       <use x="911.474609" xlink:href="#ArialMT-49"/>
       <use x="967.089844" xlink:href="#ArialMT-48"/>
      </g>
     </g>
    </g>
    <g id="xtick_3">
     <g id="line2d_3">
      <g>
       <use style="fill:#262626;stroke:#262626;" x="322.5" xlink:href="#m1b8508511b" y="378"/>
      </g>
     </g>
     <g id="text_3">
      <!-- seqtoseq__10 -->
      <defs>
       <path d="M 39.65625 -19.875 
L 39.65625 5.515625 
Q 37.59375 2.640625 33.90625 0.734375 
Q 30.21875 -1.171875 26.078125 -1.171875 
Q 16.84375 -1.171875 10.171875 6.203125 
Q 3.515625 13.578125 3.515625 26.421875 
Q 3.515625 34.234375 6.21875 40.421875 
Q 8.9375 46.625 14.078125 49.828125 
Q 19.234375 53.03125 25.390625 53.03125 
Q 35.015625 53.03125 40.53125 44.921875 
L 40.53125 51.859375 
L 48.4375 51.859375 
L 48.4375 -19.875 
z
M 12.546875 26.078125 
Q 12.546875 16.0625 16.75 11.0625 
Q 20.953125 6.0625 26.8125 6.0625 
Q 32.421875 6.0625 36.46875 10.8125 
Q 40.53125 15.578125 40.53125 25.296875 
Q 40.53125 35.640625 36.25 40.859375 
Q 31.984375 46.09375 26.21875 46.09375 
Q 20.515625 46.09375 16.53125 41.234375 
Q 12.546875 36.375 12.546875 26.078125 
z
" id="ArialMT-113"/>
      </defs>
      <g style="fill:#262626;" transform="translate(311.919726 387.947487)rotate(-280)scale(0.132 -0.132)">
       <use xlink:href="#ArialMT-115"/>
       <use x="50" xlink:href="#ArialMT-101"/>
       <use x="105.615234" xlink:href="#ArialMT-113"/>
       <use x="161.230469" xlink:href="#ArialMT-116"/>
       <use x="189.013672" xlink:href="#ArialMT-111"/>
       <use x="244.628906" xlink:href="#ArialMT-115"/>
       <use x="294.628906" xlink:href="#ArialMT-101"/>
       <use x="350.244141" xlink:href="#ArialMT-113"/>
       <use x="405.859375" xlink:href="#ArialMT-95"/>
       <use x="461.474609" xlink:href="#ArialMT-95"/>
       <use x="517.089844" xlink:href="#ArialMT-49"/>
       <use x="572.705078" xlink:href="#ArialMT-48"/>
      </g>
     </g>
    </g>
    <g id="xtick_4">
     <g id="line2d_4">
      <g>
       <use style="fill:#262626;stroke:#262626;" x="415.5" xlink:href="#m1b8508511b" y="378"/>
      </g>
     </g>
     <g id="text_4">
      <!-- mann_cnn_10 -->
      <g style="fill:#262626;" transform="translate(404.856512 387.947487)rotate(-280)scale(0.132 -0.132)">
       <use xlink:href="#ArialMT-109"/>
       <use x="83.300781" xlink:href="#ArialMT-97"/>
       <use x="138.916016" xlink:href="#ArialMT-110"/>
       <use x="194.53125" xlink:href="#ArialMT-110"/>
       <use x="250.146484" xlink:href="#ArialMT-95"/>
       <use x="305.761719" xlink:href="#ArialMT-99"/>
       <use x="355.761719" xlink:href="#ArialMT-110"/>
       <use x="411.376953" xlink:href="#ArialMT-110"/>
       <use x="466.992188" xlink:href="#ArialMT-95"/>
       <use x="522.607422" xlink:href="#ArialMT-49"/>
       <use x="578.222656" xlink:href="#ArialMT-48"/>
      </g>
     </g>
    </g>
    <g id="xtick_5">
     <g id="line2d_5">
      <g>
       <use style="fill:#262626;stroke:#262626;" x="508.5" xlink:href="#m1b8508511b" y="378"/>
      </g>
     </g>
     <g id="text_5">
      <!-- rf_morgan_circular_10 -->
      <g style="fill:#262626;" transform="translate(493.670953 387.968618)rotate(-280)scale(0.132 -0.132)">
       <use xlink:href="#ArialMT-114"/>
       <use x="33.300781" xlink:href="#ArialMT-102"/>
       <use x="61.083984" xlink:href="#ArialMT-95"/>
       <use x="116.699219" xlink:href="#ArialMT-109"/>
       <use x="200" xlink:href="#ArialMT-111"/>
       <use x="255.615234" xlink:href="#ArialMT-114"/>
       <use x="288.916016" xlink:href="#ArialMT-103"/>
       <use x="344.53125" xlink:href="#ArialMT-97"/>
       <use x="400.146484" xlink:href="#ArialMT-110"/>
       <use x="455.761719" xlink:href="#ArialMT-95"/>
       <use x="511.376953" xlink:href="#ArialMT-99"/>
       <use x="561.376953" xlink:href="#ArialMT-105"/>
       <use x="583.59375" xlink:href="#ArialMT-114"/>
       <use x="616.894531" xlink:href="#ArialMT-99"/>
       <use x="666.894531" xlink:href="#ArialMT-117"/>
       <use x="722.509766" xlink:href="#ArialMT-108"/>
       <use x="744.726562" xlink:href="#ArialMT-97"/>
       <use x="800.341797" xlink:href="#ArialMT-114"/>
       <use x="833.642578" xlink:href="#ArialMT-95"/>
       <use x="889.257812" xlink:href="#ArialMT-49"/>
       <use x="944.873047" xlink:href="#ArialMT-48"/>
      </g>
     </g>
    </g>
    <g id="xtick_6">
     <g id="line2d_6">
      <g>
       <use style="fill:#262626;stroke:#262626;" x="601.5" xlink:href="#m1b8508511b" y="378"/>
      </g>
     </g>
     <g id="text_6">
      <!-- ldt_5_5 -->
      <defs>
       <path d="M 40.234375 0 
L 40.234375 6.546875 
Q 35.296875 -1.171875 25.734375 -1.171875 
Q 19.53125 -1.171875 14.328125 2.25 
Q 9.125 5.671875 6.265625 11.796875 
Q 3.421875 17.921875 3.421875 25.875 
Q 3.421875 33.640625 6 39.96875 
Q 8.59375 46.296875 13.765625 49.65625 
Q 18.953125 53.03125 25.34375 53.03125 
Q 30.03125 53.03125 33.6875 51.046875 
Q 37.359375 49.078125 39.65625 45.90625 
L 39.65625 71.578125 
L 48.390625 71.578125 
L 48.390625 0 
z
M 12.453125 25.875 
Q 12.453125 15.921875 16.640625 10.984375 
Q 20.84375 6.0625 26.5625 6.0625 
Q 32.328125 6.0625 36.34375 10.765625 
Q 40.375 15.484375 40.375 25.140625 
Q 40.375 35.796875 36.265625 40.765625 
Q 32.171875 45.75 26.171875 45.75 
Q 20.3125 45.75 16.375 40.96875 
Q 12.453125 36.1875 12.453125 25.875 
z
" id="ArialMT-100"/>
       <path d="M 4.15625 18.75 
L 13.375 19.53125 
Q 14.40625 12.796875 18.140625 9.390625 
Q 21.875 6 27.15625 6 
Q 33.5 6 37.890625 10.78125 
Q 42.28125 15.578125 42.28125 23.484375 
Q 42.28125 31 38.0625 35.34375 
Q 33.84375 39.703125 27 39.703125 
Q 22.75 39.703125 19.328125 37.765625 
Q 15.921875 35.84375 13.96875 32.765625 
L 5.71875 33.84375 
L 12.640625 70.609375 
L 48.25 70.609375 
L 48.25 62.203125 
L 19.671875 62.203125 
L 15.828125 42.96875 
Q 22.265625 47.46875 29.34375 47.46875 
Q 38.71875 47.46875 45.15625 40.96875 
Q 51.609375 34.46875 51.609375 24.265625 
Q 51.609375 14.546875 45.953125 7.46875 
Q 39.0625 -1.21875 27.15625 -1.21875 
Q 17.390625 -1.21875 11.203125 4.25 
Q 5.03125 9.71875 4.15625 18.75 
z
" id="ArialMT-53"/>
      </defs>
      <g style="fill:#262626;" transform="translate(594.379763 387.940682)rotate(-280)scale(0.132 -0.132)">
       <use xlink:href="#ArialMT-108"/>
       <use x="22.216797" xlink:href="#ArialMT-100"/>
       <use x="77.832031" xlink:href="#ArialMT-116"/>
       <use x="105.615234" xlink:href="#ArialMT-95"/>
       <use x="161.230469" xlink:href="#ArialMT-53"/>
       <use x="216.845703" xlink:href="#ArialMT-95"/>
       <use x="272.460938" xlink:href="#ArialMT-53"/>
      </g>
     </g>
    </g>
    <g id="text_7">
     <!-- method -->
     <defs>
      <path d="M 6.59375 0 
L 6.59375 71.578125 
L 15.375 71.578125 
L 15.375 45.90625 
Q 21.53125 53.03125 30.90625 53.03125 
Q 36.671875 53.03125 40.921875 50.75 
Q 45.171875 48.484375 47 44.484375 
Q 48.828125 40.484375 48.828125 32.859375 
L 48.828125 0 
L 40.046875 0 
L 40.046875 32.859375 
Q 40.046875 39.453125 37.1875 42.453125 
Q 34.328125 45.453125 29.109375 45.453125 
Q 25.203125 45.453125 21.75 43.421875 
Q 18.3125 41.40625 16.84375 37.9375 
Q 15.375 34.46875 15.375 28.375 
L 15.375 0 
z
" id="ArialMT-104"/>
     </defs>
     <g style="fill:#262626;" transform="translate(344.986875 562.407486)scale(0.144 -0.144)">
      <use xlink:href="#ArialMT-109"/>
      <use x="83.300781" xlink:href="#ArialMT-101"/>
      <use x="138.916016" xlink:href="#ArialMT-116"/>
      <use x="166.699219" xlink:href="#ArialMT-104"/>
      <use x="222.314453" xlink:href="#ArialMT-111"/>
      <use x="277.929688" xlink:href="#ArialMT-100"/>
     </g>
    </g>
   </g>
   <g id="matplotlib.axis_2">
    <g id="ytick_1">
     <g id="line2d_7">
      <defs>
       <path d="M 0 0 
L -4.8 0 
" id="m6f7cd72a34" style="stroke:#262626;"/>
      </defs>
      <g>
       <use style="fill:#262626;stroke:#262626;" x="90" xlink:href="#m6f7cd72a34" y="359.940182"/>
      </g>
     </g>
     <g id="text_8">
      <!-- −1.0 -->
      <defs>
       <path d="M 52.828125 31.203125 
L 5.5625 31.203125 
L 5.5625 39.40625 
L 52.828125 39.40625 
z
" id="ArialMT-8722"/>
       <path d="M 9.078125 0 
L 9.078125 10.015625 
L 19.09375 10.015625 
L 19.09375 0 
z
" id="ArialMT-46"/>
      </defs>
      <g style="fill:#262626;" transform="translate(55.642375 364.664338)scale(0.132 -0.132)">
       <use xlink:href="#ArialMT-8722"/>
       <use x="58.398438" xlink:href="#ArialMT-49"/>
       <use x="114.013672" xlink:href="#ArialMT-46"/>
       <use x="141.796875" xlink:href="#ArialMT-48"/>
      </g>
     </g>
    </g>
    <g id="ytick_2">
     <g id="line2d_8">
      <g>
       <use style="fill:#262626;stroke:#262626;" x="90" xlink:href="#m6f7cd72a34" y="289.953678"/>
      </g>
     </g>
     <g id="text_9">
      <!-- −0.5 -->
      <g style="fill:#262626;" transform="translate(55.642375 294.677834)scale(0.132 -0.132)">
       <use xlink:href="#ArialMT-8722"/>
       <use x="58.398438" xlink:href="#ArialMT-48"/>
       <use x="114.013672" xlink:href="#ArialMT-46"/>
       <use x="141.796875" xlink:href="#ArialMT-53"/>
      </g>
     </g>
    </g>
    <g id="ytick_3">
     <g id="line2d_9">
      <g>
       <use style="fill:#262626;stroke:#262626;" x="90" xlink:href="#m6f7cd72a34" y="219.967173"/>
      </g>
     </g>
     <g id="text_10">
      <!-- 0.0 -->
      <g style="fill:#262626;" transform="translate(63.352 224.691329)scale(0.132 -0.132)">
       <use xlink:href="#ArialMT-48"/>
       <use x="55.615234" xlink:href="#ArialMT-46"/>
       <use x="83.398438" xlink:href="#ArialMT-48"/>
      </g>
     </g>
    </g>
    <g id="ytick_4">
     <g id="line2d_10">
      <g>
       <use style="fill:#262626;stroke:#262626;" x="90" xlink:href="#m6f7cd72a34" y="149.980668"/>
      </g>
     </g>
     <g id="text_11">
      <!-- 0.5 -->
      <g style="fill:#262626;" transform="translate(63.352 154.704825)scale(0.132 -0.132)">
       <use xlink:href="#ArialMT-48"/>
       <use x="55.615234" xlink:href="#ArialMT-46"/>
       <use x="83.398438" xlink:href="#ArialMT-53"/>
      </g>
     </g>
    </g>
    <g id="ytick_5">
     <g id="line2d_11">
      <g>
       <use style="fill:#262626;stroke:#262626;" x="90" xlink:href="#m6f7cd72a34" y="79.994164"/>
      </g>
     </g>
     <g id="text_12">
      <!-- 1.0 -->
      <g style="fill:#262626;" transform="translate(63.352 84.71832)scale(0.132 -0.132)">
       <use xlink:href="#ArialMT-49"/>
       <use x="55.615234" xlink:href="#ArialMT-46"/>
       <use x="83.398438" xlink:href="#ArialMT-48"/>
      </g>
     </g>
    </g>
    <g id="text_13">
     <!-- Pearson's r -->
     <defs>
      <path d="M 7.71875 0 
L 7.71875 71.578125 
L 34.71875 71.578125 
Q 41.84375 71.578125 45.609375 70.90625 
Q 50.875 70.015625 54.4375 67.546875 
Q 58.015625 65.09375 60.1875 60.640625 
Q 62.359375 56.203125 62.359375 50.875 
Q 62.359375 41.75 56.546875 35.421875 
Q 50.734375 29.109375 35.546875 29.109375 
L 17.1875 29.109375 
L 17.1875 0 
z
M 17.1875 37.546875 
L 35.6875 37.546875 
Q 44.875 37.546875 48.734375 40.96875 
Q 52.59375 44.390625 52.59375 50.59375 
Q 52.59375 55.078125 50.3125 58.265625 
Q 48.046875 61.46875 44.34375 62.5 
Q 41.9375 63.140625 35.5 63.140625 
L 17.1875 63.140625 
z
" id="ArialMT-80"/>
      <path d="M 6.640625 46.234375 
L 4.390625 59.625 
L 4.390625 71.578125 
L 14.40625 71.578125 
L 14.40625 59.625 
L 12.0625 46.234375 
z
" id="ArialMT-39"/>
      <path id="ArialMT-32"/>
     </defs>
     <g style="fill:#262626;" transform="translate(48.780375 251.107875)rotate(-90)scale(0.144 -0.144)">
      <use xlink:href="#ArialMT-80"/>
      <use x="66.699219" xlink:href="#ArialMT-101"/>
      <use x="122.314453" xlink:href="#ArialMT-97"/>
      <use x="177.929688" xlink:href="#ArialMT-114"/>
      <use x="211.230469" xlink:href="#ArialMT-115"/>
      <use x="261.230469" xlink:href="#ArialMT-111"/>
      <use x="316.845703" xlink:href="#ArialMT-110"/>
      <use x="372.460938" xlink:href="#ArialMT-39"/>
      <use x="391.552734" xlink:href="#ArialMT-115"/>
      <use x="441.552734" xlink:href="#ArialMT-32"/>
      <use x="469.335938" xlink:href="#ArialMT-114"/>
     </g>
    </g>
   </g>
   <g id="PolyCollection_1">
    <defs>
     <path d="M 136.514808 -112.74493 
L 136.485192 -112.74493 
L 136.475021 -115.273332 
L 136.460423 -117.801734 
L 136.440977 -120.330136 
L 136.416907 -122.858538 
L 136.389134 -125.38694 
L 136.359021 -127.915342 
L 136.327804 -130.443744 
L 136.295865 -132.972146 
L 136.262128 -135.500548 
L 136.223929 -138.02895 
L 136.177583 -140.557352 
L 136.119624 -143.085754 
L 136.048345 -145.614156 
L 135.965019 -148.142557 
L 135.874205 -150.670959 
L 135.782788 -153.199361 
L 135.697999 -155.727763 
L 135.625105 -158.256165 
L 135.565719 -160.784567 
L 135.517444 -163.312969 
L 135.47501 -165.841371 
L 135.432393 -168.369773 
L 135.38495 -170.898175 
L 135.330583 -173.426577 
L 135.269453 -175.954979 
L 135.202447 -178.483381 
L 135.129153 -181.011783 
L 135.046174 -183.540185 
L 134.9462 -186.068587 
L 134.817648 -188.596989 
L 134.644471 -191.125391 
L 134.406079 -193.653793 
L 134.077977 -196.182195 
L 133.634132 -198.710597 
L 133.051541 -201.238999 
L 132.316195 -203.767401 
L 131.428305 -206.295803 
L 130.4044 -208.824205 
L 129.275175 -211.352607 
L 128.08001 -213.881009 
L 126.860676 -216.409411 
L 125.656688 -218.937813 
L 124.503275 -221.466215 
L 123.431131 -223.994617 
L 122.466331 -226.523019 
L 121.629239 -229.051421 
L 120.932428 -231.579823 
L 120.378419 -234.108225 
L 119.958236 -236.636627 
L 119.651544 -239.165029 
L 119.428884 -241.693431 
L 119.256268 -244.221833 
L 119.101762 -246.750235 
L 118.942747 -249.278636 
L 118.771717 -251.807038 
L 118.598478 -254.33544 
L 118.447619 -256.863842 
L 118.351733 -259.392244 
L 118.342273 -261.920646 
L 118.440528 -264.449048 
L 118.651116 -266.97745 
L 118.959691 -269.505852 
L 119.335695 -272.034254 
L 119.739859 -274.562656 
L 120.134747 -277.091058 
L 120.49527 -279.61946 
L 120.815421 -282.147862 
L 121.108495 -284.676264 
L 121.400741 -287.204666 
L 121.721636 -289.733068 
L 122.095717 -292.26147 
L 122.539624 -294.789872 
L 123.064351 -297.318274 
L 123.679008 -299.846676 
L 124.391474 -302.375078 
L 125.20395 -304.90348 
L 126.105639 -307.431882 
L 127.067649 -309.960284 
L 128.044511 -312.488686 
L 128.983134 -315.017088 
L 129.835896 -317.54549 
L 130.572584 -320.073892 
L 131.186702 -322.602294 
L 131.694465 -325.130696 
L 132.127718 -327.659098 
L 132.52379 -330.1875 
L 132.915546 -332.715902 
L 133.324146 -335.244304 
L 133.755785 -337.772706 
L 134.202513 -340.301108 
L 134.646306 -342.82951 
L 135.064903 -345.357912 
L 135.43774 -347.886313 
L 135.750458 -350.414715 
L 135.997095 -352.943117 
L 136.179839 -355.471519 
L 136.306964 -357.999921 
L 136.389948 -360.528323 
L 136.440758 -363.056725 
L 136.559242 -363.056725 
L 136.559242 -363.056725 
L 136.610052 -360.528323 
L 136.693036 -357.999921 
L 136.820161 -355.471519 
L 137.002905 -352.943117 
L 137.249542 -350.414715 
L 137.56226 -347.886313 
L 137.935097 -345.357912 
L 138.353694 -342.82951 
L 138.797487 -340.301108 
L 139.244215 -337.772706 
L 139.675854 -335.244304 
L 140.084454 -332.715902 
L 140.47621 -330.1875 
L 140.872282 -327.659098 
L 141.305535 -325.130696 
L 141.813298 -322.602294 
L 142.427416 -320.073892 
L 143.164104 -317.54549 
L 144.016866 -315.017088 
L 144.955489 -312.488686 
L 145.932351 -309.960284 
L 146.894361 -307.431882 
L 147.79605 -304.90348 
L 148.608526 -302.375078 
L 149.320992 -299.846676 
L 149.935649 -297.318274 
L 150.460376 -294.789872 
L 150.904283 -292.26147 
L 151.278364 -289.733068 
L 151.599259 -287.204666 
L 151.891505 -284.676264 
L 152.184579 -282.147862 
L 152.50473 -279.61946 
L 152.865253 -277.091058 
L 153.260141 -274.562656 
L 153.664305 -272.034254 
L 154.040309 -269.505852 
L 154.348884 -266.97745 
L 154.559472 -264.449048 
L 154.657727 -261.920646 
L 154.648267 -259.392244 
L 154.552381 -256.863842 
L 154.401522 -254.33544 
L 154.228283 -251.807038 
L 154.057253 -249.278636 
L 153.898238 -246.750235 
L 153.743732 -244.221833 
L 153.571116 -241.693431 
L 153.348456 -239.165029 
L 153.041764 -236.636627 
L 152.621581 -234.108225 
L 152.067572 -231.579823 
L 151.370761 -229.051421 
L 150.533669 -226.523019 
L 149.568869 -223.994617 
L 148.496725 -221.466215 
L 147.343312 -218.937813 
L 146.139324 -216.409411 
L 144.91999 -213.881009 
L 143.724825 -211.352607 
L 142.5956 -208.824205 
L 141.571695 -206.295803 
L 140.683805 -203.767401 
L 139.948459 -201.238999 
L 139.365868 -198.710597 
L 138.922023 -196.182195 
L 138.593921 -193.653793 
L 138.355529 -191.125391 
L 138.182352 -188.596989 
L 138.0538 -186.068587 
L 137.953826 -183.540185 
L 137.870847 -181.011783 
L 137.797553 -178.483381 
L 137.730547 -175.954979 
L 137.669417 -173.426577 
L 137.61505 -170.898175 
L 137.567607 -168.369773 
L 137.52499 -165.841371 
L 137.482556 -163.312969 
L 137.434281 -160.784567 
L 137.374895 -158.256165 
L 137.302001 -155.727763 
L 137.217212 -153.199361 
L 137.125795 -150.670959 
L 137.034981 -148.142557 
L 136.951655 -145.614156 
L 136.880376 -143.085754 
L 136.822417 -140.557352 
L 136.776071 -138.02895 
L 136.737872 -135.500548 
L 136.704135 -132.972146 
L 136.672196 -130.443744 
L 136.640979 -127.915342 
L 136.610866 -125.38694 
L 136.583093 -122.858538 
L 136.559023 -120.330136 
L 136.539577 -117.801734 
L 136.524979 -115.273332 
L 136.514808 -112.74493 
z
" id="m84bb532c4e" style="stroke:#666666;stroke-width:2;"/>
    </defs>
    <g clip-path="url(#pbfb19d37cc)">
     <use style="fill:#ea8e83;stroke:#666666;stroke-width:2;" x="0" xlink:href="#m84bb532c4e" y="432"/>
    </g>
   </g>
   <g id="PolyCollection_2">
    <defs>
     <path d="M 229.521089 -139.98619 
L 229.478911 -139.98619 
L 229.462187 -142.131588 
L 229.437161 -144.276987 
L 229.403009 -146.422385 
L 229.360575 -148.567783 
L 229.312695 -150.713182 
L 229.263826 -152.85858 
L 229.219003 -155.003979 
L 229.18253 -157.149377 
L 229.156951 -159.294775 
L 229.142683 -161.440174 
L 229.138198 -163.585572 
L 229.140278 -165.730971 
L 229.143811 -167.876369 
L 229.141128 -170.021768 
L 229.121481 -172.167166 
L 229.071702 -174.312564 
L 228.978741 -176.457963 
L 228.833753 -178.603361 
L 228.636142 -180.74876 
L 228.395057 -182.894158 
L 228.126068 -185.039556 
L 227.842018 -187.184955 
L 227.539076 -189.330353 
L 227.181203 -191.475752 
L 226.688296 -193.62115 
L 225.934891 -195.766548 
L 224.766672 -197.911947 
L 223.039021 -200.057345 
L 220.673616 -202.202744 
L 217.716315 -204.348142 
L 214.369132 -206.493541 
L 210.970776 -208.638939 
L 207.919754 -210.784337 
L 205.563947 -212.929736 
L 204.102188 -215.075134 
L 203.540095 -217.220533 
L 203.71456 -219.365931 
L 204.367338 -221.511329 
L 205.229718 -223.656728 
L 206.08527 -225.802126 
L 206.79708 -227.947525 
L 207.304539 -230.092923 
L 207.603638 -232.238322 
L 207.72418 -234.38372 
L 207.712141 -236.529118 
L 207.619642 -238.674517 
L 207.500653 -240.819915 
L 207.408699 -242.965314 
L 207.393427 -245.110712 
L 207.495295 -247.25611 
L 207.740078 -249.401509 
L 208.136058 -251.546907 
L 208.676047 -253.692306 
L 209.343903 -255.837704 
L 210.12228 -257.983103 
L 210.996986 -260.128501 
L 211.955355 -262.273899 
L 212.980571 -264.419298 
L 214.047451 -266.564696 
L 215.124234 -268.710095 
L 216.179905 -270.855493 
L 217.191647 -273.000891 
L 218.146709 -275.14629 
L 219.037629 -277.291688 
L 219.855418 -279.437087 
L 220.587358 -281.582485 
L 221.222773 -283.727883 
L 221.763947 -285.873282 
L 222.234653 -288.01868 
L 222.679073 -290.164079 
L 223.149183 -292.309477 
L 223.685719 -294.454876 
L 224.301819 -296.600274 
L 224.977043 -298.745672 
L 225.66399 -300.891071 
L 226.304025 -303.036469 
L 226.845651 -305.181868 
L 227.259253 -307.327266 
L 227.544029 -309.472664 
L 227.725643 -311.618063 
L 227.845946 -313.763461 
L 227.948682 -315.90886 
L 228.066487 -318.054258 
L 228.213711 -320.199657 
L 228.386853 -322.345055 
L 228.57091 -324.490453 
L 228.747841 -326.635852 
L 228.903434 -328.78125 
L 229.030655 -330.926649 
L 229.129564 -333.072047 
L 229.205077 -335.217445 
L 229.264012 -337.362844 
L 229.312518 -339.508242 
L 229.354554 -341.653641 
L 229.391617 -343.799039 
L 229.423475 -345.944438 
L 229.449322 -348.089836 
L 229.468745 -350.235234 
L 229.482133 -352.380633 
L 229.517867 -352.380633 
L 229.517867 -352.380633 
L 229.531255 -350.235234 
L 229.550678 -348.089836 
L 229.576525 -345.944438 
L 229.608383 -343.799039 
L 229.645446 -341.653641 
L 229.687482 -339.508242 
L 229.735988 -337.362844 
L 229.794923 -335.217445 
L 229.870436 -333.072047 
L 229.969345 -330.926649 
L 230.096566 -328.78125 
L 230.252159 -326.635852 
L 230.42909 -324.490453 
L 230.613147 -322.345055 
L 230.786289 -320.199657 
L 230.933513 -318.054258 
L 231.051318 -315.90886 
L 231.154054 -313.763461 
L 231.274357 -311.618063 
L 231.455971 -309.472664 
L 231.740747 -307.327266 
L 232.154349 -305.181868 
L 232.695975 -303.036469 
L 233.33601 -300.891071 
L 234.022957 -298.745672 
L 234.698181 -296.600274 
L 235.314281 -294.454876 
L 235.850817 -292.309477 
L 236.320927 -290.164079 
L 236.765347 -288.01868 
L 237.236053 -285.873282 
L 237.777227 -283.727883 
L 238.412642 -281.582485 
L 239.144582 -279.437087 
L 239.962371 -277.291688 
L 240.853291 -275.14629 
L 241.808353 -273.000891 
L 242.820095 -270.855493 
L 243.875766 -268.710095 
L 244.952549 -266.564696 
L 246.019429 -264.419298 
L 247.044645 -262.273899 
L 248.003014 -260.128501 
L 248.87772 -257.983103 
L 249.656097 -255.837704 
L 250.323953 -253.692306 
L 250.863942 -251.546907 
L 251.259922 -249.401509 
L 251.504705 -247.25611 
L 251.606573 -245.110712 
L 251.591301 -242.965314 
L 251.499347 -240.819915 
L 251.380358 -238.674517 
L 251.287859 -236.529118 
L 251.27582 -234.38372 
L 251.396362 -232.238322 
L 251.695461 -230.092923 
L 252.20292 -227.947525 
L 252.91473 -225.802126 
L 253.770282 -223.656728 
L 254.632662 -221.511329 
L 255.28544 -219.365931 
L 255.459905 -217.220533 
L 254.897812 -215.075134 
L 253.436053 -212.929736 
L 251.080246 -210.784337 
L 248.029224 -208.638939 
L 244.630868 -206.493541 
L 241.283685 -204.348142 
L 238.326384 -202.202744 
L 235.960979 -200.057345 
L 234.233328 -197.911947 
L 233.065109 -195.766548 
L 232.311704 -193.62115 
L 231.818797 -191.475752 
L 231.460924 -189.330353 
L 231.157982 -187.184955 
L 230.873932 -185.039556 
L 230.604943 -182.894158 
L 230.363858 -180.74876 
L 230.166247 -178.603361 
L 230.021259 -176.457963 
L 229.928298 -174.312564 
L 229.878519 -172.167166 
L 229.858872 -170.021768 
L 229.856189 -167.876369 
L 229.859722 -165.730971 
L 229.861802 -163.585572 
L 229.857317 -161.440174 
L 229.843049 -159.294775 
L 229.81747 -157.149377 
L 229.780997 -155.003979 
L 229.736174 -152.85858 
L 229.687305 -150.713182 
L 229.639425 -148.567783 
L 229.596991 -146.422385 
L 229.562839 -144.276987 
L 229.537813 -142.131588 
L 229.521089 -139.98619 
z
" id="m0efd60fe23" style="stroke:#666666;stroke-width:2;"/>
    </defs>
    <g clip-path="url(#pbfb19d37cc)">
     <use style="fill:#96cac1;stroke:#666666;stroke-width:2;" x="0" xlink:href="#m0efd60fe23" y="432"/>
    </g>
   </g>
   <g id="PolyCollection_3">
    <defs>
     <path d="M 322.543135 -136.836355 
L 322.456865 -136.836355 
L 322.422596 -139.084909 
L 322.370352 -141.333464 
L 322.297243 -143.582018 
L 322.203812 -145.830573 
L 322.095622 -148.079127 
L 321.983583 -150.327681 
L 321.882329 -152.576236 
L 321.806679 -154.82479 
L 321.767195 -157.073345 
L 321.766462 -159.321899 
L 321.797534 -161.570454 
L 321.845172 -163.819008 
L 321.889305 -166.067563 
L 321.909468 -168.316117 
L 321.888837 -170.564672 
L 321.816929 -172.813226 
L 321.690548 -175.06178 
L 321.512993 -177.310335 
L 321.291757 -179.558889 
L 321.035232 -181.807444 
L 320.749111 -184.055998 
L 320.433166 -186.304553 
L 320.078831 -188.553107 
L 319.667533 -190.801662 
L 319.169549 -193.050216 
L 318.543468 -195.298771 
L 317.737173 -197.547325 
L 316.69196 -199.795879 
L 315.351309 -202.044434 
L 313.674395 -204.292988 
L 311.651975 -206.541543 
L 309.319895 -208.790097 
L 306.764617 -211.038652 
L 304.116851 -213.287206 
L 301.533412 -215.535761 
L 299.172046 -217.784315 
L 297.166907 -220.03287 
L 295.611941 -222.281424 
L 294.555702 -224.529978 
L 294.006214 -226.778533 
L 293.940761 -229.027087 
L 294.315022 -231.275642 
L 295.068443 -233.524196 
L 296.126432 -235.772751 
L 297.402444 -238.021305 
L 298.802986 -240.26986 
L 300.2364 -242.518414 
L 301.623582 -244.766969 
L 302.907371 -247.015523 
L 304.057659 -249.264077 
L 305.070996 -251.512632 
L 305.965286 -253.761186 
L 306.771476 -256.009741 
L 307.524434 -258.258295 
L 308.254898 -260.50685 
L 308.983704 -262.755404 
L 309.718794 -265.003959 
L 310.4549 -267.252513 
L 311.175505 -269.501068 
L 311.856729 -271.749622 
L 312.472931 -273.998176 
L 313.003619 -276.246731 
L 313.440436 -278.495285 
L 313.791925 -280.74384 
L 314.083474 -282.992394 
L 314.351249 -285.240949 
L 314.631612 -287.489503 
L 314.950169 -289.738058 
L 315.315213 -291.986612 
L 315.71833 -294.235167 
L 316.141339 -296.483721 
L 316.565588 -298.732275 
L 316.978936 -300.98083 
L 317.377612 -303.229384 
L 317.76331 -305.477939 
L 318.138351 -307.726493 
L 318.502107 -309.975048 
L 318.850431 -312.223602 
L 319.177612 -314.472157 
L 319.479121 -316.720711 
L 319.753504 -318.969266 
L 320.00286 -321.21782 
L 320.232263 -323.466374 
L 320.448669 -325.714929 
L 320.65951 -327.963483 
L 320.870942 -330.212038 
L 321.085981 -332.460592 
L 321.30324 -334.709147 
L 321.517027 -336.957701 
L 321.719007 -339.206256 
L 321.900768 -341.45481 
L 322.056177 -343.703365 
L 322.182604 -345.951919 
L 322.280811 -348.200474 
L 322.353942 -350.449028 
L 322.406286 -352.697582 
L 322.442301 -354.946137 
L 322.466061 -357.194691 
L 322.481018 -359.443246 
L 322.518982 -359.443246 
L 322.518982 -359.443246 
L 322.533939 -357.194691 
L 322.557699 -354.946137 
L 322.593714 -352.697582 
L 322.646058 -350.449028 
L 322.719189 -348.200474 
L 322.817396 -345.951919 
L 322.943823 -343.703365 
L 323.099232 -341.45481 
L 323.280993 -339.206256 
L 323.482973 -336.957701 
L 323.69676 -334.709147 
L 323.914019 -332.460592 
L 324.129058 -330.212038 
L 324.34049 -327.963483 
L 324.551331 -325.714929 
L 324.767737 -323.466374 
L 324.99714 -321.21782 
L 325.246496 -318.969266 
L 325.520879 -316.720711 
L 325.822388 -314.472157 
L 326.149569 -312.223602 
L 326.497893 -309.975048 
L 326.861649 -307.726493 
L 327.23669 -305.477939 
L 327.622388 -303.229384 
L 328.021064 -300.98083 
L 328.434412 -298.732275 
L 328.858661 -296.483721 
L 329.28167 -294.235167 
L 329.684787 -291.986612 
L 330.049831 -289.738058 
L 330.368388 -287.489503 
L 330.648751 -285.240949 
L 330.916526 -282.992394 
L 331.208075 -280.74384 
L 331.559564 -278.495285 
L 331.996381 -276.246731 
L 332.527069 -273.998176 
L 333.143271 -271.749622 
L 333.824495 -269.501068 
L 334.5451 -267.252513 
L 335.281206 -265.003959 
L 336.016296 -262.755404 
L 336.745102 -260.50685 
L 337.475566 -258.258295 
L 338.228524 -256.009741 
L 339.034714 -253.761186 
L 339.929004 -251.512632 
L 340.942341 -249.264077 
L 342.092629 -247.015523 
L 343.376418 -244.766969 
L 344.7636 -242.518414 
L 346.197014 -240.26986 
L 347.597556 -238.021305 
L 348.873568 -235.772751 
L 349.931557 -233.524196 
L 350.684978 -231.275642 
L 351.059239 -229.027087 
L 350.993786 -226.778533 
L 350.444298 -224.529978 
L 349.388059 -222.281424 
L 347.833093 -220.03287 
L 345.827954 -217.784315 
L 343.466588 -215.535761 
L 340.883149 -213.287206 
L 338.235383 -211.038652 
L 335.680105 -208.790097 
L 333.348025 -206.541543 
L 331.325605 -204.292988 
L 329.648691 -202.044434 
L 328.30804 -199.795879 
L 327.262827 -197.547325 
L 326.456532 -195.298771 
L 325.830451 -193.050216 
L 325.332467 -190.801662 
L 324.921169 -188.553107 
L 324.566834 -186.304553 
L 324.250889 -184.055998 
L 323.964768 -181.807444 
L 323.708243 -179.558889 
L 323.487007 -177.310335 
L 323.309452 -175.06178 
L 323.183071 -172.813226 
L 323.111163 -170.564672 
L 323.090532 -168.316117 
L 323.110695 -166.067563 
L 323.154828 -163.819008 
L 323.202466 -161.570454 
L 323.233538 -159.321899 
L 323.232805 -157.073345 
L 323.193321 -154.82479 
L 323.117671 -152.576236 
L 323.016417 -150.327681 
L 322.904378 -148.079127 
L 322.796188 -145.830573 
L 322.702757 -143.582018 
L 322.629648 -141.333464 
L 322.577404 -139.084909 
L 322.543135 -136.836355 
z
" id="m30a30af98f" style="stroke:#666666;stroke-width:2;"/>
    </defs>
    <g clip-path="url(#pbfb19d37cc)">
     <use style="fill:#eab375;stroke:#666666;stroke-width:2;" x="0" xlink:href="#m30a30af98f" y="432"/>
    </g>
   </g>
   <g id="PolyCollection_4">
    <defs>
     <path d="M 415.51603 -68.825455 
L 415.48397 -68.825455 
L 415.471249 -71.820496 
L 415.451662 -74.815537 
L 415.423589 -77.810579 
L 415.386023 -80.80562 
L 415.338878 -83.800661 
L 415.28308 -86.795702 
L 415.220419 -89.790744 
L 415.153321 -92.785785 
L 415.084754 -95.780826 
L 415.018349 -98.775868 
L 414.958494 -101.770909 
L 414.909961 -104.76595 
L 414.87671 -107.760992 
L 414.860064 -110.756033 
L 414.857068 -113.751074 
L 414.860101 -116.746116 
L 414.858391 -119.741157 
L 414.841078 -122.736198 
L 414.80056 -125.73124 
L 414.734499 -128.726281 
L 414.64548 -131.721322 
L 414.538477 -134.716364 
L 414.417446 -137.711405 
L 414.282864 -140.706446 
L 414.131472 -143.701488 
L 413.95824 -146.696529 
L 413.759318 -149.69157 
L 413.534294 -152.686612 
L 413.286654 -155.681653 
L 413.022442 -158.676694 
L 412.74797 -161.671736 
L 412.467429 -164.666777 
L 412.180745 -167.661818 
L 411.881702 -170.65686 
L 411.556606 -173.651901 
L 411.18438 -176.646942 
L 410.739034 -179.641983 
L 410.194541 -182.637025 
L 409.530745 -185.632066 
L 408.738135 -188.627107 
L 407.819942 -191.622149 
L 406.791642 -194.61719 
L 405.679422 -197.612231 
L 404.519171 -200.607273 
L 403.356132 -203.602314 
L 402.243475 -206.597355 
L 401.237435 -209.592397 
L 400.388007 -212.587438 
L 399.727143 -215.582479 
L 399.258921 -218.577521 
L 398.956671 -221.572562 
L 398.769551 -224.567603 
L 398.63699 -227.562645 
L 398.505807 -230.557686 
L 398.343989 -233.552727 
L 398.147234 -236.547769 
L 397.937925 -239.54281 
L 397.758783 -242.537851 
L 397.663868 -245.532893 
L 397.708388 -248.527934 
L 397.937854 -251.522975 
L 398.377428 -254.518017 
L 399.023782 -257.513058 
L 399.842657 -260.508099 
L 400.774489 -263.50314 
L 401.747673 -266.498182 
L 402.695663 -269.493223 
L 403.572014 -272.488264 
L 404.358017 -275.483306 
L 405.060727 -278.478347 
L 405.703294 -281.473388 
L 406.312612 -284.46843 
L 406.909756 -287.463471 
L 407.506423 -290.458512 
L 408.106974 -293.453554 
L 408.712792 -296.448595 
L 409.325097 -299.443636 
L 409.944323 -302.438678 
L 410.567077 -305.433719 
L 411.183598 -308.42876 
L 411.778211 -311.423802 
L 412.333181 -314.418843 
L 412.834047 -317.413884 
L 413.273643 -320.408926 
L 413.652941 -323.403967 
L 413.978726 -326.399008 
L 414.259737 -329.39405 
L 414.503322 -332.389091 
L 414.713965 -335.384132 
L 414.893715 -338.379174 
L 415.043654 -341.374215 
L 415.165262 -344.369256 
L 415.261036 -347.364298 
L 415.334341 -350.359339 
L 415.388887 -353.35438 
L 415.428258 -356.349421 
L 415.455676 -359.344463 
L 415.47396 -362.339504 
L 415.485536 -365.334545 
L 415.514464 -365.334545 
L 415.514464 -365.334545 
L 415.52604 -362.339504 
L 415.544324 -359.344463 
L 415.571742 -356.349421 
L 415.611113 -353.35438 
L 415.665659 -350.359339 
L 415.738964 -347.364298 
L 415.834738 -344.369256 
L 415.956346 -341.374215 
L 416.106285 -338.379174 
L 416.286035 -335.384132 
L 416.496678 -332.389091 
L 416.740263 -329.39405 
L 417.021274 -326.399008 
L 417.347059 -323.403967 
L 417.726357 -320.408926 
L 418.165953 -317.413884 
L 418.666819 -314.418843 
L 419.221789 -311.423802 
L 419.816402 -308.42876 
L 420.432923 -305.433719 
L 421.055677 -302.438678 
L 421.674903 -299.443636 
L 422.287208 -296.448595 
L 422.893026 -293.453554 
L 423.493577 -290.458512 
L 424.090244 -287.463471 
L 424.687388 -284.46843 
L 425.296706 -281.473388 
L 425.939273 -278.478347 
L 426.641983 -275.483306 
L 427.427986 -272.488264 
L 428.304337 -269.493223 
L 429.252327 -266.498182 
L 430.225511 -263.50314 
L 431.157343 -260.508099 
L 431.976218 -257.513058 
L 432.622572 -254.518017 
L 433.062146 -251.522975 
L 433.291612 -248.527934 
L 433.336132 -245.532893 
L 433.241217 -242.537851 
L 433.062075 -239.54281 
L 432.852766 -236.547769 
L 432.656011 -233.552727 
L 432.494193 -230.557686 
L 432.36301 -227.562645 
L 432.230449 -224.567603 
L 432.043329 -221.572562 
L 431.741079 -218.577521 
L 431.272857 -215.582479 
L 430.611993 -212.587438 
L 429.762565 -209.592397 
L 428.756525 -206.597355 
L 427.643868 -203.602314 
L 426.480829 -200.607273 
L 425.320578 -197.612231 
L 424.208358 -194.61719 
L 423.180058 -191.622149 
L 422.261865 -188.627107 
L 421.469255 -185.632066 
L 420.805459 -182.637025 
L 420.260966 -179.641983 
L 419.81562 -176.646942 
L 419.443394 -173.651901 
L 419.118298 -170.65686 
L 418.819255 -167.661818 
L 418.532571 -164.666777 
L 418.25203 -161.671736 
L 417.977558 -158.676694 
L 417.713346 -155.681653 
L 417.465706 -152.686612 
L 417.240682 -149.69157 
L 417.04176 -146.696529 
L 416.868528 -143.701488 
L 416.717136 -140.706446 
L 416.582554 -137.711405 
L 416.461523 -134.716364 
L 416.35452 -131.721322 
L 416.265501 -128.726281 
L 416.19944 -125.73124 
L 416.158922 -122.736198 
L 416.141609 -119.741157 
L 416.139899 -116.746116 
L 416.142932 -113.751074 
L 416.139936 -110.756033 
L 416.12329 -107.760992 
L 416.090039 -104.76595 
L 416.041506 -101.770909 
L 415.981651 -98.775868 
L 415.915246 -95.780826 
L 415.846679 -92.785785 
L 415.779581 -89.790744 
L 415.71692 -86.795702 
L 415.661122 -83.800661 
L 415.613977 -80.80562 
L 415.576411 -77.810579 
L 415.548338 -74.815537 
L 415.528751 -71.820496 
L 415.51603 -68.825455 
z
" id="m05edc4ecae" style="stroke:#666666;stroke-width:2;"/>
    </defs>
    <g clip-path="url(#pbfb19d37cc)">
     <use style="fill:#c1bed6;stroke:#666666;stroke-width:2;" x="0" xlink:href="#m05edc4ecae" y="432"/>
    </g>
   </g>
   <g id="PolyCollection_5">
    <defs>
     <path d="M 508.526099 -120.402782 
L 508.473901 -120.402782 
L 508.456573 -122.85678 
L 508.432229 -125.310777 
L 508.400654 -127.764775 
L 508.362899 -130.218772 
L 508.321322 -132.67277 
L 508.279111 -135.126767 
L 508.239358 -137.580764 
L 508.203963 -140.034762 
L 508.172835 -142.488759 
L 508.143762 -144.942757 
L 508.113088 -147.396754 
L 508.076992 -149.850752 
L 508.032893 -152.304749 
L 507.980432 -154.758747 
L 507.921573 -157.212744 
L 507.859683 -159.666742 
L 507.79782 -162.120739 
L 507.736841 -164.574737 
L 507.674125 -167.028734 
L 507.603619 -169.482732 
L 507.51743 -171.936729 
L 507.408544 -174.390727 
L 507.273633 -176.844724 
L 507.114706 -179.298721 
L 506.938593 -181.752719 
L 506.753964 -184.206716 
L 506.566517 -186.660714 
L 506.373811 -189.114711 
L 506.161657 -191.568709 
L 505.903746 -194.022706 
L 505.565298 -196.476704 
L 505.110108 -198.930701 
L 504.509028 -201.384699 
L 503.747238 -203.838696 
L 502.827943 -206.292694 
L 501.771476 -208.746691 
L 500.610493 -211.200689 
L 499.38336 -213.654686 
L 498.12815 -216.108684 
L 496.878918 -218.562681 
L 495.664484 -221.016678 
L 494.508759 -223.470676 
L 493.431233 -225.924673 
L 492.446722 -228.378671 
L 491.56441 -230.832668 
L 490.787007 -233.286666 
L 490.111111 -235.740663 
L 489.529502 -238.194661 
L 489.035305 -240.648658 
L 488.626873 -243.102656 
L 488.311316 -245.556653 
L 488.104483 -248.010651 
L 488.026263 -250.464648 
L 488.092284 -252.918646 
L 488.305348 -255.372643 
L 488.650875 -257.826641 
L 489.099203 -260.280638 
L 489.614411 -262.734635 
L 490.165909 -265.188633 
L 490.73748 -267.64263 
L 491.329551 -270.096628 
L 491.953815 -272.550625 
L 492.622988 -275.004623 
L 493.340682 -277.45862 
L 494.09608 -279.912618 
L 494.865502 -282.366615 
L 495.619601 -284.820613 
L 496.332466 -287.27461 
L 496.988498 -289.728608 
L 497.584475 -292.182605 
L 498.126818 -294.636603 
L 498.626195 -297.0906 
L 499.09241 -299.544598 
L 499.531854 -301.998595 
L 499.948139 -304.452592 
L 500.344895 -306.90659 
L 500.728649 -309.360587 
L 501.109832 -311.814585 
L 501.501024 -314.268582 
L 501.913107 -316.72258 
L 502.351247 -319.176577 
L 502.812794 -321.630575 
L 503.288286 -324.084572 
L 503.765101 -326.53857 
L 504.232031 -328.992567 
L 504.682672 -331.446565 
L 505.116278 -333.900562 
L 505.53598 -336.35456 
L 505.945428 -338.808557 
L 506.345439 -341.262555 
L 506.732054 -343.716552 
L 507.096689 -346.170549 
L 507.42821 -348.624547 
L 507.716033 -351.078544 
L 507.953022 -353.532542 
L 508.137213 -355.986539 
L 508.271903 -358.440537 
L 508.364369 -360.894534 
L 508.423873 -363.348532 
L 508.576127 -363.348532 
L 508.576127 -363.348532 
L 508.635631 -360.894534 
L 508.728097 -358.440537 
L 508.862787 -355.986539 
L 509.046978 -353.532542 
L 509.283967 -351.078544 
L 509.57179 -348.624547 
L 509.903311 -346.170549 
L 510.267946 -343.716552 
L 510.654561 -341.262555 
L 511.054572 -338.808557 
L 511.46402 -336.35456 
L 511.883722 -333.900562 
L 512.317328 -331.446565 
L 512.767969 -328.992567 
L 513.234899 -326.53857 
L 513.711714 -324.084572 
L 514.187206 -321.630575 
L 514.648753 -319.176577 
L 515.086893 -316.72258 
L 515.498976 -314.268582 
L 515.890168 -311.814585 
L 516.271351 -309.360587 
L 516.655105 -306.90659 
L 517.051861 -304.452592 
L 517.468146 -301.998595 
L 517.90759 -299.544598 
L 518.373805 -297.0906 
L 518.873182 -294.636603 
L 519.415525 -292.182605 
L 520.011502 -289.728608 
L 520.667534 -287.27461 
L 521.380399 -284.820613 
L 522.134498 -282.366615 
L 522.90392 -279.912618 
L 523.659318 -277.45862 
L 524.377012 -275.004623 
L 525.046185 -272.550625 
L 525.670449 -270.096628 
L 526.26252 -267.64263 
L 526.834091 -265.188633 
L 527.385589 -262.734635 
L 527.900797 -260.280638 
L 528.349125 -257.826641 
L 528.694652 -255.372643 
L 528.907716 -252.918646 
L 528.973737 -250.464648 
L 528.895517 -248.010651 
L 528.688684 -245.556653 
L 528.373127 -243.102656 
L 527.964695 -240.648658 
L 527.470498 -238.194661 
L 526.888889 -235.740663 
L 526.212993 -233.286666 
L 525.43559 -230.832668 
L 524.553278 -228.378671 
L 523.568767 -225.924673 
L 522.491241 -223.470676 
L 521.335516 -221.016678 
L 520.121082 -218.562681 
L 518.87185 -216.108684 
L 517.61664 -213.654686 
L 516.389507 -211.200689 
L 515.228524 -208.746691 
L 514.172057 -206.292694 
L 513.252762 -203.838696 
L 512.490972 -201.384699 
L 511.889892 -198.930701 
L 511.434702 -196.476704 
L 511.096254 -194.022706 
L 510.838343 -191.568709 
L 510.626189 -189.114711 
L 510.433483 -186.660714 
L 510.246036 -184.206716 
L 510.061407 -181.752719 
L 509.885294 -179.298721 
L 509.726367 -176.844724 
L 509.591456 -174.390727 
L 509.48257 -171.936729 
L 509.396381 -169.482732 
L 509.325875 -167.028734 
L 509.263159 -164.574737 
L 509.20218 -162.120739 
L 509.140317 -159.666742 
L 509.078427 -157.212744 
L 509.019568 -154.758747 
L 508.967107 -152.304749 
L 508.923008 -149.850752 
L 508.886912 -147.396754 
L 508.856238 -144.942757 
L 508.827165 -142.488759 
L 508.796037 -140.034762 
L 508.760642 -137.580764 
L 508.720889 -135.126767 
L 508.678678 -132.67277 
L 508.637101 -130.218772 
L 508.599346 -127.764775 
L 508.567771 -125.310777 
L 508.543427 -122.85678 
L 508.526099 -120.402782 
z
" id="mce11a070c5" style="stroke:#666666;stroke-width:2;"/>
    </defs>
    <g clip-path="url(#pbfb19d37cc)">
     <use style="fill:#8aafc9;stroke:#666666;stroke-width:2;" x="0" xlink:href="#mce11a070c5" y="432"/>
    </g>
   </g>
   <g id="PolyCollection_6">
    <defs>
     <path d="M 601.516761 -116.563046 
L 601.483239 -116.563046 
L 601.470261 -118.912714 
L 601.452095 -121.262383 
L 601.42994 -123.612052 
L 601.406974 -125.961721 
L 601.387852 -128.311389 
L 601.377229 -130.661058 
L 601.377897 -133.010727 
L 601.389472 -135.360396 
L 601.408356 -137.710064 
L 601.428828 -140.059733 
L 601.444502 -142.409402 
L 601.449262 -144.759071 
L 601.437476 -147.108739 
L 601.404064 -149.458408 
L 601.345205 -151.808077 
L 601.259914 -154.157746 
L 601.151653 -156.507414 
L 601.028507 -158.857083 
L 600.900865 -161.206752 
L 600.777105 -163.556421 
L 600.659378 -165.906089 
L 600.54203 -168.255758 
L 600.413928 -170.605427 
L 600.263679 -172.955095 
L 600.084951 -175.304764 
L 599.878807 -177.654433 
L 599.651237 -180.004102 
L 599.405944 -182.35377 
L 599.133899 -184.703439 
L 598.8017 -187.053108 
L 598.34072 -189.402777 
L 597.639461 -191.752445 
L 596.54331 -194.102114 
L 594.868568 -196.451783 
L 592.438389 -198.801452 
L 589.142908 -201.15112 
L 585.012113 -203.500789 
L 580.273074 -205.850458 
L 575.355314 -208.200127 
L 570.821602 -210.549795 
L 567.235081 -212.899464 
L 565.009188 -215.249133 
L 564.3 -217.598802 
L 564.981683 -219.94847 
L 566.707555 -222.298139 
L 569.026007 -224.647808 
L 571.507107 -226.997477 
L 573.840696 -229.347145 
L 575.881191 -231.696814 
L 577.633083 -234.046483 
L 579.19176 -236.396152 
L 580.670661 -238.74582 
L 582.147888 -241.095489 
L 583.649568 -243.445158 
L 585.163423 -245.794827 
L 586.660885 -248.144495 
L 588.109259 -250.494164 
L 589.471052 -252.843833 
L 590.700877 -255.193502 
L 591.75113 -257.54317 
L 592.587901 -259.892839 
L 593.208215 -262.242508 
L 593.647267 -264.592177 
L 593.970299 -266.941845 
L 594.252659 -269.291514 
L 594.557107 -271.641183 
L 594.917551 -273.990852 
L 595.334617 -276.34052 
L 595.783275 -278.690189 
L 596.228045 -281.039858 
L 596.638605 -283.389527 
L 596.999188 -285.739195 
L 597.309102 -288.088864 
L 597.576684 -290.438533 
L 597.811649 -292.788202 
L 598.019904 -295.13787 
L 598.202272 -297.487539 
L 598.356597 -299.837208 
L 598.482051 -302.186877 
L 598.583939 -304.536545 
L 598.676442 -306.886214 
L 598.780799 -309.235883 
L 598.91855 -311.585552 
L 599.102701 -313.93522 
L 599.331679 -316.284889 
L 599.58979 -318.634558 
L 599.85417 -320.984227 
L 600.104348 -323.333895 
L 600.329177 -325.683564 
L 600.527875 -328.033233 
L 600.705751 -330.382902 
L 600.868178 -332.73257 
L 601.016611 -335.082239 
L 601.148326 -337.431908 
L 601.258922 -339.781577 
L 601.345345 -342.131245 
L 601.407624 -344.480914 
L 601.448824 -346.830583 
L 601.473785 -349.180252 
L 601.526215 -349.180252 
L 601.526215 -349.180252 
L 601.551176 -346.830583 
L 601.592376 -344.480914 
L 601.654655 -342.131245 
L 601.741078 -339.781577 
L 601.851674 -337.431908 
L 601.983389 -335.082239 
L 602.131822 -332.73257 
L 602.294249 -330.382902 
L 602.472125 -328.033233 
L 602.670823 -325.683564 
L 602.895652 -323.333895 
L 603.14583 -320.984227 
L 603.41021 -318.634558 
L 603.668321 -316.284889 
L 603.897299 -313.93522 
L 604.08145 -311.585552 
L 604.219201 -309.235883 
L 604.323558 -306.886214 
L 604.416061 -304.536545 
L 604.517949 -302.186877 
L 604.643403 -299.837208 
L 604.797728 -297.487539 
L 604.980096 -295.13787 
L 605.188351 -292.788202 
L 605.423316 -290.438533 
L 605.690898 -288.088864 
L 606.000812 -285.739195 
L 606.361395 -283.389527 
L 606.771955 -281.039858 
L 607.216725 -278.690189 
L 607.665383 -276.34052 
L 608.082449 -273.990852 
L 608.442893 -271.641183 
L 608.747341 -269.291514 
L 609.029701 -266.941845 
L 609.352733 -264.592177 
L 609.791785 -262.242508 
L 610.412099 -259.892839 
L 611.24887 -257.54317 
L 612.299123 -255.193502 
L 613.528948 -252.843833 
L 614.890741 -250.494164 
L 616.339115 -248.144495 
L 617.836577 -245.794827 
L 619.350432 -243.445158 
L 620.852112 -241.095489 
L 622.329339 -238.74582 
L 623.80824 -236.396152 
L 625.366917 -234.046483 
L 627.118809 -231.696814 
L 629.159304 -229.347145 
L 631.492893 -226.997477 
L 633.973993 -224.647808 
L 636.292445 -222.298139 
L 638.018317 -219.94847 
L 638.7 -217.598802 
L 637.990812 -215.249133 
L 635.764919 -212.899464 
L 632.178398 -210.549795 
L 627.644686 -208.200127 
L 622.726926 -205.850458 
L 617.987887 -203.500789 
L 613.857092 -201.15112 
L 610.561611 -198.801452 
L 608.131432 -196.451783 
L 606.45669 -194.102114 
L 605.360539 -191.752445 
L 604.65928 -189.402777 
L 604.1983 -187.053108 
L 603.866101 -184.703439 
L 603.594056 -182.35377 
L 603.348763 -180.004102 
L 603.121193 -177.654433 
L 602.915049 -175.304764 
L 602.736321 -172.955095 
L 602.586072 -170.605427 
L 602.45797 -168.255758 
L 602.340622 -165.906089 
L 602.222895 -163.556421 
L 602.099135 -161.206752 
L 601.971493 -158.857083 
L 601.848347 -156.507414 
L 601.740086 -154.157746 
L 601.654795 -151.808077 
L 601.595936 -149.458408 
L 601.562524 -147.108739 
L 601.550738 -144.759071 
L 601.555498 -142.409402 
L 601.571172 -140.059733 
L 601.591644 -137.710064 
L 601.610528 -135.360396 
L 601.622103 -133.010727 
L 601.622771 -130.661058 
L 601.612148 -128.311389 
L 601.593026 -125.961721 
L 601.57006 -123.612052 
L 601.547905 -121.262383 
L 601.529739 -118.912714 
L 601.516761 -116.563046 
z
" id="maf05b882f3" style="stroke:#666666;stroke-width:2;"/>
    </defs>
    <g clip-path="url(#pbfb19d37cc)">
     <use style="fill:#f6f6bc;stroke:#666666;stroke-width:2;" x="0" xlink:href="#maf05b882f3" y="432"/>
    </g>
   </g>
   <g id="line2d_12">
    <path clip-path="url(#pbfb19d37cc)" d="M 136.5 269.836043 
L 136.5 88.049404 
" style="fill:none;stroke:#666666;stroke-linecap:round;stroke-width:2;"/>
   </g>
   <g id="line2d_13">
    <path clip-path="url(#pbfb19d37cc)" d="M 136.5 194.624708 
L 136.5 143.427405 
" style="fill:none;stroke:#666666;stroke-linecap:round;stroke-width:6;"/>
   </g>
   <g id="line2d_14">
    <path clip-path="url(#pbfb19d37cc)" d="M 229.5 272.396669 
L 229.5 111.887075 
" style="fill:none;stroke:#666666;stroke-linecap:round;stroke-width:2;"/>
   </g>
   <g id="line2d_15">
    <path clip-path="url(#pbfb19d37cc)" d="M 229.5 212.356664 
L 229.5 171.581165 
" style="fill:none;stroke:#666666;stroke-linecap:round;stroke-width:6;"/>
   </g>
   <g id="line2d_16">
    <path clip-path="url(#pbfb19d37cc)" d="M 322.5 265.37305 
L 322.5 111.263391 
" style="fill:none;stroke:#666666;stroke-linecap:round;stroke-width:2;"/>
   </g>
   <g id="line2d_17">
    <path clip-path="url(#pbfb19d37cc)" d="M 322.5 208.68294 
L 322.5 169.420466 
" style="fill:none;stroke:#666666;stroke-linecap:round;stroke-width:6;"/>
   </g>
   <g id="line2d_18">
    <path clip-path="url(#pbfb19d37cc)" d="M 415.5 294.877641 
L 415.5 97.517471 
" style="fill:none;stroke:#666666;stroke-linecap:round;stroke-width:2;"/>
   </g>
   <g id="line2d_19">
    <path clip-path="url(#pbfb19d37cc)" d="M 415.5 219.330571 
L 415.5 168.85422 
" style="fill:none;stroke:#666666;stroke-linecap:round;stroke-width:6;"/>
   </g>
   <g id="line2d_20">
    <path clip-path="url(#pbfb19d37cc)" d="M 508.5 265.779623 
L 508.5 87.420956 
" style="fill:none;stroke:#666666;stroke-linecap:round;stroke-width:2;"/>
   </g>
   <g id="line2d_21">
    <path clip-path="url(#pbfb19d37cc)" d="M 508.5 197.112574 
L 508.5 150.545358 
" style="fill:none;stroke:#666666;stroke-linecap:round;stroke-width:6;"/>
   </g>
   <g id="line2d_22">
    <path clip-path="url(#pbfb19d37cc)" d="M 601.5 264.495329 
L 601.5 139.252421 
" style="fill:none;stroke:#666666;stroke-linecap:round;stroke-width:2;"/>
   </g>
   <g id="line2d_23">
    <path clip-path="url(#pbfb19d37cc)" d="M 601.5 217.404922 
L 601.5 185.510608 
" style="fill:none;stroke:#666666;stroke-linecap:round;stroke-width:6;"/>
   </g>
   <g id="patch_3">
    <path d="M 90 378 
L 90 51.84 
" style="fill:none;stroke:#262626;stroke-linecap:square;stroke-linejoin:miter;"/>
   </g>
   <g id="patch_4">
    <path d="M 648 378 
L 648 51.84 
" style="fill:none;stroke:#262626;stroke-linecap:square;stroke-linejoin:miter;"/>
   </g>
   <g id="patch_5">
    <path d="M 90 378 
L 648 378 
" style="fill:none;stroke:#262626;stroke-linecap:square;stroke-linejoin:miter;"/>
   </g>
   <g id="patch_6">
    <path d="M 90 51.84 
L 648 51.84 
" style="fill:none;stroke:#262626;stroke-linecap:square;stroke-linejoin:miter;"/>
   </g>
   <g id="PathCollection_1">
    <defs>
     <path d="M 0 2 
C 0.530406 2 1.03916 1.789267 1.414214 1.414214 
C 1.789267 1.03916 2 0.530406 2 0 
C 2 -0.530406 1.789267 -1.03916 1.414214 -1.414214 
C 1.03916 -1.789267 0.530406 -2 0 -2 
C -0.530406 -2 -1.03916 -1.789267 -1.414214 -1.414214 
C -1.789267 -1.03916 -2 -0.530406 -2 0 
C -2 0.530406 -1.789267 1.03916 -1.414214 1.414214 
C -1.03916 1.789267 -0.530406 2 0 2 
z
" id="m9253c4e788" style="stroke:#666666;stroke-width:0.8;"/>
    </defs>
    <g clip-path="url(#pbfb19d37cc)">
     <use style="fill:#ffffff;stroke:#666666;stroke-width:0.8;" x="136.5" xlink:href="#m9253c4e788" y="170.172458"/>
    </g>
   </g>
   <g id="PathCollection_2">
    <g clip-path="url(#pbfb19d37cc)">
     <use style="fill:#ffffff;stroke:#666666;stroke-width:0.8;" x="229.5" xlink:href="#m9253c4e788" y="191.587724"/>
    </g>
   </g>
   <g id="PathCollection_3">
    <g clip-path="url(#pbfb19d37cc)">
     <use style="fill:#ffffff;stroke:#666666;stroke-width:0.8;" x="322.5" xlink:href="#m9253c4e788" y="194.460353"/>
    </g>
   </g>
   <g id="PathCollection_4">
    <g clip-path="url(#pbfb19d37cc)">
     <use style="fill:#ffffff;stroke:#666666;stroke-width:0.8;" x="415.5" xlink:href="#m9253c4e788" y="193.43435"/>
    </g>
   </g>
   <g id="PathCollection_5">
    <g clip-path="url(#pbfb19d37cc)">
     <use style="fill:#ffffff;stroke:#666666;stroke-width:0.8;" x="508.5" xlink:href="#m9253c4e788" y="176.095181"/>
    </g>
   </g>
   <g id="PathCollection_6">
    <g clip-path="url(#pbfb19d37cc)">
     <use style="fill:#ffffff;stroke:#666666;stroke-width:0.8;" x="601.5" xlink:href="#m9253c4e788" y="206.993568"/>
    </g>
   </g>
  </g>
 </g>
 <defs>
  <clipPath id="pbfb19d37cc">
   <rect height="326.16" width="558" x="90" y="51.84"/>
  </clipPath>
 </defs>
</svg>
