<?xml version="1.0" encoding="utf-8" standalone="no"?>
<!DOCTYPE svg PUBLIC "-//W3C//DTD SVG 1.1//EN"
  "http://www.w3.org/Graphics/SVG/1.1/DTD/svg11.dtd">
<!-- Created with matplotlib (https://matplotlib.org/) -->
<svg height="432pt" version="1.1" viewBox="0 0 720 432" width="720pt" xmlns="http://www.w3.org/2000/svg" xmlns:xlink="http://www.w3.org/1999/xlink">
 <defs>
  <style type="text/css">
*{stroke-linecap:butt;stroke-linejoin:round;}
  </style>
 </defs>
 <g id="figure_1">
  <g id="patch_1">
   <path d="M 0 432 
L 720 432 
L 720 0 
L 0 0 
z
" style="fill:#ffffff;"/>
  </g>
  <g id="axes_1">
   <g id="patch_2">
    <path d="M 90 378 
L 648 378 
L 648 51.84 
L 90 51.84 
z
" style="fill:#ffffff;"/>
   </g>
   <g id="matplotlib.axis_1">
    <g id="xtick_1">
     <g id="line2d_1">
      <defs>
       <path d="M 0 0 
L 0 4.8 
" id="mda25b985c2" style="stroke:#262626;"/>
      </defs>
      <g>
       <use style="fill:#262626;stroke:#262626;" x="183" xlink:href="#mda25b985c2" y="378"/>
      </g>
     </g>
     <g id="text_1">
      <!-- mhc -->
      <defs>
       <path d="M 6.59375 0 
L 6.59375 51.859375 
L 14.453125 51.859375 
L 14.453125 44.578125 
Q 16.890625 48.390625 20.9375 50.703125 
Q 25 53.03125 30.171875 53.03125 
Q 35.9375 53.03125 39.625 50.640625 
Q 43.3125 48.25 44.828125 43.953125 
Q 50.984375 53.03125 60.84375 53.03125 
Q 68.5625 53.03125 72.703125 48.75 
Q 76.859375 44.484375 76.859375 35.59375 
L 76.859375 0 
L 68.109375 0 
L 68.109375 32.671875 
Q 68.109375 37.9375 67.25 40.25 
Q 66.40625 42.578125 64.15625 43.984375 
Q 61.921875 45.40625 58.890625 45.40625 
Q 53.421875 45.40625 49.796875 41.765625 
Q 46.1875 38.140625 46.1875 30.125 
L 46.1875 0 
L 37.40625 0 
L 37.40625 33.6875 
Q 37.40625 39.546875 35.25 42.46875 
Q 33.109375 45.40625 28.21875 45.40625 
Q 24.515625 45.40625 21.359375 43.453125 
Q 18.21875 41.5 16.796875 37.734375 
Q 15.375 33.984375 15.375 26.90625 
L 15.375 0 
z
" id="ArialMT-109"/>
       <path d="M 6.59375 0 
L 6.59375 71.578125 
L 15.375 71.578125 
L 15.375 45.90625 
Q 21.53125 53.03125 30.90625 53.03125 
Q 36.671875 53.03125 40.921875 50.75 
Q 45.171875 48.484375 47 44.484375 
Q 48.828125 40.484375 48.828125 32.859375 
L 48.828125 0 
L 40.046875 0 
L 40.046875 32.859375 
Q 40.046875 39.453125 37.1875 42.453125 
Q 34.328125 45.453125 29.109375 45.453125 
Q 25.203125 45.453125 21.75 43.421875 
Q 18.3125 41.40625 16.84375 37.9375 
Q 15.375 34.46875 15.375 28.375 
L 15.375 0 
z
" id="ArialMT-104"/>
       <path d="M 40.4375 19 
L 49.078125 17.875 
Q 47.65625 8.9375 41.8125 3.875 
Q 35.984375 -1.171875 27.484375 -1.171875 
Q 16.84375 -1.171875 10.375 5.78125 
Q 3.90625 12.75 3.90625 25.734375 
Q 3.90625 34.125 6.6875 40.421875 
Q 9.46875 46.734375 15.15625 49.875 
Q 20.84375 53.03125 27.546875 53.03125 
Q 35.984375 53.03125 41.359375 48.75 
Q 46.734375 44.484375 48.25 36.625 
L 39.703125 35.296875 
Q 38.484375 40.53125 35.375 43.15625 
Q 32.28125 45.796875 27.875 45.796875 
Q 21.234375 45.796875 17.078125 41.03125 
Q 12.9375 36.28125 12.9375 25.984375 
Q 12.9375 15.53125 16.9375 10.796875 
Q 20.953125 6.0625 27.390625 6.0625 
Q 32.5625 6.0625 36.03125 9.234375 
Q 39.5 12.40625 40.4375 19 
z
" id="ArialMT-99"/>
      </defs>
      <g style="fill:#262626;" transform="translate(177.474423 387.940682)rotate(-280)scale(0.132 -0.132)">
       <use xlink:href="#ArialMT-109"/>
       <use x="83.300781" xlink:href="#ArialMT-104"/>
       <use x="138.916016" xlink:href="#ArialMT-99"/>
      </g>
     </g>
    </g>
    <g id="xtick_2">
     <g id="line2d_2">
      <g>
       <use style="fill:#262626;stroke:#262626;" x="369" xlink:href="#mda25b985c2" y="378"/>
      </g>
     </g>
     <g id="text_2">
      <!-- chembl -->
      <defs>
       <path d="M 42.09375 16.703125 
L 51.171875 15.578125 
Q 49.03125 7.625 43.21875 3.21875 
Q 37.40625 -1.171875 28.375 -1.171875 
Q 17 -1.171875 10.328125 5.828125 
Q 3.65625 12.84375 3.65625 25.484375 
Q 3.65625 38.578125 10.390625 45.796875 
Q 17.140625 53.03125 27.875 53.03125 
Q 38.28125 53.03125 44.875 45.953125 
Q 51.46875 38.875 51.46875 26.03125 
Q 51.46875 25.25 51.421875 23.6875 
L 12.75 23.6875 
Q 13.234375 15.140625 17.578125 10.59375 
Q 21.921875 6.0625 28.421875 6.0625 
Q 33.25 6.0625 36.671875 8.59375 
Q 40.09375 11.140625 42.09375 16.703125 
z
M 13.234375 30.90625 
L 42.1875 30.90625 
Q 41.609375 37.453125 38.875 40.71875 
Q 34.671875 45.796875 27.984375 45.796875 
Q 21.921875 45.796875 17.796875 41.75 
Q 13.671875 37.703125 13.234375 30.90625 
z
" id="ArialMT-101"/>
       <path d="M 14.703125 0 
L 6.546875 0 
L 6.546875 71.578125 
L 15.328125 71.578125 
L 15.328125 46.046875 
Q 20.90625 53.03125 29.546875 53.03125 
Q 34.328125 53.03125 38.59375 51.09375 
Q 42.875 49.171875 45.625 45.671875 
Q 48.390625 42.1875 49.953125 37.25 
Q 51.515625 32.328125 51.515625 26.703125 
Q 51.515625 13.375 44.921875 6.09375 
Q 38.328125 -1.171875 29.109375 -1.171875 
Q 19.921875 -1.171875 14.703125 6.5 
z
M 14.59375 26.3125 
Q 14.59375 17 17.140625 12.84375 
Q 21.296875 6.0625 28.375 6.0625 
Q 34.125 6.0625 38.328125 11.0625 
Q 42.53125 16.0625 42.53125 25.984375 
Q 42.53125 36.140625 38.5 40.96875 
Q 34.46875 45.796875 28.765625 45.796875 
Q 23 45.796875 18.796875 40.796875 
Q 14.59375 35.796875 14.59375 26.3125 
z
" id="ArialMT-98"/>
       <path d="M 6.390625 0 
L 6.390625 71.578125 
L 15.1875 71.578125 
L 15.1875 0 
z
" id="ArialMT-108"/>
      </defs>
      <g style="fill:#262626;" transform="translate(361.945125 387.940682)rotate(-280)scale(0.132 -0.132)">
       <use xlink:href="#ArialMT-99"/>
       <use x="50" xlink:href="#ArialMT-104"/>
       <use x="105.615234" xlink:href="#ArialMT-101"/>
       <use x="161.230469" xlink:href="#ArialMT-109"/>
       <use x="244.53125" xlink:href="#ArialMT-98"/>
       <use x="300.146484" xlink:href="#ArialMT-108"/>
      </g>
     </g>
    </g>
    <g id="xtick_3">
     <g id="line2d_3">
      <g>
       <use style="fill:#262626;stroke:#262626;" x="555" xlink:href="#mda25b985c2" y="378"/>
      </g>
     </g>
     <g id="text_3">
      <!-- pubchemtox -->
      <defs>
       <path d="M 6.59375 -19.875 
L 6.59375 51.859375 
L 14.59375 51.859375 
L 14.59375 45.125 
Q 17.4375 49.078125 21 51.046875 
Q 24.5625 53.03125 29.640625 53.03125 
Q 36.28125 53.03125 41.359375 49.609375 
Q 46.4375 46.1875 49.015625 39.953125 
Q 51.609375 33.734375 51.609375 26.3125 
Q 51.609375 18.359375 48.75 11.984375 
Q 45.90625 5.609375 40.453125 2.21875 
Q 35.015625 -1.171875 29 -1.171875 
Q 24.609375 -1.171875 21.109375 0.6875 
Q 17.625 2.546875 15.375 5.375 
L 15.375 -19.875 
z
M 14.546875 25.640625 
Q 14.546875 15.625 18.59375 10.84375 
Q 22.65625 6.0625 28.421875 6.0625 
Q 34.28125 6.0625 38.453125 11.015625 
Q 42.625 15.96875 42.625 26.375 
Q 42.625 36.28125 38.546875 41.203125 
Q 34.46875 46.140625 28.8125 46.140625 
Q 23.1875 46.140625 18.859375 40.890625 
Q 14.546875 35.640625 14.546875 25.640625 
z
" id="ArialMT-112"/>
       <path d="M 40.578125 0 
L 40.578125 7.625 
Q 34.515625 -1.171875 24.125 -1.171875 
Q 19.53125 -1.171875 15.546875 0.578125 
Q 11.578125 2.34375 9.640625 5 
Q 7.71875 7.671875 6.9375 11.53125 
Q 6.390625 14.109375 6.390625 19.734375 
L 6.390625 51.859375 
L 15.1875 51.859375 
L 15.1875 23.09375 
Q 15.1875 16.21875 15.71875 13.8125 
Q 16.546875 10.359375 19.234375 8.375 
Q 21.921875 6.390625 25.875 6.390625 
Q 29.828125 6.390625 33.296875 8.421875 
Q 36.765625 10.453125 38.203125 13.9375 
Q 39.65625 17.4375 39.65625 24.078125 
L 39.65625 51.859375 
L 48.4375 51.859375 
L 48.4375 0 
z
" id="ArialMT-117"/>
       <path d="M 25.78125 7.859375 
L 27.046875 0.09375 
Q 23.34375 -0.6875 20.40625 -0.6875 
Q 15.625 -0.6875 12.984375 0.828125 
Q 10.359375 2.34375 9.28125 4.8125 
Q 8.203125 7.28125 8.203125 15.1875 
L 8.203125 45.015625 
L 1.765625 45.015625 
L 1.765625 51.859375 
L 8.203125 51.859375 
L 8.203125 64.703125 
L 16.9375 69.96875 
L 16.9375 51.859375 
L 25.78125 51.859375 
L 25.78125 45.015625 
L 16.9375 45.015625 
L 16.9375 14.703125 
Q 16.9375 10.9375 17.40625 9.859375 
Q 17.875 8.796875 18.921875 8.15625 
Q 19.96875 7.515625 21.921875 7.515625 
Q 23.390625 7.515625 25.78125 7.859375 
z
" id="ArialMT-116"/>
       <path d="M 3.328125 25.921875 
Q 3.328125 40.328125 11.328125 47.265625 
Q 18.015625 53.03125 27.640625 53.03125 
Q 38.328125 53.03125 45.109375 46.015625 
Q 51.90625 39.015625 51.90625 26.65625 
Q 51.90625 16.65625 48.90625 10.90625 
Q 45.90625 5.171875 40.15625 2 
Q 34.421875 -1.171875 27.640625 -1.171875 
Q 16.75 -1.171875 10.03125 5.8125 
Q 3.328125 12.796875 3.328125 25.921875 
z
M 12.359375 25.921875 
Q 12.359375 15.96875 16.703125 11.015625 
Q 21.046875 6.0625 27.640625 6.0625 
Q 34.1875 6.0625 38.53125 11.03125 
Q 42.875 16.015625 42.875 26.21875 
Q 42.875 35.84375 38.5 40.796875 
Q 34.125 45.75 27.640625 45.75 
Q 21.046875 45.75 16.703125 40.8125 
Q 12.359375 35.890625 12.359375 25.921875 
z
" id="ArialMT-111"/>
       <path d="M 0.734375 0 
L 19.671875 26.953125 
L 2.15625 51.859375 
L 13.140625 51.859375 
L 21.09375 39.703125 
Q 23.34375 36.234375 24.703125 33.890625 
Q 26.859375 37.109375 28.65625 39.59375 
L 37.40625 51.859375 
L 47.90625 51.859375 
L 29.984375 27.4375 
L 49.265625 0 
L 38.484375 0 
L 27.828125 16.109375 
L 25 20.453125 
L 11.375 0 
z
" id="ArialMT-120"/>
      </defs>
      <g style="fill:#262626;" transform="translate(545.396355 387.940682)rotate(-280)scale(0.132 -0.132)">
       <use xlink:href="#ArialMT-112"/>
       <use x="55.615234" xlink:href="#ArialMT-117"/>
       <use x="111.230469" xlink:href="#ArialMT-98"/>
       <use x="166.845703" xlink:href="#ArialMT-99"/>
       <use x="216.845703" xlink:href="#ArialMT-104"/>
       <use x="272.460938" xlink:href="#ArialMT-101"/>
       <use x="328.076172" xlink:href="#ArialMT-109"/>
       <use x="411.376953" xlink:href="#ArialMT-116"/>
       <use x="439.160156" xlink:href="#ArialMT-111"/>
       <use x="494.775391" xlink:href="#ArialMT-120"/>
      </g>
     </g>
    </g>
    <g id="text_4">
     <!-- dataset -->
     <defs>
      <path d="M 40.234375 0 
L 40.234375 6.546875 
Q 35.296875 -1.171875 25.734375 -1.171875 
Q 19.53125 -1.171875 14.328125 2.25 
Q 9.125 5.671875 6.265625 11.796875 
Q 3.421875 17.921875 3.421875 25.875 
Q 3.421875 33.640625 6 39.96875 
Q 8.59375 46.296875 13.765625 49.65625 
Q 18.953125 53.03125 25.34375 53.03125 
Q 30.03125 53.03125 33.6875 51.046875 
Q 37.359375 49.078125 39.65625 45.90625 
L 39.65625 71.578125 
L 48.390625 71.578125 
L 48.390625 0 
z
M 12.453125 25.875 
Q 12.453125 15.921875 16.640625 10.984375 
Q 20.84375 6.0625 26.5625 6.0625 
Q 32.328125 6.0625 36.34375 10.765625 
Q 40.375 15.484375 40.375 25.140625 
Q 40.375 35.796875 36.265625 40.765625 
Q 32.171875 45.75 26.171875 45.75 
Q 20.3125 45.75 16.375 40.96875 
Q 12.453125 36.1875 12.453125 25.875 
z
" id="ArialMT-100"/>
      <path d="M 40.4375 6.390625 
Q 35.546875 2.25 31.03125 0.53125 
Q 26.515625 -1.171875 21.34375 -1.171875 
Q 12.796875 -1.171875 8.203125 3 
Q 3.609375 7.171875 3.609375 13.671875 
Q 3.609375 17.484375 5.34375 20.625 
Q 7.078125 23.78125 9.890625 25.6875 
Q 12.703125 27.59375 16.21875 28.5625 
Q 18.796875 29.25 24.03125 29.890625 
Q 34.671875 31.15625 39.703125 32.90625 
Q 39.75 34.71875 39.75 35.203125 
Q 39.75 40.578125 37.25 42.78125 
Q 33.890625 45.75 27.25 45.75 
Q 21.046875 45.75 18.09375 43.578125 
Q 15.140625 41.40625 13.71875 35.890625 
L 5.125 37.0625 
Q 6.296875 42.578125 8.984375 45.96875 
Q 11.671875 49.359375 16.75 51.1875 
Q 21.828125 53.03125 28.515625 53.03125 
Q 35.15625 53.03125 39.296875 51.46875 
Q 43.453125 49.90625 45.40625 47.53125 
Q 47.359375 45.171875 48.140625 41.546875 
Q 48.578125 39.3125 48.578125 33.453125 
L 48.578125 21.734375 
Q 48.578125 9.46875 49.140625 6.21875 
Q 49.703125 2.984375 51.375 0 
L 42.1875 0 
Q 40.828125 2.734375 40.4375 6.390625 
z
M 39.703125 26.03125 
Q 34.90625 24.078125 25.34375 22.703125 
Q 19.921875 21.921875 17.671875 20.9375 
Q 15.4375 19.96875 14.203125 18.09375 
Q 12.984375 16.21875 12.984375 13.921875 
Q 12.984375 10.40625 15.640625 8.0625 
Q 18.3125 5.71875 23.4375 5.71875 
Q 28.515625 5.71875 32.46875 7.9375 
Q 36.421875 10.15625 38.28125 14.015625 
Q 39.703125 17 39.703125 22.796875 
z
" id="ArialMT-97"/>
      <path d="M 3.078125 15.484375 
L 11.765625 16.84375 
Q 12.5 11.625 15.84375 8.84375 
Q 19.1875 6.0625 25.203125 6.0625 
Q 31.25 6.0625 34.171875 8.515625 
Q 37.109375 10.984375 37.109375 14.3125 
Q 37.109375 17.28125 34.515625 19 
Q 32.71875 20.171875 25.53125 21.96875 
Q 15.875 24.421875 12.140625 26.203125 
Q 8.40625 27.984375 6.46875 31.125 
Q 4.546875 34.28125 4.546875 38.09375 
Q 4.546875 41.546875 6.125 44.5 
Q 7.71875 47.46875 10.453125 49.421875 
Q 12.5 50.921875 16.03125 51.96875 
Q 19.578125 53.03125 23.640625 53.03125 
Q 29.734375 53.03125 34.34375 51.265625 
Q 38.96875 49.515625 41.15625 46.5 
Q 43.359375 43.5 44.1875 38.484375 
L 35.59375 37.3125 
Q 35.015625 41.3125 32.203125 43.546875 
Q 29.390625 45.796875 24.265625 45.796875 
Q 18.21875 45.796875 15.625 43.796875 
Q 13.03125 41.796875 13.03125 39.109375 
Q 13.03125 37.40625 14.109375 36.03125 
Q 15.1875 34.625 17.484375 33.6875 
Q 18.796875 33.203125 25.25 31.453125 
Q 34.578125 28.953125 38.25 27.359375 
Q 41.9375 25.78125 44.03125 22.75 
Q 46.140625 19.734375 46.140625 15.234375 
Q 46.140625 10.84375 43.578125 6.953125 
Q 41.015625 3.078125 36.171875 0.953125 
Q 31.34375 -1.171875 25.25 -1.171875 
Q 15.140625 -1.171875 9.84375 3.03125 
Q 4.546875 7.234375 3.078125 15.484375 
z
" id="ArialMT-115"/>
     </defs>
     <g style="fill:#262626;" transform="translate(345.384 473.516038)scale(0.144 -0.144)">
      <use xlink:href="#ArialMT-100"/>
      <use x="55.615234" xlink:href="#ArialMT-97"/>
      <use x="111.230469" xlink:href="#ArialMT-116"/>
      <use x="139.013672" xlink:href="#ArialMT-97"/>
      <use x="194.628906" xlink:href="#ArialMT-115"/>
      <use x="244.628906" xlink:href="#ArialMT-101"/>
      <use x="300.244141" xlink:href="#ArialMT-116"/>
     </g>
    </g>
   </g>
   <g id="matplotlib.axis_2">
    <g id="ytick_1">
     <g id="line2d_4">
      <defs>
       <path d="M 0 0 
L -4.8 0 
" id="m7bde97500b" style="stroke:#262626;"/>
      </defs>
      <g>
       <use style="fill:#262626;stroke:#262626;" x="90" xlink:href="#m7bde97500b" y="363.872217"/>
      </g>
     </g>
     <g id="text_5">
      <!-- −0.75 -->
      <defs>
       <path d="M 52.828125 31.203125 
L 5.5625 31.203125 
L 5.5625 39.40625 
L 52.828125 39.40625 
z
" id="ArialMT-8722"/>
       <path d="M 4.15625 35.296875 
Q 4.15625 48 6.765625 55.734375 
Q 9.375 63.484375 14.515625 67.671875 
Q 19.671875 71.875 27.484375 71.875 
Q 33.25 71.875 37.59375 69.546875 
Q 41.9375 67.234375 44.765625 62.859375 
Q 47.609375 58.5 49.21875 52.21875 
Q 50.828125 45.953125 50.828125 35.296875 
Q 50.828125 22.703125 48.234375 14.96875 
Q 45.65625 7.234375 40.5 3 
Q 35.359375 -1.21875 27.484375 -1.21875 
Q 17.140625 -1.21875 11.234375 6.203125 
Q 4.15625 15.140625 4.15625 35.296875 
z
M 13.1875 35.296875 
Q 13.1875 17.671875 17.3125 11.828125 
Q 21.4375 6 27.484375 6 
Q 33.546875 6 37.671875 11.859375 
Q 41.796875 17.71875 41.796875 35.296875 
Q 41.796875 52.984375 37.671875 58.78125 
Q 33.546875 64.59375 27.390625 64.59375 
Q 21.34375 64.59375 17.71875 59.46875 
Q 13.1875 52.9375 13.1875 35.296875 
z
" id="ArialMT-48"/>
       <path d="M 9.078125 0 
L 9.078125 10.015625 
L 19.09375 10.015625 
L 19.09375 0 
z
" id="ArialMT-46"/>
       <path d="M 4.734375 62.203125 
L 4.734375 70.65625 
L 51.078125 70.65625 
L 51.078125 63.8125 
Q 44.234375 56.546875 37.515625 44.484375 
Q 30.8125 32.421875 27.15625 19.671875 
Q 24.515625 10.6875 23.78125 0 
L 14.75 0 
Q 14.890625 8.453125 18.0625 20.40625 
Q 21.234375 32.375 27.171875 43.484375 
Q 33.109375 54.59375 39.796875 62.203125 
z
" id="ArialMT-55"/>
       <path d="M 4.15625 18.75 
L 13.375 19.53125 
Q 14.40625 12.796875 18.140625 9.390625 
Q 21.875 6 27.15625 6 
Q 33.5 6 37.890625 10.78125 
Q 42.28125 15.578125 42.28125 23.484375 
Q 42.28125 31 38.0625 35.34375 
Q 33.84375 39.703125 27 39.703125 
Q 22.75 39.703125 19.328125 37.765625 
Q 15.921875 35.84375 13.96875 32.765625 
L 5.71875 33.84375 
L 12.640625 70.609375 
L 48.25 70.609375 
L 48.25 62.203125 
L 19.671875 62.203125 
L 15.828125 42.96875 
Q 22.265625 47.46875 29.34375 47.46875 
Q 38.71875 47.46875 45.15625 40.96875 
Q 51.609375 34.46875 51.609375 24.265625 
Q 51.609375 14.546875 45.953125 7.46875 
Q 39.0625 -1.21875 27.15625 -1.21875 
Q 17.390625 -1.21875 11.203125 4.25 
Q 5.03125 9.71875 4.15625 18.75 
z
" id="ArialMT-53"/>
      </defs>
      <g style="fill:#262626;" transform="translate(48.301938 368.596373)scale(0.132 -0.132)">
       <use xlink:href="#ArialMT-8722"/>
       <use x="58.398438" xlink:href="#ArialMT-48"/>
       <use x="114.013672" xlink:href="#ArialMT-46"/>
       <use x="141.796875" xlink:href="#ArialMT-55"/>
       <use x="197.412109" xlink:href="#ArialMT-53"/>
      </g>
     </g>
    </g>
    <g id="ytick_2">
     <g id="line2d_5">
      <g>
       <use style="fill:#262626;stroke:#262626;" x="90" xlink:href="#m7bde97500b" y="321.113345"/>
      </g>
     </g>
     <g id="text_6">
      <!-- −0.50 -->
      <g style="fill:#262626;" transform="translate(48.301938 325.837501)scale(0.132 -0.132)">
       <use xlink:href="#ArialMT-8722"/>
       <use x="58.398438" xlink:href="#ArialMT-48"/>
       <use x="114.013672" xlink:href="#ArialMT-46"/>
       <use x="141.796875" xlink:href="#ArialMT-53"/>
       <use x="197.412109" xlink:href="#ArialMT-48"/>
      </g>
     </g>
    </g>
    <g id="ytick_3">
     <g id="line2d_6">
      <g>
       <use style="fill:#262626;stroke:#262626;" x="90" xlink:href="#m7bde97500b" y="278.354474"/>
      </g>
     </g>
     <g id="text_7">
      <!-- −0.25 -->
      <defs>
       <path d="M 50.34375 8.453125 
L 50.34375 0 
L 3.03125 0 
Q 2.9375 3.171875 4.046875 6.109375 
Q 5.859375 10.9375 9.828125 15.625 
Q 13.8125 20.3125 21.34375 26.46875 
Q 33.015625 36.03125 37.109375 41.625 
Q 41.21875 47.21875 41.21875 52.203125 
Q 41.21875 57.421875 37.46875 61 
Q 33.734375 64.59375 27.734375 64.59375 
Q 21.390625 64.59375 17.578125 60.78125 
Q 13.765625 56.984375 13.71875 50.25 
L 4.6875 51.171875 
Q 5.609375 61.28125 11.65625 66.578125 
Q 17.71875 71.875 27.9375 71.875 
Q 38.234375 71.875 44.234375 66.15625 
Q 50.25 60.453125 50.25 52 
Q 50.25 47.703125 48.484375 43.546875 
Q 46.734375 39.40625 42.65625 34.8125 
Q 38.578125 30.21875 29.109375 22.21875 
Q 21.1875 15.578125 18.9375 13.203125 
Q 16.703125 10.84375 15.234375 8.453125 
z
" id="ArialMT-50"/>
      </defs>
      <g style="fill:#262626;" transform="translate(48.301938 283.07863)scale(0.132 -0.132)">
       <use xlink:href="#ArialMT-8722"/>
       <use x="58.398438" xlink:href="#ArialMT-48"/>
       <use x="114.013672" xlink:href="#ArialMT-46"/>
       <use x="141.796875" xlink:href="#ArialMT-50"/>
       <use x="197.412109" xlink:href="#ArialMT-53"/>
      </g>
     </g>
    </g>
    <g id="ytick_4">
     <g id="line2d_7">
      <g>
       <use style="fill:#262626;stroke:#262626;" x="90" xlink:href="#m7bde97500b" y="235.595602"/>
      </g>
     </g>
     <g id="text_8">
      <!-- 0.00 -->
      <g style="fill:#262626;" transform="translate(56.011562 240.319758)scale(0.132 -0.132)">
       <use xlink:href="#ArialMT-48"/>
       <use x="55.615234" xlink:href="#ArialMT-46"/>
       <use x="83.398438" xlink:href="#ArialMT-48"/>
       <use x="139.013672" xlink:href="#ArialMT-48"/>
      </g>
     </g>
    </g>
    <g id="ytick_5">
     <g id="line2d_8">
      <g>
       <use style="fill:#262626;stroke:#262626;" x="90" xlink:href="#m7bde97500b" y="192.83673"/>
      </g>
     </g>
     <g id="text_9">
      <!-- 0.25 -->
      <g style="fill:#262626;" transform="translate(56.011562 197.560886)scale(0.132 -0.132)">
       <use xlink:href="#ArialMT-48"/>
       <use x="55.615234" xlink:href="#ArialMT-46"/>
       <use x="83.398438" xlink:href="#ArialMT-50"/>
       <use x="139.013672" xlink:href="#ArialMT-53"/>
      </g>
     </g>
    </g>
    <g id="ytick_6">
     <g id="line2d_9">
      <g>
       <use style="fill:#262626;stroke:#262626;" x="90" xlink:href="#m7bde97500b" y="150.077858"/>
      </g>
     </g>
     <g id="text_10">
      <!-- 0.50 -->
      <g style="fill:#262626;" transform="translate(56.011562 154.802015)scale(0.132 -0.132)">
       <use xlink:href="#ArialMT-48"/>
       <use x="55.615234" xlink:href="#ArialMT-46"/>
       <use x="83.398438" xlink:href="#ArialMT-53"/>
       <use x="139.013672" xlink:href="#ArialMT-48"/>
      </g>
     </g>
    </g>
    <g id="ytick_7">
     <g id="line2d_10">
      <g>
       <use style="fill:#262626;stroke:#262626;" x="90" xlink:href="#m7bde97500b" y="107.318987"/>
      </g>
     </g>
     <g id="text_11">
      <!-- 0.75 -->
      <g style="fill:#262626;" transform="translate(56.011562 112.043143)scale(0.132 -0.132)">
       <use xlink:href="#ArialMT-48"/>
       <use x="55.615234" xlink:href="#ArialMT-46"/>
       <use x="83.398438" xlink:href="#ArialMT-55"/>
       <use x="139.013672" xlink:href="#ArialMT-53"/>
      </g>
     </g>
    </g>
    <g id="ytick_8">
     <g id="line2d_11">
      <g>
       <use style="fill:#262626;stroke:#262626;" x="90" xlink:href="#m7bde97500b" y="64.560115"/>
      </g>
     </g>
     <g id="text_12">
      <!-- 1.00 -->
      <defs>
       <path d="M 37.25 0 
L 28.46875 0 
L 28.46875 56 
Q 25.296875 52.984375 20.140625 49.953125 
Q 14.984375 46.921875 10.890625 45.40625 
L 10.890625 53.90625 
Q 18.265625 57.375 23.78125 62.296875 
Q 29.296875 67.234375 31.59375 71.875 
L 37.25 71.875 
z
" id="ArialMT-49"/>
      </defs>
      <g style="fill:#262626;" transform="translate(56.011562 69.284271)scale(0.132 -0.132)">
       <use xlink:href="#ArialMT-49"/>
       <use x="55.615234" xlink:href="#ArialMT-46"/>
       <use x="83.398438" xlink:href="#ArialMT-48"/>
       <use x="139.013672" xlink:href="#ArialMT-48"/>
      </g>
     </g>
    </g>
    <g id="text_13">
     <!-- Pearson's r -->
     <defs>
      <path d="M 7.71875 0 
L 7.71875 71.578125 
L 34.71875 71.578125 
Q 41.84375 71.578125 45.609375 70.90625 
Q 50.875 70.015625 54.4375 67.546875 
Q 58.015625 65.09375 60.1875 60.640625 
Q 62.359375 56.203125 62.359375 50.875 
Q 62.359375 41.75 56.546875 35.421875 
Q 50.734375 29.109375 35.546875 29.109375 
L 17.1875 29.109375 
L 17.1875 0 
z
M 17.1875 37.546875 
L 35.6875 37.546875 
Q 44.875 37.546875 48.734375 40.96875 
Q 52.59375 44.390625 52.59375 50.59375 
Q 52.59375 55.078125 50.3125 58.265625 
Q 48.046875 61.46875 44.34375 62.5 
Q 41.9375 63.140625 35.5 63.140625 
L 17.1875 63.140625 
z
" id="ArialMT-80"/>
      <path d="M 6.5 0 
L 6.5 51.859375 
L 14.40625 51.859375 
L 14.40625 44 
Q 17.4375 49.515625 20 51.265625 
Q 22.5625 53.03125 25.640625 53.03125 
Q 30.078125 53.03125 34.671875 50.203125 
L 31.640625 42.046875 
Q 28.421875 43.953125 25.203125 43.953125 
Q 22.3125 43.953125 20.015625 42.21875 
Q 17.71875 40.484375 16.75 37.40625 
Q 15.28125 32.71875 15.28125 27.15625 
L 15.28125 0 
z
" id="ArialMT-114"/>
      <path d="M 6.59375 0 
L 6.59375 51.859375 
L 14.5 51.859375 
L 14.5 44.484375 
Q 20.21875 53.03125 31 53.03125 
Q 35.6875 53.03125 39.625 51.34375 
Q 43.5625 49.65625 45.515625 46.921875 
Q 47.46875 44.1875 48.25 40.4375 
Q 48.734375 37.984375 48.734375 31.890625 
L 48.734375 0 
L 39.9375 0 
L 39.9375 31.546875 
Q 39.9375 36.921875 38.90625 39.578125 
Q 37.890625 42.234375 35.28125 43.8125 
Q 32.671875 45.40625 29.15625 45.40625 
Q 23.53125 45.40625 19.453125 41.84375 
Q 15.375 38.28125 15.375 28.328125 
L 15.375 0 
z
" id="ArialMT-110"/>
      <path d="M 6.640625 46.234375 
L 4.390625 59.625 
L 4.390625 71.578125 
L 14.40625 71.578125 
L 14.40625 59.625 
L 12.0625 46.234375 
z
" id="ArialMT-39"/>
      <path id="ArialMT-32"/>
     </defs>
     <g style="fill:#262626;" transform="translate(41.439937 251.107875)rotate(-90)scale(0.144 -0.144)">
      <use xlink:href="#ArialMT-80"/>
      <use x="66.699219" xlink:href="#ArialMT-101"/>
      <use x="122.314453" xlink:href="#ArialMT-97"/>
      <use x="177.929688" xlink:href="#ArialMT-114"/>
      <use x="211.230469" xlink:href="#ArialMT-115"/>
      <use x="261.230469" xlink:href="#ArialMT-111"/>
      <use x="316.845703" xlink:href="#ArialMT-110"/>
      <use x="372.460938" xlink:href="#ArialMT-39"/>
      <use x="391.552734" xlink:href="#ArialMT-115"/>
      <use x="441.552734" xlink:href="#ArialMT-32"/>
      <use x="469.335938" xlink:href="#ArialMT-114"/>
     </g>
    </g>
   </g>
   <g id="patch_3">
    <path clip-path="url(#pd749d16691)" d="M 108.972 203.170794 
L 145.428 203.170794 
L 145.428 186.692527 
L 108.972 186.692527 
L 108.972 203.170794 
z
" style="fill:#f6f6bc;stroke:#6a6a6a;stroke-linejoin:miter;stroke-width:2;"/>
   </g>
   <g id="patch_4">
    <path clip-path="url(#pd749d16691)" d="M 146.172 176.205127 
L 182.628 176.205127 
L 182.628 166.565655 
L 146.172 166.565655 
L 146.172 176.205127 
z
" style="fill:#96cac1;stroke:#6a6a6a;stroke-linejoin:miter;stroke-width:2;"/>
   </g>
   <g id="patch_5">
    <path clip-path="url(#pd749d16691)" d="M 183.372 176.764248 
L 219.828 176.764248 
L 219.828 164.550597 
L 183.372 164.550597 
L 183.372 176.764248 
z
" style="fill:#ea8e83;stroke:#6a6a6a;stroke-linejoin:miter;stroke-width:2;"/>
   </g>
   <g id="patch_6">
    <path clip-path="url(#pd749d16691)" d="M 220.572 176.764248 
L 257.028 176.764248 
L 257.028 164.550597 
L 220.572 164.550597 
L 220.572 176.764248 
z
" style="fill:#c1bed6;stroke:#6a6a6a;stroke-linejoin:miter;stroke-width:2;"/>
   </g>
   <g id="patch_7">
    <path clip-path="url(#pd749d16691)" d="M 294.972 222.435901 
L 331.428 222.435901 
L 331.428 156.474541 
L 294.972 156.474541 
L 294.972 222.435901 
z
" style="fill:#f6f6bc;stroke:#6a6a6a;stroke-linejoin:miter;stroke-width:2;"/>
   </g>
   <g id="patch_8">
    <path clip-path="url(#pd749d16691)" d="M 332.172 206.219546 
L 368.628 206.219546 
L 368.628 143.414401 
L 332.172 143.414401 
L 332.172 206.219546 
z
" style="fill:#96cac1;stroke:#6a6a6a;stroke-linejoin:miter;stroke-width:2;"/>
   </g>
   <g id="patch_9">
    <path clip-path="url(#pd749d16691)" d="M 369.372 204.629198 
L 405.828 204.629198 
L 405.828 142.070311 
L 369.372 142.070311 
L 369.372 204.629198 
z
" style="fill:#ea8e83;stroke:#6a6a6a;stroke-linejoin:miter;stroke-width:2;"/>
   </g>
   <g id="patch_10">
    <path clip-path="url(#pd749d16691)" d="M 406.572 204.629198 
L 443.028 204.629198 
L 443.028 142.070311 
L 406.572 142.070311 
L 406.572 204.629198 
z
" style="fill:#c1bed6;stroke:#6a6a6a;stroke-linejoin:miter;stroke-width:2;"/>
   </g>
   <g id="patch_11">
    <path clip-path="url(#pd749d16691)" d="M 480.972 213.023375 
L 517.428 213.023375 
L 517.428 123.454818 
L 480.972 123.454818 
L 480.972 213.023375 
z
" style="fill:#f6f6bc;stroke:#6a6a6a;stroke-linejoin:miter;stroke-width:2;"/>
   </g>
   <g id="patch_12">
    <path clip-path="url(#pd749d16691)" d="M 518.172 210.081117 
L 554.628 210.081117 
L 554.628 120.596058 
L 518.172 120.596058 
L 518.172 210.081117 
z
" style="fill:#96cac1;stroke:#6a6a6a;stroke-linejoin:miter;stroke-width:2;"/>
   </g>
   <g id="patch_13">
    <path clip-path="url(#pd749d16691)" d="M 555.372 209.993798 
L 591.828 209.993798 
L 591.828 120.229449 
L 555.372 120.229449 
L 555.372 209.993798 
z
" style="fill:#ea8e83;stroke:#6a6a6a;stroke-linejoin:miter;stroke-width:2;"/>
   </g>
   <g id="patch_14">
    <path clip-path="url(#pd749d16691)" d="M 592.572 209.993798 
L 629.028 209.993798 
L 629.028 120.229449 
L 592.572 120.229449 
L 592.572 209.993798 
z
" style="fill:#c1bed6;stroke:#6a6a6a;stroke-linejoin:miter;stroke-width:2;"/>
   </g>
   <g id="patch_15">
    <path clip-path="url(#pd749d16691)" d="M 183 235.595602 
L 183 235.595602 
L 183 235.595602 
L 183 235.595602 
z
" style="fill:#f6f6bc;stroke:#6a6a6a;stroke-linejoin:miter;"/>
   </g>
   <g id="patch_16">
    <path clip-path="url(#pd749d16691)" d="M 183 235.595602 
L 183 235.595602 
L 183 235.595602 
L 183 235.595602 
z
" style="fill:#96cac1;stroke:#6a6a6a;stroke-linejoin:miter;"/>
   </g>
   <g id="patch_17">
    <path clip-path="url(#pd749d16691)" d="M 183 235.595602 
L 183 235.595602 
L 183 235.595602 
L 183 235.595602 
z
" style="fill:#ea8e83;stroke:#6a6a6a;stroke-linejoin:miter;"/>
   </g>
   <g id="patch_18">
    <path clip-path="url(#pd749d16691)" d="M 183 235.595602 
L 183 235.595602 
L 183 235.595602 
L 183 235.595602 
z
" style="fill:#c1bed6;stroke:#6a6a6a;stroke-linejoin:miter;"/>
   </g>
   <g id="line2d_12">
    <path clip-path="url(#pd749d16691)" d="M 127.2 203.170794 
L 127.2 218.720349 
" style="fill:none;stroke:#6a6a6a;stroke-linecap:round;stroke-width:2;"/>
   </g>
   <g id="line2d_13">
    <path clip-path="url(#pd749d16691)" d="M 127.2 186.692527 
L 127.2 163.89544 
" style="fill:none;stroke:#6a6a6a;stroke-linecap:round;stroke-width:2;"/>
   </g>
   <g id="line2d_14">
    <path clip-path="url(#pd749d16691)" d="M 118.086 218.720349 
L 136.314 218.720349 
" style="fill:none;stroke:#6a6a6a;stroke-linecap:round;stroke-width:2;"/>
   </g>
   <g id="line2d_15">
    <path clip-path="url(#pd749d16691)" d="M 118.086 163.89544 
L 136.314 163.89544 
" style="fill:none;stroke:#6a6a6a;stroke-linecap:round;stroke-width:2;"/>
   </g>
   <g id="line2d_16">
    <defs>
     <path d="M -0 3.535534 
L 2.12132 0 
L -0 -3.535534 
L -2.12132 -0 
z
" id="m09f65faa00" style="stroke:#6a6a6a;stroke-linejoin:miter;"/>
    </defs>
    <g clip-path="url(#pd749d16691)">
     <use style="fill:#6a6a6a;stroke:#6a6a6a;stroke-linejoin:miter;" x="127.2" xlink:href="#m09f65faa00" y="156.94643"/>
    </g>
   </g>
   <g id="line2d_17">
    <path clip-path="url(#pd749d16691)" d="M 164.4 176.205127 
L 164.4 180.159098 
" style="fill:none;stroke:#6a6a6a;stroke-linecap:round;stroke-width:2;"/>
   </g>
   <g id="line2d_18">
    <path clip-path="url(#pd749d16691)" d="M 164.4 166.565655 
L 164.4 152.98388 
" style="fill:none;stroke:#6a6a6a;stroke-linecap:round;stroke-width:2;"/>
   </g>
   <g id="line2d_19">
    <path clip-path="url(#pd749d16691)" d="M 155.286 180.159098 
L 173.514 180.159098 
" style="fill:none;stroke:#6a6a6a;stroke-linecap:round;stroke-width:2;"/>
   </g>
   <g id="line2d_20">
    <path clip-path="url(#pd749d16691)" d="M 155.286 152.98388 
L 173.514 152.98388 
" style="fill:none;stroke:#6a6a6a;stroke-linecap:round;stroke-width:2;"/>
   </g>
   <g id="line2d_21">
    <g clip-path="url(#pd749d16691)">
     <use style="fill:#6a6a6a;stroke:#6a6a6a;stroke-linejoin:miter;" x="164.4" xlink:href="#m09f65faa00" y="200.367909"/>
     <use style="fill:#6a6a6a;stroke:#6a6a6a;stroke-linejoin:miter;" x="164.4" xlink:href="#m09f65faa00" y="192.727894"/>
    </g>
   </g>
   <g id="line2d_22">
    <path clip-path="url(#pd749d16691)" d="M 201.6 176.764248 
L 201.6 193.270833 
" style="fill:none;stroke:#6a6a6a;stroke-linecap:round;stroke-width:2;"/>
   </g>
   <g id="line2d_23">
    <path clip-path="url(#pd749d16691)" d="M 201.6 164.550597 
L 201.6 151.470551 
" style="fill:none;stroke:#6a6a6a;stroke-linecap:round;stroke-width:2;"/>
   </g>
   <g id="line2d_24">
    <path clip-path="url(#pd749d16691)" d="M 192.486 193.270833 
L 210.714 193.270833 
" style="fill:none;stroke:#6a6a6a;stroke-linecap:round;stroke-width:2;"/>
   </g>
   <g id="line2d_25">
    <path clip-path="url(#pd749d16691)" d="M 192.486 151.470551 
L 210.714 151.470551 
" style="fill:none;stroke:#6a6a6a;stroke-linecap:round;stroke-width:2;"/>
   </g>
   <g id="line2d_26">
    <g clip-path="url(#pd749d16691)">
     <use style="fill:#6a6a6a;stroke:#6a6a6a;stroke-linejoin:miter;" x="201.6" xlink:href="#m09f65faa00" y="196.544774"/>
    </g>
   </g>
   <g id="line2d_27">
    <path clip-path="url(#pd749d16691)" d="M 238.8 176.764248 
L 238.8 193.270833 
" style="fill:none;stroke:#6a6a6a;stroke-linecap:round;stroke-width:2;"/>
   </g>
   <g id="line2d_28">
    <path clip-path="url(#pd749d16691)" d="M 238.8 164.550597 
L 238.8 151.470551 
" style="fill:none;stroke:#6a6a6a;stroke-linecap:round;stroke-width:2;"/>
   </g>
   <g id="line2d_29">
    <path clip-path="url(#pd749d16691)" d="M 229.686 193.270833 
L 247.914 193.270833 
" style="fill:none;stroke:#6a6a6a;stroke-linecap:round;stroke-width:2;"/>
   </g>
   <g id="line2d_30">
    <path clip-path="url(#pd749d16691)" d="M 229.686 151.470551 
L 247.914 151.470551 
" style="fill:none;stroke:#6a6a6a;stroke-linecap:round;stroke-width:2;"/>
   </g>
   <g id="line2d_31">
    <g clip-path="url(#pd749d16691)">
     <use style="fill:#6a6a6a;stroke:#6a6a6a;stroke-linejoin:miter;" x="238.8" xlink:href="#m09f65faa00" y="196.544774"/>
    </g>
   </g>
   <g id="line2d_32">
    <path clip-path="url(#pd749d16691)" d="M 313.2 222.435901 
L 313.2 319.556904 
" style="fill:none;stroke:#6a6a6a;stroke-linecap:round;stroke-width:2;"/>
   </g>
   <g id="line2d_33">
    <path clip-path="url(#pd749d16691)" d="M 313.2 156.474541 
L 313.2 71.490098 
" style="fill:none;stroke:#6a6a6a;stroke-linecap:round;stroke-width:2;"/>
   </g>
   <g id="line2d_34">
    <path clip-path="url(#pd749d16691)" d="M 304.086 319.556904 
L 322.314 319.556904 
" style="fill:none;stroke:#6a6a6a;stroke-linecap:round;stroke-width:2;"/>
   </g>
   <g id="line2d_35">
    <path clip-path="url(#pd749d16691)" d="M 304.086 71.490098 
L 322.314 71.490098 
" style="fill:none;stroke:#6a6a6a;stroke-linecap:round;stroke-width:2;"/>
   </g>
   <g id="line2d_36">
    <g clip-path="url(#pd749d16691)">
     <use style="fill:#6a6a6a;stroke:#6a6a6a;stroke-linejoin:miter;" x="313.2" xlink:href="#m09f65faa00" y="323.320671"/>
     <use style="fill:#6a6a6a;stroke:#6a6a6a;stroke-linejoin:miter;" x="313.2" xlink:href="#m09f65faa00" y="350.629162"/>
    </g>
   </g>
   <g id="line2d_37">
    <path clip-path="url(#pd749d16691)" d="M 350.4 206.219546 
L 350.4 299.331955 
" style="fill:none;stroke:#6a6a6a;stroke-linecap:round;stroke-width:2;"/>
   </g>
   <g id="line2d_38">
    <path clip-path="url(#pd749d16691)" d="M 350.4 143.414401 
L 350.4 72.906859 
" style="fill:none;stroke:#6a6a6a;stroke-linecap:round;stroke-width:2;"/>
   </g>
   <g id="line2d_39">
    <path clip-path="url(#pd749d16691)" d="M 341.286 299.331955 
L 359.514 299.331955 
" style="fill:none;stroke:#6a6a6a;stroke-linecap:round;stroke-width:2;"/>
   </g>
   <g id="line2d_40">
    <path clip-path="url(#pd749d16691)" d="M 341.286 72.906859 
L 359.514 72.906859 
" style="fill:none;stroke:#6a6a6a;stroke-linecap:round;stroke-width:2;"/>
   </g>
   <g id="line2d_41">
    <g clip-path="url(#pd749d16691)">
     <use style="fill:#6a6a6a;stroke:#6a6a6a;stroke-linejoin:miter;" x="350.4" xlink:href="#m09f65faa00" y="328.625333"/>
     <use style="fill:#6a6a6a;stroke:#6a6a6a;stroke-linejoin:miter;" x="350.4" xlink:href="#m09f65faa00" y="314.131737"/>
     <use style="fill:#6a6a6a;stroke:#6a6a6a;stroke-linejoin:miter;" x="350.4" xlink:href="#m09f65faa00" y="314.998546"/>
     <use style="fill:#6a6a6a;stroke:#6a6a6a;stroke-linejoin:miter;" x="350.4" xlink:href="#m09f65faa00" y="324.379462"/>
     <use style="fill:#6a6a6a;stroke:#6a6a6a;stroke-linejoin:miter;" x="350.4" xlink:href="#m09f65faa00" y="320.879809"/>
     <use style="fill:#6a6a6a;stroke:#6a6a6a;stroke-linejoin:miter;" x="350.4" xlink:href="#m09f65faa00" y="301.283322"/>
    </g>
   </g>
   <g id="line2d_42">
    <path clip-path="url(#pd749d16691)" d="M 387.6 204.629198 
L 387.6 296.531253 
" style="fill:none;stroke:#6a6a6a;stroke-linecap:round;stroke-width:2;"/>
   </g>
   <g id="line2d_43">
    <path clip-path="url(#pd749d16691)" d="M 387.6 142.070311 
L 387.6 74.402955 
" style="fill:none;stroke:#6a6a6a;stroke-linecap:round;stroke-width:2;"/>
   </g>
   <g id="line2d_44">
    <path clip-path="url(#pd749d16691)" d="M 378.486 296.531253 
L 396.714 296.531253 
" style="fill:none;stroke:#6a6a6a;stroke-linecap:round;stroke-width:2;"/>
   </g>
   <g id="line2d_45">
    <path clip-path="url(#pd749d16691)" d="M 378.486 74.402955 
L 396.714 74.402955 
" style="fill:none;stroke:#6a6a6a;stroke-linecap:round;stroke-width:2;"/>
   </g>
   <g id="line2d_46">
    <g clip-path="url(#pd749d16691)">
     <use style="fill:#6a6a6a;stroke:#6a6a6a;stroke-linejoin:miter;" x="387.6" xlink:href="#m09f65faa00" y="333.571117"/>
     <use style="fill:#6a6a6a;stroke:#6a6a6a;stroke-linejoin:miter;" x="387.6" xlink:href="#m09f65faa00" y="305.566734"/>
     <use style="fill:#6a6a6a;stroke:#6a6a6a;stroke-linejoin:miter;" x="387.6" xlink:href="#m09f65faa00" y="308.762982"/>
     <use style="fill:#6a6a6a;stroke:#6a6a6a;stroke-linejoin:miter;" x="387.6" xlink:href="#m09f65faa00" y="323.206044"/>
     <use style="fill:#6a6a6a;stroke:#6a6a6a;stroke-linejoin:miter;" x="387.6" xlink:href="#m09f65faa00" y="304.611646"/>
     <use style="fill:#6a6a6a;stroke:#6a6a6a;stroke-linejoin:miter;" x="387.6" xlink:href="#m09f65faa00" y="299.410815"/>
     <use style="fill:#6a6a6a;stroke:#6a6a6a;stroke-linejoin:miter;" x="387.6" xlink:href="#m09f65faa00" y="302.662945"/>
    </g>
   </g>
   <g id="line2d_47">
    <path clip-path="url(#pd749d16691)" d="M 424.8 204.629198 
L 424.8 296.531253 
" style="fill:none;stroke:#6a6a6a;stroke-linecap:round;stroke-width:2;"/>
   </g>
   <g id="line2d_48">
    <path clip-path="url(#pd749d16691)" d="M 424.8 142.070311 
L 424.8 74.402955 
" style="fill:none;stroke:#6a6a6a;stroke-linecap:round;stroke-width:2;"/>
   </g>
   <g id="line2d_49">
    <path clip-path="url(#pd749d16691)" d="M 415.686 296.531253 
L 433.914 296.531253 
" style="fill:none;stroke:#6a6a6a;stroke-linecap:round;stroke-width:2;"/>
   </g>
   <g id="line2d_50">
    <path clip-path="url(#pd749d16691)" d="M 415.686 74.402955 
L 433.914 74.402955 
" style="fill:none;stroke:#6a6a6a;stroke-linecap:round;stroke-width:2;"/>
   </g>
   <g id="line2d_51">
    <g clip-path="url(#pd749d16691)">
     <use style="fill:#6a6a6a;stroke:#6a6a6a;stroke-linejoin:miter;" x="424.8" xlink:href="#m09f65faa00" y="333.571117"/>
     <use style="fill:#6a6a6a;stroke:#6a6a6a;stroke-linejoin:miter;" x="424.8" xlink:href="#m09f65faa00" y="305.566734"/>
     <use style="fill:#6a6a6a;stroke:#6a6a6a;stroke-linejoin:miter;" x="424.8" xlink:href="#m09f65faa00" y="308.762982"/>
     <use style="fill:#6a6a6a;stroke:#6a6a6a;stroke-linejoin:miter;" x="424.8" xlink:href="#m09f65faa00" y="323.206044"/>
     <use style="fill:#6a6a6a;stroke:#6a6a6a;stroke-linejoin:miter;" x="424.8" xlink:href="#m09f65faa00" y="304.611646"/>
     <use style="fill:#6a6a6a;stroke:#6a6a6a;stroke-linejoin:miter;" x="424.8" xlink:href="#m09f65faa00" y="299.410815"/>
     <use style="fill:#6a6a6a;stroke:#6a6a6a;stroke-linejoin:miter;" x="424.8" xlink:href="#m09f65faa00" y="302.662945"/>
    </g>
   </g>
   <g id="line2d_52">
    <path clip-path="url(#pd749d16691)" d="M 499.2 213.023375 
L 499.2 345.291357 
" style="fill:none;stroke:#6a6a6a;stroke-linecap:round;stroke-width:2;"/>
   </g>
   <g id="line2d_53">
    <path clip-path="url(#pd749d16691)" d="M 499.2 123.454818 
L 499.2 67.510426 
" style="fill:none;stroke:#6a6a6a;stroke-linecap:round;stroke-width:2;"/>
   </g>
   <g id="line2d_54">
    <path clip-path="url(#pd749d16691)" d="M 490.086 345.291357 
L 508.314 345.291357 
" style="fill:none;stroke:#6a6a6a;stroke-linecap:round;stroke-width:2;"/>
   </g>
   <g id="line2d_55">
    <path clip-path="url(#pd749d16691)" d="M 490.086 67.510426 
L 508.314 67.510426 
" style="fill:none;stroke:#6a6a6a;stroke-linecap:round;stroke-width:2;"/>
   </g>
   <g id="line2d_56">
    <g clip-path="url(#pd749d16691)">
     <use style="fill:#6a6a6a;stroke:#6a6a6a;stroke-linejoin:miter;" x="499.2" xlink:href="#m09f65faa00" y="360.613471"/>
    </g>
   </g>
   <g id="line2d_57">
    <path clip-path="url(#pd749d16691)" d="M 536.4 210.081117 
L 536.4 334.178945 
" style="fill:none;stroke:#6a6a6a;stroke-linecap:round;stroke-width:2;"/>
   </g>
   <g id="line2d_58">
    <path clip-path="url(#pd749d16691)" d="M 536.4 120.596058 
L 536.4 66.665455 
" style="fill:none;stroke:#6a6a6a;stroke-linecap:round;stroke-width:2;"/>
   </g>
   <g id="line2d_59">
    <path clip-path="url(#pd749d16691)" d="M 527.286 334.178945 
L 545.514 334.178945 
" style="fill:none;stroke:#6a6a6a;stroke-linecap:round;stroke-width:2;"/>
   </g>
   <g id="line2d_60">
    <path clip-path="url(#pd749d16691)" d="M 527.286 66.665455 
L 545.514 66.665455 
" style="fill:none;stroke:#6a6a6a;stroke-linecap:round;stroke-width:2;"/>
   </g>
   <g id="line2d_61">
    <g clip-path="url(#pd749d16691)">
     <use style="fill:#6a6a6a;stroke:#6a6a6a;stroke-linejoin:miter;" x="536.4" xlink:href="#m09f65faa00" y="362.392565"/>
     <use style="fill:#6a6a6a;stroke:#6a6a6a;stroke-linejoin:miter;" x="536.4" xlink:href="#m09f65faa00" y="355.088872"/>
    </g>
   </g>
   <g id="line2d_62">
    <path clip-path="url(#pd749d16691)" d="M 573.6 209.993798 
L 573.6 335.012152 
" style="fill:none;stroke:#6a6a6a;stroke-linecap:round;stroke-width:2;"/>
   </g>
   <g id="line2d_63">
    <path clip-path="url(#pd749d16691)" d="M 573.6 120.229449 
L 573.6 67.134402 
" style="fill:none;stroke:#6a6a6a;stroke-linecap:round;stroke-width:2;"/>
   </g>
   <g id="line2d_64">
    <path clip-path="url(#pd749d16691)" d="M 564.486 335.012152 
L 582.714 335.012152 
" style="fill:none;stroke:#6a6a6a;stroke-linecap:round;stroke-width:2;"/>
   </g>
   <g id="line2d_65">
    <path clip-path="url(#pd749d16691)" d="M 564.486 67.134402 
L 582.714 67.134402 
" style="fill:none;stroke:#6a6a6a;stroke-linecap:round;stroke-width:2;"/>
   </g>
   <g id="line2d_66">
    <g clip-path="url(#pd749d16691)">
     <use style="fill:#6a6a6a;stroke:#6a6a6a;stroke-linejoin:miter;" x="573.6" xlink:href="#m09f65faa00" y="363.174545"/>
     <use style="fill:#6a6a6a;stroke:#6a6a6a;stroke-linejoin:miter;" x="573.6" xlink:href="#m09f65faa00" y="355.611259"/>
    </g>
   </g>
   <g id="line2d_67">
    <path clip-path="url(#pd749d16691)" d="M 610.8 209.993798 
L 610.8 335.012152 
" style="fill:none;stroke:#6a6a6a;stroke-linecap:round;stroke-width:2;"/>
   </g>
   <g id="line2d_68">
    <path clip-path="url(#pd749d16691)" d="M 610.8 120.229449 
L 610.8 67.134402 
" style="fill:none;stroke:#6a6a6a;stroke-linecap:round;stroke-width:2;"/>
   </g>
   <g id="line2d_69">
    <path clip-path="url(#pd749d16691)" d="M 601.686 335.012152 
L 619.914 335.012152 
" style="fill:none;stroke:#6a6a6a;stroke-linecap:round;stroke-width:2;"/>
   </g>
   <g id="line2d_70">
    <path clip-path="url(#pd749d16691)" d="M 601.686 67.134402 
L 619.914 67.134402 
" style="fill:none;stroke:#6a6a6a;stroke-linecap:round;stroke-width:2;"/>
   </g>
   <g id="line2d_71">
    <g clip-path="url(#pd749d16691)">
     <use style="fill:#6a6a6a;stroke:#6a6a6a;stroke-linejoin:miter;" x="610.8" xlink:href="#m09f65faa00" y="363.174545"/>
     <use style="fill:#6a6a6a;stroke:#6a6a6a;stroke-linejoin:miter;" x="610.8" xlink:href="#m09f65faa00" y="355.611259"/>
    </g>
   </g>
   <g id="line2d_72">
    <path clip-path="url(#pd749d16691)" d="M 108.972 198.038421 
L 145.428 198.038421 
" style="fill:none;stroke:#6a6a6a;stroke-linecap:round;stroke-width:2;"/>
   </g>
   <g id="line2d_73">
    <path clip-path="url(#pd749d16691)" d="M 146.172 174.128743 
L 182.628 174.128743 
" style="fill:none;stroke:#6a6a6a;stroke-linecap:round;stroke-width:2;"/>
   </g>
   <g id="line2d_74">
    <path clip-path="url(#pd749d16691)" d="M 183.372 170.130196 
L 219.828 170.130196 
" style="fill:none;stroke:#6a6a6a;stroke-linecap:round;stroke-width:2;"/>
   </g>
   <g id="line2d_75">
    <path clip-path="url(#pd749d16691)" d="M 220.572 170.130196 
L 257.028 170.130196 
" style="fill:none;stroke:#6a6a6a;stroke-linecap:round;stroke-width:2;"/>
   </g>
   <g id="line2d_76">
    <path clip-path="url(#pd749d16691)" d="M 294.972 189.344741 
L 331.428 189.344741 
" style="fill:none;stroke:#6a6a6a;stroke-linecap:round;stroke-width:2;"/>
   </g>
   <g id="line2d_77">
    <path clip-path="url(#pd749d16691)" d="M 332.172 174.853442 
L 368.628 174.853442 
" style="fill:none;stroke:#6a6a6a;stroke-linecap:round;stroke-width:2;"/>
   </g>
   <g id="line2d_78">
    <path clip-path="url(#pd749d16691)" d="M 369.372 174.750562 
L 405.828 174.750562 
" style="fill:none;stroke:#6a6a6a;stroke-linecap:round;stroke-width:2;"/>
   </g>
   <g id="line2d_79">
    <path clip-path="url(#pd749d16691)" d="M 406.572 174.750562 
L 443.028 174.750562 
" style="fill:none;stroke:#6a6a6a;stroke-linecap:round;stroke-width:2;"/>
   </g>
   <g id="line2d_80">
    <path clip-path="url(#pd749d16691)" d="M 480.972 172.19266 
L 517.428 172.19266 
" style="fill:none;stroke:#6a6a6a;stroke-linecap:round;stroke-width:2;"/>
   </g>
   <g id="line2d_81">
    <path clip-path="url(#pd749d16691)" d="M 518.172 162.814333 
L 554.628 162.814333 
" style="fill:none;stroke:#6a6a6a;stroke-linecap:round;stroke-width:2;"/>
   </g>
   <g id="line2d_82">
    <path clip-path="url(#pd749d16691)" d="M 555.372 162.805635 
L 591.828 162.805635 
" style="fill:none;stroke:#6a6a6a;stroke-linecap:round;stroke-width:2;"/>
   </g>
   <g id="line2d_83">
    <path clip-path="url(#pd749d16691)" d="M 592.572 162.805635 
L 629.028 162.805635 
" style="fill:none;stroke:#6a6a6a;stroke-linecap:round;stroke-width:2;"/>
   </g>
   <g id="patch_19">
    <path d="M 90 378 
L 90 51.84 
" style="fill:none;stroke:#262626;stroke-linecap:square;stroke-linejoin:miter;"/>
   </g>
   <g id="patch_20">
    <path d="M 648 378 
L 648 51.84 
" style="fill:none;stroke:#262626;stroke-linecap:square;stroke-linejoin:miter;"/>
   </g>
   <g id="patch_21">
    <path d="M 90 378 
L 648 378 
" style="fill:none;stroke:#262626;stroke-linecap:square;stroke-linejoin:miter;"/>
   </g>
   <g id="patch_22">
    <path d="M 90 51.84 
L 648 51.84 
" style="fill:none;stroke:#262626;stroke-linecap:square;stroke-linejoin:miter;"/>
   </g>
   <g id="legend_1">
    <g id="patch_23">
     <path d="M 659.24 256.565375 
L 841.598 256.565375 
Q 844.238 256.565375 844.238 253.925375 
L 844.238 179.914625 
Q 844.238 177.274625 841.598 177.274625 
L 659.24 177.274625 
Q 656.6 177.274625 656.6 179.914625 
L 656.6 253.925375 
Q 656.6 256.565375 659.24 256.565375 
z
" style="fill:#4c4c4c;opacity:0.5;stroke:#4c4c4c;stroke-linejoin:miter;stroke-width:0.8;"/>
    </g>
    <g id="patch_24">
     <path d="M 657.24 254.565375 
L 839.598 254.565375 
Q 842.238 254.565375 842.238 251.925375 
L 842.238 177.914625 
Q 842.238 175.274625 839.598 175.274625 
L 657.24 175.274625 
Q 654.6 175.274625 654.6 177.914625 
L 654.6 251.925375 
Q 654.6 254.565375 657.24 254.565375 
z
" style="fill:#ffffff;stroke:#cccccc;stroke-linejoin:miter;stroke-width:0.8;"/>
    </g>
    <g id="patch_25">
     <path d="M 659.88 190.163812 
L 686.28 190.163812 
L 686.28 180.923812 
L 659.88 180.923812 
z
" style="fill:#f6f6bc;stroke:#6a6a6a;stroke-linejoin:miter;"/>
    </g>
    <g id="text_14">
     <!-- metakrr_skfL:0cv:1_cnn -->
     <defs>
      <path d="M 6.640625 0 
L 6.640625 71.578125 
L 15.4375 71.578125 
L 15.4375 30.765625 
L 36.234375 51.859375 
L 47.609375 51.859375 
L 27.78125 32.625 
L 49.609375 0 
L 38.765625 0 
L 21.625 26.515625 
L 15.4375 20.5625 
L 15.4375 0 
z
" id="ArialMT-107"/>
      <path d="M -1.515625 -19.875 
L -1.515625 -13.53125 
L 56.734375 -13.53125 
L 56.734375 -19.875 
z
" id="ArialMT-95"/>
      <path d="M 8.6875 0 
L 8.6875 45.015625 
L 0.921875 45.015625 
L 0.921875 51.859375 
L 8.6875 51.859375 
L 8.6875 57.375 
Q 8.6875 62.59375 9.625 65.140625 
Q 10.890625 68.5625 14.078125 70.671875 
Q 17.28125 72.796875 23.046875 72.796875 
Q 26.765625 72.796875 31.25 71.921875 
L 29.9375 64.265625 
Q 27.203125 64.75 24.75 64.75 
Q 20.75 64.75 19.09375 63.03125 
Q 17.4375 61.328125 17.4375 56.640625 
L 17.4375 51.859375 
L 27.546875 51.859375 
L 27.546875 45.015625 
L 17.4375 45.015625 
L 17.4375 0 
z
" id="ArialMT-102"/>
      <path d="M 7.328125 0 
L 7.328125 71.578125 
L 16.796875 71.578125 
L 16.796875 8.453125 
L 52.046875 8.453125 
L 52.046875 0 
z
" id="ArialMT-76"/>
      <path d="M 9.03125 41.84375 
L 9.03125 51.859375 
L 19.046875 51.859375 
L 19.046875 41.84375 
z
M 9.03125 0 
L 9.03125 10.015625 
L 19.046875 10.015625 
L 19.046875 0 
z
" id="ArialMT-58"/>
      <path d="M 21 0 
L 1.265625 51.859375 
L 10.546875 51.859375 
L 21.6875 20.796875 
Q 23.484375 15.765625 25 10.359375 
Q 26.171875 14.453125 28.265625 20.21875 
L 39.796875 51.859375 
L 48.828125 51.859375 
L 29.203125 0 
z
" id="ArialMT-118"/>
     </defs>
     <g style="fill:#262626;" transform="translate(696.84 190.163812)scale(0.132 -0.132)">
      <use xlink:href="#ArialMT-109"/>
      <use x="83.300781" xlink:href="#ArialMT-101"/>
      <use x="138.916016" xlink:href="#ArialMT-116"/>
      <use x="166.699219" xlink:href="#ArialMT-97"/>
      <use x="222.314453" xlink:href="#ArialMT-107"/>
      <use x="272.314453" xlink:href="#ArialMT-114"/>
      <use x="305.615234" xlink:href="#ArialMT-114"/>
      <use x="338.916016" xlink:href="#ArialMT-95"/>
      <use x="394.53125" xlink:href="#ArialMT-115"/>
      <use x="444.53125" xlink:href="#ArialMT-107"/>
      <use x="494.53125" xlink:href="#ArialMT-102"/>
      <use x="522.314453" xlink:href="#ArialMT-76"/>
      <use x="577.929688" xlink:href="#ArialMT-58"/>
      <use x="605.712891" xlink:href="#ArialMT-48"/>
      <use x="661.328125" xlink:href="#ArialMT-99"/>
      <use x="711.328125" xlink:href="#ArialMT-118"/>
      <use x="761.328125" xlink:href="#ArialMT-58"/>
      <use x="789.111328" xlink:href="#ArialMT-49"/>
      <use x="844.726562" xlink:href="#ArialMT-95"/>
      <use x="900.341797" xlink:href="#ArialMT-99"/>
      <use x="950.341797" xlink:href="#ArialMT-110"/>
      <use x="1005.957031" xlink:href="#ArialMT-110"/>
     </g>
    </g>
    <g id="patch_26">
     <path d="M 659.88 208.9965 
L 686.28 208.9965 
L 686.28 199.7565 
L 659.88 199.7565 
z
" style="fill:#96cac1;stroke:#6a6a6a;stroke-linejoin:miter;"/>
    </g>
    <g id="text_15">
     <!-- metakrr_skfL:0cv:0_cnn -->
     <g style="fill:#262626;" transform="translate(696.84 208.9965)scale(0.132 -0.132)">
      <use xlink:href="#ArialMT-109"/>
      <use x="83.300781" xlink:href="#ArialMT-101"/>
      <use x="138.916016" xlink:href="#ArialMT-116"/>
      <use x="166.699219" xlink:href="#ArialMT-97"/>
      <use x="222.314453" xlink:href="#ArialMT-107"/>
      <use x="272.314453" xlink:href="#ArialMT-114"/>
      <use x="305.615234" xlink:href="#ArialMT-114"/>
      <use x="338.916016" xlink:href="#ArialMT-95"/>
      <use x="394.53125" xlink:href="#ArialMT-115"/>
      <use x="444.53125" xlink:href="#ArialMT-107"/>
      <use x="494.53125" xlink:href="#ArialMT-102"/>
      <use x="522.314453" xlink:href="#ArialMT-76"/>
      <use x="577.929688" xlink:href="#ArialMT-58"/>
      <use x="605.712891" xlink:href="#ArialMT-48"/>
      <use x="661.328125" xlink:href="#ArialMT-99"/>
      <use x="711.328125" xlink:href="#ArialMT-118"/>
      <use x="761.328125" xlink:href="#ArialMT-58"/>
      <use x="789.111328" xlink:href="#ArialMT-48"/>
      <use x="844.726562" xlink:href="#ArialMT-95"/>
      <use x="900.341797" xlink:href="#ArialMT-99"/>
      <use x="950.341797" xlink:href="#ArialMT-110"/>
      <use x="1005.957031" xlink:href="#ArialMT-110"/>
     </g>
    </g>
    <g id="patch_27">
     <path d="M 659.88 227.829187 
L 686.28 227.829187 
L 686.28 218.589187 
L 659.88 218.589187 
z
" style="fill:#ea8e83;stroke:#6a6a6a;stroke-linejoin:miter;"/>
    </g>
    <g id="text_16">
     <!-- metakrr_skfL:1cv:1_cnn -->
     <g style="fill:#262626;" transform="translate(696.84 227.829187)scale(0.132 -0.132)">
      <use xlink:href="#ArialMT-109"/>
      <use x="83.300781" xlink:href="#ArialMT-101"/>
      <use x="138.916016" xlink:href="#ArialMT-116"/>
      <use x="166.699219" xlink:href="#ArialMT-97"/>
      <use x="222.314453" xlink:href="#ArialMT-107"/>
      <use x="272.314453" xlink:href="#ArialMT-114"/>
      <use x="305.615234" xlink:href="#ArialMT-114"/>
      <use x="338.916016" xlink:href="#ArialMT-95"/>
      <use x="394.53125" xlink:href="#ArialMT-115"/>
      <use x="444.53125" xlink:href="#ArialMT-107"/>
      <use x="494.53125" xlink:href="#ArialMT-102"/>
      <use x="522.314453" xlink:href="#ArialMT-76"/>
      <use x="577.929688" xlink:href="#ArialMT-58"/>
      <use x="605.712891" xlink:href="#ArialMT-49"/>
      <use x="661.328125" xlink:href="#ArialMT-99"/>
      <use x="711.328125" xlink:href="#ArialMT-118"/>
      <use x="761.328125" xlink:href="#ArialMT-58"/>
      <use x="789.111328" xlink:href="#ArialMT-49"/>
      <use x="844.726562" xlink:href="#ArialMT-95"/>
      <use x="900.341797" xlink:href="#ArialMT-99"/>
      <use x="950.341797" xlink:href="#ArialMT-110"/>
      <use x="1005.957031" xlink:href="#ArialMT-110"/>
     </g>
    </g>
    <g id="patch_28">
     <path d="M 659.88 246.661875 
L 686.28 246.661875 
L 686.28 237.421875 
L 659.88 237.421875 
z
" style="fill:#c1bed6;stroke:#6a6a6a;stroke-linejoin:miter;"/>
    </g>
    <g id="text_17">
     <!-- metakrr_skfL:1cv:0_cnn -->
     <g style="fill:#262626;" transform="translate(696.84 246.661875)scale(0.132 -0.132)">
      <use xlink:href="#ArialMT-109"/>
      <use x="83.300781" xlink:href="#ArialMT-101"/>
      <use x="138.916016" xlink:href="#ArialMT-116"/>
      <use x="166.699219" xlink:href="#ArialMT-97"/>
      <use x="222.314453" xlink:href="#ArialMT-107"/>
      <use x="272.314453" xlink:href="#ArialMT-114"/>
      <use x="305.615234" xlink:href="#ArialMT-114"/>
      <use x="338.916016" xlink:href="#ArialMT-95"/>
      <use x="394.53125" xlink:href="#ArialMT-115"/>
      <use x="444.53125" xlink:href="#ArialMT-107"/>
      <use x="494.53125" xlink:href="#ArialMT-102"/>
      <use x="522.314453" xlink:href="#ArialMT-76"/>
      <use x="577.929688" xlink:href="#ArialMT-58"/>
      <use x="605.712891" xlink:href="#ArialMT-49"/>
      <use x="661.328125" xlink:href="#ArialMT-99"/>
      <use x="711.328125" xlink:href="#ArialMT-118"/>
      <use x="761.328125" xlink:href="#ArialMT-58"/>
      <use x="789.111328" xlink:href="#ArialMT-48"/>
      <use x="844.726562" xlink:href="#ArialMT-95"/>
      <use x="900.341797" xlink:href="#ArialMT-99"/>
      <use x="950.341797" xlink:href="#ArialMT-110"/>
      <use x="1005.957031" xlink:href="#ArialMT-110"/>
     </g>
    </g>
   </g>
  </g>
 </g>
 <defs>
  <clipPath id="pd749d16691">
   <rect height="326.16" width="558" x="90" y="51.84"/>
  </clipPath>
 </defs>
</svg>
