<?xml version="1.0" encoding="utf-8" standalone="no"?>
<!DOCTYPE svg PUBLIC "-//W3C//DTD SVG 1.1//EN"
  "http://www.w3.org/Graphics/SVG/1.1/DTD/svg11.dtd">
<!-- Created with matplotlib (https://matplotlib.org/) -->
<svg height="432pt" version="1.1" viewBox="0 0 720 432" width="720pt" xmlns="http://www.w3.org/2000/svg" xmlns:xlink="http://www.w3.org/1999/xlink">
 <defs>
  <style type="text/css">
*{stroke-linecap:butt;stroke-linejoin:round;}
  </style>
 </defs>
 <g id="figure_1">
  <g id="patch_1">
   <path d="M 0 432 
L 720 432 
L 720 0 
L 0 0 
z
" style="fill:#ffffff;"/>
  </g>
  <g id="axes_1">
   <g id="patch_2">
    <path d="M 90 378 
L 648 378 
L 648 51.84 
L 90 51.84 
z
" style="fill:#ffffff;"/>
   </g>
   <g id="matplotlib.axis_1">
    <g id="xtick_1">
     <g id="line2d_1">
      <defs>
       <path d="M 0 0 
L 0 4.8 
" id="mbf2b2a8d38" style="stroke:#262626;"/>
      </defs>
      <g>
       <use style="fill:#262626;stroke:#262626;" x="136.5" xlink:href="#mbf2b2a8d38" y="378"/>
      </g>
     </g>
     <g id="text_1">
      <!-- metakrr_skfL:1cv:1_cnn_10 -->
      <defs>
       <path d="M 6.59375 0 
L 6.59375 51.859375 
L 14.453125 51.859375 
L 14.453125 44.578125 
Q 16.890625 48.390625 20.9375 50.703125 
Q 25 53.03125 30.171875 53.03125 
Q 35.9375 53.03125 39.625 50.640625 
Q 43.3125 48.25 44.828125 43.953125 
Q 50.984375 53.03125 60.84375 53.03125 
Q 68.5625 53.03125 72.703125 48.75 
Q 76.859375 44.484375 76.859375 35.59375 
L 76.859375 0 
L 68.109375 0 
L 68.109375 32.671875 
Q 68.109375 37.9375 67.25 40.25 
Q 66.40625 42.578125 64.15625 43.984375 
Q 61.921875 45.40625 58.890625 45.40625 
Q 53.421875 45.40625 49.796875 41.765625 
Q 46.1875 38.140625 46.1875 30.125 
L 46.1875 0 
L 37.40625 0 
L 37.40625 33.6875 
Q 37.40625 39.546875 35.25 42.46875 
Q 33.109375 45.40625 28.21875 45.40625 
Q 24.515625 45.40625 21.359375 43.453125 
Q 18.21875 41.5 16.796875 37.734375 
Q 15.375 33.984375 15.375 26.90625 
L 15.375 0 
z
" id="ArialMT-109"/>
       <path d="M 42.09375 16.703125 
L 51.171875 15.578125 
Q 49.03125 7.625 43.21875 3.21875 
Q 37.40625 -1.171875 28.375 -1.171875 
Q 17 -1.171875 10.328125 5.828125 
Q 3.65625 12.84375 3.65625 25.484375 
Q 3.65625 38.578125 10.390625 45.796875 
Q 17.140625 53.03125 27.875 53.03125 
Q 38.28125 53.03125 44.875 45.953125 
Q 51.46875 38.875 51.46875 26.03125 
Q 51.46875 25.25 51.421875 23.6875 
L 12.75 23.6875 
Q 13.234375 15.140625 17.578125 10.59375 
Q 21.921875 6.0625 28.421875 6.0625 
Q 33.25 6.0625 36.671875 8.59375 
Q 40.09375 11.140625 42.09375 16.703125 
z
M 13.234375 30.90625 
L 42.1875 30.90625 
Q 41.609375 37.453125 38.875 40.71875 
Q 34.671875 45.796875 27.984375 45.796875 
Q 21.921875 45.796875 17.796875 41.75 
Q 13.671875 37.703125 13.234375 30.90625 
z
" id="ArialMT-101"/>
       <path d="M 25.78125 7.859375 
L 27.046875 0.09375 
Q 23.34375 -0.6875 20.40625 -0.6875 
Q 15.625 -0.6875 12.984375 0.828125 
Q 10.359375 2.34375 9.28125 4.8125 
Q 8.203125 7.28125 8.203125 15.1875 
L 8.203125 45.015625 
L 1.765625 45.015625 
L 1.765625 51.859375 
L 8.203125 51.859375 
L 8.203125 64.703125 
L 16.9375 69.96875 
L 16.9375 51.859375 
L 25.78125 51.859375 
L 25.78125 45.015625 
L 16.9375 45.015625 
L 16.9375 14.703125 
Q 16.9375 10.9375 17.40625 9.859375 
Q 17.875 8.796875 18.921875 8.15625 
Q 19.96875 7.515625 21.921875 7.515625 
Q 23.390625 7.515625 25.78125 7.859375 
z
" id="ArialMT-116"/>
       <path d="M 40.4375 6.390625 
Q 35.546875 2.25 31.03125 0.53125 
Q 26.515625 -1.171875 21.34375 -1.171875 
Q 12.796875 -1.171875 8.203125 3 
Q 3.609375 7.171875 3.609375 13.671875 
Q 3.609375 17.484375 5.34375 20.625 
Q 7.078125 23.78125 9.890625 25.6875 
Q 12.703125 27.59375 16.21875 28.5625 
Q 18.796875 29.25 24.03125 29.890625 
Q 34.671875 31.15625 39.703125 32.90625 
Q 39.75 34.71875 39.75 35.203125 
Q 39.75 40.578125 37.25 42.78125 
Q 33.890625 45.75 27.25 45.75 
Q 21.046875 45.75 18.09375 43.578125 
Q 15.140625 41.40625 13.71875 35.890625 
L 5.125 37.0625 
Q 6.296875 42.578125 8.984375 45.96875 
Q 11.671875 49.359375 16.75 51.1875 
Q 21.828125 53.03125 28.515625 53.03125 
Q 35.15625 53.03125 39.296875 51.46875 
Q 43.453125 49.90625 45.40625 47.53125 
Q 47.359375 45.171875 48.140625 41.546875 
Q 48.578125 39.3125 48.578125 33.453125 
L 48.578125 21.734375 
Q 48.578125 9.46875 49.140625 6.21875 
Q 49.703125 2.984375 51.375 0 
L 42.1875 0 
Q 40.828125 2.734375 40.4375 6.390625 
z
M 39.703125 26.03125 
Q 34.90625 24.078125 25.34375 22.703125 
Q 19.921875 21.921875 17.671875 20.9375 
Q 15.4375 19.96875 14.203125 18.09375 
Q 12.984375 16.21875 12.984375 13.921875 
Q 12.984375 10.40625 15.640625 8.0625 
Q 18.3125 5.71875 23.4375 5.71875 
Q 28.515625 5.71875 32.46875 7.9375 
Q 36.421875 10.15625 38.28125 14.015625 
Q 39.703125 17 39.703125 22.796875 
z
" id="ArialMT-97"/>
       <path d="M 6.640625 0 
L 6.640625 71.578125 
L 15.4375 71.578125 
L 15.4375 30.765625 
L 36.234375 51.859375 
L 47.609375 51.859375 
L 27.78125 32.625 
L 49.609375 0 
L 38.765625 0 
L 21.625 26.515625 
L 15.4375 20.5625 
L 15.4375 0 
z
" id="ArialMT-107"/>
       <path d="M 6.5 0 
L 6.5 51.859375 
L 14.40625 51.859375 
L 14.40625 44 
Q 17.4375 49.515625 20 51.265625 
Q 22.5625 53.03125 25.640625 53.03125 
Q 30.078125 53.03125 34.671875 50.203125 
L 31.640625 42.046875 
Q 28.421875 43.953125 25.203125 43.953125 
Q 22.3125 43.953125 20.015625 42.21875 
Q 17.71875 40.484375 16.75 37.40625 
Q 15.28125 32.71875 15.28125 27.15625 
L 15.28125 0 
z
" id="ArialMT-114"/>
       <path d="M -1.515625 -19.875 
L -1.515625 -13.53125 
L 56.734375 -13.53125 
L 56.734375 -19.875 
z
" id="ArialMT-95"/>
       <path d="M 3.078125 15.484375 
L 11.765625 16.84375 
Q 12.5 11.625 15.84375 8.84375 
Q 19.1875 6.0625 25.203125 6.0625 
Q 31.25 6.0625 34.171875 8.515625 
Q 37.109375 10.984375 37.109375 14.3125 
Q 37.109375 17.28125 34.515625 19 
Q 32.71875 20.171875 25.53125 21.96875 
Q 15.875 24.421875 12.140625 26.203125 
Q 8.40625 27.984375 6.46875 31.125 
Q 4.546875 34.28125 4.546875 38.09375 
Q 4.546875 41.546875 6.125 44.5 
Q 7.71875 47.46875 10.453125 49.421875 
Q 12.5 50.921875 16.03125 51.96875 
Q 19.578125 53.03125 23.640625 53.03125 
Q 29.734375 53.03125 34.34375 51.265625 
Q 38.96875 49.515625 41.15625 46.5 
Q 43.359375 43.5 44.1875 38.484375 
L 35.59375 37.3125 
Q 35.015625 41.3125 32.203125 43.546875 
Q 29.390625 45.796875 24.265625 45.796875 
Q 18.21875 45.796875 15.625 43.796875 
Q 13.03125 41.796875 13.03125 39.109375 
Q 13.03125 37.40625 14.109375 36.03125 
Q 15.1875 34.625 17.484375 33.6875 
Q 18.796875 33.203125 25.25 31.453125 
Q 34.578125 28.953125 38.25 27.359375 
Q 41.9375 25.78125 44.03125 22.75 
Q 46.140625 19.734375 46.140625 15.234375 
Q 46.140625 10.84375 43.578125 6.953125 
Q 41.015625 3.078125 36.171875 0.953125 
Q 31.34375 -1.171875 25.25 -1.171875 
Q 15.140625 -1.171875 9.84375 3.03125 
Q 4.546875 7.234375 3.078125 15.484375 
z
" id="ArialMT-115"/>
       <path d="M 8.6875 0 
L 8.6875 45.015625 
L 0.921875 45.015625 
L 0.921875 51.859375 
L 8.6875 51.859375 
L 8.6875 57.375 
Q 8.6875 62.59375 9.625 65.140625 
Q 10.890625 68.5625 14.078125 70.671875 
Q 17.28125 72.796875 23.046875 72.796875 
Q 26.765625 72.796875 31.25 71.921875 
L 29.9375 64.265625 
Q 27.203125 64.75 24.75 64.75 
Q 20.75 64.75 19.09375 63.03125 
Q 17.4375 61.328125 17.4375 56.640625 
L 17.4375 51.859375 
L 27.546875 51.859375 
L 27.546875 45.015625 
L 17.4375 45.015625 
L 17.4375 0 
z
" id="ArialMT-102"/>
       <path d="M 7.328125 0 
L 7.328125 71.578125 
L 16.796875 71.578125 
L 16.796875 8.453125 
L 52.046875 8.453125 
L 52.046875 0 
z
" id="ArialMT-76"/>
       <path d="M 9.03125 41.84375 
L 9.03125 51.859375 
L 19.046875 51.859375 
L 19.046875 41.84375 
z
M 9.03125 0 
L 9.03125 10.015625 
L 19.046875 10.015625 
L 19.046875 0 
z
" id="ArialMT-58"/>
       <path d="M 37.25 0 
L 28.46875 0 
L 28.46875 56 
Q 25.296875 52.984375 20.140625 49.953125 
Q 14.984375 46.921875 10.890625 45.40625 
L 10.890625 53.90625 
Q 18.265625 57.375 23.78125 62.296875 
Q 29.296875 67.234375 31.59375 71.875 
L 37.25 71.875 
z
" id="ArialMT-49"/>
       <path d="M 40.4375 19 
L 49.078125 17.875 
Q 47.65625 8.9375 41.8125 3.875 
Q 35.984375 -1.171875 27.484375 -1.171875 
Q 16.84375 -1.171875 10.375 5.78125 
Q 3.90625 12.75 3.90625 25.734375 
Q 3.90625 34.125 6.6875 40.421875 
Q 9.46875 46.734375 15.15625 49.875 
Q 20.84375 53.03125 27.546875 53.03125 
Q 35.984375 53.03125 41.359375 48.75 
Q 46.734375 44.484375 48.25 36.625 
L 39.703125 35.296875 
Q 38.484375 40.53125 35.375 43.15625 
Q 32.28125 45.796875 27.875 45.796875 
Q 21.234375 45.796875 17.078125 41.03125 
Q 12.9375 36.28125 12.9375 25.984375 
Q 12.9375 15.53125 16.9375 10.796875 
Q 20.953125 6.0625 27.390625 6.0625 
Q 32.5625 6.0625 36.03125 9.234375 
Q 39.5 12.40625 40.4375 19 
z
" id="ArialMT-99"/>
       <path d="M 21 0 
L 1.265625 51.859375 
L 10.546875 51.859375 
L 21.6875 20.796875 
Q 23.484375 15.765625 25 10.359375 
Q 26.171875 14.453125 28.265625 20.21875 
L 39.796875 51.859375 
L 48.828125 51.859375 
L 29.203125 0 
z
" id="ArialMT-118"/>
       <path d="M 6.59375 0 
L 6.59375 51.859375 
L 14.5 51.859375 
L 14.5 44.484375 
Q 20.21875 53.03125 31 53.03125 
Q 35.6875 53.03125 39.625 51.34375 
Q 43.5625 49.65625 45.515625 46.921875 
Q 47.46875 44.1875 48.25 40.4375 
Q 48.734375 37.984375 48.734375 31.890625 
L 48.734375 0 
L 39.9375 0 
L 39.9375 31.546875 
Q 39.9375 36.921875 38.90625 39.578125 
Q 37.890625 42.234375 35.28125 43.8125 
Q 32.671875 45.40625 29.15625 45.40625 
Q 23.53125 45.40625 19.453125 41.84375 
Q 15.375 38.28125 15.375 28.328125 
L 15.375 0 
z
" id="ArialMT-110"/>
       <path d="M 4.15625 35.296875 
Q 4.15625 48 6.765625 55.734375 
Q 9.375 63.484375 14.515625 67.671875 
Q 19.671875 71.875 27.484375 71.875 
Q 33.25 71.875 37.59375 69.546875 
Q 41.9375 67.234375 44.765625 62.859375 
Q 47.609375 58.5 49.21875 52.21875 
Q 50.828125 45.953125 50.828125 35.296875 
Q 50.828125 22.703125 48.234375 14.96875 
Q 45.65625 7.234375 40.5 3 
Q 35.359375 -1.21875 27.484375 -1.21875 
Q 17.140625 -1.21875 11.234375 6.203125 
Q 4.15625 15.140625 4.15625 35.296875 
z
M 13.1875 35.296875 
Q 13.1875 17.671875 17.3125 11.828125 
Q 21.4375 6 27.484375 6 
Q 33.546875 6 37.671875 11.859375 
Q 41.796875 17.71875 41.796875 35.296875 
Q 41.796875 52.984375 37.671875 58.78125 
Q 33.546875 64.59375 27.390625 64.59375 
Q 21.34375 64.59375 17.71875 59.46875 
Q 13.1875 52.9375 13.1875 35.296875 
z
" id="ArialMT-48"/>
      </defs>
      <g style="fill:#262626;" transform="translate(118.982622 387.968618)rotate(-280)scale(0.132 -0.132)">
       <use xlink:href="#ArialMT-109"/>
       <use x="83.300781" xlink:href="#ArialMT-101"/>
       <use x="138.916016" xlink:href="#ArialMT-116"/>
       <use x="166.699219" xlink:href="#ArialMT-97"/>
       <use x="222.314453" xlink:href="#ArialMT-107"/>
       <use x="272.314453" xlink:href="#ArialMT-114"/>
       <use x="305.615234" xlink:href="#ArialMT-114"/>
       <use x="338.916016" xlink:href="#ArialMT-95"/>
       <use x="394.53125" xlink:href="#ArialMT-115"/>
       <use x="444.53125" xlink:href="#ArialMT-107"/>
       <use x="494.53125" xlink:href="#ArialMT-102"/>
       <use x="522.314453" xlink:href="#ArialMT-76"/>
       <use x="577.929688" xlink:href="#ArialMT-58"/>
       <use x="605.712891" xlink:href="#ArialMT-49"/>
       <use x="661.328125" xlink:href="#ArialMT-99"/>
       <use x="711.328125" xlink:href="#ArialMT-118"/>
       <use x="761.328125" xlink:href="#ArialMT-58"/>
       <use x="789.111328" xlink:href="#ArialMT-49"/>
       <use x="844.726562" xlink:href="#ArialMT-95"/>
       <use x="900.341797" xlink:href="#ArialMT-99"/>
       <use x="950.341797" xlink:href="#ArialMT-110"/>
       <use x="1005.957031" xlink:href="#ArialMT-110"/>
       <use x="1061.572266" xlink:href="#ArialMT-95"/>
       <use x="1117.1875" xlink:href="#ArialMT-49"/>
       <use x="1172.802734" xlink:href="#ArialMT-48"/>
      </g>
     </g>
    </g>
    <g id="xtick_2">
     <g id="line2d_2">
      <g>
       <use style="fill:#262626;stroke:#262626;" x="229.5" xlink:href="#mbf2b2a8d38" y="378"/>
      </g>
     </g>
     <g id="text_2">
      <!-- mann_cnn_10 -->
      <g style="fill:#262626;" transform="translate(218.856512 387.947487)rotate(-280)scale(0.132 -0.132)">
       <use xlink:href="#ArialMT-109"/>
       <use x="83.300781" xlink:href="#ArialMT-97"/>
       <use x="138.916016" xlink:href="#ArialMT-110"/>
       <use x="194.53125" xlink:href="#ArialMT-110"/>
       <use x="250.146484" xlink:href="#ArialMT-95"/>
       <use x="305.761719" xlink:href="#ArialMT-99"/>
       <use x="355.761719" xlink:href="#ArialMT-110"/>
       <use x="411.376953" xlink:href="#ArialMT-110"/>
       <use x="466.992188" xlink:href="#ArialMT-95"/>
       <use x="522.607422" xlink:href="#ArialMT-49"/>
       <use x="578.222656" xlink:href="#ArialMT-48"/>
      </g>
     </g>
    </g>
    <g id="xtick_3">
     <g id="line2d_3">
      <g>
       <use style="fill:#262626;stroke:#262626;" x="322.5" xlink:href="#mbf2b2a8d38" y="378"/>
      </g>
     </g>
     <g id="text_3">
      <!-- seqtoseq__10 -->
      <defs>
       <path d="M 39.65625 -19.875 
L 39.65625 5.515625 
Q 37.59375 2.640625 33.90625 0.734375 
Q 30.21875 -1.171875 26.078125 -1.171875 
Q 16.84375 -1.171875 10.171875 6.203125 
Q 3.515625 13.578125 3.515625 26.421875 
Q 3.515625 34.234375 6.21875 40.421875 
Q 8.9375 46.625 14.078125 49.828125 
Q 19.234375 53.03125 25.390625 53.03125 
Q 35.015625 53.03125 40.53125 44.921875 
L 40.53125 51.859375 
L 48.4375 51.859375 
L 48.4375 -19.875 
z
M 12.546875 26.078125 
Q 12.546875 16.0625 16.75 11.0625 
Q 20.953125 6.0625 26.8125 6.0625 
Q 32.421875 6.0625 36.46875 10.8125 
Q 40.53125 15.578125 40.53125 25.296875 
Q 40.53125 35.640625 36.25 40.859375 
Q 31.984375 46.09375 26.21875 46.09375 
Q 20.515625 46.09375 16.53125 41.234375 
Q 12.546875 36.375 12.546875 26.078125 
z
" id="ArialMT-113"/>
       <path d="M 3.328125 25.921875 
Q 3.328125 40.328125 11.328125 47.265625 
Q 18.015625 53.03125 27.640625 53.03125 
Q 38.328125 53.03125 45.109375 46.015625 
Q 51.90625 39.015625 51.90625 26.65625 
Q 51.90625 16.65625 48.90625 10.90625 
Q 45.90625 5.171875 40.15625 2 
Q 34.421875 -1.171875 27.640625 -1.171875 
Q 16.75 -1.171875 10.03125 5.8125 
Q 3.328125 12.796875 3.328125 25.921875 
z
M 12.359375 25.921875 
Q 12.359375 15.96875 16.703125 11.015625 
Q 21.046875 6.0625 27.640625 6.0625 
Q 34.1875 6.0625 38.53125 11.03125 
Q 42.875 16.015625 42.875 26.21875 
Q 42.875 35.84375 38.5 40.796875 
Q 34.125 45.75 27.640625 45.75 
Q 21.046875 45.75 16.703125 40.8125 
Q 12.359375 35.890625 12.359375 25.921875 
z
" id="ArialMT-111"/>
      </defs>
      <g style="fill:#262626;" transform="translate(311.919726 387.947487)rotate(-280)scale(0.132 -0.132)">
       <use xlink:href="#ArialMT-115"/>
       <use x="50" xlink:href="#ArialMT-101"/>
       <use x="105.615234" xlink:href="#ArialMT-113"/>
       <use x="161.230469" xlink:href="#ArialMT-116"/>
       <use x="189.013672" xlink:href="#ArialMT-111"/>
       <use x="244.628906" xlink:href="#ArialMT-115"/>
       <use x="294.628906" xlink:href="#ArialMT-101"/>
       <use x="350.244141" xlink:href="#ArialMT-113"/>
       <use x="405.859375" xlink:href="#ArialMT-95"/>
       <use x="461.474609" xlink:href="#ArialMT-95"/>
       <use x="517.089844" xlink:href="#ArialMT-49"/>
       <use x="572.705078" xlink:href="#ArialMT-48"/>
      </g>
     </g>
    </g>
    <g id="xtick_4">
     <g id="line2d_4">
      <g>
       <use style="fill:#262626;stroke:#262626;" x="415.5" xlink:href="#mbf2b2a8d38" y="378"/>
      </g>
     </g>
     <g id="text_4">
      <!-- rf_morgan_circular_10 -->
      <defs>
       <path d="M 4.984375 -4.296875 
L 13.53125 -5.5625 
Q 14.0625 -9.515625 16.5 -11.328125 
Q 19.78125 -13.765625 25.4375 -13.765625 
Q 31.546875 -13.765625 34.859375 -11.328125 
Q 38.1875 -8.890625 39.359375 -4.5 
Q 40.046875 -1.8125 39.984375 6.78125 
Q 34.234375 0 25.640625 0 
Q 14.9375 0 9.078125 7.71875 
Q 3.21875 15.4375 3.21875 26.21875 
Q 3.21875 33.640625 5.90625 39.90625 
Q 8.59375 46.1875 13.6875 49.609375 
Q 18.796875 53.03125 25.6875 53.03125 
Q 34.859375 53.03125 40.828125 45.609375 
L 40.828125 51.859375 
L 48.921875 51.859375 
L 48.921875 7.03125 
Q 48.921875 -5.078125 46.453125 -10.125 
Q 44 -15.1875 38.640625 -18.109375 
Q 33.296875 -21.046875 25.484375 -21.046875 
Q 16.21875 -21.046875 10.5 -16.875 
Q 4.78125 -12.703125 4.984375 -4.296875 
z
M 12.25 26.859375 
Q 12.25 16.65625 16.296875 11.96875 
Q 20.359375 7.28125 26.46875 7.28125 
Q 32.515625 7.28125 36.609375 11.9375 
Q 40.71875 16.609375 40.71875 26.5625 
Q 40.71875 36.078125 36.5 40.90625 
Q 32.28125 45.75 26.3125 45.75 
Q 20.453125 45.75 16.34375 40.984375 
Q 12.25 36.234375 12.25 26.859375 
z
" id="ArialMT-103"/>
       <path d="M 6.640625 61.46875 
L 6.640625 71.578125 
L 15.4375 71.578125 
L 15.4375 61.46875 
z
M 6.640625 0 
L 6.640625 51.859375 
L 15.4375 51.859375 
L 15.4375 0 
z
" id="ArialMT-105"/>
       <path d="M 40.578125 0 
L 40.578125 7.625 
Q 34.515625 -1.171875 24.125 -1.171875 
Q 19.53125 -1.171875 15.546875 0.578125 
Q 11.578125 2.34375 9.640625 5 
Q 7.71875 7.671875 6.9375 11.53125 
Q 6.390625 14.109375 6.390625 19.734375 
L 6.390625 51.859375 
L 15.1875 51.859375 
L 15.1875 23.09375 
Q 15.1875 16.21875 15.71875 13.8125 
Q 16.546875 10.359375 19.234375 8.375 
Q 21.921875 6.390625 25.875 6.390625 
Q 29.828125 6.390625 33.296875 8.421875 
Q 36.765625 10.453125 38.203125 13.9375 
Q 39.65625 17.4375 39.65625 24.078125 
L 39.65625 51.859375 
L 48.4375 51.859375 
L 48.4375 0 
z
" id="ArialMT-117"/>
       <path d="M 6.390625 0 
L 6.390625 71.578125 
L 15.1875 71.578125 
L 15.1875 0 
z
" id="ArialMT-108"/>
      </defs>
      <g style="fill:#262626;" transform="translate(400.670953 387.968618)rotate(-280)scale(0.132 -0.132)">
       <use xlink:href="#ArialMT-114"/>
       <use x="33.300781" xlink:href="#ArialMT-102"/>
       <use x="61.083984" xlink:href="#ArialMT-95"/>
       <use x="116.699219" xlink:href="#ArialMT-109"/>
       <use x="200" xlink:href="#ArialMT-111"/>
       <use x="255.615234" xlink:href="#ArialMT-114"/>
       <use x="288.916016" xlink:href="#ArialMT-103"/>
       <use x="344.53125" xlink:href="#ArialMT-97"/>
       <use x="400.146484" xlink:href="#ArialMT-110"/>
       <use x="455.761719" xlink:href="#ArialMT-95"/>
       <use x="511.376953" xlink:href="#ArialMT-99"/>
       <use x="561.376953" xlink:href="#ArialMT-105"/>
       <use x="583.59375" xlink:href="#ArialMT-114"/>
       <use x="616.894531" xlink:href="#ArialMT-99"/>
       <use x="666.894531" xlink:href="#ArialMT-117"/>
       <use x="722.509766" xlink:href="#ArialMT-108"/>
       <use x="744.726562" xlink:href="#ArialMT-97"/>
       <use x="800.341797" xlink:href="#ArialMT-114"/>
       <use x="833.642578" xlink:href="#ArialMT-95"/>
       <use x="889.257812" xlink:href="#ArialMT-49"/>
       <use x="944.873047" xlink:href="#ArialMT-48"/>
      </g>
     </g>
    </g>
    <g id="xtick_5">
     <g id="line2d_5">
      <g>
       <use style="fill:#262626;stroke:#262626;" x="508.5" xlink:href="#mbf2b2a8d38" y="378"/>
      </g>
     </g>
     <g id="text_5">
      <!-- kr_morgan_circular_10 -->
      <g style="fill:#262626;" transform="translate(493.476229 387.947487)rotate(-280)scale(0.132 -0.132)">
       <use xlink:href="#ArialMT-107"/>
       <use x="50" xlink:href="#ArialMT-114"/>
       <use x="83.300781" xlink:href="#ArialMT-95"/>
       <use x="138.916016" xlink:href="#ArialMT-109"/>
       <use x="222.216797" xlink:href="#ArialMT-111"/>
       <use x="277.832031" xlink:href="#ArialMT-114"/>
       <use x="311.132812" xlink:href="#ArialMT-103"/>
       <use x="366.748047" xlink:href="#ArialMT-97"/>
       <use x="422.363281" xlink:href="#ArialMT-110"/>
       <use x="477.978516" xlink:href="#ArialMT-95"/>
       <use x="533.59375" xlink:href="#ArialMT-99"/>
       <use x="583.59375" xlink:href="#ArialMT-105"/>
       <use x="605.810547" xlink:href="#ArialMT-114"/>
       <use x="639.111328" xlink:href="#ArialMT-99"/>
       <use x="689.111328" xlink:href="#ArialMT-117"/>
       <use x="744.726562" xlink:href="#ArialMT-108"/>
       <use x="766.943359" xlink:href="#ArialMT-97"/>
       <use x="822.558594" xlink:href="#ArialMT-114"/>
       <use x="855.859375" xlink:href="#ArialMT-95"/>
       <use x="911.474609" xlink:href="#ArialMT-49"/>
       <use x="967.089844" xlink:href="#ArialMT-48"/>
      </g>
     </g>
    </g>
    <g id="xtick_6">
     <g id="line2d_6">
      <g>
       <use style="fill:#262626;stroke:#262626;" x="601.5" xlink:href="#mbf2b2a8d38" y="378"/>
      </g>
     </g>
     <g id="text_6">
      <!-- ldt_10_10 -->
      <defs>
       <path d="M 40.234375 0 
L 40.234375 6.546875 
Q 35.296875 -1.171875 25.734375 -1.171875 
Q 19.53125 -1.171875 14.328125 2.25 
Q 9.125 5.671875 6.265625 11.796875 
Q 3.421875 17.921875 3.421875 25.875 
Q 3.421875 33.640625 6 39.96875 
Q 8.59375 46.296875 13.765625 49.65625 
Q 18.953125 53.03125 25.34375 53.03125 
Q 30.03125 53.03125 33.6875 51.046875 
Q 37.359375 49.078125 39.65625 45.90625 
L 39.65625 71.578125 
L 48.390625 71.578125 
L 48.390625 0 
z
M 12.453125 25.875 
Q 12.453125 15.921875 16.640625 10.984375 
Q 20.84375 6.0625 26.5625 6.0625 
Q 32.328125 6.0625 36.34375 10.765625 
Q 40.375 15.484375 40.375 25.140625 
Q 40.375 35.796875 36.265625 40.765625 
Q 32.171875 45.75 26.171875 45.75 
Q 20.3125 45.75 16.375 40.96875 
Q 12.453125 36.1875 12.453125 25.875 
z
" id="ArialMT-100"/>
      </defs>
      <g style="fill:#262626;" transform="translate(593.085813 387.947487)rotate(-280)scale(0.132 -0.132)">
       <use xlink:href="#ArialMT-108"/>
       <use x="22.216797" xlink:href="#ArialMT-100"/>
       <use x="77.832031" xlink:href="#ArialMT-116"/>
       <use x="105.615234" xlink:href="#ArialMT-95"/>
       <use x="161.230469" xlink:href="#ArialMT-49"/>
       <use x="216.845703" xlink:href="#ArialMT-48"/>
       <use x="272.460938" xlink:href="#ArialMT-95"/>
       <use x="328.076172" xlink:href="#ArialMT-49"/>
       <use x="383.691406" xlink:href="#ArialMT-48"/>
      </g>
     </g>
    </g>
    <g id="text_7">
     <!-- method -->
     <defs>
      <path d="M 6.59375 0 
L 6.59375 71.578125 
L 15.375 71.578125 
L 15.375 45.90625 
Q 21.53125 53.03125 30.90625 53.03125 
Q 36.671875 53.03125 40.921875 50.75 
Q 45.171875 48.484375 47 44.484375 
Q 48.828125 40.484375 48.828125 32.859375 
L 48.828125 0 
L 40.046875 0 
L 40.046875 32.859375 
Q 40.046875 39.453125 37.1875 42.453125 
Q 34.328125 45.453125 29.109375 45.453125 
Q 25.203125 45.453125 21.75 43.421875 
Q 18.3125 41.40625 16.84375 37.9375 
Q 15.375 34.46875 15.375 28.375 
L 15.375 0 
z
" id="ArialMT-104"/>
     </defs>
     <g style="fill:#262626;" transform="translate(344.986875 562.407486)scale(0.144 -0.144)">
      <use xlink:href="#ArialMT-109"/>
      <use x="83.300781" xlink:href="#ArialMT-101"/>
      <use x="138.916016" xlink:href="#ArialMT-116"/>
      <use x="166.699219" xlink:href="#ArialMT-104"/>
      <use x="222.314453" xlink:href="#ArialMT-111"/>
      <use x="277.929688" xlink:href="#ArialMT-100"/>
     </g>
    </g>
   </g>
   <g id="matplotlib.axis_2">
    <g id="ytick_1">
     <g id="line2d_7">
      <defs>
       <path d="M 0 0 
L -4.8 0 
" id="m2110bc647f" style="stroke:#262626;"/>
      </defs>
      <g>
       <use style="fill:#262626;stroke:#262626;" x="90" xlink:href="#m2110bc647f" y="369.96086"/>
      </g>
     </g>
     <g id="text_8">
      <!-- −1.0 -->
      <defs>
       <path d="M 52.828125 31.203125 
L 5.5625 31.203125 
L 5.5625 39.40625 
L 52.828125 39.40625 
z
" id="ArialMT-8722"/>
       <path d="M 9.078125 0 
L 9.078125 10.015625 
L 19.09375 10.015625 
L 19.09375 0 
z
" id="ArialMT-46"/>
      </defs>
      <g style="fill:#262626;" transform="translate(55.642375 374.685016)scale(0.132 -0.132)">
       <use xlink:href="#ArialMT-8722"/>
       <use x="58.398438" xlink:href="#ArialMT-49"/>
       <use x="114.013672" xlink:href="#ArialMT-46"/>
       <use x="141.796875" xlink:href="#ArialMT-48"/>
      </g>
     </g>
    </g>
    <g id="ytick_2">
     <g id="line2d_8">
      <g>
       <use style="fill:#262626;stroke:#262626;" x="90" xlink:href="#m2110bc647f" y="297.932801"/>
      </g>
     </g>
     <g id="text_9">
      <!-- −0.5 -->
      <defs>
       <path d="M 4.15625 18.75 
L 13.375 19.53125 
Q 14.40625 12.796875 18.140625 9.390625 
Q 21.875 6 27.15625 6 
Q 33.5 6 37.890625 10.78125 
Q 42.28125 15.578125 42.28125 23.484375 
Q 42.28125 31 38.0625 35.34375 
Q 33.84375 39.703125 27 39.703125 
Q 22.75 39.703125 19.328125 37.765625 
Q 15.921875 35.84375 13.96875 32.765625 
L 5.71875 33.84375 
L 12.640625 70.609375 
L 48.25 70.609375 
L 48.25 62.203125 
L 19.671875 62.203125 
L 15.828125 42.96875 
Q 22.265625 47.46875 29.34375 47.46875 
Q 38.71875 47.46875 45.15625 40.96875 
Q 51.609375 34.46875 51.609375 24.265625 
Q 51.609375 14.546875 45.953125 7.46875 
Q 39.0625 -1.21875 27.15625 -1.21875 
Q 17.390625 -1.21875 11.203125 4.25 
Q 5.03125 9.71875 4.15625 18.75 
z
" id="ArialMT-53"/>
      </defs>
      <g style="fill:#262626;" transform="translate(55.642375 302.656957)scale(0.132 -0.132)">
       <use xlink:href="#ArialMT-8722"/>
       <use x="58.398438" xlink:href="#ArialMT-48"/>
       <use x="114.013672" xlink:href="#ArialMT-46"/>
       <use x="141.796875" xlink:href="#ArialMT-53"/>
      </g>
     </g>
    </g>
    <g id="ytick_3">
     <g id="line2d_9">
      <g>
       <use style="fill:#262626;stroke:#262626;" x="90" xlink:href="#m2110bc647f" y="225.904741"/>
      </g>
     </g>
     <g id="text_10">
      <!-- 0.0 -->
      <g style="fill:#262626;" transform="translate(63.352 230.628897)scale(0.132 -0.132)">
       <use xlink:href="#ArialMT-48"/>
       <use x="55.615234" xlink:href="#ArialMT-46"/>
       <use x="83.398438" xlink:href="#ArialMT-48"/>
      </g>
     </g>
    </g>
    <g id="ytick_4">
     <g id="line2d_10">
      <g>
       <use style="fill:#262626;stroke:#262626;" x="90" xlink:href="#m2110bc647f" y="153.876681"/>
      </g>
     </g>
     <g id="text_11">
      <!-- 0.5 -->
      <g style="fill:#262626;" transform="translate(63.352 158.600837)scale(0.132 -0.132)">
       <use xlink:href="#ArialMT-48"/>
       <use x="55.615234" xlink:href="#ArialMT-46"/>
       <use x="83.398438" xlink:href="#ArialMT-53"/>
      </g>
     </g>
    </g>
    <g id="ytick_5">
     <g id="line2d_11">
      <g>
       <use style="fill:#262626;stroke:#262626;" x="90" xlink:href="#m2110bc647f" y="81.848622"/>
      </g>
     </g>
     <g id="text_12">
      <!-- 1.0 -->
      <g style="fill:#262626;" transform="translate(63.352 86.572778)scale(0.132 -0.132)">
       <use xlink:href="#ArialMT-49"/>
       <use x="55.615234" xlink:href="#ArialMT-46"/>
       <use x="83.398438" xlink:href="#ArialMT-48"/>
      </g>
     </g>
    </g>
    <g id="text_13">
     <!-- Pearson's r -->
     <defs>
      <path d="M 7.71875 0 
L 7.71875 71.578125 
L 34.71875 71.578125 
Q 41.84375 71.578125 45.609375 70.90625 
Q 50.875 70.015625 54.4375 67.546875 
Q 58.015625 65.09375 60.1875 60.640625 
Q 62.359375 56.203125 62.359375 50.875 
Q 62.359375 41.75 56.546875 35.421875 
Q 50.734375 29.109375 35.546875 29.109375 
L 17.1875 29.109375 
L 17.1875 0 
z
M 17.1875 37.546875 
L 35.6875 37.546875 
Q 44.875 37.546875 48.734375 40.96875 
Q 52.59375 44.390625 52.59375 50.59375 
Q 52.59375 55.078125 50.3125 58.265625 
Q 48.046875 61.46875 44.34375 62.5 
Q 41.9375 63.140625 35.5 63.140625 
L 17.1875 63.140625 
z
" id="ArialMT-80"/>
      <path d="M 6.640625 46.234375 
L 4.390625 59.625 
L 4.390625 71.578125 
L 14.40625 71.578125 
L 14.40625 59.625 
L 12.0625 46.234375 
z
" id="ArialMT-39"/>
      <path id="ArialMT-32"/>
     </defs>
     <g style="fill:#262626;" transform="translate(48.780375 251.107875)rotate(-90)scale(0.144 -0.144)">
      <use xlink:href="#ArialMT-80"/>
      <use x="66.699219" xlink:href="#ArialMT-101"/>
      <use x="122.314453" xlink:href="#ArialMT-97"/>
      <use x="177.929688" xlink:href="#ArialMT-114"/>
      <use x="211.230469" xlink:href="#ArialMT-115"/>
      <use x="261.230469" xlink:href="#ArialMT-111"/>
      <use x="316.845703" xlink:href="#ArialMT-110"/>
      <use x="372.460938" xlink:href="#ArialMT-39"/>
      <use x="391.552734" xlink:href="#ArialMT-115"/>
      <use x="441.552734" xlink:href="#ArialMT-32"/>
      <use x="469.335938" xlink:href="#ArialMT-114"/>
     </g>
    </g>
   </g>
   <g id="PolyCollection_1">
    <defs>
     <path d="M 136.503965 -82.371199 
L 136.496035 -82.371199 
L 136.492175 -85.218487 
L 136.486189 -88.065776 
L 136.47816 -90.913064 
L 136.468982 -93.760353 
L 136.460329 -96.607641 
L 136.454143 -99.45493 
L 136.451805 -102.302218 
L 136.453415 -105.149506 
L 136.45764 -107.996795 
L 136.462289 -110.844083 
L 136.46533 -113.691372 
L 136.465714 -116.53866 
L 136.463504 -119.385949 
L 136.459208 -122.233237 
L 136.452759 -125.080525 
L 136.442747 -127.927814 
L 136.426297 -130.775102 
L 136.399687 -133.622391 
L 136.35961 -136.469679 
L 136.30469 -139.316968 
L 136.236427 -142.164256 
L 136.158456 -145.011544 
L 136.073714 -147.858833 
L 135.980758 -150.706121 
L 135.871729 -153.55341 
L 135.733872 -156.400698 
L 135.554002 -159.247987 
L 135.322839 -162.095275 
L 135.036294 -164.942563 
L 134.693608 -167.789852 
L 134.295143 -170.63714 
L 133.842223 -173.484429 
L 133.337827 -176.331717 
L 132.784363 -179.179006 
L 132.176885 -182.026294 
L 131.495483 -184.873582 
L 130.703718 -187.720871 
L 129.757676 -190.568159 
L 128.624721 -193.415448 
L 127.305814 -196.262736 
L 125.851381 -199.110025 
L 124.359694 -201.957313 
L 122.952941 -204.804601 
L 121.740552 -207.65189 
L 120.791013 -210.499178 
L 120.12803 -213.346467 
L 119.746508 -216.193755 
L 119.628476 -219.041044 
L 119.744125 -221.888332 
L 120.041173 -224.73562 
L 120.437512 -227.582909 
L 120.829256 -230.430197 
L 121.115294 -233.277486 
L 121.228805 -236.124774 
L 121.159991 -238.972063 
L 120.955715 -241.819351 
L 120.693113 -244.666639 
L 120.44098 -247.513928 
L 120.232081 -250.361216 
L 120.062096 -253.208505 
L 119.911097 -256.055793 
L 119.76757 -258.903082 
L 119.636022 -261.75037 
L 119.525298 -264.597658 
L 119.431615 -267.444947 
L 119.333906 -270.292235 
L 119.206944 -273.139524 
L 119.040895 -275.986812 
L 118.849993 -278.834101 
L 118.663342 -281.681389 
L 118.507074 -284.528677 
L 118.392927 -287.375966 
L 118.319085 -290.223254 
L 118.276634 -293.070543 
L 118.253028 -295.917831 
L 118.232277 -298.76512 
L 118.198026 -301.612408 
L 118.142442 -304.459696 
L 118.075877 -307.306985 
L 118.02979 -310.154273 
L 118.051046 -313.001562 
L 118.193014 -315.84885 
L 118.510208 -318.696139 
L 119.056987 -321.543427 
L 119.883828 -324.390715 
L 121.025233 -327.238004 
L 122.482272 -330.085292 
L 124.210555 -332.932581 
L 126.122239 -335.779869 
L 128.100819 -338.627158 
L 130.020804 -341.474446 
L 131.766276 -344.321734 
L 133.2472 -347.169023 
L 134.412774 -350.016311 
L 135.25796 -352.8636 
L 135.818901 -355.710888 
L 136.157723 -358.558177 
L 136.343121 -361.405465 
L 136.434685 -364.252753 
L 136.565315 -364.252753 
L 136.565315 -364.252753 
L 136.656879 -361.405465 
L 136.842277 -358.558177 
L 137.181099 -355.710888 
L 137.74204 -352.8636 
L 138.587226 -350.016311 
L 139.7528 -347.169023 
L 141.233724 -344.321734 
L 142.979196 -341.474446 
L 144.899181 -338.627158 
L 146.877761 -335.779869 
L 148.789445 -332.932581 
L 150.517728 -330.085292 
L 151.974767 -327.238004 
L 153.116172 -324.390715 
L 153.943013 -321.543427 
L 154.489792 -318.696139 
L 154.806986 -315.84885 
L 154.948954 -313.001562 
L 154.97021 -310.154273 
L 154.924123 -307.306985 
L 154.857558 -304.459696 
L 154.801974 -301.612408 
L 154.767723 -298.76512 
L 154.746972 -295.917831 
L 154.723366 -293.070543 
L 154.680915 -290.223254 
L 154.607073 -287.375966 
L 154.492926 -284.528677 
L 154.336658 -281.681389 
L 154.150007 -278.834101 
L 153.959105 -275.986812 
L 153.793056 -273.139524 
L 153.666094 -270.292235 
L 153.568385 -267.444947 
L 153.474702 -264.597658 
L 153.363978 -261.75037 
L 153.23243 -258.903082 
L 153.088903 -256.055793 
L 152.937904 -253.208505 
L 152.767919 -250.361216 
L 152.55902 -247.513928 
L 152.306887 -244.666639 
L 152.044285 -241.819351 
L 151.840009 -238.972063 
L 151.771195 -236.124774 
L 151.884706 -233.277486 
L 152.170744 -230.430197 
L 152.562488 -227.582909 
L 152.958827 -224.73562 
L 153.255875 -221.888332 
L 153.371524 -219.041044 
L 153.253492 -216.193755 
L 152.87197 -213.346467 
L 152.208987 -210.499178 
L 151.259448 -207.65189 
L 150.047059 -204.804601 
L 148.640306 -201.957313 
L 147.148619 -199.110025 
L 145.694186 -196.262736 
L 144.375279 -193.415448 
L 143.242324 -190.568159 
L 142.296282 -187.720871 
L 141.504517 -184.873582 
L 140.823115 -182.026294 
L 140.215637 -179.179006 
L 139.662173 -176.331717 
L 139.157777 -173.484429 
L 138.704857 -170.63714 
L 138.306392 -167.789852 
L 137.963706 -164.942563 
L 137.677161 -162.095275 
L 137.445998 -159.247987 
L 137.266128 -156.400698 
L 137.128271 -153.55341 
L 137.019242 -150.706121 
L 136.926286 -147.858833 
L 136.841544 -145.011544 
L 136.763573 -142.164256 
L 136.69531 -139.316968 
L 136.64039 -136.469679 
L 136.600313 -133.622391 
L 136.573703 -130.775102 
L 136.557253 -127.927814 
L 136.547241 -125.080525 
L 136.540792 -122.233237 
L 136.536496 -119.385949 
L 136.534286 -116.53866 
L 136.53467 -113.691372 
L 136.537711 -110.844083 
L 136.54236 -107.996795 
L 136.546585 -105.149506 
L 136.548195 -102.302218 
L 136.545857 -99.45493 
L 136.539671 -96.607641 
L 136.531018 -93.760353 
L 136.52184 -90.913064 
L 136.513811 -88.065776 
L 136.507825 -85.218487 
L 136.503965 -82.371199 
z
" id="m4a9b04d559" style="stroke:#666666;stroke-width:2;"/>
    </defs>
    <g clip-path="url(#pa7f05396c0)">
     <use style="fill:#ea8e83;stroke:#666666;stroke-width:2;" x="0" xlink:href="#m4a9b04d559" y="432"/>
    </g>
   </g>
   <g id="PolyCollection_2">
    <defs>
     <path d="M 229.512778 -68.825455 
L 229.487222 -68.825455 
L 229.472427 -71.820496 
L 229.445281 -74.815537 
L 229.399967 -77.810579 
L 229.33121 -80.80562 
L 229.236465 -83.800661 
L 229.117984 -86.795702 
L 228.983493 -89.790744 
L 228.84452 -92.785785 
L 228.712593 -95.780826 
L 228.594855 -98.775868 
L 228.491235 -101.770909 
L 228.394558 -104.76595 
L 228.293493 -107.760992 
L 228.176886 -110.756033 
L 228.037567 -113.751074 
L 227.874148 -116.746116 
L 227.690287 -119.741157 
L 227.491948 -122.736198 
L 227.284075 -125.73124 
L 227.068319 -128.726281 
L 226.842856 -131.721322 
L 226.604053 -134.716364 
L 226.348628 -137.711405 
L 226.07483 -140.706446 
L 225.782181 -143.701488 
L 225.470622 -146.696529 
L 225.140402 -149.69157 
L 224.793274 -152.686612 
L 224.434127 -155.681653 
L 224.07128 -158.676694 
L 223.713914 -161.671736 
L 223.366517 -164.666777 
L 223.022208 -167.661818 
L 222.658601 -170.65686 
L 222.240028 -173.651901 
L 221.72743 -176.646942 
L 221.092601 -179.641983 
L 220.329792 -182.637025 
L 219.458304 -185.632066 
L 218.515253 -188.627107 
L 217.544384 -191.622149 
L 216.588974 -194.61719 
L 215.691865 -197.612231 
L 214.897382 -200.607273 
L 214.246225 -203.602314 
L 213.760011 -206.597355 
L 213.422831 -209.592397 
L 213.173006 -212.587438 
L 212.913665 -215.582479 
L 212.540102 -218.577521 
L 211.974077 -221.572562 
L 211.194068 -224.567603 
L 210.25262 -227.562645 
L 209.273716 -230.557686 
L 208.426349 -233.552727 
L 207.878581 -236.547769 
L 207.74727 -239.54281 
L 208.063955 -242.537851 
L 208.77085 -245.532893 
L 209.745891 -248.527934 
L 210.842596 -251.522975 
L 211.927223 -254.518017 
L 212.901845 -257.513058 
L 213.711181 -260.508099 
L 214.337684 -263.50314 
L 214.791679 -266.498182 
L 215.102038 -269.493223 
L 215.30962 -272.488264 
L 215.462424 -275.483306 
L 215.610112 -278.478347 
L 215.796884 -281.473388 
L 216.054 -284.46843 
L 216.394257 -287.463471 
L 216.809859 -290.458512 
L 217.27417 -293.453554 
L 217.747785 -296.448595 
L 218.189395 -299.443636 
L 218.569967 -302.438678 
L 218.885387 -305.433719 
L 219.161032 -308.42876 
L 219.444486 -311.423802 
L 219.788911 -314.418843 
L 220.235108 -317.413884 
L 220.800983 -320.408926 
L 221.48219 -323.403967 
L 222.260681 -326.399008 
L 223.113676 -329.39405 
L 224.017083 -332.389091 
L 224.943041 -335.384132 
L 225.856373 -338.379174 
L 226.715335 -341.374215 
L 227.47831 -344.369256 
L 228.113408 -347.364298 
L 228.605969 -350.359339 
L 228.960423 -353.35438 
L 229.196353 -356.349421 
L 229.341232 -359.344463 
L 229.423121 -362.339504 
L 229.465629 -365.334545 
L 229.534371 -365.334545 
L 229.534371 -365.334545 
L 229.576879 -362.339504 
L 229.658768 -359.344463 
L 229.803647 -356.349421 
L 230.039577 -353.35438 
L 230.394031 -350.359339 
L 230.886592 -347.364298 
L 231.52169 -344.369256 
L 232.284665 -341.374215 
L 233.143627 -338.379174 
L 234.056959 -335.384132 
L 234.982917 -332.389091 
L 235.886324 -329.39405 
L 236.739319 -326.399008 
L 237.51781 -323.403967 
L 238.199017 -320.408926 
L 238.764892 -317.413884 
L 239.211089 -314.418843 
L 239.555514 -311.423802 
L 239.838968 -308.42876 
L 240.114613 -305.433719 
L 240.430033 -302.438678 
L 240.810605 -299.443636 
L 241.252215 -296.448595 
L 241.72583 -293.453554 
L 242.190141 -290.458512 
L 242.605743 -287.463471 
L 242.946 -284.46843 
L 243.203116 -281.473388 
L 243.389888 -278.478347 
L 243.537576 -275.483306 
L 243.69038 -272.488264 
L 243.897962 -269.493223 
L 244.208321 -266.498182 
L 244.662316 -263.50314 
L 245.288819 -260.508099 
L 246.098155 -257.513058 
L 247.072777 -254.518017 
L 248.157404 -251.522975 
L 249.254109 -248.527934 
L 250.22915 -245.532893 
L 250.936045 -242.537851 
L 251.25273 -239.54281 
L 251.121419 -236.547769 
L 250.573651 -233.552727 
L 249.726284 -230.557686 
L 248.74738 -227.562645 
L 247.805932 -224.567603 
L 247.025923 -221.572562 
L 246.459898 -218.577521 
L 246.086335 -215.582479 
L 245.826994 -212.587438 
L 245.577169 -209.592397 
L 245.239989 -206.597355 
L 244.753775 -203.602314 
L 244.102618 -200.607273 
L 243.308135 -197.612231 
L 242.411026 -194.61719 
L 241.455616 -191.622149 
L 240.484747 -188.627107 
L 239.541696 -185.632066 
L 238.670208 -182.637025 
L 237.907399 -179.641983 
L 237.27257 -176.646942 
L 236.759972 -173.651901 
L 236.341399 -170.65686 
L 235.977792 -167.661818 
L 235.633483 -164.666777 
L 235.286086 -161.671736 
L 234.92872 -158.676694 
L 234.565873 -155.681653 
L 234.206726 -152.686612 
L 233.859598 -149.69157 
L 233.529378 -146.696529 
L 233.217819 -143.701488 
L 232.92517 -140.706446 
L 232.651372 -137.711405 
L 232.395947 -134.716364 
L 232.157144 -131.721322 
L 231.931681 -128.726281 
L 231.715925 -125.73124 
L 231.508052 -122.736198 
L 231.309713 -119.741157 
L 231.125852 -116.746116 
L 230.962433 -113.751074 
L 230.823114 -110.756033 
L 230.706507 -107.760992 
L 230.605442 -104.76595 
L 230.508765 -101.770909 
L 230.405145 -98.775868 
L 230.287407 -95.780826 
L 230.15548 -92.785785 
L 230.016507 -89.790744 
L 229.882016 -86.795702 
L 229.763535 -83.800661 
L 229.66879 -80.80562 
L 229.600033 -77.810579 
L 229.554719 -74.815537 
L 229.527573 -71.820496 
L 229.512778 -68.825455 
z
" id="m115ccc84d3" style="stroke:#666666;stroke-width:2;"/>
    </defs>
    <g clip-path="url(#pa7f05396c0)">
     <use style="fill:#c1bed6;stroke:#666666;stroke-width:2;" x="0" xlink:href="#m115ccc84d3" y="432"/>
    </g>
   </g>
   <g id="PolyCollection_3">
    <defs>
     <path d="M 322.505418 -129.470959 
L 322.494582 -129.470959 
L 322.488996 -131.745907 
L 322.479911 -134.020856 
L 322.466882 -136.295805 
L 322.45042 -138.570754 
L 322.4321 -140.845703 
L 322.414068 -143.120652 
L 322.397985 -145.395601 
L 322.383816 -147.67055 
L 322.368966 -149.945499 
L 322.348107 -152.220448 
L 322.31365 -154.495397 
L 322.256654 -156.770346 
L 322.168149 -159.045295 
L 322.041042 -161.320244 
L 321.872374 -163.595193 
L 321.664596 -165.870142 
L 321.42393 -168.145091 
L 321.154989 -170.42004 
L 320.853479 -172.694989 
L 320.501003 -174.969938 
L 320.065392 -177.244887 
L 319.506892 -179.519836 
L 318.787282 -181.794785 
L 317.877753 -184.069734 
L 316.7618 -186.344683 
L 315.430657 -188.619632 
L 313.872434 -190.894581 
L 312.063731 -193.16953 
L 309.979122 -195.444479 
L 307.627718 -197.719427 
L 305.101784 -199.994376 
L 302.59673 -202.269325 
L 300.365383 -204.544274 
L 298.614332 -206.819223 
L 297.404318 -209.094172 
L 296.626928 -211.369121 
L 296.077803 -213.64407 
L 295.575038 -215.919019 
L 295.043426 -218.193968 
L 294.520506 -220.468917 
L 294.101157 -222.743866 
L 293.872025 -225.018815 
L 293.876597 -227.293764 
L 294.116634 -229.568713 
L 294.568974 -231.843662 
L 295.195679 -234.118611 
L 295.942906 -236.39356 
L 296.739722 -238.668509 
L 297.508621 -240.943458 
L 298.187191 -243.218407 
L 298.747811 -245.493356 
L 299.201191 -247.768305 
L 299.581536 -250.043254 
L 299.926339 -252.318203 
L 300.267342 -254.593152 
L 300.63628 -256.868101 
L 301.072412 -259.14305 
L 301.616773 -261.417999 
L 302.293197 -263.692947 
L 303.091389 -265.967896 
L 303.966479 -268.242845 
L 304.855322 -270.517794 
L 305.698482 -272.792743 
L 306.457292 -275.067692 
L 307.121959 -277.342641 
L 307.710448 -279.61759 
L 308.258452 -281.892539 
L 308.802917 -284.167488 
L 309.365884 -286.442437 
L 309.946802 -288.717386 
L 310.526942 -290.992335 
L 311.082258 -293.267284 
L 311.596987 -295.542233 
L 312.071697 -297.817182 
L 312.523455 -300.092131 
L 312.979167 -302.36708 
L 313.465051 -304.642029 
L 313.996263 -306.916978 
L 314.570696 -309.191927 
L 315.169546 -311.466876 
L 315.764627 -313.741825 
L 316.329657 -316.016774 
L 316.850898 -318.291723 
L 317.332347 -320.566672 
L 317.79285 -322.841621 
L 318.256422 -325.11657 
L 318.740786 -327.391519 
L 319.25001 -329.666467 
L 319.774167 -331.941416 
L 320.294265 -334.216365 
L 320.788229 -336.491314 
L 321.235033 -338.766263 
L 321.617215 -341.041212 
L 321.923317 -343.316161 
L 322.150365 -345.59111 
L 322.304746 -347.866059 
L 322.400193 -350.141008 
L 322.453534 -352.415957 
L 322.480373 -354.690906 
L 322.519627 -354.690906 
L 322.519627 -354.690906 
L 322.546466 -352.415957 
L 322.599807 -350.141008 
L 322.695254 -347.866059 
L 322.849635 -345.59111 
L 323.076683 -343.316161 
L 323.382785 -341.041212 
L 323.764967 -338.766263 
L 324.211771 -336.491314 
L 324.705735 -334.216365 
L 325.225833 -331.941416 
L 325.74999 -329.666467 
L 326.259214 -327.391519 
L 326.743578 -325.11657 
L 327.20715 -322.841621 
L 327.667653 -320.566672 
L 328.149102 -318.291723 
L 328.670343 -316.016774 
L 329.235373 -313.741825 
L 329.830454 -311.466876 
L 330.429304 -309.191927 
L 331.003737 -306.916978 
L 331.534949 -304.642029 
L 332.020833 -302.36708 
L 332.476545 -300.092131 
L 332.928303 -297.817182 
L 333.403013 -295.542233 
L 333.917742 -293.267284 
L 334.473058 -290.992335 
L 335.053198 -288.717386 
L 335.634116 -286.442437 
L 336.197083 -284.167488 
L 336.741548 -281.892539 
L 337.289552 -279.61759 
L 337.878041 -277.342641 
L 338.542708 -275.067692 
L 339.301518 -272.792743 
L 340.144678 -270.517794 
L 341.033521 -268.242845 
L 341.908611 -265.967896 
L 342.706803 -263.692947 
L 343.383227 -261.417999 
L 343.927588 -259.14305 
L 344.36372 -256.868101 
L 344.732658 -254.593152 
L 345.073661 -252.318203 
L 345.418464 -250.043254 
L 345.798809 -247.768305 
L 346.252189 -245.493356 
L 346.812809 -243.218407 
L 347.491379 -240.943458 
L 348.260278 -238.668509 
L 349.057094 -236.39356 
L 349.804321 -234.118611 
L 350.431026 -231.843662 
L 350.883366 -229.568713 
L 351.123403 -227.293764 
L 351.127975 -225.018815 
L 350.898843 -222.743866 
L 350.479494 -220.468917 
L 349.956574 -218.193968 
L 349.424962 -215.919019 
L 348.922197 -213.64407 
L 348.373072 -211.369121 
L 347.595682 -209.094172 
L 346.385668 -206.819223 
L 344.634617 -204.544274 
L 342.40327 -202.269325 
L 339.898216 -199.994376 
L 337.372282 -197.719427 
L 335.020878 -195.444479 
L 332.936269 -193.16953 
L 331.127566 -190.894581 
L 329.569343 -188.619632 
L 328.2382 -186.344683 
L 327.122247 -184.069734 
L 326.212718 -181.794785 
L 325.493108 -179.519836 
L 324.934608 -177.244887 
L 324.498997 -174.969938 
L 324.146521 -172.694989 
L 323.845011 -170.42004 
L 323.57607 -168.145091 
L 323.335404 -165.870142 
L 323.127626 -163.595193 
L 322.958958 -161.320244 
L 322.831851 -159.045295 
L 322.743346 -156.770346 
L 322.68635 -154.495397 
L 322.651893 -152.220448 
L 322.631034 -149.945499 
L 322.616184 -147.67055 
L 322.602015 -145.395601 
L 322.585932 -143.120652 
L 322.5679 -140.845703 
L 322.54958 -138.570754 
L 322.533118 -136.295805 
L 322.520089 -134.020856 
L 322.511004 -131.745907 
L 322.505418 -129.470959 
z
" id="mee677b3ae1" style="stroke:#666666;stroke-width:2;"/>
    </defs>
    <g clip-path="url(#pa7f05396c0)">
     <use style="fill:#eab375;stroke:#666666;stroke-width:2;" x="0" xlink:href="#mee677b3ae1" y="432"/>
    </g>
   </g>
   <g id="PolyCollection_4">
    <defs>
     <path d="M 415.504287 -117.528412 
L 415.495713 -117.528412 
L 415.491452 -120.006878 
L 415.484877 -122.485345 
L 415.476008 -124.963811 
L 415.465302 -127.442277 
L 415.45319 -129.920743 
L 415.439532 -132.399209 
L 415.423657 -134.877676 
L 415.405251 -137.356142 
L 415.385361 -139.834608 
L 415.366254 -142.313074 
L 415.349671 -144.791541 
L 415.33458 -147.270007 
L 415.316295 -149.748473 
L 415.287752 -152.226939 
L 415.2418 -154.705405 
L 415.172582 -157.183872 
L 415.075105 -159.662338 
L 414.943732 -162.140804 
L 414.771013 -164.61927 
L 414.547878 -167.097737 
L 414.265317 -169.576203 
L 413.916341 -172.054669 
L 413.495813 -174.533135 
L 412.996256 -177.011601 
L 412.400732 -179.490068 
L 411.6769 -181.968534 
L 410.775689 -184.447 
L 409.634454 -186.925466 
L 408.18353 -189.403933 
L 406.360622 -191.882399 
L 404.142337 -194.360865 
L 401.593635 -196.839331 
L 398.911072 -199.317797 
L 396.41498 -201.796264 
L 394.460341 -204.27473 
L 393.292562 -206.753196 
L 392.9305 -209.231662 
L 393.155775 -211.710128 
L 393.616174 -214.188595 
L 393.97442 -216.667061 
L 394.019042 -219.145527 
L 393.70023 -221.623993 
L 393.104239 -224.10246 
L 392.396252 -226.580926 
L 391.753906 -229.059392 
L 391.307414 -231.537858 
L 391.102863 -234.016324 
L 391.101693 -236.494791 
L 391.21554 -238.973257 
L 391.358279 -241.451723 
L 391.488673 -243.930189 
L 391.624096 -246.408656 
L 391.822799 -248.887122 
L 392.146753 -251.365588 
L 392.622982 -253.844054 
L 393.221304 -256.32252 
L 393.861673 -258.800987 
L 394.450798 -261.279453 
L 394.928379 -263.757919 
L 395.294057 -266.236385 
L 395.599133 -268.714852 
L 395.913118 -271.193318 
L 396.290523 -273.671784 
L 396.756112 -276.15025 
L 397.307819 -278.628716 
L 397.92545 -281.107183 
L 398.577932 -283.585649 
L 399.232563 -286.064115 
L 399.870922 -288.542581 
L 400.504865 -291.021048 
L 401.176568 -293.499514 
L 401.934294 -295.97798 
L 402.796526 -298.456446 
L 403.730662 -300.934912 
L 404.663993 -303.413379 
L 405.521276 -305.891845 
L 406.264376 -308.370311 
L 406.908614 -310.848777 
L 407.506937 -313.327244 
L 408.114626 -315.80571 
L 408.758646 -318.284176 
L 409.429229 -320.762642 
L 410.094104 -323.241108 
L 410.722286 -325.719575 
L 411.301851 -328.198041 
L 411.842307 -330.676507 
L 412.362585 -333.154973 
L 412.874763 -335.63344 
L 413.375245 -338.111906 
L 413.847449 -340.590372 
L 414.27094 -343.068838 
L 414.62963 -345.547304 
L 414.915716 -348.025771 
L 415.130006 -350.504237 
L 415.280219 -352.982703 
L 415.37832 -355.461169 
L 415.437669 -357.939635 
L 415.470694 -360.418102 
L 415.487457 -362.896568 
L 415.512543 -362.896568 
L 415.512543 -362.896568 
L 415.529306 -360.418102 
L 415.562331 -357.939635 
L 415.62168 -355.461169 
L 415.719781 -352.982703 
L 415.869994 -350.504237 
L 416.084284 -348.025771 
L 416.37037 -345.547304 
L 416.72906 -343.068838 
L 417.152551 -340.590372 
L 417.624755 -338.111906 
L 418.125237 -335.63344 
L 418.637415 -333.154973 
L 419.157693 -330.676507 
L 419.698149 -328.198041 
L 420.277714 -325.719575 
L 420.905896 -323.241108 
L 421.570771 -320.762642 
L 422.241354 -318.284176 
L 422.885374 -315.80571 
L 423.493063 -313.327244 
L 424.091386 -310.848777 
L 424.735624 -308.370311 
L 425.478724 -305.891845 
L 426.336007 -303.413379 
L 427.269338 -300.934912 
L 428.203474 -298.456446 
L 429.065706 -295.97798 
L 429.823432 -293.499514 
L 430.495135 -291.021048 
L 431.129078 -288.542581 
L 431.767437 -286.064115 
L 432.422068 -283.585649 
L 433.07455 -281.107183 
L 433.692181 -278.628716 
L 434.243888 -276.15025 
L 434.709477 -273.671784 
L 435.086882 -271.193318 
L 435.400867 -268.714852 
L 435.705943 -266.236385 
L 436.071621 -263.757919 
L 436.549202 -261.279453 
L 437.138327 -258.800987 
L 437.778696 -256.32252 
L 438.377018 -253.844054 
L 438.853247 -251.365588 
L 439.177201 -248.887122 
L 439.375904 -246.408656 
L 439.511327 -243.930189 
L 439.641721 -241.451723 
L 439.78446 -238.973257 
L 439.898307 -236.494791 
L 439.897137 -234.016324 
L 439.692586 -231.537858 
L 439.246094 -229.059392 
L 438.603748 -226.580926 
L 437.895761 -224.10246 
L 437.29977 -221.623993 
L 436.980958 -219.145527 
L 437.02558 -216.667061 
L 437.383826 -214.188595 
L 437.844225 -211.710128 
L 438.0695 -209.231662 
L 437.707438 -206.753196 
L 436.539659 -204.27473 
L 434.58502 -201.796264 
L 432.088928 -199.317797 
L 429.406365 -196.839331 
L 426.857663 -194.360865 
L 424.639378 -191.882399 
L 422.81647 -189.403933 
L 421.365546 -186.925466 
L 420.224311 -184.447 
L 419.3231 -181.968534 
L 418.599268 -179.490068 
L 418.003744 -177.011601 
L 417.504187 -174.533135 
L 417.083659 -172.054669 
L 416.734683 -169.576203 
L 416.452122 -167.097737 
L 416.228987 -164.61927 
L 416.056268 -162.140804 
L 415.924895 -159.662338 
L 415.827418 -157.183872 
L 415.7582 -154.705405 
L 415.712248 -152.226939 
L 415.683705 -149.748473 
L 415.66542 -147.270007 
L 415.650329 -144.791541 
L 415.633746 -142.313074 
L 415.614639 -139.834608 
L 415.594749 -137.356142 
L 415.576343 -134.877676 
L 415.560468 -132.399209 
L 415.54681 -129.920743 
L 415.534698 -127.442277 
L 415.523992 -124.963811 
L 415.515123 -122.485345 
L 415.508548 -120.006878 
L 415.504287 -117.528412 
z
" id="m0d71981d62" style="stroke:#666666;stroke-width:2;"/>
    </defs>
    <g clip-path="url(#pa7f05396c0)">
     <use style="fill:#8aafc9;stroke:#666666;stroke-width:2;" x="0" xlink:href="#m0d71981d62" y="432"/>
    </g>
   </g>
   <g id="PolyCollection_5">
    <defs>
     <path d="M 508.505809 -133.020583 
L 508.494191 -133.020583 
L 508.486981 -135.211173 
L 508.476287 -137.401762 
L 508.464893 -139.592352 
L 508.457755 -141.782942 
L 508.458682 -143.973531 
L 508.467153 -146.164121 
L 508.478774 -148.354711 
L 508.488835 -150.5453 
L 508.495125 -152.73589 
L 508.497726 -154.92648 
L 508.496808 -157.11707 
L 508.490066 -159.307659 
L 508.470663 -161.498249 
L 508.427104 -163.688839 
L 508.347325 -165.879428 
L 508.226191 -168.070018 
L 508.069228 -170.260608 
L 507.885319 -172.451197 
L 507.672209 -174.641787 
L 507.408591 -176.832377 
L 507.061574 -179.022966 
L 506.604434 -181.213556 
L 506.029616 -183.404146 
L 505.341385 -185.594735 
L 504.526271 -187.785325 
L 503.520388 -189.975915 
L 502.192632 -192.166504 
L 500.340115 -194.357094 
L 497.701503 -196.547684 
L 494.049772 -198.738274 
L 489.412469 -200.928863 
L 484.286408 -203.119453 
L 479.554396 -205.310043 
L 476.017737 -207.500632 
L 473.919589 -209.691222 
L 472.918221 -211.881812 
L 472.473033 -214.072401 
L 472.198012 -216.262991 
L 471.928713 -218.453581 
L 471.640105 -220.64417 
L 471.393964 -222.83476 
L 471.3 -225.02535 
L 471.43857 -227.215939 
L 471.808697 -229.406529 
L 472.366819 -231.597119 
L 473.097425 -233.787708 
L 474.019363 -235.978298 
L 475.128375 -238.168888 
L 476.351611 -240.359478 
L 477.564145 -242.550067 
L 478.660674 -244.740657 
L 479.634229 -246.931247 
L 480.587378 -249.121836 
L 481.640521 -251.312426 
L 482.815339 -253.503016 
L 484.021392 -255.693605 
L 485.163313 -257.884195 
L 486.24662 -260.074785 
L 487.373724 -262.265374 
L 488.651492 -264.455964 
L 490.103933 -266.646554 
L 491.647807 -268.837143 
L 493.13216 -271.027733 
L 494.419633 -273.218323 
L 495.470818 -275.408912 
L 496.373784 -277.599502 
L 497.286415 -279.790092 
L 498.329468 -281.980682 
L 499.508271 -284.171271 
L 500.717199 -286.361861 
L 501.821271 -288.552451 
L 502.7463 -290.74304 
L 503.500775 -292.93363 
L 504.130001 -295.12422 
L 504.672914 -297.314809 
L 505.159723 -299.505399 
L 505.618053 -301.695989 
L 506.058006 -303.886578 
L 506.460118 -306.077168 
L 506.795821 -308.267758 
L 507.060047 -310.458347 
L 507.273854 -312.648937 
L 507.456704 -314.839527 
L 507.608764 -317.030117 
L 507.724265 -319.220706 
L 507.811624 -321.411296 
L 507.891558 -323.601886 
L 507.978998 -325.792475 
L 508.073452 -327.983065 
L 508.165351 -330.173655 
L 508.246055 -332.364244 
L 508.311542 -334.554834 
L 508.361677 -336.745424 
L 508.399244 -338.936013 
L 508.428492 -341.126603 
L 508.452534 -343.317193 
L 508.471872 -345.507782 
L 508.485662 -347.698372 
L 508.493863 -349.888962 
L 508.506137 -349.888962 
L 508.506137 -349.888962 
L 508.514338 -347.698372 
L 508.528128 -345.507782 
L 508.547466 -343.317193 
L 508.571508 -341.126603 
L 508.600756 -338.936013 
L 508.638323 -336.745424 
L 508.688458 -334.554834 
L 508.753945 -332.364244 
L 508.834649 -330.173655 
L 508.926548 -327.983065 
L 509.021002 -325.792475 
L 509.108442 -323.601886 
L 509.188376 -321.411296 
L 509.275735 -319.220706 
L 509.391236 -317.030117 
L 509.543296 -314.839527 
L 509.726146 -312.648937 
L 509.939953 -310.458347 
L 510.204179 -308.267758 
L 510.539882 -306.077168 
L 510.941994 -303.886578 
L 511.381947 -301.695989 
L 511.840277 -299.505399 
L 512.327086 -297.314809 
L 512.869999 -295.12422 
L 513.499225 -292.93363 
L 514.2537 -290.74304 
L 515.178729 -288.552451 
L 516.282801 -286.361861 
L 517.491729 -284.171271 
L 518.670532 -281.980682 
L 519.713585 -279.790092 
L 520.626216 -277.599502 
L 521.529182 -275.408912 
L 522.580367 -273.218323 
L 523.86784 -271.027733 
L 525.352193 -268.837143 
L 526.896067 -266.646554 
L 528.348508 -264.455964 
L 529.626276 -262.265374 
L 530.75338 -260.074785 
L 531.836687 -257.884195 
L 532.978608 -255.693605 
L 534.184661 -253.503016 
L 535.359479 -251.312426 
L 536.412622 -249.121836 
L 537.365771 -246.931247 
L 538.339326 -244.740657 
L 539.435855 -242.550067 
L 540.648389 -240.359478 
L 541.871625 -238.168888 
L 542.980637 -235.978298 
L 543.902575 -233.787708 
L 544.633181 -231.597119 
L 545.191303 -229.406529 
L 545.56143 -227.215939 
L 545.7 -225.02535 
L 545.606036 -222.83476 
L 545.359895 -220.64417 
L 545.071287 -218.453581 
L 544.801988 -216.262991 
L 544.526967 -214.072401 
L 544.081779 -211.881812 
L 543.080411 -209.691222 
L 540.982263 -207.500632 
L 537.445604 -205.310043 
L 532.713592 -203.119453 
L 527.587531 -200.928863 
L 522.950228 -198.738274 
L 519.298497 -196.547684 
L 516.659885 -194.357094 
L 514.807368 -192.166504 
L 513.479612 -189.975915 
L 512.473729 -187.785325 
L 511.658615 -185.594735 
L 510.970384 -183.404146 
L 510.395566 -181.213556 
L 509.938426 -179.022966 
L 509.591409 -176.832377 
L 509.327791 -174.641787 
L 509.114681 -172.451197 
L 508.930772 -170.260608 
L 508.773809 -168.070018 
L 508.652675 -165.879428 
L 508.572896 -163.688839 
L 508.529337 -161.498249 
L 508.509934 -159.307659 
L 508.503192 -157.11707 
L 508.502274 -154.92648 
L 508.504875 -152.73589 
L 508.511165 -150.5453 
L 508.521226 -148.354711 
L 508.532847 -146.164121 
L 508.541318 -143.973531 
L 508.542245 -141.782942 
L 508.535107 -139.592352 
L 508.523713 -137.401762 
L 508.513019 -135.211173 
L 508.505809 -133.020583 
z
" id="md42b5c2032" style="stroke:#666666;stroke-width:2;"/>
    </defs>
    <g clip-path="url(#pa7f05396c0)">
     <use style="fill:#96cac1;stroke:#666666;stroke-width:2;" x="0" xlink:href="#md42b5c2032" y="432"/>
    </g>
   </g>
   <g id="PolyCollection_6">
    <defs>
     <path d="M 601.509087 -106.578286 
L 601.490913 -106.578286 
L 601.480272 -109.127548 
L 601.462282 -111.676811 
L 601.436303 -114.226073 
L 601.404608 -116.775335 
L 601.372581 -119.324597 
L 601.346836 -121.87386 
L 601.331863 -124.423122 
L 601.327157 -126.972384 
L 601.326648 -129.521646 
L 601.320664 -132.070908 
L 601.299163 -134.620171 
L 601.2547 -137.169433 
L 601.184203 -139.718695 
L 601.089343 -142.267957 
L 600.975691 -144.81722 
L 600.850883 -147.366482 
L 600.721874 -149.915744 
L 600.591333 -152.465006 
L 600.454084 -155.014269 
L 600.295657 -157.563531 
L 600.094774 -160.112793 
L 599.828807 -162.662055 
L 599.478372 -165.211318 
L 599.027449 -167.76058 
L 598.458867 -170.309842 
L 597.747908 -172.859104 
L 596.857315 -175.408366 
L 595.736782 -177.957629 
L 594.329675 -180.506891 
L 592.586239 -183.056153 
L 590.476658 -185.605415 
L 587.996996 -188.154678 
L 585.171165 -190.70394 
L 582.061938 -193.253202 
L 578.797797 -195.802464 
L 575.600167 -198.351727 
L 572.7775 -200.900989 
L 570.660974 -203.450251 
L 569.494516 -205.999513 
L 569.334982 -208.548775 
L 570.026374 -211.098038 
L 571.267534 -213.6473 
L 572.729638 -216.196562 
L 574.154416 -218.745824 
L 575.393763 -221.295087 
L 576.399175 -223.844349 
L 577.191654 -226.393611 
L 577.832646 -228.942873 
L 578.39826 -231.492136 
L 578.95365 -234.041398 
L 579.531979 -236.59066 
L 580.128297 -239.139922 
L 580.712897 -241.689185 
L 581.2558 -244.238447 
L 581.7467 -246.787709 
L 582.199855 -249.336971 
L 582.645546 -251.886233 
L 583.117208 -254.435496 
L 583.641022 -256.984758 
L 584.227782 -259.53402 
L 584.864712 -262.083282 
L 585.510756 -264.632545 
L 586.10554 -267.181807 
L 586.597139 -269.731069 
L 586.975852 -272.280331 
L 587.288059 -274.829594 
L 587.61502 -277.378856 
L 588.029845 -279.928118 
L 588.563653 -282.47738 
L 589.201847 -285.026643 
L 589.905716 -287.575905 
L 590.638102 -290.125167 
L 591.375608 -292.674429 
L 592.105253 -295.223691 
L 592.815696 -297.772954 
L 593.493968 -300.322216 
L 594.130619 -302.871478 
L 594.728033 -305.42074 
L 595.304528 -307.970003 
L 595.889803 -310.519265 
L 596.511649 -313.068527 
L 597.178929 -315.617789 
L 597.870618 -318.167052 
L 598.54028 -320.716314 
L 599.136161 -323.265576 
L 599.62501 -325.814838 
L 600.004152 -328.364101 
L 600.295461 -330.913363 
L 600.5285 -333.462625 
L 600.725904 -336.011887 
L 600.898674 -338.561149 
L 601.049467 -341.110412 
L 601.17762 -343.659674 
L 601.282082 -346.208936 
L 601.362531 -348.758198 
L 601.42005 -351.307461 
L 601.457594 -353.856723 
L 601.479668 -356.405985 
L 601.491248 -358.955247 
L 601.508752 -358.955247 
L 601.508752 -358.955247 
L 601.520332 -356.405985 
L 601.542406 -353.856723 
L 601.57995 -351.307461 
L 601.637469 -348.758198 
L 601.717918 -346.208936 
L 601.82238 -343.659674 
L 601.950533 -341.110412 
L 602.101326 -338.561149 
L 602.274096 -336.011887 
L 602.4715 -333.462625 
L 602.704539 -330.913363 
L 602.995848 -328.364101 
L 603.37499 -325.814838 
L 603.863839 -323.265576 
L 604.45972 -320.716314 
L 605.129382 -318.167052 
L 605.821071 -315.617789 
L 606.488351 -313.068527 
L 607.110197 -310.519265 
L 607.695472 -307.970003 
L 608.271967 -305.42074 
L 608.869381 -302.871478 
L 609.506032 -300.322216 
L 610.184304 -297.772954 
L 610.894747 -295.223691 
L 611.624392 -292.674429 
L 612.361898 -290.125167 
L 613.094284 -287.575905 
L 613.798153 -285.026643 
L 614.436347 -282.47738 
L 614.970155 -279.928118 
L 615.38498 -277.378856 
L 615.711941 -274.829594 
L 616.024148 -272.280331 
L 616.402861 -269.731069 
L 616.89446 -267.181807 
L 617.489244 -264.632545 
L 618.135288 -262.083282 
L 618.772218 -259.53402 
L 619.358978 -256.984758 
L 619.882792 -254.435496 
L 620.354454 -251.886233 
L 620.800145 -249.336971 
L 621.2533 -246.787709 
L 621.7442 -244.238447 
L 622.287103 -241.689185 
L 622.871703 -239.139922 
L 623.468021 -236.59066 
L 624.04635 -234.041398 
L 624.60174 -231.492136 
L 625.167354 -228.942873 
L 625.808346 -226.393611 
L 626.600825 -223.844349 
L 627.606237 -221.295087 
L 628.845584 -218.745824 
L 630.270362 -216.196562 
L 631.732466 -213.6473 
L 632.973626 -211.098038 
L 633.665018 -208.548775 
L 633.505484 -205.999513 
L 632.339026 -203.450251 
L 630.2225 -200.900989 
L 627.399833 -198.351727 
L 624.202203 -195.802464 
L 620.938062 -193.253202 
L 617.828835 -190.70394 
L 615.003004 -188.154678 
L 612.523342 -185.605415 
L 610.413761 -183.056153 
L 608.670325 -180.506891 
L 607.263218 -177.957629 
L 606.142685 -175.408366 
L 605.252092 -172.859104 
L 604.541133 -170.309842 
L 603.972551 -167.76058 
L 603.521628 -165.211318 
L 603.171193 -162.662055 
L 602.905226 -160.112793 
L 602.704343 -157.563531 
L 602.545916 -155.014269 
L 602.408667 -152.465006 
L 602.278126 -149.915744 
L 602.149117 -147.366482 
L 602.024309 -144.81722 
L 601.910657 -142.267957 
L 601.815797 -139.718695 
L 601.7453 -137.169433 
L 601.700837 -134.620171 
L 601.679336 -132.070908 
L 601.673352 -129.521646 
L 601.672843 -126.972384 
L 601.668137 -124.423122 
L 601.653164 -121.87386 
L 601.627419 -119.324597 
L 601.595392 -116.775335 
L 601.563697 -114.226073 
L 601.537718 -111.676811 
L 601.519728 -109.127548 
L 601.509087 -106.578286 
z
" id="ma15b3c82d2" style="stroke:#666666;stroke-width:2;"/>
    </defs>
    <g clip-path="url(#pa7f05396c0)">
     <use style="fill:#f6f6bc;stroke:#666666;stroke-width:2;" x="0" xlink:href="#ma15b3c82d2" y="432"/>
    </g>
   </g>
   <g id="line2d_12">
    <path clip-path="url(#pa7f05396c0)" d="M 136.5 309.639191 
L 136.5 84.016837 
" style="fill:none;stroke:#666666;stroke-linecap:round;stroke-width:2;"/>
   </g>
   <g id="line2d_13">
    <path clip-path="url(#pa7f05396c0)" d="M 136.5 204.3414 
L 136.5 128.7366 
" style="fill:none;stroke:#666666;stroke-linecap:round;stroke-width:6;"/>
   </g>
   <g id="line2d_14">
    <path clip-path="url(#pa7f05396c0)" d="M 229.5 333.246857 
L 229.5 85.215844 
" style="fill:none;stroke:#666666;stroke-linecap:round;stroke-width:2;"/>
   </g>
   <g id="line2d_15">
    <path clip-path="url(#pa7f05396c0)" d="M 229.5 225.904741 
L 229.5 154.101152 
" style="fill:none;stroke:#666666;stroke-linecap:round;stroke-width:6;"/>
   </g>
   <g id="line2d_16">
    <path clip-path="url(#pa7f05396c0)" d="M 322.5 289.640617 
L 322.5 90.197518 
" style="fill:none;stroke:#666666;stroke-linecap:round;stroke-width:2;"/>
   </g>
   <g id="line2d_17">
    <path clip-path="url(#pa7f05396c0)" d="M 322.5 213.895304 
L 322.5 162.725039 
" style="fill:none;stroke:#666666;stroke-linecap:round;stroke-width:6;"/>
   </g>
   <g id="line2d_18">
    <path clip-path="url(#pa7f05396c0)" d="M 415.5 292.120863 
L 415.5 82.591449 
" style="fill:none;stroke:#666666;stroke-linecap:round;stroke-width:2;"/>
   </g>
   <g id="line2d_19">
    <path clip-path="url(#pa7f05396c0)" d="M 415.5 211.858431 
L 415.5 155.717578 
" style="fill:none;stroke:#666666;stroke-linecap:round;stroke-width:6;"/>
   </g>
   <g id="line2d_20">
    <path clip-path="url(#pa7f05396c0)" d="M 508.5 261.072964 
L 508.5 121.987505 
" style="fill:none;stroke:#666666;stroke-linecap:round;stroke-width:2;"/>
   </g>
   <g id="line2d_21">
    <path clip-path="url(#pa7f05396c0)" d="M 508.5 215.713406 
L 508.5 178.19246 
" style="fill:none;stroke:#666666;stroke-linecap:round;stroke-width:6;"/>
   </g>
   <g id="line2d_22">
    <path clip-path="url(#pa7f05396c0)" d="M 601.5 307.098924 
L 601.5 90.85551 
" style="fill:none;stroke:#666666;stroke-linecap:round;stroke-width:2;"/>
   </g>
   <g id="line2d_23">
    <path clip-path="url(#pa7f05396c0)" d="M 601.5 225.26062 
L 601.5 170.515771 
" style="fill:none;stroke:#666666;stroke-linecap:round;stroke-width:6;"/>
   </g>
   <g id="patch_3">
    <path d="M 90 378 
L 90 51.84 
" style="fill:none;stroke:#262626;stroke-linecap:square;stroke-linejoin:miter;"/>
   </g>
   <g id="patch_4">
    <path d="M 648 378 
L 648 51.84 
" style="fill:none;stroke:#262626;stroke-linecap:square;stroke-linejoin:miter;"/>
   </g>
   <g id="patch_5">
    <path d="M 90 378 
L 648 378 
" style="fill:none;stroke:#262626;stroke-linecap:square;stroke-linejoin:miter;"/>
   </g>
   <g id="patch_6">
    <path d="M 90 51.84 
L 648 51.84 
" style="fill:none;stroke:#262626;stroke-linecap:square;stroke-linejoin:miter;"/>
   </g>
   <g id="PathCollection_1">
    <defs>
     <path d="M 0 2 
C 0.530406 2 1.03916 1.789267 1.414214 1.414214 
C 1.789267 1.03916 2 0.530406 2 0 
C 2 -0.530406 1.789267 -1.03916 1.414214 -1.414214 
C 1.03916 -1.789267 0.530406 -2 0 -2 
C -0.530406 -2 -1.03916 -1.789267 -1.414214 -1.414214 
C -1.789267 -1.03916 -2 -0.530406 -2 0 
C -2 0.530406 -1.789267 1.03916 -1.414214 1.414214 
C -1.03916 1.789267 -0.530406 2 0 2 
z
" id="m074267e3e2" style="stroke:#666666;stroke-width:0.8;"/>
    </defs>
    <g clip-path="url(#pa7f05396c0)">
     <use style="fill:#ffffff;stroke:#666666;stroke-width:0.8;" x="136.5" xlink:href="#m074267e3e2" y="164.596761"/>
    </g>
   </g>
   <g id="PathCollection_2">
    <g clip-path="url(#pa7f05396c0)">
     <use style="fill:#ffffff;stroke:#666666;stroke-width:0.8;" x="229.5" xlink:href="#m074267e3e2" y="192.120378"/>
    </g>
   </g>
   <g id="PathCollection_3">
    <g clip-path="url(#pa7f05396c0)">
     <use style="fill:#ffffff;stroke:#666666;stroke-width:0.8;" x="322.5" xlink:href="#m074267e3e2" y="191.743101"/>
    </g>
   </g>
   <g id="PathCollection_4">
    <g clip-path="url(#pa7f05396c0)">
     <use style="fill:#ffffff;stroke:#666666;stroke-width:0.8;" x="415.5" xlink:href="#m074267e3e2" y="185.221776"/>
    </g>
   </g>
   <g id="PathCollection_5">
    <g clip-path="url(#pa7f05396c0)">
     <use style="fill:#ffffff;stroke:#666666;stroke-width:0.8;" x="508.5" xlink:href="#m074267e3e2" y="198.580008"/>
    </g>
   </g>
   <g id="PathCollection_6">
    <g clip-path="url(#pa7f05396c0)">
     <use style="fill:#ffffff;stroke:#666666;stroke-width:0.8;" x="601.5" xlink:href="#m074267e3e2" y="202.062824"/>
    </g>
   </g>
  </g>
 </g>
 <defs>
  <clipPath id="pa7f05396c0">
   <rect height="326.16" width="558" x="90" y="51.84"/>
  </clipPath>
 </defs>
</svg>
